<svg width="52" height="50" viewBox="0 0 52 50" fill="none" xmlns="http://www.w3.org/2000/svg">
<rect width="50" height="50" fill="#849900"/>
<path fill-rule="evenodd" clip-rule="evenodd" d="M37.1692 13.4995C38.4962 15.4855 38.4962 18.2502 38.4962 23.7796C38.4962 26.3985 38.4962 28.3971 38.3552 29.9866L36.1539 28.6659L31.8664 26.0934L26.7215 34.6683L31.0089 37.2408L31.2517 37.3864C30.0203 37.5161 28.5346 37.5484 26.6851 37.5565V37.5592L24.5088 41.9118C23.7833 43.3627 21.7128 43.3627 20.9874 41.9118L18.8111 37.5592V37.5565C14.5636 37.538 12.2344 37.3914 10.4995 36.2321C9.63969 35.6577 8.90149 34.9195 8.32702 34.0597C7 32.0737 7 29.309 7 23.7796C7 18.2502 7 15.4855 8.32702 13.4995C8.90149 12.6397 9.63969 11.9015 10.4995 11.327C12.4855 10 15.2502 10 20.7796 10H24.7166C30.246 10 33.0107 10 34.9967 11.327C35.8565 11.9015 36.5947 12.6397 37.1692 13.4995ZM15.3447 17.1367L16.3334 29H29.3334L30.322 17.1367C30.3448 16.8623 29.9801 16.747 29.8411 16.9847L25.9427 23.6545C25.8313 23.845 25.5477 23.8173 25.4753 23.6088L23.0776 16.7034C22.9972 16.4717 22.6696 16.4717 22.5891 16.7034L20.1914 23.6088C20.119 23.8173 19.8354 23.845 19.724 23.6545L15.8256 16.9847C15.6867 16.747 15.3219 16.8623 15.3447 17.1367Z" fill="white"/>
<path d="M33.5814 32.9533L39.6279 36.5812L49 26.6045" stroke="white" stroke-width="3.02326" stroke-linecap="square"/>
</svg>
