<svg width="50" height="50" viewBox="0 0 50 50" fill="none" xmlns="http://www.w3.org/2000/svg">
<rect width="50" height="50" fill="#998A00"/>
<path fill-rule="evenodd" clip-rule="evenodd" d="M40.5202 24.7796C40.5202 19.2502 40.5202 16.4855 39.1932 14.4995C38.6187 13.6397 37.8805 12.9015 37.0208 12.327C35.0348 11 32.2701 11 26.7407 11H22.8036C17.2742 11 14.5095 11 12.5235 12.327C11.6637 12.9015 10.9255 13.6397 10.3511 14.4995C9.02405 16.4855 9.02405 19.2502 9.02405 24.7796C9.02405 30.309 9.02405 33.0737 10.3511 35.0597C10.9255 35.9195 11.6637 36.6577 12.5235 37.2321C14.2585 38.3914 16.5877 38.538 20.8351 38.5565V38.5592L23.0114 42.9118C23.7369 44.3627 25.8074 44.3627 26.5328 42.9118L28.7092 38.5592V38.5565C32.9566 38.538 35.2858 38.3914 37.0208 37.2321C37.8805 36.6577 38.6187 35.9195 39.1932 35.0597C40.5202 33.0737 40.5202 30.309 40.5202 24.7796ZM18.867 18.874C17.7798 18.874 16.8985 19.7554 16.8985 20.8425C16.8985 21.9297 17.7798 22.8111 18.867 22.8111H30.6781C31.7652 22.8111 32.6466 21.9297 32.6466 20.8425C32.6466 19.7554 31.7652 18.874 30.6781 18.874H18.867ZM18.867 26.7481C17.7798 26.7481 16.8985 27.6294 16.8985 28.7166C16.8985 29.8038 17.7798 30.6851 18.867 30.6851H24.7725C25.8597 30.6851 26.741 29.8038 26.741 28.7166C26.741 27.6294 25.8597 26.7481 24.7725 26.7481H18.867Z" fill="white"/>
</svg>
