<svg width="50" height="50" viewBox="0 0 50 50" fill="none" xmlns="http://www.w3.org/2000/svg">
<g clip-path="url(#clip0_646_242)">
<rect width="50" height="50" fill="#849900"/>
<rect width="50" height="50" fill="black" fill-opacity="0.3"/>
<path fill-rule="evenodd" clip-rule="evenodd" d="M37.1692 13.4995C38.4962 15.4855 38.4962 18.2502 38.4962 23.7796C38.4962 25.0019 38.4962 26.0891 38.4819 27.0626L36.1539 25.6659L31.8664 23.0934L26.7215 31.6683L31.0089 34.2408L34.6675 36.4359C32.9662 37.4091 30.6697 37.5391 26.6851 37.5565V37.5592L24.5088 41.9118C23.7833 43.3627 21.7128 43.3627 20.9874 41.9118L18.8111 37.5592V37.5565C14.5636 37.538 12.2344 37.3914 10.4995 36.2321C9.63969 35.6577 8.90149 34.9195 8.32702 34.0597C7 32.0737 7 29.309 7 23.7796C7 18.2502 7 15.4855 8.32702 13.4995C8.90149 12.6397 9.63969 11.9015 10.4995 11.327C12.4855 10 15.2502 10 20.7796 10H24.7166C30.246 10 33.0107 10 34.9967 11.327C35.8565 11.9015 36.5947 12.6397 37.1692 13.4995ZM14.8744 19.8425C14.8744 18.7554 15.7558 17.874 16.8429 17.874H28.654C29.7412 17.874 30.6225 18.7554 30.6225 19.8425C30.6225 20.9297 29.7412 21.8111 28.654 21.8111H16.8429C15.7558 21.8111 14.8744 20.9297 14.8744 19.8425ZM14.8744 27.7166C14.8744 26.6294 15.7558 25.7481 16.8429 25.7481H22.7485C23.8356 25.7481 24.717 26.6294 24.717 27.7166C24.717 28.8038 23.8356 29.6851 22.7485 29.6851H16.8429C15.7558 29.6851 14.8744 28.8038 14.8744 27.7166Z" fill="white"/>
<path d="M33.5814 29.9533L39.6279 33.5812L49 23.6045" stroke="white" stroke-width="3.02326" stroke-linecap="square"/>
</g>
<defs>
<clipPath id="clip0_646_242">
<rect width="50" height="50" fill="white"/>
</clipPath>
</defs>
</svg>
