<svg width="50" height="50" viewBox="0 0 50 50" fill="none" xmlns="http://www.w3.org/2000/svg">
<rect width="50" height="50" fill="#998A00"/>
<rect width="50" height="50" fill="black" fill-opacity="0.3"/>
<path fill-rule="evenodd" clip-rule="evenodd" d="M40.4962 22.7796C40.4962 17.2502 40.4962 14.4855 39.1692 12.4995C38.5947 11.6397 37.8565 10.9015 36.9967 10.327C35.0107 9 32.246 9 26.7166 9H22.7796C17.2502 9 14.4855 9 12.4995 10.327C11.6397 10.9015 10.9015 11.6397 10.327 12.4995C9 14.4855 9 17.2502 9 22.7796C9 28.309 9 31.0737 10.327 33.0597C10.9015 33.9195 11.6397 34.6577 12.4995 35.2321C14.2344 36.3914 16.5636 36.538 20.8111 36.5565V36.5592L22.9874 40.9118C23.7128 42.3627 25.7833 42.3627 26.5088 40.9118L28.6851 36.5592V36.5565C32.9326 36.538 35.2618 36.3914 36.9967 35.2321C37.8565 34.6577 38.5947 33.9195 39.1692 33.0597C40.4962 31.0737 40.4962 28.309 40.4962 22.7796ZM18.3334 28L17.3447 16.1367C17.3219 15.8623 17.6867 15.747 17.8256 15.9847L21.724 22.6545C21.8354 22.845 22.119 22.8173 22.1914 22.6088L24.5891 15.7034C24.6696 15.4717 24.9972 15.4717 25.0776 15.7034L27.4753 22.6088C27.5477 22.8173 27.8313 22.845 27.9427 22.6545L31.8411 15.9847C31.9801 15.747 32.3448 15.8623 32.322 16.1367L31.3334 28H18.3334Z" fill="white"/>
</svg>
