<svg width="50" height="50" viewBox="0 0 50 50" fill="none" xmlns="http://www.w3.org/2000/svg">
<rect width="50" height="50" fill="#990000"/>
<path fill-rule="evenodd" clip-rule="evenodd" d="M38.4821 20.513C38.4321 17.0724 38.2045 15.0489 37.1692 13.4995C36.5947 12.6397 35.8565 11.9015 34.9967 11.327C33.0107 10 30.246 10 24.7166 10H20.7796C15.2502 10 12.4855 10 10.4995 11.327C9.63969 11.9015 8.90149 12.6397 8.32702 13.4995C7 15.4855 7 18.2502 7 23.7796C7 29.309 7 32.0737 8.32702 34.0597C8.90149 34.9195 9.63969 35.6577 10.4995 36.2321C12.2344 37.3914 14.5636 37.538 18.8111 37.5565V37.5592L20.9874 41.9118C21.7128 43.3627 23.7833 43.3627 24.5088 41.9118L25.683 39.5633C24.0055 37.4993 23 34.8671 23 32C23 31.1867 23.0809 30.3924 23.2351 29.6245C23.0795 29.6641 22.9164 29.6851 22.7485 29.6851H16.8429C15.7558 29.6851 14.8744 28.8038 14.8744 27.7166C14.8744 26.6294 15.7558 25.7481 16.8429 25.7481H22.7485C23.389 25.7481 23.9581 26.054 24.3175 26.5277C25.3121 24.5902 26.8183 22.9585 28.6577 21.8111C28.6565 21.8111 28.6552 21.8111 28.654 21.8111H16.8429C15.7558 21.8111 14.8744 20.9297 14.8744 19.8425C14.8744 18.7554 15.7558 17.874 16.8429 17.874H28.654C29.7412 17.874 30.6225 18.7554 30.6225 19.8425C30.6225 20.2614 30.4917 20.6496 30.2688 20.9687C31.7205 20.3453 33.3199 20 35 20C36.211 20 37.38 20.1794 38.4821 20.513Z" fill="white"/>
<path d="M35 33.0883V26M35 38.0184V38.6577" stroke="white" stroke-width="3" stroke-linecap="round" stroke-linejoin="round"/>
<circle cx="35" cy="32" r="11.5" stroke="white"/>
</svg>
