<svg width="50" height="50" viewBox="0 0 50 50" fill="none" xmlns="http://www.w3.org/2000/svg">
<rect width="50" height="50" fill="#006B99"/>
<rect width="50" height="50" fill="black" fill-opacity="0.3"/>
<path fill-rule="evenodd" clip-rule="evenodd" d="M17.8225 35.4782C17.9687 31.5955 20.0074 28.1972 23.0429 26.179C23.0402 23.0494 22.9945 21.4181 22.1986 20.2269C21.833 19.6798 21.3632 19.21 20.8161 18.8445C19.5523 18 17.7929 18 14.2742 18H11.7688C8.25012 18 6.49076 18 5.22693 18.8445C4.6798 19.21 4.21004 19.6798 3.84446 20.2269C3 21.4908 3 23.2501 3 26.7688C3 30.2875 3 32.0469 3.84446 33.3107C4.21004 33.8578 4.6798 34.3276 5.22693 34.6932C6.33099 35.4309 7.81321 35.5242 10.5161 35.5359V35.5377L11.9011 38.3075C12.3627 39.2308 13.6803 39.2308 14.142 38.3075L15.5269 35.5377V35.5359C16.4135 35.5321 17.1688 35.5194 17.8225 35.4782ZM6 24C6 23.4477 6.44772 23 7 23H19C19.5523 23 20 23.4477 20 24C20 24.5523 19.5523 25 19 25H7C6.44772 25 6 24.5523 6 24ZM6 30C6 29.4477 6.44772 29 7 29H13C13.5523 29 14 29.4477 14 30C14 30.5523 13.5523 31 13 31H7C6.44772 31 6 30.5523 6 30Z" fill="white"/>
<circle cx="29.3032" cy="35.7188" r="11.8851" stroke="white" stroke-width="0.792343"/>
<path fill-rule="evenodd" clip-rule="evenodd" d="M35.4344 31.4302H22.5682V33.5745C23.3578 33.5745 23.9978 34.2146 23.9978 35.0041V37.8632C23.9978 39.885 23.9978 40.8958 24.6259 41.5239C25.2539 42.152 26.2648 42.152 28.2865 42.152H29.7161C31.7378 42.152 32.7487 42.152 33.3767 41.5239C34.0048 40.8958 34.0048 39.885 34.0048 37.8632V35.0041C34.0048 34.2146 34.6449 33.5745 35.4344 33.5745V31.4302ZM26.7469 35.7185C26.7469 35.3238 26.4268 35.0038 26.0321 35.0038C25.6373 35.0038 25.3173 35.3238 25.3173 35.7185V39.1825C25.3173 39.5773 25.6373 39.8973 26.0321 39.8973C26.4268 39.8973 26.7469 39.5773 26.7469 39.1825V35.7185ZM29.7161 35.7185C29.7161 35.3238 29.3961 35.0038 29.0014 35.0038C28.6066 35.0038 28.2866 35.3238 28.2866 35.7185V39.1825C28.2866 39.5773 28.6066 39.8973 29.0014 39.8973C29.3961 39.8973 29.7161 39.5773 29.7161 39.1825V35.7185ZM32.6851 35.7185C32.6851 35.3238 32.3651 35.0038 31.9703 35.0038C31.5755 35.0038 31.2555 35.3238 31.2555 35.7185V39.1825C31.2555 39.5773 31.5755 39.8973 31.9703 39.8973C32.3651 39.8973 32.6851 39.5773 32.6851 39.1825V35.7185Z" fill="white"/>
<path d="M27.6204 29.5505C27.7018 29.4745 27.8813 29.4074 28.1309 29.3595C28.3806 29.3116 28.6865 29.2856 29.0012 29.2856C29.3159 29.2856 29.6218 29.3116 29.8715 29.3595C30.1211 29.4074 30.3006 29.4745 30.3821 29.5505" stroke="white" stroke-width="1.42957" stroke-linecap="round"/>
<path d="M22.0882 4.05838L23.0087 15.1048H35.1135L36.034 4.05839C36.0553 3.80291 35.7157 3.69559 35.5863 3.91692L31.9564 10.1273C31.8526 10.3048 31.5885 10.279 31.5211 10.0848L29.2885 3.65494C29.2136 3.43925 28.9086 3.43925 28.8337 3.65494L26.6011 10.0848C26.5337 10.279 26.2696 10.3048 26.1659 10.1273L22.5359 3.91692C22.4066 3.69559 22.0669 3.80291 22.0882 4.05838Z" fill="white"/>
<path d="M39.7507 24.4868L39.8529 25.0833L39.1915 25.1967L39.1468 24.5271L39.7507 24.4868ZM43.2296 17.6872L43.8193 17.5508L43.8193 17.5508L43.2296 17.6872ZM39.5878 13.4447C39.3422 13.2179 39.327 12.835 39.5537 12.5894C39.7805 12.3438 40.1634 12.3286 40.409 12.5553L39.5878 13.4447ZM45.0667 24.1894L39.8529 25.0833L39.6484 23.8902L44.8622 22.9963L45.0667 24.1894ZM39.1468 24.5271L38.8123 19.5154L40.0201 19.4348L40.3546 24.4465L39.1468 24.5271ZM39.7507 24.4868C39.3668 24.0189 39.3667 24.0189 39.3666 24.019C39.3666 24.019 39.3665 24.0191 39.3665 24.0191C39.3664 24.0191 39.3664 24.0191 39.3665 24.0191C39.3667 24.0189 39.3671 24.0186 39.3678 24.018C39.3691 24.0169 39.3715 24.015 39.3748 24.0122C39.3814 24.0067 39.3918 23.9979 39.4058 23.986C39.4337 23.9622 39.4758 23.9259 39.5298 23.878C39.6379 23.782 39.7934 23.6398 39.9784 23.4584C40.3496 23.0946 40.8344 22.5786 41.2938 21.967C42.2396 20.708 42.959 19.2033 42.64 17.8236L43.8193 17.5508C44.2671 19.4871 43.2471 21.3822 42.2616 22.694C41.7555 23.3678 41.2267 23.9299 40.8257 24.3229C40.6247 24.5199 40.4545 24.6757 40.3334 24.7832C40.2728 24.837 40.2245 24.8788 40.1906 24.9076C40.1736 24.922 40.1603 24.9333 40.1509 24.9411C40.1462 24.9451 40.1424 24.9482 40.1397 24.9504C40.1383 24.9516 40.1372 24.9525 40.1364 24.9532C40.1359 24.9535 40.1356 24.9538 40.1353 24.9541C40.1351 24.9542 40.1349 24.9544 40.1349 24.9544C40.1347 24.9545 40.1346 24.9547 39.7507 24.4868ZM42.64 17.8236C42.4235 16.8877 41.6971 15.8086 40.9598 14.9171C40.6003 14.4824 40.2551 14.1121 39.9998 13.8506C39.8723 13.7201 39.7678 13.6172 39.6959 13.5476C39.6599 13.5128 39.6321 13.4864 39.6137 13.469C39.6045 13.4603 39.5976 13.4538 39.5933 13.4498C39.5911 13.4477 39.5895 13.4463 39.5886 13.4454C39.5881 13.445 39.5878 13.4447 39.5877 13.4446C39.5876 13.4445 39.5876 13.4445 39.5876 13.4445C39.5876 13.4445 39.5877 13.4446 39.5877 13.4446C39.5877 13.4446 39.5878 13.4447 39.9984 13C40.409 12.5553 40.4091 12.5554 40.4091 12.5555C40.4092 12.5556 40.4093 12.5557 40.4094 12.5557C40.4096 12.5559 40.4098 12.5561 40.4101 12.5564C40.4106 12.5568 40.4113 12.5575 40.4121 12.5583C40.4138 12.5599 40.4162 12.5621 40.4192 12.5649C40.4252 12.5705 40.4337 12.5785 40.4446 12.5888C40.4665 12.6093 40.4978 12.6392 40.5375 12.6776C40.6168 12.7543 40.7295 12.8653 40.8659 13.005C41.1382 13.2838 41.5068 13.6792 41.8926 14.1456C42.6456 15.0561 43.5348 16.3206 43.8193 17.5508L42.64 17.8236Z" fill="white"/>
</svg>
