<svg width="50" height="50" viewBox="0 0 50 50" fill="none" xmlns="http://www.w3.org/2000/svg">
<rect width="50" height="50" fill="#998A00"/>
<path d="M26.4059 34.2856C26.4059 36.2663 24.3272 37.9999 21.763 37.9999C19.1989 37.9999 17.1202 36.2663 17.1202 34.2856H21.5972H26.4059Z" fill="white"/>
<path fill-rule="evenodd" clip-rule="evenodd" d="M29.4167 16.7797C28.3716 14.1108 26.357 12 21.7463 12C14.5318 12 13.6583 17.2287 12.9273 21.6047C12.6562 23.2271 12.4048 24.7323 11.857 25.8103C11.7781 25.9655 11.7048 26.1119 11.6347 26.2517C11.1944 27.1308 10.8858 27.747 10.1617 28.6316C9.46243 29.4857 8.28968 30.3972 7.27805 31.1033C6.76015 31.4648 7.01343 32.3438 7.64499 32.3438H22.7966C22.2819 30.9944 22 29.5301 22 28C22 22.9616 25.0566 18.6371 29.4167 16.7797Z" fill="white"/>
<path d="M34.1905 29.1056V21.9048M34.1905 34.114V34.7634" stroke="white" stroke-width="3.04762" stroke-linecap="round" stroke-linejoin="round"/>
<circle cx="34.1905" cy="28.0001" r="11.581" stroke="white" stroke-width="1.21905"/>
</svg>
