<svg width="50" height="50" viewBox="0 0 50 50" fill="none" xmlns="http://www.w3.org/2000/svg">
<rect width="50" height="50" fill="#849900"/>
<path fill-rule="evenodd" clip-rule="evenodd" d="M13 10.3999C11.0118 10.3999 9.39999 12.0117 9.39999 13.9999V36.7999C9.39999 38.7881 11.0118 40.3999 13 40.3999H23.566C20.7599 37.833 19 34.1414 19 30.0387C19 22.5669 24.8371 16.4585 32.2 16.0246V13.9999C32.2 12.0117 30.5882 10.3999 28.6 10.3999H13Z" fill="white"/>
<circle cx="32.7406" cy="29.7406" r="14.2406" stroke="white"/>
<path d="M29.2726 27.0552V32.7656H28.2298L25.7455 29.1715H25.7036V32.7656H24.4963V27.0552H25.5559L28.0207 30.6465H28.0709V27.0552H29.2726ZM30.2701 32.7656V27.0552H34.1179V28.0507H31.4774V29.4113H33.92V30.4067H31.4774V31.7702H34.1291V32.7656H30.2701ZM36.3632 32.7656L34.7293 27.0552H36.0481L36.9933 31.023H37.0407L38.0836 27.0552H39.2128L40.2528 31.0313H40.303L41.2482 27.0552H42.5671L40.9332 32.7656H39.7565L38.6691 29.0321H38.6245L37.5398 32.7656H36.3632Z" fill="white"/>
</svg>
