<svg width="50" height="50" viewBox="0 0 50 50" fill="none" xmlns="http://www.w3.org/2000/svg">
<rect width="50" height="50" fill="#006B99"/>
<rect width="50" height="50" fill="black" fill-opacity="0.3"/>
<path fill-rule="evenodd" clip-rule="evenodd" d="M7.85244 18C6.27708 18 5 19.2771 5 20.8524V38.9179C5 40.4932 6.27708 41.7703 7.85243 41.7703H14.0246C12.6338 39.846 11.8141 37.4818 11.8141 34.9261C11.8141 28.6153 16.8119 23.4719 23.0654 23.2379V20.8524C23.0654 19.2771 21.7883 18 20.213 18H7.85244Z" fill="white"/>
<circle cx="23.3031" cy="34.7188" r="11.8851" stroke="white" stroke-width="0.792343"/>
<path fill-rule="evenodd" clip-rule="evenodd" d="M29.4343 30.4302H16.5682V32.5745C17.3577 32.5745 17.9977 33.2146 17.9977 34.0041V36.8632C17.9977 38.885 17.9977 39.8958 18.6258 40.5239C19.2539 41.152 20.2647 41.152 22.2865 41.152H23.716C25.7378 41.152 26.7486 41.152 27.3767 40.5239C28.0047 39.8958 28.0047 38.885 28.0047 36.8632V34.0041C28.0047 33.2146 28.6448 32.5745 29.4343 32.5745V30.4302ZM20.7468 34.7185C20.7468 34.3238 20.4268 34.0038 20.032 34.0038C19.6372 34.0038 19.3172 34.3238 19.3172 34.7185V38.1825C19.3172 38.5773 19.6372 38.8973 20.032 38.8973C20.4268 38.8973 20.7468 38.5773 20.7468 38.1825V34.7185ZM23.7161 34.7185C23.7161 34.3238 23.3961 34.0038 23.0013 34.0038C22.6065 34.0038 22.2865 34.3238 22.2865 34.7185V38.1825C22.2865 38.5773 22.6065 38.8973 23.0013 38.8973C23.3961 38.8973 23.7161 38.5773 23.7161 38.1825V34.7185ZM26.685 34.7185C26.685 34.3238 26.365 34.0038 25.9702 34.0038C25.5755 34.0038 25.2554 34.3238 25.2554 34.7185V38.1825C25.2554 38.5773 25.5755 38.8973 25.9702 38.8973C26.365 38.8973 26.685 38.5773 26.685 38.1825V34.7185Z" fill="white"/>
<path d="M21.6204 28.5505C21.7018 28.4745 21.8813 28.4074 22.1309 28.3595C22.3806 28.3116 22.6865 28.2856 23.0012 28.2856C23.3159 28.2856 23.6218 28.3116 23.8715 28.3595C24.1211 28.4074 24.3006 28.4745 24.3821 28.5505" stroke="white" stroke-width="1.42957" stroke-linecap="round"/>
<path d="M22.0882 4.05838L23.0087 15.1048H35.1135L36.034 4.05839C36.0553 3.80291 35.7157 3.69559 35.5863 3.91692L31.9564 10.1273C31.8526 10.3048 31.5885 10.279 31.5211 10.0848L29.2885 3.65494C29.2136 3.43925 28.9086 3.43925 28.8337 3.65494L26.6011 10.0848C26.5337 10.279 26.2696 10.3048 26.1659 10.1273L22.5359 3.91692C22.4066 3.69559 22.0669 3.80291 22.0882 4.05838Z" fill="white"/>
<path d="M39.7507 24.4868L39.8529 25.0833L39.1915 25.1967L39.1468 24.5271L39.7507 24.4868ZM43.2296 17.6872L43.8193 17.5508L43.8193 17.5508L43.2296 17.6872ZM39.5878 13.4447C39.3422 13.2179 39.327 12.835 39.5537 12.5894C39.7805 12.3438 40.1634 12.3286 40.409 12.5553L39.5878 13.4447ZM45.0667 24.1894L39.8529 25.0833L39.6484 23.8902L44.8622 22.9963L45.0667 24.1894ZM39.1468 24.5271L38.8123 19.5154L40.0201 19.4348L40.3546 24.4465L39.1468 24.5271ZM39.7507 24.4868C39.3668 24.0189 39.3667 24.0189 39.3666 24.019C39.3666 24.019 39.3665 24.0191 39.3665 24.0191C39.3664 24.0191 39.3664 24.0191 39.3665 24.0191C39.3667 24.0189 39.3671 24.0186 39.3678 24.018C39.3691 24.0169 39.3715 24.015 39.3748 24.0122C39.3814 24.0067 39.3918 23.9979 39.4058 23.986C39.4337 23.9622 39.4758 23.9259 39.5298 23.878C39.6379 23.782 39.7934 23.6398 39.9784 23.4584C40.3496 23.0946 40.8344 22.5786 41.2938 21.967C42.2396 20.708 42.959 19.2033 42.64 17.8236L43.8193 17.5508C44.2671 19.4871 43.2471 21.3822 42.2616 22.694C41.7555 23.3678 41.2267 23.9299 40.8257 24.3229C40.6247 24.5199 40.4545 24.6757 40.3334 24.7832C40.2728 24.837 40.2245 24.8788 40.1906 24.9076C40.1736 24.922 40.1603 24.9333 40.1509 24.9411C40.1462 24.9451 40.1424 24.9482 40.1397 24.9504C40.1383 24.9516 40.1372 24.9525 40.1364 24.9532C40.1359 24.9535 40.1356 24.9538 40.1353 24.9541C40.1351 24.9542 40.1349 24.9544 40.1349 24.9544C40.1347 24.9545 40.1346 24.9547 39.7507 24.4868ZM42.64 17.8236C42.4235 16.8877 41.6971 15.8086 40.9598 14.9171C40.6003 14.4824 40.2551 14.1121 39.9998 13.8506C39.8723 13.7201 39.7678 13.6172 39.6959 13.5476C39.6599 13.5128 39.6321 13.4864 39.6137 13.469C39.6045 13.4603 39.5976 13.4538 39.5933 13.4498C39.5911 13.4477 39.5895 13.4463 39.5886 13.4454C39.5881 13.445 39.5878 13.4447 39.5877 13.4446C39.5876 13.4445 39.5876 13.4445 39.5876 13.4445C39.5876 13.4445 39.5877 13.4446 39.5877 13.4446C39.5877 13.4446 39.5878 13.4447 39.9984 13C40.409 12.5553 40.4091 12.5554 40.4091 12.5555C40.4092 12.5556 40.4093 12.5557 40.4094 12.5557C40.4096 12.5559 40.4098 12.5561 40.4101 12.5564C40.4106 12.5568 40.4113 12.5575 40.4121 12.5583C40.4138 12.5599 40.4162 12.5621 40.4192 12.5649C40.4252 12.5705 40.4337 12.5785 40.4446 12.5888C40.4665 12.6093 40.4978 12.6392 40.5375 12.6776C40.6168 12.7543 40.7295 12.8653 40.8659 13.005C41.1382 13.2838 41.5068 13.6792 41.8926 14.1456C42.6456 15.0561 43.5348 16.3206 43.8193 17.5508L42.64 17.8236Z" fill="white"/>
</svg>
