<svg width="50" height="50" viewBox="0 0 50 50" fill="none" xmlns="http://www.w3.org/2000/svg">
<rect width="50" height="50" fill="#990000"/>
<path fill-rule="evenodd" clip-rule="evenodd" d="M13 10.3999C11.0118 10.3999 9.40002 12.0117 9.40002 13.9999V36.7999C9.40002 38.7881 11.0118 40.3999 13 40.3999H20.7898C19.0345 37.9713 18 34.9874 18 31.7619C18 23.7973 24.3076 17.3059 32.2 17.0105V13.9999C32.2 12.0117 30.5882 10.3999 28.6 10.3999H13Z" fill="white"/>
<circle cx="32.5" cy="31.5" r="15" stroke="white"/>
<path fill-rule="evenodd" clip-rule="evenodd" d="M40.2381 26.0879H24V28.7942C24.9965 28.7942 25.8042 29.602 25.8042 30.5985V34.2069C25.8042 36.7585 25.8042 38.0343 26.5969 38.827C27.3896 39.6196 28.6654 39.6196 31.2169 39.6196H33.0212C35.5727 39.6196 36.8485 39.6196 37.6412 38.827C38.4339 38.0343 38.4339 36.7585 38.4339 34.2069V30.5985C38.4339 29.602 39.2416 28.7942 40.2381 28.7942V26.0879ZM29.2738 31.5C29.2738 31.0018 28.8699 30.5979 28.3717 30.5979C27.8735 30.5979 27.4696 31.0018 27.4696 31.5V35.8718C27.4696 36.37 27.8735 36.7739 28.3717 36.7739C28.8699 36.7739 29.2738 36.37 29.2738 35.8718V31.5ZM33.0213 31.5C33.0213 31.0018 32.6174 30.5979 32.1192 30.5979C31.621 30.5979 31.2171 31.0018 31.2171 31.5V35.8718C31.2171 36.37 31.621 36.7739 32.1192 36.7739C32.6174 36.7739 33.0213 36.37 33.0213 35.8718V31.5ZM36.7683 31.5C36.7683 31.0018 36.3644 30.5979 35.8662 30.5979C35.368 30.5979 34.9641 31.0018 34.9641 31.5V35.8718C34.9641 36.37 35.368 36.7739 35.8662 36.7739C36.3644 36.7739 36.7683 36.37 36.7683 35.8718V31.5Z" fill="white"/>
<path d="M30.3762 23.7157C30.479 23.6198 30.7055 23.535 31.0206 23.4746C31.3357 23.4141 31.7218 23.3813 32.119 23.3813C32.5162 23.3813 32.9022 23.4141 33.2173 23.4746C33.5324 23.535 33.7589 23.6198 33.8617 23.7157" stroke="white" stroke-width="1.80423" stroke-linecap="round"/>
</svg>
