<svg width="50" height="50" viewBox="0 0 50 50" fill="none" xmlns="http://www.w3.org/2000/svg">
<g clip-path="url(#clip0_650_258)">
<rect width="50" height="50" fill="#849900"/>
<rect width="50" height="50" fill="black" fill-opacity="0.3"/>
<path fill-rule="evenodd" clip-rule="evenodd" d="M13 10.3999C11.0118 10.3999 9.40002 12.0117 9.40002 13.9999V36.7999C9.40002 38.7881 11.0118 40.3999 13 40.3999H26.5569C22.5986 37.6995 20 33.1532 20 28C20 20.6983 25.2171 14.6152 32.127 13.2749C31.7915 11.6342 30.3399 10.3999 28.6 10.3999H13Z" fill="white"/>
<circle cx="35" cy="28" r="15.5" stroke="white"/>
<path d="M42.7243 22.2456C41.8738 21.4151 40.6987 21 39.1986 21C38.7834 21 38.3597 21.072 37.9279 21.2159C37.4959 21.3599 37.094 21.5542 36.7227 21.7986C36.3509 22.0429 36.0314 22.2724 35.7633 22.4866C35.4956 22.7009 35.241 22.9286 35 23.1696C34.7589 22.9286 34.5044 22.7009 34.2366 22.4866C33.9687 22.2724 33.649 22.043 33.2773 21.7986C32.9056 21.554 32.5038 21.3599 32.0719 21.2159C31.6401 21.072 31.2164 21 30.8013 21C29.3012 21 28.1261 21.4152 27.2757 22.2456C26.4252 23.0759 26 24.2276 26 25.7009C26 26.1495 26.0788 26.6117 26.2361 27.087C26.3934 27.5624 26.5727 27.9676 26.7735 28.3024C26.9743 28.6371 27.2021 28.9637 27.4565 29.2817C27.711 29.5999 27.897 29.819 28.014 29.9396C28.1312 30.06 28.2233 30.1471 28.2902 30.2006L34.558 36.2476C34.6786 36.3682 34.8259 36.4286 35 36.4286C35.1741 36.4286 35.3215 36.3682 35.442 36.2478L41.6998 30.2209C43.2333 28.6875 44 27.1808 44 25.7009C44 24.2276 43.5747 23.0759 42.7243 22.2456Z" fill="white"/>
</g>
<defs>
<clipPath id="clip0_650_258">
<rect width="50" height="50" fill="white"/>
</clipPath>
</defs>
</svg>
