<svg width="50" height="50" viewBox="0 0 50 50" fill="none" xmlns="http://www.w3.org/2000/svg">
<rect width="50" height="50" fill="#998A00"/>
<rect width="50" height="50" fill="black" fill-opacity="0.3"/>
<path fill-rule="evenodd" clip-rule="evenodd" d="M38.406 25.0187L40.1899 22.2865C40.6052 21.6504 40.8129 21.3323 40.9269 21.0306C41.3331 19.9562 41.0815 18.7439 40.2813 17.9199C40.0565 17.6885 39.7395 17.4793 39.1053 17.0611C38.4658 16.6393 38.1461 16.4284 37.8429 16.3126C36.7632 15.9003 35.5422 16.1537 34.7158 16.9617C34.4837 17.1886 34.2743 17.5093 33.8555 18.1507L33.8555 18.1507L33.8555 18.1507L32.0679 20.8887C33.7708 22.796 35.9573 24.2264 38.406 25.0187ZM30.401 23.4417L23.4697 34.058L23.4697 34.058C22.9843 34.8015 22.7415 35.1732 22.6185 35.593C22.4954 36.0128 22.4991 36.4567 22.5063 37.3446L22.5384 41.2787C22.5425 41.781 22.5445 42.0322 22.7103 42.1407C22.876 42.2493 23.1071 42.1508 23.5692 41.9538L27.1527 40.4262C27.9737 40.0763 28.3842 39.9013 28.7211 39.6189C29.058 39.3364 29.302 38.9628 29.7899 38.2155L29.7899 38.2155L36.7385 27.5728C34.3434 26.6743 32.1805 25.2605 30.401 23.4417Z" fill="white"/>
<path fill-rule="evenodd" clip-rule="evenodd" d="M32.1846 13.6645L19.7181 32.4694C18.9448 33.6358 18.5581 34.2191 18.3616 34.8798C18.1652 35.5405 18.1702 36.2402 18.1804 37.6397L18.2005 40.3999H13C11.0117 40.3999 9.39996 38.7881 9.39996 36.7999V13.9999C9.39996 12.0117 11.0117 10.3999 13 10.3999H28.6C30.4751 10.3999 32.0154 11.8336 32.1846 13.6645Z" fill="white"/>
</svg>
