<svg width="50" height="50" viewBox="0 0 50 50" fill="none" xmlns="http://www.w3.org/2000/svg">
<rect width="50" height="50" fill="#990000"/>
<path fill-rule="evenodd" clip-rule="evenodd" d="M9.6 8.3999C7.61177 8.3999 6 10.0117 6 11.9999V34.7999C6 36.7881 7.61178 38.3999 9.6 38.3999H17.6509C15.7319 35.7609 14.6 32.5126 14.6 29C14.6 20.772 20.8108 13.9945 28.8 13.1001V11.9999C28.8 10.0117 27.1882 8.3999 25.2 8.3999H9.6Z" fill="white"/>
<mask id="path-2-inside-1_750_127" fill="white">
<path fill-rule="evenodd" clip-rule="evenodd" d="M30.5995 42.999C38.3312 42.999 44.599 36.7312 44.599 28.9995C44.599 21.2678 38.3312 15 30.5995 15C22.8678 15 16.6 21.2678 16.6 28.9995C16.6 36.7312 22.8678 42.999 30.5995 42.999ZM18.0943 29.7955V31.6364H22.3386V33H24.6057V31.6364H25.6113V29.7955H24.6057V24.2727H23.2761H22.3897H21.6057L18.0943 29.7955ZM22.3897 26.7273H22.3216L20.4295 29.7273V29.7955H22.3897V26.7273ZM28.3525 32.6889C28.9292 33.0526 29.6138 33.2358 30.4064 33.2386C31.1991 33.2386 31.8823 33.0582 32.4562 32.6974C33.0329 32.3338 33.4775 31.8097 33.79 31.125C34.1025 30.4403 34.2587 29.6165 34.2587 28.6534C34.2616 27.696 34.1067 26.8821 33.7942 26.2116C33.4817 25.5412 33.0371 25.0312 32.4604 24.6818C31.8837 24.3295 31.1991 24.1534 30.4064 24.1534C29.6138 24.1534 28.9292 24.3281 28.3525 24.6776C27.7786 25.027 27.3354 25.5369 27.0229 26.2074C26.7133 26.8778 26.557 27.6932 26.5542 28.6534C26.5513 29.6108 26.7062 30.4318 27.0187 31.1165C27.3312 31.8011 27.7758 32.3253 28.3525 32.6889ZM31.4121 30.6733C31.1508 31.0994 30.8155 31.3125 30.4064 31.3125C30.1337 31.3125 29.8908 31.2188 29.6777 31.0312C29.4675 30.8438 29.3027 30.554 29.1834 30.1619C29.0641 29.767 29.0059 29.2642 29.0087 28.6534C29.0144 27.7557 29.1465 27.0994 29.405 26.6847C29.6635 26.2699 29.9973 26.0625 30.4064 26.0625C30.6792 26.0625 30.9206 26.1548 31.1309 26.3395C31.3411 26.5213 31.5059 26.8026 31.6252 27.1832C31.7445 27.5639 31.8042 28.054 31.8042 28.6534C31.807 29.571 31.6763 30.2443 31.4121 30.6733ZM35.2857 29.7955V31.6364H39.53V33H41.7971V31.6364H42.8027V29.7955H41.7971V24.2727H40.4675H39.5812H38.7971L35.2857 29.7955ZM39.5812 26.7273H39.513L37.6209 29.7273V29.7955H39.5812V26.7273Z"/>
</mask>
<path fill-rule="evenodd" clip-rule="evenodd" d="M30.5995 42.999C38.3312 42.999 44.599 36.7312 44.599 28.9995C44.599 21.2678 38.3312 15 30.5995 15C22.8678 15 16.6 21.2678 16.6 28.9995C16.6 36.7312 22.8678 42.999 30.5995 42.999ZM18.0943 29.7955V31.6364H22.3386V33H24.6057V31.6364H25.6113V29.7955H24.6057V24.2727H23.2761H22.3897H21.6057L18.0943 29.7955ZM22.3897 26.7273H22.3216L20.4295 29.7273V29.7955H22.3897V26.7273ZM28.3525 32.6889C28.9292 33.0526 29.6138 33.2358 30.4064 33.2386C31.1991 33.2386 31.8823 33.0582 32.4562 32.6974C33.0329 32.3338 33.4775 31.8097 33.79 31.125C34.1025 30.4403 34.2587 29.6165 34.2587 28.6534C34.2616 27.696 34.1067 26.8821 33.7942 26.2116C33.4817 25.5412 33.0371 25.0312 32.4604 24.6818C31.8837 24.3295 31.1991 24.1534 30.4064 24.1534C29.6138 24.1534 28.9292 24.3281 28.3525 24.6776C27.7786 25.027 27.3354 25.5369 27.0229 26.2074C26.7133 26.8778 26.557 27.6932 26.5542 28.6534C26.5513 29.6108 26.7062 30.4318 27.0187 31.1165C27.3312 31.8011 27.7758 32.3253 28.3525 32.6889ZM31.4121 30.6733C31.1508 31.0994 30.8155 31.3125 30.4064 31.3125C30.1337 31.3125 29.8908 31.2188 29.6777 31.0312C29.4675 30.8438 29.3027 30.554 29.1834 30.1619C29.0641 29.767 29.0059 29.2642 29.0087 28.6534C29.0144 27.7557 29.1465 27.0994 29.405 26.6847C29.6635 26.2699 29.9973 26.0625 30.4064 26.0625C30.6792 26.0625 30.9206 26.1548 31.1309 26.3395C31.3411 26.5213 31.5059 26.8026 31.6252 27.1832C31.7445 27.5639 31.8042 28.054 31.8042 28.6534C31.807 29.571 31.6763 30.2443 31.4121 30.6733ZM35.2857 29.7955V31.6364H39.53V33H41.7971V31.6364H42.8027V29.7955H41.7971V24.2727H40.4675H39.5812H38.7971L35.2857 29.7955ZM39.5812 26.7273H39.513L37.6209 29.7273V29.7955H39.5812V26.7273Z" fill="white"/>
<path d="M18.0943 31.6364H16.6943V33.0363H18.0943V31.6364ZM18.0943 29.7955L16.9129 29.0443L16.6943 29.3881V29.7955H18.0943ZM22.3386 31.6364H23.7386V30.2364H22.3386V31.6364ZM22.3386 33H20.9387V34.4H22.3386V33ZM24.6057 33V34.4H26.0056V33H24.6057ZM24.6057 31.6364V30.2364H23.2057V31.6364H24.6057ZM25.6113 31.6364V33.0363H27.0113V31.6364H25.6113ZM25.6113 29.7955H27.0113V28.3955H25.6113V29.7955ZM24.6057 29.7955H23.2057V31.1954H24.6057V29.7955ZM24.6057 24.2727H26.0056V22.8728H24.6057V24.2727ZM21.6057 24.2727V22.8728H20.8368L20.4243 23.5216L21.6057 24.2727ZM22.3897 26.7273H23.7897V25.3273H22.3897V26.7273ZM22.3216 26.7273V25.3273H21.5494L21.1374 25.9805L22.3216 26.7273ZM20.4295 29.7273L19.2454 28.9805L19.0296 29.3227V29.7273H20.4295ZM20.4295 29.7955H19.0296V31.1954H20.4295V29.7955ZM22.3897 29.7955V31.1954H23.7897V29.7955H22.3897ZM30.4064 33.2386L30.4014 34.6386H30.4064V33.2386ZM28.3525 32.6889L29.0991 31.5047L29.0991 31.5047L28.3525 32.6889ZM32.4562 32.6974L33.2013 33.8826L33.2028 33.8816L32.4562 32.6974ZM33.79 31.125L32.5164 30.5437L32.5164 30.5437L33.79 31.125ZM34.2587 28.6534L32.8588 28.6493V28.6534H34.2587ZM33.7942 26.2116L35.0631 25.6202L35.0631 25.6202L33.7942 26.2116ZM32.4604 24.6818L31.7306 25.8765L31.7349 25.8791L32.4604 24.6818ZM28.3525 24.6776L27.627 23.4802L27.6244 23.4818L28.3525 24.6776ZM27.0229 26.2074L25.754 25.616L25.752 25.6204L27.0229 26.2074ZM26.5542 28.6534L27.9541 28.6576L27.9541 28.6576L26.5542 28.6534ZM27.0187 31.1165L25.7451 31.6978L25.7451 31.6978L27.0187 31.1165ZM31.4121 30.6733L30.2201 29.9391L30.2187 29.9414L31.4121 30.6733ZM29.6777 31.0312L28.7459 32.076L28.7529 32.0822L29.6777 31.0312ZM29.1834 30.1619L27.8433 30.5669L27.8441 30.5695L29.1834 30.1619ZM29.0087 28.6534L27.6088 28.6445L27.6088 28.6469L29.0087 28.6534ZM29.405 26.6847L28.2169 25.9441L28.2169 25.9442L29.405 26.6847ZM31.1309 26.3395L30.207 27.3913L30.2151 27.3984L31.1309 26.3395ZM31.6252 27.1832L30.2893 27.6019L30.2893 27.6019L31.6252 27.1832ZM31.8042 28.6534L30.4042 28.6534L30.4042 28.6577L31.8042 28.6534ZM35.2857 31.6364H33.8857V33.0363H35.2857V31.6364ZM35.2857 29.7955L34.1043 29.0443L33.8857 29.3881V29.7955H35.2857ZM39.53 31.6364H40.93V30.2364H39.53V31.6364ZM39.53 33H38.1301V34.4H39.53V33ZM41.7971 33V34.4H43.197V33H41.7971ZM41.7971 31.6364V30.2364H40.3971V31.6364H41.7971ZM42.8027 31.6364V33.0363H44.2027V31.6364H42.8027ZM42.8027 29.7955H44.2027V28.3955H42.8027V29.7955ZM41.7971 29.7955H40.3971V31.1954H41.7971V29.7955ZM41.7971 24.2727H43.197V22.8728H41.7971V24.2727ZM38.7971 24.2727V22.8728H38.0282L37.6157 23.5216L38.7971 24.2727ZM39.5812 26.7273H40.9811V25.3273H39.5812V26.7273ZM39.513 26.7273V25.3273H38.7408L38.3288 25.9805L39.513 26.7273ZM37.6209 29.7273L36.4368 28.9805L36.221 29.3227V29.7273H37.6209ZM37.6209 29.7955H36.221V31.1954H37.6209V29.7955ZM39.5812 29.7955V31.1954H40.9811V29.7955H39.5812ZM43.199 28.9995C43.199 35.9581 37.558 41.5991 30.5995 41.5991V44.399C39.1044 44.399 45.999 37.5044 45.999 28.9995H43.199ZM30.5995 16.4C37.558 16.4 43.199 22.041 43.199 28.9995H45.999C45.999 20.4946 39.1044 13.6 30.5995 13.6V16.4ZM17.9999 28.9995C17.9999 22.041 23.6409 16.4 30.5995 16.4V13.6C22.0946 13.6 15.2 20.4946 15.2 28.9995H17.9999ZM30.5995 41.5991C23.6409 41.5991 17.9999 35.9581 17.9999 28.9995H15.2C15.2 37.5044 22.0946 44.399 30.5995 44.399V41.5991ZM19.4942 31.6364V29.7955H16.6943V31.6364H19.4942ZM22.3386 30.2364H18.0943V33.0363H22.3386V30.2364ZM23.7386 33V31.6364H20.9387V33H23.7386ZM24.6057 31.6H22.3386V34.4H24.6057V31.6ZM23.2057 31.6364V33H26.0056V31.6364H23.2057ZM25.6113 30.2364H24.6057V33.0363H25.6113V30.2364ZM24.2114 29.7955V31.6364H27.0113V29.7955H24.2114ZM24.6057 31.1954H25.6113V28.3955H24.6057V31.1954ZM23.2057 24.2727V29.7955H26.0056V24.2727H23.2057ZM23.2761 25.6727H24.6057V22.8728H23.2761V25.6727ZM22.3897 25.6727H23.2761V22.8728H22.3897V25.6727ZM21.6057 25.6727H22.3897V22.8728H21.6057V25.6727ZM19.2757 30.5466L22.787 25.0239L20.4243 23.5216L16.9129 29.0443L19.2757 30.5466ZM22.3897 25.3273H22.3216V28.1272H22.3897V25.3273ZM21.1374 25.9805L19.2454 28.9805L21.6136 30.4741L23.5057 27.4741L21.1374 25.9805ZM19.0296 29.7273V29.7955H21.8295V29.7273H19.0296ZM20.4295 31.1954H22.3897V28.3955H20.4295V31.1954ZM23.7897 29.7955V26.7273H20.9898V29.7955H23.7897ZM30.4115 31.8387C29.8379 31.8366 29.4196 31.7068 29.0991 31.5047L27.6058 33.8731C28.4387 34.3983 29.3897 34.635 30.4014 34.6386L30.4115 31.8387ZM31.711 31.5123C31.3959 31.7104 30.9808 31.8387 30.4064 31.8387V34.6386C31.4173 34.6386 32.3687 34.4061 33.2013 33.8826L31.711 31.5123ZM32.5164 30.5437C32.3049 31.0071 32.0319 31.3099 31.7095 31.5132L33.2028 33.8816C34.0338 33.3577 34.6501 32.6122 35.0635 31.7063L32.5164 30.5437ZM32.8588 28.6534C32.8588 29.4699 32.7258 30.085 32.5164 30.5437L35.0635 31.7063C35.4792 30.7957 35.6587 29.763 35.6587 28.6534H32.8588ZM32.5253 26.8031C32.7293 27.2406 32.8612 27.8394 32.8588 28.6493L35.6587 28.6576C35.6619 27.5527 35.4842 26.5236 35.0631 25.6202L32.5253 26.8031ZM31.7349 25.8791C32.0516 26.071 32.3181 26.3585 32.5253 26.8031L35.0631 25.6202C34.6453 24.7239 34.0226 23.9915 33.1859 23.4845L31.7349 25.8791ZM30.4064 25.5534C30.9867 25.5534 31.4092 25.6802 31.7307 25.8765L33.1902 23.4871C32.3582 22.9789 31.4114 22.7535 30.4064 22.7535V25.5534ZM29.0779 25.8749C29.4 25.6797 29.8242 25.5534 30.4064 25.5534V22.7535C29.4034 22.7535 28.4583 22.9765 27.627 23.4802L29.0779 25.8749ZM28.2918 26.7988C28.4999 26.3524 28.7663 26.0647 29.0805 25.8733L27.6244 23.4818C26.7909 23.9893 26.171 24.7214 25.754 25.616L28.2918 26.7988ZM27.9541 28.6576C27.9565 27.8407 28.0899 27.2359 28.2939 26.7944L25.752 25.6204C25.3366 26.5198 25.1575 27.5457 25.1542 28.6493L27.9541 28.6576ZM28.2922 30.5352C28.0831 30.0771 27.9517 29.4661 27.9541 28.6576L25.1542 28.6493C25.1509 29.7555 25.3292 30.7865 25.7451 31.6978L28.2922 30.5352ZM29.0991 31.5047C28.7767 31.3014 28.5037 30.9986 28.2922 30.5352L25.7451 31.6978C26.1586 32.6036 26.7748 33.3492 27.6058 33.8731L29.0991 31.5047ZM30.4064 32.7125C31.4159 32.7125 32.1551 32.1395 32.6055 31.4052L30.2187 29.9414C30.1714 30.0186 30.1613 30.0046 30.2137 29.9712C30.2403 29.9543 30.2747 29.938 30.3141 29.9267C30.3533 29.9154 30.3858 29.9125 30.4064 29.9125V32.7125ZM28.7529 32.0822C29.2102 32.4846 29.7784 32.7125 30.4064 32.7125V29.9125C30.4342 29.9125 30.4769 29.918 30.5238 29.9361C30.5699 29.9539 30.5962 29.9747 30.6026 29.9803L28.7529 32.0822ZM27.8441 30.5695C28.0062 31.1022 28.2758 31.6568 28.7459 32.076L30.6096 29.9865C30.6367 30.0107 30.634 30.0175 30.6135 29.9813C30.5923 29.9441 30.5588 29.8729 30.5227 29.7543L27.8441 30.5695ZM27.6088 28.6469C27.6056 29.3368 27.6693 29.9911 27.8433 30.5669L30.5235 29.757C30.4589 29.543 30.4062 29.1916 30.4086 28.6599L27.6088 28.6469ZM28.2169 25.9442C27.7488 26.6952 27.6149 27.673 27.6088 28.6445L30.4086 28.6623C30.4138 27.8384 30.5442 27.5037 30.5931 27.4252L28.2169 25.9442ZM30.4064 24.6625C29.4137 24.6625 28.6731 25.2123 28.2169 25.9441L30.5931 27.4252C30.6359 27.3564 30.6422 27.3735 30.5881 27.4072C30.561 27.424 30.5274 27.4394 30.4902 27.4498C30.4532 27.4601 30.4237 27.4625 30.4064 27.4625V24.6625ZM32.0548 25.2877C31.5964 24.885 31.0288 24.6625 30.4064 24.6625V27.4625C30.3814 27.4625 30.3396 27.4575 30.2921 27.4394C30.2451 27.4214 30.2165 27.3997 30.207 27.3913L32.0548 25.2877ZM32.9611 26.7645C32.796 26.238 32.5215 25.6913 32.0467 25.2806L30.2151 27.3984C30.1862 27.3734 30.1862 27.3638 30.2042 27.3945C30.2229 27.4263 30.2545 27.4909 30.2893 27.6019L32.9611 26.7645ZM33.2041 28.6534C33.2041 27.9758 33.1385 27.3305 32.9611 26.7645L30.2893 27.6019C30.3506 27.7973 30.4042 28.1322 30.4042 28.6534H33.2041ZM32.6041 31.4074C33.077 30.6397 33.2072 29.6437 33.2041 28.6491L30.4042 28.6577C30.4068 29.4984 30.2757 29.8489 30.2201 29.9391L32.6041 31.4074ZM36.6857 31.6364V29.7955H33.8857V31.6364H36.6857ZM39.53 30.2364H35.2857V33.0363H39.53V30.2364ZM40.93 33V31.6364H38.1301V33H40.93ZM41.7971 31.6H39.53V34.4H41.7971V31.6ZM40.3971 31.6364V33H43.197V31.6364H40.3971ZM42.8027 30.2364H41.7971V33.0363H42.8027V30.2364ZM41.4028 29.7955V31.6364H44.2027V29.7955H41.4028ZM41.7971 31.1954H42.8027V28.3955H41.7971V31.1954ZM40.3971 24.2727V29.7955H43.197V24.2727H40.3971ZM40.4675 25.6727H41.7971V22.8728H40.4675V25.6727ZM39.5812 25.6727H40.4675V22.8728H39.5812V25.6727ZM38.7971 25.6727H39.5812V22.8728H38.7971V25.6727ZM36.4671 30.5466L39.9784 25.0239L37.6157 23.5216L34.1043 29.0443L36.4671 30.5466ZM39.5812 25.3273H39.513V28.1272H39.5812V25.3273ZM38.3288 25.9805L36.4368 28.9805L38.8051 30.4741L40.6971 27.4741L38.3288 25.9805ZM36.221 29.7273V29.7955H39.0209V29.7273H36.221ZM37.6209 31.1954H39.5812V28.3955H37.6209V31.1954ZM40.9811 29.7955V26.7273H38.1812V29.7955H40.9811Z" fill="white" mask="url(#path-2-inside-1_750_127)"/>
</svg>
