<svg width="50" height="50" viewBox="0 0 50 50" fill="none" xmlns="http://www.w3.org/2000/svg">
<rect width="50" height="50" fill="#006B99"/>
<rect width="50" height="50" fill="black" fill-opacity="0.3"/>
<path fill-rule="evenodd" clip-rule="evenodd" d="M30.9048 31.0481L32.3751 28.7961C32.7174 28.2719 32.8885 28.0098 32.9825 27.7611C33.3173 26.8757 33.1099 25.8765 32.4504 25.1975C32.2652 25.0067 32.0039 24.8344 31.4813 24.4897L31.4813 24.4897C30.9542 24.1421 30.6907 23.9683 30.4409 23.8728C29.551 23.533 28.5448 23.7419 27.8637 24.4078C27.6724 24.5947 27.4999 24.859 27.1547 25.3877L27.1547 25.3877L27.1547 25.3877L25.6813 27.6444C27.0847 29.2163 28.8867 30.3951 30.9048 31.0481ZM24.3076 29.7484L18.5954 38.4974C18.1953 39.1101 17.9953 39.4165 17.8939 39.7625C17.7925 40.1085 17.7955 40.4743 17.8014 41.2061L17.8279 44.4483C17.8313 44.8622 17.8329 45.0692 17.9695 45.1587C18.1061 45.2482 18.2966 45.167 18.6774 45.0047L21.6307 43.7457L21.6307 43.7457C22.3073 43.4573 22.6456 43.3131 22.9233 43.0803C23.2009 42.8476 23.402 42.5396 23.8041 41.9238L29.5305 33.1531C27.5566 32.4125 25.7741 31.2474 24.3076 29.7484Z" fill="white"/>
<path fill-rule="evenodd" clip-rule="evenodd" d="M25.7776 21.6905L15.5036 37.1882L15.5035 37.1883C14.8662 38.1496 14.5476 38.6302 14.3857 39.1747C14.2237 39.7192 14.2279 40.2959 14.2363 41.4493L14.2529 43.7241H9.96689C8.32832 43.7241 7 42.3957 7 40.7572V21.9669C7 20.3283 8.32832 19 9.96689 19H22.8234C24.3688 19 25.6382 20.1815 25.7776 21.6905Z" fill="white"/>
<path d="M22.0882 4.05838L23.0087 15.1048H35.1135L36.034 4.05839C36.0553 3.80291 35.7157 3.69559 35.5863 3.91692L31.9564 10.1273C31.8526 10.3048 31.5885 10.279 31.5211 10.0848L29.2885 3.65494C29.2136 3.43925 28.9086 3.43925 28.8337 3.65494L26.6011 10.0848C26.5337 10.279 26.2696 10.3048 26.1659 10.1273L22.5359 3.91692C22.4066 3.69559 22.0669 3.80291 22.0882 4.05838Z" fill="white"/>
<path d="M39.7507 24.4868L39.8529 25.0833L39.1915 25.1967L39.1468 24.5271L39.7507 24.4868ZM43.2296 17.6872L43.8193 17.5508L43.8193 17.5508L43.2296 17.6872ZM39.5878 13.4447C39.3422 13.2179 39.327 12.835 39.5537 12.5894C39.7805 12.3438 40.1634 12.3286 40.409 12.5553L39.5878 13.4447ZM45.0667 24.1894L39.8529 25.0833L39.6484 23.8902L44.8622 22.9963L45.0667 24.1894ZM39.1468 24.5271L38.8123 19.5154L40.0201 19.4348L40.3546 24.4465L39.1468 24.5271ZM39.7507 24.4868C39.3668 24.0189 39.3667 24.0189 39.3666 24.019C39.3666 24.019 39.3665 24.0191 39.3665 24.0191C39.3664 24.0191 39.3664 24.0191 39.3665 24.0191C39.3667 24.0189 39.3671 24.0186 39.3678 24.018C39.3691 24.0169 39.3715 24.015 39.3748 24.0122C39.3814 24.0067 39.3918 23.9979 39.4058 23.986C39.4337 23.9622 39.4758 23.9259 39.5298 23.878C39.6379 23.782 39.7934 23.6398 39.9784 23.4584C40.3496 23.0946 40.8344 22.5786 41.2938 21.967C42.2396 20.708 42.959 19.2033 42.64 17.8236L43.8193 17.5508C44.2671 19.4871 43.2471 21.3822 42.2616 22.694C41.7555 23.3678 41.2267 23.9299 40.8257 24.3229C40.6247 24.5199 40.4545 24.6757 40.3334 24.7832C40.2728 24.837 40.2245 24.8788 40.1906 24.9076C40.1736 24.922 40.1603 24.9333 40.1509 24.9411C40.1462 24.9451 40.1424 24.9482 40.1397 24.9504C40.1383 24.9516 40.1372 24.9525 40.1364 24.9532C40.1359 24.9535 40.1356 24.9538 40.1353 24.9541C40.1351 24.9542 40.1349 24.9544 40.1349 24.9544C40.1347 24.9545 40.1346 24.9547 39.7507 24.4868ZM42.64 17.8236C42.4235 16.8877 41.6971 15.8086 40.9598 14.9171C40.6003 14.4824 40.2551 14.1121 39.9998 13.8506C39.8723 13.7201 39.7678 13.6172 39.6959 13.5476C39.6599 13.5128 39.6321 13.4864 39.6137 13.469C39.6045 13.4603 39.5976 13.4538 39.5933 13.4498C39.5911 13.4477 39.5895 13.4463 39.5886 13.4454C39.5881 13.445 39.5878 13.4447 39.5877 13.4446C39.5876 13.4445 39.5876 13.4445 39.5876 13.4445C39.5876 13.4445 39.5877 13.4446 39.5877 13.4446C39.5877 13.4446 39.5878 13.4447 39.9984 13C40.409 12.5553 40.4091 12.5554 40.4091 12.5555C40.4092 12.5556 40.4093 12.5557 40.4094 12.5557C40.4096 12.5559 40.4098 12.5561 40.4101 12.5564C40.4106 12.5568 40.4113 12.5575 40.4121 12.5583C40.4138 12.5599 40.4162 12.5621 40.4192 12.5649C40.4252 12.5705 40.4337 12.5785 40.4446 12.5888C40.4665 12.6093 40.4978 12.6392 40.5375 12.6776C40.6168 12.7543 40.7295 12.8653 40.8659 13.005C41.1382 13.2838 41.5068 13.6792 41.8926 14.1456C42.6456 15.0561 43.5348 16.3206 43.8193 17.5508L42.64 17.8236Z" fill="white"/>
</svg>
