<svg width="51" height="50" viewBox="0 0 51 50" fill="none" xmlns="http://www.w3.org/2000/svg">
<rect width="50" height="50" fill="#998A00"/>
<path fill-rule="evenodd" clip-rule="evenodd" d="M13 10.3999C11.0118 10.3999 9.40002 12.0117 9.40002 13.9999V36.7999C9.40002 38.7881 11.0118 40.3999 13 40.3999H26.5569C22.5986 37.6995 20 33.1532 20 28C20 20.6983 25.2171 14.6152 32.127 13.2749C31.7915 11.6342 30.3399 10.3999 28.6 10.3999H13Z" fill="white"/>
<circle cx="35" cy="28" r="15.5" stroke="white"/>
<line x1="27.9563" y1="41.0823" x2="47.0823" y2="20.0437" stroke="white" stroke-width="1.29931" stroke-linecap="square"/>
<path fill-rule="evenodd" clip-rule="evenodd" d="M41.3011 22.2637C40.5643 21.8606 39.6699 21.6592 38.6178 21.6592C38.1971 21.6592 37.7677 21.7321 37.33 21.878C36.8922 22.0239 36.4849 22.2208 36.1086 22.4685C35.7318 22.7161 35.4079 22.9487 35.1363 23.1658C34.8649 23.383 34.607 23.6138 34.3627 23.858C34.1183 23.6138 33.8604 23.383 33.589 23.1658C33.3175 22.9487 32.9935 22.7163 32.6167 22.4685C32.2401 22.2207 31.8328 22.0239 31.3951 21.878C30.9575 21.7322 30.5281 21.6592 30.1074 21.6592C28.5871 21.6592 27.3961 22.08 26.5342 22.9216C25.6724 23.7631 25.2414 24.9303 25.2414 26.4234C25.2414 26.8781 25.3213 27.3465 25.4807 27.8282C25.6401 28.31 25.8218 28.7207 26.0253 29.0599C26.2289 29.3992 26.4597 29.7301 26.7176 30.0525C26.9755 30.3749 27.1639 30.597 27.2826 30.7192C27.4013 30.8413 27.4946 30.9296 27.5625 30.9838L30.5091 33.8265L41.3011 22.2637ZM32.2652 35.5208L33.9147 37.1122C34.0369 37.2345 34.1862 37.2956 34.3626 37.2956C34.5391 37.2956 34.6885 37.2345 34.8106 37.1125L41.1527 31.0043C42.7069 29.4503 43.4839 27.9233 43.4839 26.4234C43.484 25.501 43.3195 24.703 42.9905 24.0293L32.2652 35.5208Z" fill="white"/>
</svg>
