<svg width="50" height="50" viewBox="0 0 50 50" fill="none" xmlns="http://www.w3.org/2000/svg">
<rect width="50" height="50" fill="#849900"/>
<path fill-rule="evenodd" clip-rule="evenodd" d="M13 10.3999C11.0118 10.3999 9.40002 12.0117 9.40002 13.9999V36.7999C9.40002 38.7881 11.0118 40.3999 13 40.3999H18.2711C17.6193 39.4452 17.2381 38.2909 17.2381 37.0476V23.9524C17.2381 20.665 19.9031 18 23.1905 18H32.2V13.9999C32.2 12.0117 30.5882 10.3999 28.6 10.3999H13Z" fill="white"/>
<rect x="16.7381" y="17.5" width="30.7619" height="26" rx="6.45238" stroke="white"/>
<path d="M40.4174 28.9892L41.1456 29.6853L41.8109 28.9892L41.1456 28.2932L40.4174 28.9892ZM24.0039 37.0479C24.0039 37.6042 24.4549 38.0552 25.0113 38.0552C25.5676 38.0552 26.0186 37.6042 26.0186 37.0479L24.0039 37.0479ZM36.3312 34.7219L41.1456 29.6853L39.6893 28.2932L34.8748 33.3298L36.3312 34.7219ZM41.1456 28.2932L36.3312 23.2566L34.8748 24.6487L39.6893 29.6853L41.1456 28.2932ZM40.4174 27.9819L31.0552 27.9819L31.0552 29.9966L40.4174 29.9966L40.4174 27.9819ZM24.0039 35.0332L24.0039 37.0479L26.0186 37.0479L26.0186 35.0332L24.0039 35.0332ZM31.0552 27.9819C27.1609 27.9819 24.0039 31.1389 24.0039 35.0332L26.0186 35.0332C26.0186 32.2515 28.2736 29.9966 31.0552 29.9966L31.0552 27.9819Z" fill="white"/>
</svg>
