<svg width="52" height="50" viewBox="0 0 52 50" fill="none" xmlns="http://www.w3.org/2000/svg">
<rect width="50" height="50" fill="#849900"/>
<path fill-rule="evenodd" clip-rule="evenodd" d="M37.2463 13.5084C38.5767 15.4995 38.5767 18.2713 38.5767 23.8148C38.5767 25.0422 38.5767 26.1337 38.5623 27.1109L36.1539 25.6659L31.8664 23.0934L26.7215 31.6683L31.0089 34.2408L34.7596 36.4912C33.0518 37.478 30.747 37.6094 26.7354 37.6269V37.6296L24.5535 41.9934C23.8262 43.448 21.7505 43.448 21.0232 41.9934L18.8413 37.6296V37.6269C14.5829 37.6084 12.2478 37.4614 10.5084 36.2992C9.64644 35.7233 8.90636 34.9832 8.33041 34.1212C7 32.1301 7 29.3583 7 23.8148C7 18.2713 7 15.4995 8.33041 13.5084C8.90636 12.6464 9.64644 11.9064 10.5084 11.3304C12.4995 10 15.2713 10 20.8148 10H24.7619C30.3054 10 33.0772 10 35.0683 11.3304C35.9303 11.9064 36.6703 12.6464 37.2463 13.5084ZM23.07 14.2069C24.16 14.2069 25.0435 15.0904 25.0435 16.1804V24.8335C25.0435 25.9234 24.16 26.807 23.07 26.807C21.98 26.807 21.0965 25.9234 21.0965 24.8335V16.1804C21.0965 15.0904 21.98 14.2069 23.07 14.2069ZM23.07 28.8784C24.16 28.8784 25.0435 29.762 25.0435 30.8519V31.6323C25.0435 32.7223 24.16 33.6059 23.07 33.6059C21.98 33.6059 21.0965 32.7223 21.0965 31.6323V30.8519C21.0965 29.762 21.98 28.8784 23.07 28.8784Z" fill="white"/>
<path d="M33.5814 29.9533L39.6279 33.5812L49 23.6045" stroke="white" stroke-width="3.02326" stroke-linecap="square"/>
</svg>
