<svg width="50" height="50" viewBox="0 0 50 50" fill="none" xmlns="http://www.w3.org/2000/svg">
<rect width="50" height="50" fill="#990000"/>
<path fill-rule="evenodd" clip-rule="evenodd" d="M24.5795 38.7739L23.7249 40.4831C23.0319 41.869 21.0541 41.869 20.3612 40.4831L18.2823 36.3253V36.3228C14.225 36.3051 12.0001 36.1651 10.3428 35.0577C9.52151 34.509 8.81636 33.8038 8.2676 32.9825C7 31.0854 7 28.4445 7 23.1627C7 17.8808 7 15.2399 8.2676 13.3428C8.81636 12.5215 9.52151 11.8164 10.3428 11.2676C12.2399 10 14.8808 10 20.1627 10H23.9234C29.2053 10 31.8462 10 33.7433 11.2676C34.5646 11.8164 35.2697 12.5215 35.8185 13.3428C36.6013 14.5143 36.9007 15.9696 37.0152 18.1552C36.3584 18.053 35.6854 18 35 18C30.4944 18 26.5242 20.2921 24.1917 23.7739V15.8887C24.1917 14.8502 23.3499 14.0084 22.3114 14.0084C21.2729 14.0084 20.431 14.8502 20.431 15.8887V24.1333C20.431 25.1718 21.2729 26.0137 22.3114 26.0137C22.5756 26.0137 22.8272 25.9592 23.0553 25.8608C22.762 26.5417 22.5252 27.2526 22.3508 27.9877C22.3377 27.9874 22.3245 27.9873 22.3114 27.9873C21.2729 27.9873 20.431 28.8292 20.431 29.8677V30.6112C20.431 31.5725 21.1522 32.3652 22.0831 32.4779C22.3484 34.8221 23.2371 36.9774 24.5795 38.7739Z" fill="white"/>
<path fill-rule="evenodd" clip-rule="evenodd" d="M42.2071 26.2925H27.9091V28.6755C28.7865 28.6755 29.4978 29.3867 29.4978 30.2641V30.2641V33.4415C29.4978 35.6882 29.4978 36.8115 30.1957 37.5095C30.8937 38.2074 32.0171 38.2074 34.2638 38.2074H35.8524C38.0991 38.2074 39.2225 38.2074 39.9204 37.5095C40.6184 36.8115 40.6184 35.6882 40.6184 33.4415V30.2641C40.6184 29.3867 41.3297 28.6755 42.2071 28.6755V26.2925ZM32.5528 31.0583C32.5528 30.6196 32.1972 30.264 31.7585 30.264C31.3198 30.264 30.9642 30.6196 30.9642 31.0583V34.9077C30.9642 35.3464 31.3198 35.7021 31.7585 35.7021C32.1972 35.7021 32.5528 35.3464 32.5528 34.9077V31.0583ZM35.8526 31.0583C35.8526 30.6196 35.4969 30.264 35.0582 30.264C34.6195 30.264 34.2639 30.6196 34.2639 31.0583V34.9077C34.2639 35.3464 34.6195 35.7021 35.0582 35.7021C35.4969 35.7021 35.8526 35.3464 35.8526 34.9077V31.0583ZM39.1519 31.0583C39.1519 30.6196 38.7963 30.264 38.3576 30.264C37.9189 30.264 37.5632 30.6196 37.5632 31.0583V34.9077C37.5632 35.3464 37.9189 35.7021 38.3576 35.7021C38.7963 35.7021 39.1519 35.3464 39.1519 34.9077V31.0583Z" fill="white"/>
<path d="M33.5235 24.2036C33.6141 24.1191 33.8135 24.0445 34.091 23.9913C34.3684 23.938 34.7083 23.9092 35.0581 23.9092C35.4078 23.9092 35.7477 23.938 36.0252 23.9913C36.3026 24.0445 36.5021 24.1191 36.5926 24.2036" stroke="white" stroke-width="1.58866" stroke-linecap="round"/>
<rect x="22.5" y="18.5" width="25" height="25" rx="12.5" stroke="white"/>
</svg>
