<svg width="50" height="50" viewBox="0 0 50 50" fill="none" xmlns="http://www.w3.org/2000/svg">
<rect width="50" height="50" fill="#998A00"/>
<rect width="50" height="50" fill="black" fill-opacity="0.3"/>
<path fill-rule="evenodd" clip-rule="evenodd" d="M41 24.7188C41 19.1009 41 16.292 39.6518 14.2742C39.0681 13.4007 38.3181 12.6507 37.4446 12.067C35.4268 10.7188 32.6178 10.7188 27 10.7188H23C17.3822 10.7188 14.5732 10.7188 12.5554 12.067C11.6819 12.6507 10.9319 13.4007 10.3482 14.2742C9 16.292 9 19.1009 9 24.7188C9 30.3366 9 33.1455 10.3482 35.1633C10.9319 36.0368 11.6819 36.7868 12.5554 37.3705C14.3181 38.5483 16.6846 38.6972 21 38.716V38.7188L23.2111 43.141C23.9482 44.6151 26.0518 44.6151 26.7889 43.141L29 38.7188V38.716C33.3154 38.6972 35.6819 38.5483 37.4446 37.3705C38.3181 36.7868 39.0681 36.0368 39.6518 35.1633C41 33.1455 41 30.3366 41 24.7188ZM27.2631 16.9823C27.2631 15.8901 26.3776 15.0047 25.2854 15.0047C24.1932 15.0047 23.3078 15.8901 23.3078 16.9823V25.7514C23.3078 26.8436 24.1932 27.729 25.2854 27.729C26.3776 27.729 27.2631 26.8436 27.2631 25.7514V16.9823ZM27.2631 31.8505C27.2631 30.7583 26.3776 29.8729 25.2854 29.8729C24.1932 29.8729 23.3078 30.7583 23.3078 31.8505V32.6414C23.3078 33.7336 24.1932 34.619 25.2854 34.619C26.3776 34.619 27.2631 33.7336 27.2631 32.6414V31.8505Z" fill="white"/>
</svg>
