<svg width="50" height="50" viewBox="0 0 50 50" fill="none" xmlns="http://www.w3.org/2000/svg">
<rect width="50" height="50" fill="#849900"/>
<path fill-rule="evenodd" clip-rule="evenodd" d="M16.213 14.1991L9.46891 32.9821C9.34374 33.3307 9.28116 33.505 9.35057 33.6522C9.41998 33.7994 9.59428 33.862 9.94288 33.9871L24.862 39.3439C25.2106 39.4691 25.3849 39.5317 25.5321 39.4623C25.6793 39.3928 25.7418 39.2185 25.867 38.8699L28.0688 32.7379C26.7631 30.8171 26 28.4976 26 26C26 21.5552 28.4166 17.6748 32.0076 15.601C31.5356 12.8246 31.0696 11.1834 30.1615 10.185C28.8018 8.68993 26.8062 7.93982 24.7984 8.16904C22.889 8.38702 20.7957 10.1757 16.6092 13.753L16.6092 13.753L16.3941 13.9368L16.3941 13.9368C16.3484 13.9759 16.3255 13.9954 16.3061 14.0179C16.2874 14.0394 16.2712 14.0629 16.2577 14.088C16.2436 14.1141 16.2334 14.1424 16.213 14.1991L16.213 14.1991ZM29.2741 12.6414C30.452 15.139 29.3822 18.1185 26.8846 19.2964C24.387 20.4743 21.4074 19.4045 20.2295 16.9069C19.0516 14.4093 20.1214 11.4297 22.619 10.2518C25.1166 9.07393 28.0962 10.1438 29.2741 12.6414Z" fill="white"/>
<path d="M9.46891 32.9821L10.9479 33.5132L10.9479 33.5132L9.46891 32.9821ZM16.213 14.1991L14.7943 13.5235L14.7606 13.5943L14.7341 13.6681L16.213 14.1991ZM9.35057 33.6522L7.92927 34.3225H7.92927L9.35057 33.6522ZM9.94288 33.9871L10.4739 32.5082H10.4739L9.94288 33.9871ZM24.862 39.3439L25.393 37.8649H25.393L24.862 39.3439ZM25.5321 39.4623L26.2024 40.8835L26.2024 40.8835L25.5321 39.4623ZM25.867 38.8699L27.346 39.401L27.346 39.401L25.867 38.8699ZM28.0688 32.7379L29.5477 33.2689L29.8181 32.516L29.3684 31.8544L28.0688 32.7379ZM32.0076 15.601L32.7934 16.9618L33.7399 16.4152L33.5568 15.3377L32.0076 15.601ZM30.1615 10.185L31.324 9.12764L31.324 9.12764L30.1615 10.185ZM24.7984 8.16904L24.9766 9.73033L24.9766 9.73033L24.7984 8.16904ZM16.6092 13.753L15.5883 12.5583L15.5813 12.5643L15.5744 12.5704L16.6092 13.753ZM16.6092 13.753L17.63 14.9477L17.637 14.9417L17.6439 14.9357L16.6092 13.753ZM16.3941 13.9368L15.3733 12.7421L15.3663 12.7481L15.3593 12.7541L16.3941 13.9368ZM16.3941 13.9368L17.415 15.1315L17.422 15.1255L17.4289 15.1194L16.3941 13.9368ZM16.3061 14.0179L17.4948 15.0457L17.4949 15.0456L16.3061 14.0179ZM16.2577 14.088L14.8753 13.3408L14.8753 13.3408L16.2577 14.088ZM16.213 14.1991L17.6318 14.8747L17.6655 14.8039L17.692 14.7301L16.213 14.1991ZM26.8846 19.2964L26.2143 17.8751L26.8846 19.2964ZM29.2741 12.6414L30.6954 11.9711V11.9711L29.2741 12.6414ZM20.2295 16.9069L21.6508 16.2366V16.2366L20.2295 16.9069ZM22.619 10.2518L23.2893 11.6731L22.619 10.2518ZM10.9479 33.5132L17.692 14.7301L14.7341 13.6681L7.98992 32.4511L10.9479 33.5132ZM10.7719 32.9819C10.8499 33.1473 10.8852 33.3145 10.892 33.4628C10.8981 33.5976 10.8796 33.6928 10.8733 33.7219C10.8673 33.75 10.8646 33.7525 10.8798 33.7068C10.8946 33.6618 10.9146 33.6058 10.9479 33.5132L7.98993 32.4511C7.94235 32.5836 7.85011 32.8306 7.80022 33.0635C7.74076 33.3409 7.68908 33.8132 7.92927 34.3225L10.7719 32.9819ZM10.4739 32.5082C10.3813 32.4749 10.3254 32.4547 10.2812 32.4376C10.2363 32.4202 10.2399 32.4197 10.2654 32.4329C10.2918 32.4466 10.3771 32.4928 10.4772 32.5833C10.5874 32.6829 10.6938 32.8165 10.7719 32.9819L7.92927 34.3225C8.16946 34.8318 8.56675 35.0923 8.81866 35.223C9.03008 35.3326 9.27936 35.4185 9.41185 35.4661L10.4739 32.5082ZM25.393 37.8649L10.4739 32.5082L9.41184 35.4661L24.331 40.8229L25.393 37.8649ZM24.8618 38.041C25.0272 37.9629 25.1943 37.9276 25.3427 37.9209C25.4775 37.9147 25.5727 37.9333 25.6018 37.9395C25.6299 37.9455 25.6323 37.9482 25.5866 37.9331C25.5417 37.9182 25.4857 37.8982 25.393 37.8649L24.331 40.8229C24.4635 40.8705 24.7105 40.9627 24.9433 41.0126C25.2208 41.0721 25.6931 41.1237 26.2024 40.8835L24.8618 38.041ZM24.388 38.3389C24.3548 38.4315 24.3346 38.4875 24.3175 38.5316C24.3 38.5765 24.2995 38.5729 24.3128 38.5474C24.3265 38.521 24.3727 38.4357 24.4632 38.3356C24.5628 38.2255 24.6963 38.119 24.8618 38.041L26.2024 40.8835C26.7117 40.6433 26.9722 40.2461 27.1028 39.9942C27.2125 39.7827 27.2984 39.5335 27.346 39.401L24.388 38.3389ZM26.5898 32.2068L24.388 38.3389L27.346 39.401L29.5477 33.2689L26.5898 32.2068ZM29.3684 31.8544C28.2342 30.186 27.5714 28.1727 27.5714 26H24.4286C24.4286 28.8225 25.2919 31.4482 26.7692 33.6213L29.3684 31.8544ZM27.5714 26C27.5714 22.1392 29.6686 18.7664 32.7934 16.9618L31.2217 14.2402C27.1646 16.5832 24.4286 20.9711 24.4286 26H27.5714ZM28.9989 11.2423C29.5516 11.8499 29.9753 13.0226 30.4583 15.8643L33.5568 15.3377C33.096 12.6267 32.5876 10.5169 31.324 9.12764L28.9989 11.2423ZM24.9766 9.73033C26.4825 9.55841 27.9792 10.121 28.9989 11.2423L31.324 9.12764C29.6244 7.25887 27.1299 6.32123 24.6201 6.60775L24.9766 9.73033ZM17.63 14.9477C19.7452 13.1403 21.2555 11.8516 22.4734 10.9783C23.7018 10.0976 24.4323 9.79247 24.9766 9.73033L24.6201 6.60775C23.2551 6.76359 21.9843 7.46177 20.6421 8.42419C19.2894 9.39409 17.6597 10.7884 15.5883 12.5583L17.63 14.9477ZM17.6439 14.9357L17.644 14.9356L15.5744 12.5704L15.5744 12.5704L17.6439 14.9357ZM17.415 15.1314L17.63 14.9477L15.5883 12.5583L15.3733 12.7421L17.415 15.1314ZM17.4289 15.1194L17.4289 15.1194L15.3593 12.7541L15.3593 12.7541L17.4289 15.1194ZM17.4949 15.0456C17.4494 15.0982 17.4107 15.1341 17.3962 15.1473C17.39 15.1529 17.3872 15.1552 17.3917 15.1514C17.3963 15.1474 17.4025 15.1421 17.415 15.1315L15.3733 12.7421C15.3623 12.7514 15.2322 12.8573 15.1173 12.9902L17.4949 15.0456ZM17.6401 14.8353C17.5994 14.9104 17.5507 14.981 17.4948 15.0457L15.1174 12.9901C15.0242 13.0979 14.943 13.2155 14.8753 13.3408L17.6401 14.8353ZM17.692 14.7301C17.6976 14.7147 17.7003 14.707 17.7024 14.7013C17.7044 14.6957 17.7033 14.6991 17.7002 14.7069C17.693 14.7252 17.6731 14.7741 17.6401 14.8352L14.8753 13.3408C14.7917 13.4953 14.7389 13.6545 14.734 13.6681L17.692 14.7301ZM17.6318 14.8747L17.6318 14.8747L14.7943 13.5235L14.7943 13.5235L17.6318 14.8747ZM27.5549 20.7177C30.8374 19.1696 32.2435 15.2536 30.6954 11.9711L27.8528 13.3117C28.6605 15.0243 27.9269 17.0674 26.2143 17.8751L27.5549 20.7177ZM18.8082 17.5772C20.3563 20.8598 24.2723 22.2658 27.5549 20.7177L26.2143 17.8751C24.5016 18.6828 22.4585 17.9492 21.6508 16.2366L18.8082 17.5772ZM21.9487 8.83053C18.6662 10.3786 17.2601 14.2946 18.8082 17.5772L21.6508 16.2366C20.8431 14.524 21.5767 12.4808 23.2893 11.6731L21.9487 8.83053ZM30.6954 11.9711C29.1473 8.6885 25.2313 7.28243 21.9487 8.83053L23.2893 11.6731C25.002 10.8654 27.0451 11.599 27.8528 13.3117L30.6954 11.9711Z" fill="white"/>
<path d="M39.6593 24.4264H44V27.3811H39.6593V32H36.3527V27.3811H32V24.4264H36.3527V20H39.6593V24.4264Z" fill="white"/>
<rect x="26.5" y="14.5" width="23" height="23" rx="11.5" stroke="white"/>
</svg>
