<svg width="50" height="50" viewBox="0 0 50 50" fill="none" xmlns="http://www.w3.org/2000/svg">
<rect width="50" height="50" fill="#998A00"/>
<path fill-rule="evenodd" clip-rule="evenodd" d="M9.46888 32.9821L16.213 14.199L16.213 14.199C16.2334 14.1424 16.2435 14.1141 16.2576 14.0879C16.2712 14.0629 16.2874 14.0394 16.3061 14.0178C16.3255 13.9954 16.3483 13.9758 16.3941 13.9367L16.6091 13.753L16.6091 13.753C20.7957 10.1756 22.889 8.38696 24.7984 8.16898C26.8062 7.93976 28.8017 8.68987 30.1615 10.1849C31.4545 11.6066 31.8513 14.3313 32.6448 19.7806L32.6448 19.7806L32.6449 19.7806C32.6527 19.8343 32.6566 19.8611 32.6568 19.8879C32.657 19.9163 32.6542 19.9447 32.6483 19.9726C32.6428 19.9987 32.6336 20.0243 32.6153 20.0753L32.6153 20.0753L25.867 38.8699C25.7418 39.2185 25.6792 39.3928 25.5321 39.4622C25.3849 39.5316 25.2106 39.469 24.862 39.3439L9.94285 33.9871C9.59425 33.8619 9.41995 33.7993 9.35054 33.6521C9.28113 33.505 9.34371 33.3307 9.46888 32.9821ZM26.8846 19.2964C29.3822 18.1185 30.452 15.1389 29.2741 12.6413C28.0962 10.1437 25.1166 9.07387 22.619 10.2518C20.1214 11.4297 19.0516 14.4092 20.2295 16.9068C21.4074 19.4044 24.387 20.4743 26.8846 19.2964Z" fill="white"/>
<path d="M16.213 14.199L14.7882 13.5363L14.7581 13.6009L14.734 13.668L16.213 14.199ZM9.46888 32.9821L10.9479 33.5131L10.9479 33.5131L9.46888 32.9821ZM16.213 14.199L17.6378 14.8618L17.6679 14.7971L17.692 14.73L16.213 14.199ZM16.2576 14.0879L14.8752 13.3407L14.8752 13.3407L16.2576 14.0879ZM16.3061 14.0178L17.4948 15.0456L17.4948 15.0455L16.3061 14.0178ZM16.3941 13.9367L17.4149 15.1314L17.4149 15.1314L16.3941 13.9367ZM16.6091 13.753L17.63 14.9477L17.6323 14.9457L16.6091 13.753ZM16.6091 13.753L15.5883 12.5583L15.586 12.5603L16.6091 13.753ZM24.7984 8.16898L24.9766 9.73027L24.9766 9.73027L24.7984 8.16898ZM30.1615 10.1849L31.324 9.12759L31.324 9.12759L30.1615 10.1849ZM32.6448 19.7806L31.0898 20.007L31.0909 20.0142L32.6448 19.7806ZM32.6448 19.7806L31.0909 20.0142L31.0963 20.0503L31.1034 20.0862L32.6448 19.7806ZM32.6449 19.7806L34.1999 19.5543L34.1941 19.5145L34.1863 19.4751L32.6449 19.7806ZM32.6568 19.8879L31.0854 19.9012L31.0854 19.9012L32.6568 19.8879ZM32.6483 19.9726L31.1109 19.6471L31.1109 19.6472L32.6483 19.9726ZM32.6153 20.0753L34.0557 20.7035L34.0766 20.6555L34.0943 20.6063L32.6153 20.0753ZM32.6153 20.0753L31.1749 19.4471L31.154 19.495L31.1363 19.5443L32.6153 20.0753ZM25.867 38.8699L27.346 39.4009L27.346 39.4009L25.867 38.8699ZM25.5321 39.4622L26.2024 40.8835L26.2024 40.8835L25.5321 39.4622ZM24.862 39.3439L24.3309 40.8228L24.3309 40.8228L24.862 39.3439ZM9.94285 33.9871L9.41181 35.4661L9.41181 35.4661L9.94285 33.9871ZM14.734 13.668L7.98989 32.451L10.9479 33.5131L17.692 14.7301L14.734 13.668ZM14.7882 13.5363L14.7882 13.5363L17.6378 14.8618L17.6378 14.8618L14.7882 13.5363ZM14.8752 13.3407C14.7917 13.4952 14.7389 13.6544 14.734 13.668L17.692 14.73C17.6975 14.7146 17.7003 14.707 17.7024 14.7012C17.7044 14.6957 17.7032 14.6991 17.7002 14.7069C17.693 14.7251 17.6731 14.774 17.64 14.8352L14.8752 13.3407ZM15.1173 12.99C15.0241 13.0978 14.943 13.2154 14.8752 13.3407L17.64 14.8352C17.5994 14.9103 17.5507 14.9809 17.4948 15.0456L15.1173 12.99ZM15.3733 12.742C15.3623 12.7514 15.2322 12.8572 15.1173 12.9901L17.4948 15.0455C17.4494 15.0981 17.4107 15.1341 17.3962 15.1473C17.39 15.1529 17.3872 15.1552 17.3917 15.1513C17.3963 15.1473 17.4025 15.142 17.4149 15.1314L15.3733 12.742ZM15.5883 12.5583L15.3733 12.742L17.4149 15.1314L17.63 14.9477L15.5883 12.5583ZM15.586 12.5603L15.586 12.5603L17.6323 14.9457L17.6323 14.9457L15.586 12.5603ZM24.6201 6.60769C23.2551 6.76353 21.9843 7.46171 20.642 8.42414C19.2893 9.39404 17.6597 10.7883 15.5883 12.5583L17.63 14.9477C19.7452 13.1403 21.2555 11.8516 22.4734 10.9783C23.7017 10.0976 24.4323 9.79241 24.9766 9.73027L24.6201 6.60769ZM31.324 9.12759C29.6244 7.25881 27.1299 6.32117 24.6201 6.60769L24.9766 9.73027C26.4825 9.55835 27.9791 10.1209 28.9989 11.2422L31.324 9.12759ZM34.1999 19.5541C33.8072 16.858 33.4995 14.7355 33.1206 13.1147C32.7446 11.5064 32.2484 10.144 31.324 9.12759L28.9989 11.2422C29.3675 11.6475 29.7162 12.3583 30.0603 13.8301C30.4014 15.2894 30.6889 17.2539 31.0898 20.007L34.1999 19.5541ZM34.1988 19.547L34.1988 19.547L31.0909 20.0142L31.0909 20.0142L34.1988 19.547ZM34.1863 19.4751L34.1863 19.475L31.1034 20.0862L31.1034 20.0862L34.1863 19.4751ZM34.2282 19.8745C34.2268 19.7161 34.2018 19.5671 34.1999 19.5543L31.0898 20.007C31.0919 20.0216 31.093 20.0288 31.0938 20.0343C31.0945 20.0396 31.094 20.0363 31.0931 20.0288C31.091 20.0112 31.086 19.9639 31.0854 19.9012L34.2282 19.8745ZM34.1857 20.298C34.2151 20.1588 34.2294 20.0168 34.2282 19.8745L31.0854 19.9012C31.0847 19.8158 31.0933 19.7306 31.1109 19.6471L34.1857 20.298ZM34.0943 20.6063C34.0987 20.594 34.1529 20.4529 34.1857 20.2979L31.1109 19.6472C31.1239 19.5859 31.1383 19.5405 31.1438 19.5236C31.1462 19.5164 31.1473 19.5133 31.1456 19.5183C31.1437 19.5235 31.1413 19.5304 31.1363 19.5443L34.0943 20.6063ZM34.0556 20.7036L34.0557 20.7035L31.1749 19.447L31.1749 19.4471L34.0556 20.7036ZM27.346 39.4009L34.0942 20.6064L31.1363 19.5443L24.388 38.3388L27.346 39.4009ZM26.2024 40.8835C26.7117 40.6433 26.9722 40.246 27.1028 39.9941C27.2124 39.7827 27.2984 39.5334 27.346 39.4009L24.388 38.3388C24.3547 38.4315 24.3346 38.4874 24.3174 38.5316C24.3 38.5765 24.2995 38.5729 24.3127 38.5474C24.3264 38.521 24.3727 38.4357 24.4632 38.3356C24.5628 38.2254 24.6963 38.1189 24.8617 38.0409L26.2024 40.8835ZM24.3309 40.8228C24.4634 40.8704 24.7105 40.9626 24.9433 41.0125C25.2208 41.072 25.6931 41.1237 26.2024 40.8835L24.8618 38.0409C25.0272 37.9629 25.1943 37.9276 25.3427 37.9208C25.4775 37.9146 25.5727 37.9332 25.6018 37.9394C25.6299 37.9455 25.6323 37.9481 25.5866 37.933C25.5416 37.9181 25.4857 37.8981 25.393 37.8649L24.3309 40.8228ZM9.41181 35.4661L24.3309 40.8228L25.393 37.8649L10.4739 32.5081L9.41181 35.4661ZM7.92924 34.3224C8.16943 34.8317 8.56672 35.0923 8.81863 35.2229C9.03005 35.3325 9.27933 35.4185 9.41181 35.4661L10.4739 32.5081C10.3812 32.4748 10.3253 32.4546 10.2812 32.4375C10.2363 32.4201 10.2399 32.4196 10.2654 32.4328C10.2918 32.4465 10.3771 32.4928 10.4772 32.5833C10.5873 32.6829 10.6938 32.8164 10.7718 32.9818L7.92924 34.3224ZM7.9899 32.451C7.94232 32.5835 7.85008 32.8305 7.80019 33.0634C7.74073 33.3409 7.68905 33.8131 7.92924 34.3224L10.7718 32.9818C10.8499 33.1473 10.8852 33.3144 10.8919 33.4628C10.8981 33.5976 10.8795 33.6928 10.8733 33.7219C10.8673 33.75 10.8646 33.7524 10.8797 33.7067C10.8946 33.6617 10.9146 33.6058 10.9479 33.5131L7.9899 32.451ZM27.8528 13.3116C28.6605 15.0242 27.9269 17.0674 26.2143 17.8751L27.5549 20.7177C30.8374 19.1696 32.2435 15.2536 30.6954 11.971L27.8528 13.3116ZM23.2893 11.6731C25.0019 10.8654 27.0451 11.599 27.8528 13.3116L30.6954 11.971C29.1473 8.68844 25.2313 7.28237 21.9487 8.83047L23.2893 11.6731ZM21.6508 16.2365C20.8431 14.5239 21.5767 12.4808 23.2893 11.6731L21.9487 8.83047C18.6661 10.3786 17.2601 14.2946 18.8082 17.5771L21.6508 16.2365ZM26.2143 17.8751C24.5016 18.6828 22.4585 17.9492 21.6508 16.2365L18.8082 17.5771C20.3563 20.8597 24.2723 22.2658 27.5549 20.7177L26.2143 17.8751Z" fill="white"/>
<path fill-rule="evenodd" clip-rule="evenodd" d="M44.576 24.4873L45.4543 21.9143L45.4543 21.9143L45.4543 21.9143C45.6588 21.3152 45.7611 21.0156 45.7911 20.7485C45.8981 19.7973 45.4455 18.8701 44.6298 18.3693C44.4007 18.2287 44.1017 18.125 43.5036 17.9177L43.5035 17.9177L43.5035 17.9177L43.5035 17.9177C42.9003 17.7087 42.5987 17.6041 42.33 17.573C41.3733 17.4621 40.4394 17.918 39.9383 18.7405C39.7975 18.9714 39.6944 19.2735 39.4882 19.8777L38.608 22.4562C40.3755 23.6461 42.4355 24.3513 44.576 24.4873ZM37.7871 24.8608L34.3737 34.86L34.3737 34.86L34.3737 34.86C34.1347 35.5603 34.0151 35.9104 34.0021 36.2747C33.9891 36.639 34.0834 36.9968 34.2719 37.7123L35.1071 40.8826C35.2138 41.2874 35.2671 41.4898 35.4233 41.5434C35.5795 41.597 35.7458 41.4699 36.0784 41.2158L38.658 39.245L38.658 39.2449C39.249 38.7934 39.5445 38.5677 39.7585 38.2703C39.9724 37.9729 40.0926 37.621 40.3328 36.9172L40.3328 36.9171L43.7548 26.893C41.6358 26.6601 39.5983 25.9634 37.7871 24.8608Z" fill="white"/>
</svg>
