<svg width="50" height="50" viewBox="0 0 50 50" fill="none" xmlns="http://www.w3.org/2000/svg">
<rect width="50" height="50" fill="#990000"/>
<path fill-rule="evenodd" clip-rule="evenodd" d="M16.2776 14.2714C16.2776 17.1826 13.8828 19.5427 10.9286 19.5427C7.9744 19.5427 5.57956 17.1826 5.57956 14.2714C5.57956 11.3601 7.9744 9 10.9286 9C13.8828 9 16.2776 11.3601 16.2776 14.2714ZM19.0927 27.3544C19.6942 27.2309 20.0518 26.6007 19.7469 26.0677C19.0982 24.9337 18.0842 23.9372 16.7902 23.1762C15.1087 22.1872 13.0484 21.6512 10.9289 21.6512C8.80943 21.6512 6.74915 22.1872 5.06763 23.1762C3.77368 23.9372 2.75966 24.9337 2.11099 26.0677C1.80611 26.6007 2.16368 27.2309 2.76516 27.3544C8.15147 28.4606 13.7064 28.4606 19.0927 27.3544Z" fill="white"/>
<mask id="path-2-inside-1_648_391" fill="white">
<path fill-rule="evenodd" clip-rule="evenodd" d="M48.4995 32.0005C48.4995 39.7322 42.2317 46 34.5 46C26.7683 46 20.5005 39.7322 20.5005 32.0005C20.5005 24.2688 26.7683 18.001 34.5 18.001C42.2317 18.001 48.4995 24.2688 48.4995 32.0005ZM41.8331 27.1118H27.1669V29.5562C28.0669 29.5562 28.7965 30.2858 28.7965 31.1858V34.4449C28.7965 36.7495 28.7965 37.9018 29.5124 38.6177C30.2284 39.3336 31.3807 39.3336 33.6852 39.3336H35.3148C37.6194 39.3336 38.7716 39.3336 39.4876 38.6177C40.2035 37.9018 40.2035 36.7495 40.2035 34.4449V31.1858C40.2035 30.2858 40.9331 29.5562 41.8331 29.5562V27.1118ZM31.9302 32.0005C31.9302 31.5505 31.5654 31.1857 31.1154 31.1857C30.6654 31.1857 30.3007 31.5505 30.3007 32.0005V35.9491C30.3007 36.3991 30.6654 36.7639 31.1154 36.7639C31.5654 36.7639 31.9302 36.3991 31.9302 35.9491V32.0005ZM35.3149 32.0005C35.3149 31.5505 34.9501 31.1857 34.5001 31.1857C34.0501 31.1857 33.6854 31.5505 33.6854 32.0005V35.9491C33.6854 36.3991 34.0501 36.7639 34.5001 36.7639C34.9501 36.7639 35.3149 36.3991 35.3149 35.9491V32.0005ZM38.6992 32.0005C38.6992 31.5505 38.3344 31.1857 37.8844 31.1857C37.4344 31.1857 37.0696 31.5505 37.0696 32.0005V35.9491C37.0696 36.3991 37.4344 36.7639 37.8844 36.7639C38.3344 36.7639 38.6992 36.3991 38.6992 35.9491V32.0005ZM34.5 23.8523C34.8987 23.8523 35.3001 23.8848 35.6456 23.9511C35.8183 23.9842 35.9873 24.0277 36.1405 24.085C36.2796 24.1371 36.4694 24.2235 36.6299 24.3733C36.959 24.6803 36.9768 25.1959 36.6698 25.5249C36.3802 25.8354 35.9047 25.8688 35.5756 25.6136L35.5695 25.6113C35.526 25.595 35.4505 25.5729 35.3386 25.5515C35.1148 25.5086 34.8189 25.4819 34.5 25.4819C34.1812 25.4819 33.8853 25.5086 33.6615 25.5515C33.5496 25.5729 33.4741 25.595 33.4306 25.6113L33.4245 25.6136C33.0954 25.8688 32.6199 25.8354 32.3302 25.5249C32.0233 25.1959 32.0411 24.6803 32.3701 24.3733C32.5307 24.2235 32.7204 24.1371 32.8596 24.085C33.0127 24.0277 33.1818 23.9842 33.3545 23.9511C33.7 23.8848 34.1014 23.8523 34.5 23.8523Z"/>
</mask>
<path fill-rule="evenodd" clip-rule="evenodd" d="M48.4995 32.0005C48.4995 39.7322 42.2317 46 34.5 46C26.7683 46 20.5005 39.7322 20.5005 32.0005C20.5005 24.2688 26.7683 18.001 34.5 18.001C42.2317 18.001 48.4995 24.2688 48.4995 32.0005ZM41.8331 27.1118H27.1669V29.5562C28.0669 29.5562 28.7965 30.2858 28.7965 31.1858V34.4449C28.7965 36.7495 28.7965 37.9018 29.5124 38.6177C30.2284 39.3336 31.3807 39.3336 33.6852 39.3336H35.3148C37.6194 39.3336 38.7716 39.3336 39.4876 38.6177C40.2035 37.9018 40.2035 36.7495 40.2035 34.4449V31.1858C40.2035 30.2858 40.9331 29.5562 41.8331 29.5562V27.1118ZM31.9302 32.0005C31.9302 31.5505 31.5654 31.1857 31.1154 31.1857C30.6654 31.1857 30.3007 31.5505 30.3007 32.0005V35.9491C30.3007 36.3991 30.6654 36.7639 31.1154 36.7639C31.5654 36.7639 31.9302 36.3991 31.9302 35.9491V32.0005ZM35.3149 32.0005C35.3149 31.5505 34.9501 31.1857 34.5001 31.1857C34.0501 31.1857 33.6854 31.5505 33.6854 32.0005V35.9491C33.6854 36.3991 34.0501 36.7639 34.5001 36.7639C34.9501 36.7639 35.3149 36.3991 35.3149 35.9491V32.0005ZM38.6992 32.0005C38.6992 31.5505 38.3344 31.1857 37.8844 31.1857C37.4344 31.1857 37.0696 31.5505 37.0696 32.0005V35.9491C37.0696 36.3991 37.4344 36.7639 37.8844 36.7639C38.3344 36.7639 38.6992 36.3991 38.6992 35.9491V32.0005ZM34.5 23.8523C34.8987 23.8523 35.3001 23.8848 35.6456 23.9511C35.8183 23.9842 35.9873 24.0277 36.1405 24.085C36.2796 24.1371 36.4694 24.2235 36.6299 24.3733C36.959 24.6803 36.9768 25.1959 36.6698 25.5249C36.3802 25.8354 35.9047 25.8688 35.5756 25.6136L35.5695 25.6113C35.526 25.595 35.4505 25.5729 35.3386 25.5515C35.1148 25.5086 34.8189 25.4819 34.5 25.4819C34.1812 25.4819 33.8853 25.5086 33.6615 25.5515C33.5496 25.5729 33.4741 25.595 33.4306 25.6113L33.4245 25.6136C33.0954 25.8688 32.6199 25.8354 32.3302 25.5249C32.0233 25.1959 32.0411 24.6803 32.3701 24.3733C32.5307 24.2235 32.7204 24.1371 32.8596 24.085C33.0127 24.0277 33.1818 23.9842 33.3545 23.9511C33.7 23.8848 34.1014 23.8523 34.5 23.8523Z" fill="white"/>
<path d="M27.1669 27.1118V25.7119H25.767V27.1118H27.1669ZM41.8331 27.1118H43.233V25.7119H41.8331V27.1118ZM27.1669 29.5562H25.767V30.9561H27.1669V29.5562ZM29.5124 38.6177L28.5225 39.6076L28.5225 39.6076L29.5124 38.6177ZM39.4876 38.6177L40.4775 39.6076L40.4775 39.6076L39.4876 38.6177ZM41.8331 29.5562V30.9561H43.233V29.5562H41.8331ZM35.6456 23.9511L35.9093 22.5762L35.9093 22.5762L35.6456 23.9511ZM36.1405 24.085L35.6499 25.3962L35.6499 25.3962L36.1405 24.085ZM36.6299 24.3733L37.585 23.3497L37.585 23.3497L36.6299 24.3733ZM36.6698 25.5249L37.6934 26.4799L37.6934 26.4799L36.6698 25.5249ZM35.5756 25.6136L36.4333 24.5072L36.2689 24.3797L36.0745 24.3056L35.5756 25.6136ZM35.5695 25.6113L36.0684 24.3032L36.06 24.3001L35.5695 25.6113ZM35.3386 25.5515L35.0748 26.9264L35.0748 26.9264L35.3386 25.5515ZM33.6615 25.5515L33.9253 26.9264L33.9253 26.9264L33.6615 25.5515ZM33.4306 25.6113L32.94 24.3001L32.9317 24.3032L33.4306 25.6113ZM33.4245 25.6136L32.9256 24.3056L32.7312 24.3797L32.5667 24.5072L33.4245 25.6136ZM32.3302 25.5249L31.3066 26.4799L31.3066 26.4799L32.3302 25.5249ZM32.3701 24.3733L31.4151 23.3497L31.4151 23.3497L32.3701 24.3733ZM32.8596 24.085L33.3502 25.3962L33.3502 25.3962L32.8596 24.085ZM33.3545 23.9511L33.6183 25.326L33.6183 25.326L33.3545 23.9511ZM34.5 47.4C43.0049 47.4 49.8995 40.5054 49.8995 32.0005H47.0996C47.0996 38.959 41.4585 44.6 34.5 44.6V47.4ZM19.1005 32.0005C19.1005 40.5054 25.9951 47.4 34.5 47.4V44.6C27.5415 44.6 21.9004 38.959 21.9004 32.0005H19.1005ZM34.5 16.601C25.9951 16.601 19.1005 23.4956 19.1005 32.0005H21.9004C21.9004 25.0419 27.5415 19.4009 34.5 19.4009V16.601ZM49.8995 32.0005C49.8995 23.4956 43.0049 16.601 34.5 16.601V19.4009C41.4585 19.4009 47.0996 25.0419 47.0996 32.0005H49.8995ZM27.1669 28.5118H41.8331V25.7119H27.1669V28.5118ZM28.5669 29.5562V27.1118H25.767V29.5562H28.5669ZM30.1964 31.1858C30.1964 29.5126 28.8401 28.1562 27.1669 28.1562V30.9561C27.2937 30.9561 27.3965 31.059 27.3965 31.1858H30.1964ZM30.1964 34.4449V31.1858H27.3965V34.4449H30.1964ZM30.5023 37.6278C30.4478 37.5733 30.3421 37.4509 30.2735 36.9405C30.1994 36.3898 30.1964 35.6368 30.1964 34.4449H27.3965C27.3965 35.5576 27.3936 36.533 27.4985 37.3136C27.6089 38.1345 27.8611 38.9462 28.5225 39.6076L30.5023 37.6278ZM33.6852 37.9337C32.4934 37.9337 31.7403 37.9307 31.1896 37.8567C30.6792 37.7881 30.5569 37.6823 30.5023 37.6278L28.5225 39.6076C29.184 40.269 29.9957 40.5212 30.8166 40.6316C31.5971 40.7366 32.5725 40.7336 33.6852 40.7336V37.9337ZM35.3148 37.9337H33.6852V40.7336H35.3148V37.9337ZM38.4977 37.6278C38.4432 37.6823 38.3208 37.7881 37.8104 37.8567C37.2597 37.9307 36.5066 37.9337 35.3148 37.9337V40.7336C36.4275 40.7336 37.4029 40.7366 38.1835 40.6316C39.0043 40.5212 39.8161 40.269 40.4775 39.6076L38.4977 37.6278ZM38.8036 34.4449C38.8036 35.6368 38.8006 36.3898 38.7265 36.9405C38.6579 37.4509 38.5522 37.5733 38.4977 37.6278L40.4775 39.6076C41.1389 38.9462 41.3911 38.1345 41.5015 37.3136C41.6064 36.533 41.6035 35.5576 41.6035 34.4449H38.8036ZM38.8036 31.1858V34.4449H41.6035V31.1858H38.8036ZM41.8331 28.1562C40.1599 28.1562 38.8036 29.5126 38.8036 31.1858H41.6035C41.6035 31.059 41.7063 30.9561 41.8331 30.9561V28.1562ZM40.4331 27.1118V29.5562H43.233V27.1118H40.4331ZM31.1154 32.5857C30.7923 32.5857 30.5303 32.3237 30.5303 32.0005H33.3302C33.3302 30.7773 32.3386 29.7858 31.1154 29.7858V32.5857ZM31.7006 32.0005C31.7006 32.3237 31.4386 32.5857 31.1154 32.5857V29.7858C29.8923 29.7858 28.9007 30.7773 28.9007 32.0005H31.7006ZM31.7006 35.9491V32.0005H28.9007V35.9491H31.7006ZM31.1154 35.3639C31.4386 35.3639 31.7006 35.6259 31.7006 35.9491H28.9007C28.9007 37.1723 29.8923 38.1638 31.1154 38.1638V35.3639ZM30.5303 35.9491C30.5303 35.6259 30.7923 35.3639 31.1154 35.3639V38.1638C32.3386 38.1638 33.3302 37.1723 33.3302 35.9491H30.5303ZM30.5303 32.0005V35.9491H33.3302V32.0005H30.5303ZM34.5001 32.5857C34.177 32.5857 33.915 32.3237 33.915 32.0005H36.7149C36.7149 30.7773 35.7233 29.7858 34.5001 29.7858V32.5857ZM35.0853 32.0005C35.0853 32.3237 34.8233 32.5857 34.5001 32.5857V29.7858C33.277 29.7858 32.2854 30.7773 32.2854 32.0005H35.0853ZM35.0853 35.9491V32.0005H32.2854V35.9491H35.0853ZM34.5001 35.3639C34.8233 35.3639 35.0853 35.6259 35.0853 35.9491H32.2854C32.2854 37.1723 33.277 38.1638 34.5001 38.1638V35.3639ZM33.915 35.9491C33.915 35.6259 34.177 35.3639 34.5001 35.3639V38.1638C35.7233 38.1638 36.7149 37.1723 36.7149 35.9491H33.915ZM33.915 32.0005V35.9491H36.7149V32.0005H33.915ZM37.8844 32.5857C37.5613 32.5857 37.2993 32.3237 37.2993 32.0005H40.0992C40.0992 30.7773 39.1076 29.7858 37.8844 29.7858V32.5857ZM38.4696 32.0005C38.4696 32.3237 38.2076 32.5857 37.8844 32.5857V29.7858C36.6613 29.7858 35.6697 30.7773 35.6697 32.0005H38.4696ZM38.4696 35.9491V32.0005H35.6697V35.9491H38.4696ZM37.8844 35.3639C38.2076 35.3639 38.4696 35.6259 38.4696 35.9491H35.6697C35.6697 37.1723 36.6613 38.1638 37.8844 38.1638V35.3639ZM37.2993 35.9491C37.2993 35.6259 37.5613 35.3639 37.8844 35.3639V38.1638C39.1076 38.1638 40.0992 37.1723 40.0992 35.9491H37.2993ZM37.2993 32.0005V35.9491H40.0992V32.0005H37.2993ZM35.9093 22.5762C35.4593 22.4899 34.9672 22.4524 34.5 22.4524V25.2523C34.8301 25.2523 35.1409 25.2798 35.3818 25.326L35.9093 22.5762ZM36.6311 22.7739C36.3837 22.6813 36.1343 22.6194 35.9093 22.5762L35.3818 25.326C35.5022 25.3491 35.5909 25.3741 35.6499 25.3962L36.6311 22.7739ZM37.585 23.3497C37.2289 23.0175 36.8415 22.8526 36.6311 22.7739L35.6499 25.3962C35.6636 25.4013 35.6744 25.4058 35.6833 25.4097C35.6922 25.4137 35.6979 25.4166 35.7009 25.4183C35.704 25.42 35.703 25.4197 35.6988 25.4167C35.6946 25.4138 35.6861 25.4074 35.6749 25.3969L37.585 23.3497ZM37.6934 26.4799C38.5279 25.5856 38.4793 24.1841 37.585 23.3497L35.6749 25.3969C35.4386 25.1764 35.4258 24.8062 35.6462 24.5699L37.6934 26.4799ZM34.7178 26.72C35.6137 27.4145 36.9055 27.3244 37.6934 26.4799L35.6462 24.5699C35.8548 24.3463 36.1958 24.323 36.4333 24.5072L34.7178 26.72ZM35.0706 26.9193L35.0767 26.9217L36.0745 24.3056L36.0684 24.3032L35.0706 26.9193ZM35.0748 26.9264C35.1013 26.9314 35.1154 26.9351 35.1183 26.9359C35.1197 26.9362 35.1173 26.9356 35.1114 26.9338C35.1058 26.932 35.0947 26.9284 35.0789 26.9225L36.06 24.3001C35.9222 24.2485 35.7663 24.2081 35.6023 24.1766L35.0748 26.9264ZM34.5 26.8818C34.7503 26.8818 34.9556 26.9035 35.0748 26.9264L35.6023 24.1766C35.274 24.1136 34.8874 24.0819 34.5 24.0819V26.8818ZM33.9253 26.9264C34.0445 26.9035 34.2498 26.8818 34.5 26.8818V24.0819C34.1127 24.0819 33.7261 24.1136 33.3978 24.1766L33.9253 26.9264ZM33.9212 26.9225C33.9054 26.9284 33.8942 26.932 33.8887 26.9338C33.8828 26.9356 33.8804 26.9362 33.8817 26.9359C33.8847 26.9351 33.8988 26.9314 33.9253 26.9264L33.3978 24.1766C33.2338 24.2081 33.0779 24.2485 32.94 24.3001L33.9212 26.9225ZM33.9234 26.9217L33.9295 26.9193L32.9317 24.3032L32.9256 24.3056L33.9234 26.9217ZM31.3066 26.4799C32.0946 27.3244 33.3864 27.4145 34.2822 26.72L32.5667 24.5072C32.8043 24.323 33.1453 24.3463 33.3538 24.5699L31.3066 26.4799ZM31.4151 23.3497C30.5208 24.1841 30.4722 25.5856 31.3066 26.4799L33.3538 24.5699C33.5743 24.8062 33.5615 25.1764 33.3252 25.3969L31.4151 23.3497ZM32.369 22.7739C32.1585 22.8526 31.7712 23.0175 31.4151 23.3497L33.3252 25.3969C33.3139 25.4074 33.3054 25.4138 33.3012 25.4167C33.2971 25.4197 33.2961 25.42 33.2991 25.4183C33.3022 25.4166 33.3079 25.4137 33.3168 25.4097C33.3256 25.4058 33.3365 25.4013 33.3502 25.3962L32.369 22.7739ZM33.0908 22.5762C32.8658 22.6194 32.6164 22.6813 32.369 22.7739L33.3502 25.3962C33.4091 25.3741 33.4979 25.3491 33.6183 25.326L33.0908 22.5762ZM34.5 22.4524C34.0328 22.4524 33.5407 22.4899 33.0908 22.5762L33.6183 25.326C33.8592 25.2798 34.17 25.2523 34.5 25.2523V22.4524Z" fill="white" mask="url(#path-2-inside-1_648_391)"/>
<path d="M29.407 13.9307L30.0819 14.1165L29.8759 14.8648L29.1527 14.5829L29.407 13.9307ZM25.5857 9.00142L25.4389 9.68587L25.5857 9.00142ZM21.2641 10.414C20.9061 10.5598 20.4976 10.3878 20.3517 10.0298C20.2059 9.67172 20.3779 9.26325 20.736 9.11741L21.2641 10.414ZM31.2283 9.95173L30.0819 14.1165L28.7321 13.7449L29.8785 9.58018L31.2283 9.95173ZM29.1527 14.5829L25.3314 13.0929L25.8399 11.7886L29.6613 13.2785L29.1527 14.5829ZM29.407 13.9307C28.7285 14.103 28.7286 14.1031 28.7286 14.1033C28.7286 14.1033 28.7287 14.1035 28.7287 14.1035C28.7287 14.1036 28.7287 14.1037 28.7287 14.1037C28.7287 14.1036 28.7286 14.1033 28.7285 14.1028C28.7282 14.1017 28.7277 14.0996 28.7269 14.0965C28.7252 14.0904 28.7225 14.0802 28.7188 14.0664C28.7112 14.0388 28.6993 13.9964 28.683 13.9413C28.6504 13.8309 28.6001 13.6699 28.5314 13.4738C28.3935 13.08 28.1839 12.5528 27.8972 12.0128C27.2995 10.887 26.4747 9.9079 25.4389 9.68587L25.7324 8.31696C27.4142 8.67746 28.5001 10.163 29.1337 11.3562C29.4626 11.9757 29.6988 12.5716 29.8527 13.011C29.93 13.2315 29.9872 13.4146 30.0255 13.5443C30.0447 13.6091 30.0592 13.6607 30.0691 13.697C30.0741 13.7152 30.078 13.7296 30.0807 13.7399C30.082 13.745 30.0831 13.7492 30.0839 13.7523C30.0843 13.7538 30.0846 13.7551 30.0849 13.7561C30.085 13.7566 30.0851 13.7571 30.0852 13.7575C30.0853 13.7577 30.0853 13.7579 30.0854 13.758C30.0854 13.7582 30.0855 13.7584 29.407 13.9307ZM25.4389 9.68587C24.7222 9.53223 23.7128 9.68356 22.8021 9.91864C22.3629 10.032 21.975 10.1571 21.697 10.2538C21.5584 10.3021 21.448 10.343 21.3732 10.3715C21.3358 10.3857 21.3074 10.3968 21.2889 10.4041C21.2797 10.4077 21.2729 10.4104 21.2687 10.4121C21.2666 10.4129 21.2652 10.4135 21.2644 10.4138C21.264 10.414 21.2638 10.4141 21.2637 10.4141C21.2637 10.4141 21.2637 10.4141 21.2638 10.4141C21.2638 10.4141 21.2639 10.414 21.2639 10.414C21.264 10.414 21.2641 10.414 21 9.76569C20.736 9.11741 20.7361 9.11736 20.7362 9.11731C20.7363 9.11728 20.7364 9.11723 20.7365 9.11718C20.7367 9.11709 20.737 9.11698 20.7373 9.11685C20.738 9.1166 20.7388 9.11627 20.7397 9.11588C20.7417 9.11509 20.7443 9.11404 20.7476 9.11272C20.7541 9.11009 20.7634 9.10641 20.7751 9.10177C20.7987 9.09249 20.8324 9.07934 20.8753 9.063C20.9612 9.03033 21.0842 8.98479 21.2368 8.93167C21.5412 8.82569 21.9669 8.68834 22.4522 8.56307C23.3905 8.32089 24.674 8.09009 25.7324 8.31696L25.4389 9.68587Z" fill="white"/>
<path d="M10.8665 32.8424L10.2212 32.5711L10.522 31.8556L11.2028 32.2285L10.8665 32.8424ZM13.8882 37.9986L13.6544 38.6584L13.6544 38.6584L13.8882 37.9986ZM18.1617 37.1623C18.5356 37.0639 18.9184 37.2872 19.0169 37.661C19.1153 38.0349 18.892 38.4177 18.5182 38.5162L18.1617 37.1623ZM8.61703 36.3867L10.2212 32.5711L11.5118 33.1137L9.90761 36.9293L8.61703 36.3867ZM11.2028 32.2285L14.6496 34.1166L13.9771 35.3445L10.5302 33.4563L11.2028 32.2285ZM10.8665 32.8424C11.5615 32.7591 11.5615 32.7589 11.5615 32.7587C11.5615 32.7587 11.5614 32.7586 11.5614 32.7585C11.5614 32.7584 11.5614 32.7583 11.5614 32.7583C11.5614 32.7583 11.5614 32.7586 11.5615 32.7591C11.5616 32.7601 11.5619 32.7622 11.5623 32.7651C11.563 32.7711 11.5643 32.781 11.5662 32.7945C11.5699 32.8215 11.576 32.863 11.5846 32.9172C11.6019 33.0257 11.6297 33.1844 11.6706 33.3787C11.7528 33.769 11.8864 34.2943 12.0914 34.8412C12.5197 35.9833 13.1782 37.0044 14.122 37.3388L13.6544 38.6584C12.0879 38.1033 11.2356 36.5463 10.7805 35.3327C10.5439 34.7017 10.3928 34.1047 10.3006 33.6672C10.2544 33.4476 10.2226 33.266 10.2021 33.1377C10.1918 33.0735 10.1844 33.0225 10.1794 32.9866C10.177 32.9686 10.1751 32.9544 10.1738 32.9442C10.1731 32.9391 10.1726 32.9349 10.1722 32.9319C10.172 32.9303 10.1718 32.929 10.1717 32.928C10.1717 32.9275 10.1716 32.927 10.1716 32.9267C10.1715 32.9265 10.1715 32.9262 10.1715 32.9261C10.1715 32.9259 10.1714 32.9257 10.8665 32.8424ZM14.122 37.3388C14.7772 37.5709 15.7491 37.5528 16.6429 37.4421C17.0733 37.3888 17.4565 37.3181 17.732 37.2606C17.8694 37.2319 17.9791 37.2068 18.0535 37.189C18.0906 37.1802 18.1188 37.1732 18.1372 37.1686C18.1464 37.1662 18.1531 37.1645 18.1573 37.1635C18.1593 37.1629 18.1607 37.1626 18.1615 37.1624C18.1619 37.1623 18.1621 37.1622 18.1621 37.1622C18.1621 37.1622 18.1621 37.1622 18.162 37.1622C18.162 37.1622 18.1619 37.1623 18.1619 37.1623C18.1618 37.1623 18.1617 37.1623 18.3399 37.8392C18.5182 38.5162 18.518 38.5162 18.5179 38.5162C18.5179 38.5163 18.5177 38.5163 18.5176 38.5163C18.5174 38.5164 18.5171 38.5165 18.5168 38.5165C18.5161 38.5167 18.5153 38.5169 18.5143 38.5172C18.5124 38.5177 18.5097 38.5184 18.5064 38.5192C18.4998 38.5209 18.4905 38.5233 18.4787 38.5263C18.4551 38.5322 18.4213 38.5406 18.3784 38.5508C18.2925 38.5713 18.1697 38.5994 18.0179 38.6311C17.7149 38.6943 17.2926 38.7723 16.815 38.8315C15.8929 38.9457 14.6389 39.0072 13.6544 38.6584L14.122 37.3388Z" fill="white"/>
</svg>
