<svg width="50" height="50" viewBox="0 0 50 50" fill="none" xmlns="http://www.w3.org/2000/svg">
<rect width="50" height="50" fill="#006B99"/>
<path fill-rule="evenodd" clip-rule="evenodd" d="M22.8711 31.9555C21.9041 32.4558 20.8033 32.7389 19.6354 32.7389C15.7856 32.7389 12.6647 29.6633 12.6647 25.8694C12.6647 22.0756 15.7856 19 19.6354 19C23.4852 19 26.606 22.0756 26.606 25.8694C26.606 26.7786 26.4268 27.6466 26.1013 28.4408C24.8128 29.393 23.7138 30.5869 22.8711 31.9555ZM21.3663 35.5784C20.7955 35.5175 20.2174 35.4865 19.6359 35.4865C16.8738 35.4865 14.1889 36.1851 11.9976 37.4739C10.3114 38.4657 8.98996 39.7643 8.14464 41.242C7.74733 41.9366 8.2133 42.7578 8.99713 42.9188C13.3693 43.8167 17.8267 44.1554 22.2631 43.9347C21.4685 42.2914 21.023 40.4477 21.023 38.5C21.023 37.494 21.1419 36.5157 21.3663 35.5784Z" fill="white"/>
<path d="M36.9741 33.8463V32.9782C36.9741 31.0605 35.4194 29.5059 33.5017 29.5059V29.5059C31.5839 29.5059 30.0293 31.0605 30.0293 32.9782V33.8463" stroke="white" stroke-width="1.73619" stroke-linecap="round"/>
<path fill-rule="evenodd" clip-rule="evenodd" d="M26.4516 33.7413C25.6888 34.5041 25.6888 35.7317 25.6888 38.1871V39.0552C25.6888 42.329 25.6888 43.9659 26.7059 44.9829C27.7229 45.9999 29.3598 45.9999 32.6336 45.9999H34.3698C37.6436 45.9999 39.2805 45.9999 40.2975 44.9829C41.3145 43.9659 41.3145 42.329 41.3145 39.0552V38.1871C41.3145 35.7317 41.3145 34.5041 40.5518 33.7413C39.789 32.9785 38.5613 32.9785 36.106 32.9785H30.8974C28.4421 32.9785 27.2144 32.9785 26.4516 33.7413ZM33.3135 39.2289C33.8968 39.2289 34.3697 38.756 34.3697 38.1727C34.3697 37.5895 33.8968 37.1166 33.3135 37.1166C32.7302 37.1166 32.2574 37.5895 32.2574 38.1727C32.2574 38.756 32.7302 39.2289 33.3135 39.2289ZM36.482 38.1727C36.482 39.5524 35.6002 40.726 34.3695 41.1609V43.4531H32.2572V41.1608C31.0267 40.7258 30.1451 39.5522 30.1451 38.1727C30.1451 36.4229 31.5637 35.0043 33.3135 35.0043C35.0634 35.0043 36.482 36.4229 36.482 38.1727Z" fill="white"/>
<path d="M18.0882 4.05838L19.0087 15.1048H31.1135L32.034 4.05839C32.0553 3.80291 31.7157 3.69559 31.5863 3.91692L27.9564 10.1273C27.8526 10.3048 27.5885 10.279 27.5211 10.0848L25.2885 3.65494C25.2136 3.43925 24.9086 3.43925 24.8337 3.65494L22.6011 10.0848C22.5337 10.279 22.2696 10.3048 22.1659 10.1273L18.5359 3.91692C18.4066 3.69559 18.0669 3.80291 18.0882 4.05838Z" fill="white"/>
<path d="M35.7507 24.4868L35.8529 25.0833L35.1915 25.1967L35.1468 24.5271L35.7507 24.4868ZM39.2296 17.6872L39.8193 17.5508L39.2296 17.6872ZM35.5878 13.4447C35.3422 13.2179 35.327 12.835 35.5537 12.5894C35.7805 12.3438 36.1634 12.3286 36.409 12.5554L35.5878 13.4447ZM41.0667 24.1894L35.8529 25.0833L35.6484 23.8902L40.8622 22.9963L41.0667 24.1894ZM35.1468 24.5271L34.8123 19.5154L36.0201 19.4348L36.3546 24.4465L35.1468 24.5271ZM35.7507 24.4868C35.3668 24.0189 35.3667 24.0189 35.3666 24.019C35.3666 24.019 35.3665 24.0191 35.3665 24.0191C35.3664 24.0191 35.3664 24.0191 35.3665 24.0191C35.3667 24.0189 35.3671 24.0186 35.3678 24.018C35.3691 24.0169 35.3715 24.015 35.3748 24.0122C35.3814 24.0067 35.3918 23.9979 35.4058 23.986C35.4337 23.9622 35.4758 23.9259 35.5298 23.878C35.6379 23.782 35.7934 23.6398 35.9784 23.4584C36.3496 23.0946 36.8344 22.5786 37.2938 21.967C38.2396 20.708 38.959 19.2033 38.64 17.8236L39.8193 17.5508C40.2671 19.4871 39.2471 21.3822 38.2616 22.694C37.7555 23.3678 37.2267 23.9299 36.8257 24.3229C36.6247 24.5199 36.4545 24.6757 36.3334 24.7832C36.2728 24.837 36.2245 24.8788 36.1906 24.9076C36.1736 24.922 36.1603 24.9333 36.1509 24.9411C36.1462 24.9451 36.1424 24.9482 36.1397 24.9504C36.1383 24.9516 36.1372 24.9525 36.1364 24.9532C36.1359 24.9535 36.1356 24.9538 36.1353 24.9541C36.1351 24.9542 36.1349 24.9544 36.1349 24.9544C36.1347 24.9545 36.1346 24.9547 35.7507 24.4868ZM38.64 17.8236C38.4235 16.8877 37.6971 15.8086 36.9598 14.9171C36.6003 14.4824 36.2551 14.1121 35.9998 13.8506C35.8723 13.7201 35.7678 13.6172 35.6959 13.5476C35.6599 13.5128 35.6321 13.4864 35.6137 13.469C35.6045 13.4603 35.5976 13.4538 35.5933 13.4498C35.5911 13.4477 35.5895 13.4463 35.5886 13.4454C35.5881 13.445 35.5878 13.4447 35.5877 13.4446C35.5876 13.4445 35.5876 13.4445 35.5876 13.4445C35.5876 13.4445 35.5877 13.4446 35.5877 13.4446C35.5877 13.4446 35.5878 13.4447 35.9984 13C36.409 12.5554 36.4091 12.5554 36.4091 12.5555C36.4092 12.5556 36.4093 12.5557 36.4094 12.5557C36.4096 12.5559 36.4098 12.5561 36.4101 12.5564C36.4106 12.5568 36.4113 12.5575 36.4121 12.5583C36.4138 12.5599 36.4162 12.5621 36.4192 12.5649C36.4252 12.5705 36.4337 12.5785 36.4446 12.5888C36.4665 12.6093 36.4978 12.6392 36.5375 12.6776C36.6168 12.7543 36.7295 12.8653 36.8659 13.005C37.1382 13.2838 37.5068 13.6792 37.8926 14.1456C38.6456 15.0561 39.5348 16.3206 39.8193 17.5508L38.64 17.8236Z" fill="white"/>
</svg>
