<svg width="50" height="50" viewBox="0 0 50 50" fill="none" xmlns="http://www.w3.org/2000/svg">
<rect width="50" height="50" fill="#006B99"/>
<rect width="50" height="50" fill="black" fill-opacity="0.3"/>
<path fill-rule="evenodd" clip-rule="evenodd" d="M25.893 26.6062C25.893 30.2547 22.8917 33.2123 19.1895 33.2123C15.4872 33.2123 12.486 30.2547 12.486 26.6062C12.486 22.9577 15.4872 20 19.1895 20C22.8917 20 25.893 22.9577 25.893 26.6062ZM22.23 36.1531C22.1354 36.7316 22.0862 37.3255 22.0862 37.9308C22.0862 40.1041 22.7204 42.1292 23.8139 43.8312C18.8585 44.2837 13.8532 44.0073 8.95892 43.0021C8.20513 42.8473 7.75701 42.0575 8.1391 41.3896C8.95202 39.9685 10.2228 38.7196 11.8444 37.7659C13.9517 36.5265 16.5337 35.8547 19.1899 35.8547C20.2224 35.8547 21.2436 35.9562 22.23 36.1531Z" fill="white"/>
<path fill-rule="evenodd" clip-rule="evenodd" d="M34.786 30.4032C34.8348 30.5216 34.8494 30.6678 34.8787 30.9603C34.934 31.5133 34.9616 31.7898 35.0567 31.9535C35.2545 32.2942 35.6559 32.4604 36.0367 32.3594C36.2196 32.3109 36.4347 32.1349 36.8649 31.7829C37.0925 31.5967 37.2063 31.5036 37.3245 31.4544C37.5677 31.353 37.8436 31.3668 38.0755 31.4918C38.1882 31.5526 38.2922 31.6565 38.5001 31.8644L39.2209 32.5852L39.2209 32.5852C39.4289 32.7933 39.5329 32.8973 39.5937 33.0101C39.7186 33.2419 39.7324 33.5177 39.6311 33.7608C39.5819 33.8791 39.4887 33.9929 39.3024 34.2206L39.3024 34.2207C38.9502 34.6512 38.774 34.8665 38.7255 35.0496C38.6247 35.4302 38.7908 35.8313 39.1313 36.0291C39.295 36.1244 39.5718 36.152 40.1253 36.2074C40.4181 36.2367 40.5644 36.2513 40.6829 36.3001C40.9264 36.4004 41.1117 36.6052 41.1873 36.8574C41.2241 36.9802 41.2241 37.1273 41.2241 37.4215V38.441C41.2241 38.7348 41.2241 38.8818 41.1873 39.0044C41.1118 39.2569 40.9263 39.4618 40.6827 39.5621C40.5643 39.6108 40.4181 39.6254 40.1256 39.6547C39.5727 39.71 39.2963 39.7376 39.1327 39.8326C38.7918 40.0305 38.6256 40.4319 38.7267 40.8128C38.7752 40.9957 38.9511 41.2107 39.3029 41.6407L39.3029 41.6407L39.3029 41.6407C39.489 41.8681 39.582 41.9818 39.6313 42.0999C39.7327 42.3432 39.7189 42.6193 39.5938 42.8512C39.533 42.9639 39.4291 43.0678 39.2214 43.2755L38.5003 43.9966C38.2924 44.2045 38.1885 44.3085 38.0757 44.3692C37.8438 44.4942 37.5679 44.508 37.3248 44.4067C37.2065 44.3574 37.0927 44.2643 36.8652 44.0781L36.8652 44.0781C36.4348 43.726 36.2196 43.55 36.0366 43.5014C35.6559 43.4005 35.2547 43.5667 35.0568 43.9073C34.9617 44.071 34.934 44.3477 34.8787 44.901C34.8494 45.1937 34.8348 45.3401 34.786 45.4586C34.6857 45.7021 34.4809 45.8874 34.2286 45.963C34.1059 45.9997 33.9588 45.9997 33.6647 45.9997H32.6454C32.3512 45.9997 32.2042 45.9997 32.0815 45.963C31.8291 45.8874 31.6244 45.7021 31.5241 45.4585C31.4753 45.3401 31.4606 45.1937 31.4314 44.9011C31.376 44.3477 31.3484 44.0711 31.2532 43.9073C31.0554 43.5668 30.6542 43.4006 30.2735 43.5015C30.0904 43.55 29.8753 43.726 29.4449 44.0781L29.4449 44.0781L29.4449 44.0781C29.2173 44.2643 29.1036 44.3574 28.9853 44.4067C28.7421 44.508 28.4663 44.4942 28.2344 44.3692C28.1216 44.3085 28.0177 44.2045 27.8098 43.9966L27.8097 43.9966L27.0887 43.2755C26.8809 43.0678 26.7771 42.9639 26.7163 42.8512C26.5912 42.6193 26.5774 42.3432 26.6788 42.1C26.7281 41.9818 26.8211 41.8681 27.0072 41.6407C27.359 41.2107 27.5349 40.9957 27.5835 40.8128C27.6845 40.4319 27.5183 40.0305 27.1774 39.8326C27.0138 39.7376 26.7374 39.71 26.1845 39.6547C25.8921 39.6254 25.7459 39.6108 25.6275 39.5621C25.3838 39.4618 25.1984 39.2569 25.1228 39.0044C25.0861 38.8818 25.0861 38.7348 25.0861 38.441V37.4214C25.0861 37.1273 25.0861 36.9802 25.1229 36.8574C25.1985 36.6052 25.3838 36.4004 25.6273 36.3001C25.7458 36.2513 25.8921 36.2367 26.1848 36.2074C26.7383 36.152 27.015 36.1244 27.1788 36.0292C27.5193 35.8313 27.6854 35.4302 27.5846 35.0496C27.5361 34.8665 27.3599 34.6512 27.0077 34.2207C26.8214 33.9929 26.7282 33.8791 26.6789 33.7608C26.5777 33.5177 26.5915 33.2419 26.7164 33.0101C26.7772 32.8973 26.8812 32.7932 27.0892 32.5852L27.81 31.8644C28.0179 31.6565 28.1218 31.5526 28.2346 31.4918C28.4665 31.3668 28.7424 31.353 28.9856 31.4544C29.1038 31.5036 29.2176 31.5967 29.4451 31.7829C29.8753 32.1348 30.0904 32.3108 30.2734 32.3594C30.6542 32.4604 31.0555 32.2941 31.2534 31.9534C31.3484 31.7897 31.3761 31.5132 31.4314 30.9602C31.4606 30.6678 31.4753 30.5216 31.524 30.4032C31.6243 30.1595 31.8292 29.9741 32.0816 29.8985C32.2043 29.8618 32.3512 29.8618 32.6451 29.8618H33.6649C33.9588 29.8618 34.1058 29.8618 34.2284 29.8985C34.4809 29.9741 34.6857 30.1595 34.786 30.4032ZM33.1549 41.1583C34.9374 41.1583 36.3825 39.7132 36.3825 37.9307C36.3825 36.1481 34.9374 34.7031 33.1549 34.7031C31.3723 34.7031 29.9273 36.1481 29.9273 37.9307C29.9273 39.7132 31.3723 41.1583 33.1549 41.1583Z" fill="white"/>
<path d="M18.0882 5.05838L19.0087 16.1048H31.1135L32.034 5.05839C32.0553 4.80291 31.7157 4.69559 31.5863 4.91692L27.9564 11.1273C27.8526 11.3048 27.5885 11.279 27.5211 11.0848L25.2885 4.65494C25.2136 4.43925 24.9086 4.43925 24.8337 4.65494L22.6011 11.0848C22.5337 11.279 22.2696 11.3048 22.1659 11.1273L18.5359 4.91692C18.4066 4.69559 18.0669 4.80291 18.0882 5.05838Z" fill="white"/>
<path d="M35.7507 25.4868L35.8529 26.0833L35.1915 26.1967L35.1468 25.5271L35.7507 25.4868ZM39.2296 18.6872L39.8193 18.5508L39.8193 18.5508L39.2296 18.6872ZM35.5878 14.4447C35.3422 14.2179 35.327 13.835 35.5537 13.5894C35.7805 13.3438 36.1634 13.3286 36.409 13.5553L35.5878 14.4447ZM41.0667 25.1894L35.8529 26.0833L35.6484 24.8902L40.8622 23.9963L41.0667 25.1894ZM35.1468 25.5271L34.8123 20.5154L36.0201 20.4348L36.3546 25.4465L35.1468 25.5271ZM35.7507 25.4868C35.3668 25.0189 35.3667 25.0189 35.3666 25.019C35.3666 25.019 35.3665 25.0191 35.3665 25.0191C35.3664 25.0191 35.3664 25.0191 35.3665 25.0191C35.3667 25.0189 35.3671 25.0186 35.3678 25.018C35.3691 25.0169 35.3715 25.015 35.3748 25.0122C35.3814 25.0067 35.3918 24.9979 35.4058 24.986C35.4337 24.9622 35.4758 24.9259 35.5298 24.878C35.6379 24.782 35.7934 24.6398 35.9784 24.4584C36.3496 24.0946 36.8344 23.5786 37.2938 22.967C38.2396 21.708 38.959 20.2033 38.64 18.8236L39.8193 18.5508C40.2671 20.4871 39.2471 22.3822 38.2616 23.694C37.7555 24.3678 37.2267 24.9299 36.8257 25.3229C36.6247 25.5199 36.4545 25.6757 36.3334 25.7832C36.2728 25.837 36.2245 25.8788 36.1906 25.9076C36.1736 25.922 36.1603 25.9333 36.1509 25.9411C36.1462 25.9451 36.1424 25.9482 36.1397 25.9504C36.1383 25.9516 36.1372 25.9525 36.1364 25.9532C36.1359 25.9535 36.1356 25.9538 36.1353 25.9541C36.1351 25.9542 36.1349 25.9544 36.1349 25.9544C36.1347 25.9545 36.1346 25.9547 35.7507 25.4868ZM38.64 18.8236C38.4235 17.8877 37.6971 16.8086 36.9598 15.9171C36.6003 15.4824 36.2551 15.1121 35.9998 14.8506C35.8723 14.7201 35.7678 14.6172 35.6959 14.5476C35.6599 14.5128 35.6321 14.4864 35.6137 14.469C35.6045 14.4603 35.5976 14.4538 35.5933 14.4498C35.5911 14.4477 35.5895 14.4463 35.5886 14.4454C35.5881 14.445 35.5878 14.4447 35.5877 14.4446C35.5876 14.4445 35.5876 14.4445 35.5876 14.4445C35.5876 14.4445 35.5877 14.4446 35.5877 14.4446C35.5877 14.4446 35.5878 14.4447 35.9984 14C36.409 13.5553 36.4091 13.5554 36.4091 13.5555C36.4092 13.5556 36.4093 13.5557 36.4094 13.5557C36.4096 13.5559 36.4098 13.5561 36.4101 13.5564C36.4106 13.5568 36.4113 13.5575 36.4121 13.5583C36.4138 13.5599 36.4162 13.5621 36.4192 13.5649C36.4252 13.5705 36.4337 13.5785 36.4446 13.5888C36.4665 13.6093 36.4978 13.6392 36.5375 13.6776C36.6168 13.7543 36.7295 13.8653 36.8659 14.005C37.1382 14.2838 37.5068 14.6792 37.8926 15.1456C38.6456 16.0561 39.5348 17.3206 39.8193 18.5508L38.64 18.8236Z" fill="white"/>
</svg>
