<svg width="50" height="50" viewBox="0 0 50 50" fill="none" xmlns="http://www.w3.org/2000/svg">
<rect width="50" height="50" fill="#006B99"/>
<path fill-rule="evenodd" clip-rule="evenodd" d="M20.9173 31.6695C19.9595 32.2366 18.8381 32.5628 17.6393 32.5628C14.1191 32.5628 11.2654 29.7505 11.2654 26.2814C11.2654 22.8123 14.1191 20 17.6393 20C21.1596 20 24.0133 22.8123 24.0133 26.2814C24.0133 27.2166 23.8059 28.1041 23.4339 28.9016C22.4352 29.6608 21.5803 30.5995 20.9173 31.6695ZM19.5569 35.1988C18.9267 35.1169 18.2856 35.0751 17.6398 35.0751C15.1142 35.0751 12.6591 35.7139 10.6554 36.8924C9.11352 37.7992 7.90521 38.9866 7.13226 40.3379C6.76896 40.973 7.19504 41.7239 7.91177 41.8711C12.2621 42.7646 16.7047 43.0525 21.1145 42.7348C20.0253 41.1089 19.39 39.1532 19.39 37.0492C19.39 36.4173 19.4472 35.7989 19.5569 35.1988Z" fill="white"/>
<circle cx="29.7396" cy="37.0492" r="10.2396" stroke="white"/>
<path d="M26.7205 34.9274V39.3906H25.9055L23.9637 36.5815H23.931V39.3906H22.9874V34.9274H23.8155L25.742 37.7344H25.7813V34.9274H26.7205ZM27.5002 39.3906V34.9274H30.5076V35.7054H28.4438V36.7689H30.3529V37.5469H28.4438V38.6126H30.5163V39.3906H27.5002ZM32.2625 39.3906L30.9854 34.9274H32.0162L32.755 38.0286H32.7921L33.6071 34.9274H34.4898L35.3026 38.0351H35.3419L36.0806 34.9274H37.1115L35.8344 39.3906H34.9147L34.0648 36.4725H34.0299L33.1822 39.3906H32.2625Z" fill="white"/>
<path d="M16.6655 4.05838L17.586 15.1048H29.6908L30.6113 4.05839C30.6326 3.80291 30.2929 3.69559 30.1636 3.91692L26.5336 10.1273C26.4299 10.3048 26.1658 10.279 26.0984 10.0848L23.8658 3.65494C23.7909 3.43925 23.4859 3.43925 23.411 3.65494L21.1784 10.0848C21.1109 10.279 20.8469 10.3048 20.7431 10.1273L17.1132 3.91692C16.9838 3.69559 16.6442 3.80291 16.6655 4.05838Z" fill="white"/>
<path d="M34.3279 24.4868L34.4302 25.0833L33.7687 25.1967L33.724 24.5271L34.3279 24.4868ZM37.8069 17.6872L38.3966 17.5508L37.8069 17.6872ZM34.1651 13.4447C33.9195 13.2179 33.9042 12.835 34.131 12.5894C34.3577 12.3438 34.7407 12.3286 34.9862 12.5554L34.1651 13.4447ZM39.644 24.1894L34.4302 25.0833L34.2257 23.8902L39.4394 22.9963L39.644 24.1894ZM33.724 24.5271L33.3895 19.5154L34.5973 19.4348L34.9318 24.4465L33.724 24.5271ZM34.3279 24.4868C33.944 24.0189 33.9439 24.0189 33.9438 24.019C33.9438 24.019 33.9438 24.0191 33.9437 24.0191C33.9437 24.0191 33.9437 24.0191 33.9438 24.0191C33.944 24.0189 33.9444 24.0186 33.9451 24.018C33.9464 24.0169 33.9487 24.015 33.952 24.0122C33.9586 24.0067 33.9691 23.9979 33.983 23.986C34.011 23.9622 34.0531 23.9259 34.1071 23.878C34.2152 23.782 34.3707 23.6398 34.5557 23.4584C34.9269 23.0946 35.4116 22.5786 35.8711 21.967C36.8168 20.708 37.5363 19.2033 37.2172 17.8236L38.3966 17.5508C38.8444 19.4871 37.8243 21.3822 36.8389 22.694C36.3328 23.3678 35.804 23.9299 35.403 24.3229C35.202 24.5199 35.0318 24.6757 34.9107 24.7832C34.8501 24.837 34.8017 24.8788 34.7678 24.9076C34.7509 24.922 34.7376 24.9333 34.7282 24.9411C34.7234 24.9451 34.7197 24.9482 34.717 24.9504C34.7156 24.9516 34.7145 24.9525 34.7136 24.9532C34.7132 24.9535 34.7128 24.9538 34.7125 24.9541C34.7124 24.9542 34.7122 24.9544 34.7121 24.9544C34.712 24.9545 34.7118 24.9547 34.3279 24.4868ZM37.2172 17.8236C37.0008 16.8877 36.2744 15.8086 35.537 14.9171C35.1776 14.4824 34.8324 14.1121 34.577 13.8506C34.4496 13.7201 34.3451 13.6172 34.2731 13.5476C34.2372 13.5128 34.2094 13.4864 34.191 13.469C34.1818 13.4603 34.1749 13.4538 34.1705 13.4498C34.1683 13.4477 34.1668 13.4463 34.1659 13.4454C34.1654 13.445 34.1651 13.4447 34.165 13.4446C34.1649 13.4445 34.1649 13.4445 34.1649 13.4445C34.1649 13.4445 34.1649 13.4446 34.165 13.4446C34.165 13.4446 34.1651 13.4447 34.5757 13C34.9862 12.5554 34.9863 12.5554 34.9864 12.5555C34.9865 12.5556 34.9866 12.5557 34.9867 12.5557C34.9868 12.5559 34.9871 12.5561 34.9873 12.5564C34.9879 12.5568 34.9885 12.5575 34.9894 12.5583C34.9911 12.5599 34.9935 12.5621 34.9965 12.5649C35.0025 12.5705 35.011 12.5785 35.0219 12.5888C35.0437 12.6093 35.0751 12.6392 35.1148 12.6776C35.1941 12.7543 35.3068 12.8653 35.4432 13.005C35.7154 13.2838 36.0841 13.6792 36.4698 14.1456C37.2229 15.0561 38.1121 16.3206 38.3966 17.5508L37.2172 17.8236Z" fill="white"/>
</svg>
