<svg width="50" height="50" viewBox="0 0 50 50" fill="none" xmlns="http://www.w3.org/2000/svg">
<rect width="50" height="50" fill="#006B99"/>
<path fill-rule="evenodd" clip-rule="evenodd" d="M25.893 26.6062C25.893 30.2547 22.8917 33.2123 19.1895 33.2123C15.4872 33.2123 12.486 30.2547 12.486 26.6062C12.486 22.9577 15.4872 20 19.1895 20C22.8917 20 25.893 22.9577 25.893 26.6062ZM22.23 36.153C22.1354 36.7316 22.0862 37.3255 22.0862 37.9308C22.0862 40.1041 22.7204 42.1292 23.8139 43.8312C18.8585 44.2836 13.8532 44.0073 8.95892 43.0021C8.20513 42.8473 7.75701 42.0575 8.1391 41.3896C8.95202 39.9685 10.2228 38.7196 11.8444 37.7659C13.9517 36.5265 16.5337 35.8547 19.1899 35.8547C20.2223 35.8547 21.2436 35.9562 22.23 36.153Z" fill="white"/>
<path fill-rule="evenodd" clip-rule="evenodd" d="M34.7861 30.4037C34.8349 30.5221 34.8495 30.6683 34.8787 30.9607C34.934 31.5138 34.9617 31.7903 35.0567 31.954C35.2546 32.2947 35.6559 32.4609 36.0367 32.3599C36.2197 32.3114 36.4348 32.1354 36.865 31.7834L36.865 31.7834C37.0926 31.5972 37.2063 31.5041 37.3246 31.4549C37.5677 31.3535 37.8437 31.3673 38.0756 31.4923C38.1883 31.5531 38.2922 31.657 38.5001 31.8649L39.2209 32.5857C39.429 32.7937 39.533 32.8978 39.5938 33.0106C39.7187 33.2424 39.7324 33.5182 39.6312 33.7613C39.5819 33.8796 39.4888 33.9934 39.3025 34.2211L39.3025 34.2211L39.3025 34.2211C38.9502 34.6517 38.7741 34.867 38.7256 35.0501C38.6248 35.4307 38.7909 35.8318 39.1313 36.0296C39.2951 36.1248 39.5719 36.1525 40.1254 36.2079C40.4181 36.2371 40.5645 36.2518 40.683 36.3006C40.9265 36.4009 41.1117 36.6056 41.1873 36.8579C41.2241 36.9807 41.2241 37.1278 41.2241 37.4219V38.4415C41.2241 38.7353 41.2241 38.8823 41.1874 39.0049C41.1118 39.2574 40.9264 39.4623 40.6827 39.5626C40.5643 39.6113 40.4181 39.6259 40.1257 39.6552H40.1257C39.5728 39.7105 39.2964 39.7381 39.1327 39.8331C38.7919 40.031 38.6256 40.4324 38.7267 40.8133C38.7752 40.9962 38.9512 41.2112 39.303 41.6412C39.489 41.8686 39.5821 41.9823 39.6313 42.1004C39.7327 42.3437 39.719 42.6197 39.5938 42.8517C39.5331 42.9644 39.4292 43.0682 39.2215 43.276L39.2214 43.276L38.5004 43.997C38.2925 44.205 38.1885 44.3089 38.0758 44.3697C37.8439 44.4947 37.568 44.5085 37.3248 44.4072C37.2066 44.3579 37.0928 44.2648 36.8652 44.0786L36.8652 44.0786C36.4349 43.7265 36.2197 43.5504 36.0366 43.5019C35.6559 43.401 35.2547 43.5672 35.0569 43.9078C34.9618 44.0715 34.9341 44.3482 34.8787 44.9015L34.8787 44.9015C34.8495 45.1942 34.8348 45.3406 34.786 45.459C34.6857 45.7026 34.481 45.8879 34.2287 45.9635C34.1059 46.0002 33.9589 46.0002 33.6647 46.0002H32.6454C32.3513 46.0002 32.2042 46.0002 32.0815 45.9635C31.8292 45.8879 31.6244 45.7026 31.5241 45.459C31.4753 45.3406 31.4607 45.1942 31.4314 44.9015C31.3761 44.3482 31.3484 44.0715 31.2533 43.9078C31.0554 43.5672 30.6542 43.4011 30.2735 43.502C30.0905 43.5505 29.8753 43.7265 29.445 44.0786L29.445 44.0786C29.2174 44.2648 29.1036 44.3579 28.9854 44.4072C28.7422 44.5085 28.4663 44.4947 28.2344 44.3697C28.1217 44.309 28.0177 44.205 27.8098 43.9971L27.0888 43.276C26.881 43.0683 26.7771 42.9644 26.7164 42.8517C26.5912 42.6198 26.5775 42.3437 26.6789 42.1005C26.7281 41.9823 26.8212 41.8686 27.0072 41.6412L27.0072 41.6412C27.3591 41.2112 27.535 40.9962 27.5835 40.8133C27.6846 40.4324 27.5183 40.031 27.1775 39.8331C27.0139 39.7381 26.7374 39.7105 26.1846 39.6552C25.8922 39.6259 25.746 39.6113 25.6276 39.5626C25.3839 39.4623 25.1984 39.2574 25.1229 39.0049C25.0862 38.8822 25.0862 38.7353 25.0862 38.4415V37.4219C25.0862 37.1278 25.0862 36.9807 25.123 36.8579C25.1986 36.6057 25.3838 36.4009 25.6273 36.3006C25.7458 36.2518 25.8922 36.2371 26.1849 36.2079C26.7384 36.1525 27.0151 36.1248 27.1789 36.0297C27.5193 35.8318 27.6854 35.4307 27.5846 35.0501C27.5361 34.867 27.36 34.6517 27.0077 34.2212C26.8214 33.9934 26.7283 33.8796 26.679 33.7613C26.5778 33.5182 26.5915 33.2424 26.7164 33.0106C26.7772 32.8977 26.8812 32.7937 27.0893 32.5857L27.8101 31.8649L27.8101 31.8649C28.018 31.657 28.1219 31.5531 28.2346 31.4923C28.4665 31.3673 28.7425 31.3535 28.9857 31.4548C29.1039 31.5041 29.2176 31.5972 29.4452 31.7834C29.8754 32.1353 30.0905 32.3113 30.2734 32.3598C30.6542 32.4609 31.0556 32.2946 31.2535 31.9539C31.3485 31.7902 31.3761 31.5137 31.4314 30.9607C31.4607 30.6683 31.4753 30.5221 31.5241 30.4037C31.6244 30.16 31.8292 29.9746 32.0817 29.899C32.2043 29.8623 32.3513 29.8623 32.6452 29.8623H33.665C33.9589 29.8623 34.1058 29.8623 34.2285 29.899C34.4809 29.9746 34.6858 30.16 34.7861 30.4037ZM33.1549 41.1585C34.9375 41.1585 36.3825 39.7135 36.3825 37.9309C36.3825 36.1484 34.9375 34.7034 33.1549 34.7034C31.3724 34.7034 29.9273 36.1484 29.9273 37.9309C29.9273 39.7135 31.3724 41.1585 33.1549 41.1585Z" fill="white"/>
<path d="M18.0882 5.05838L19.0087 16.1048H31.1135L32.034 5.05839C32.0553 4.80291 31.7157 4.69559 31.5863 4.91692L27.9564 11.1273C27.8526 11.3048 27.5885 11.279 27.5211 11.0848L25.2885 4.65494C25.2136 4.43925 24.9086 4.43925 24.8337 4.65494L22.6011 11.0848C22.5337 11.279 22.2696 11.3048 22.1659 11.1273L18.5359 4.91692C18.4066 4.69559 18.0669 4.80291 18.0882 5.05838Z" fill="white"/>
<path d="M35.7507 25.4868L35.8529 26.0833L35.1915 26.1967L35.1468 25.5271L35.7507 25.4868ZM39.2296 18.6872L39.8193 18.5508L39.2296 18.6872ZM35.5878 14.4447C35.3422 14.2179 35.327 13.835 35.5537 13.5894C35.7805 13.3438 36.1634 13.3286 36.409 13.5554L35.5878 14.4447ZM41.0667 25.1894L35.8529 26.0833L35.6484 24.8902L40.8622 23.9963L41.0667 25.1894ZM35.1468 25.5271L34.8123 20.5154L36.0201 20.4348L36.3546 25.4465L35.1468 25.5271ZM35.7507 25.4868C35.3668 25.0189 35.3667 25.0189 35.3666 25.019C35.3666 25.019 35.3665 25.0191 35.3665 25.0191C35.3664 25.0191 35.3664 25.0191 35.3665 25.0191C35.3667 25.0189 35.3671 25.0186 35.3678 25.018C35.3691 25.0169 35.3715 25.015 35.3748 25.0122C35.3814 25.0067 35.3918 24.9979 35.4058 24.986C35.4337 24.9622 35.4758 24.9259 35.5298 24.878C35.6379 24.782 35.7934 24.6398 35.9784 24.4584C36.3496 24.0946 36.8344 23.5786 37.2938 22.967C38.2396 21.708 38.959 20.2033 38.64 18.8236L39.8193 18.5508C40.2671 20.4871 39.2471 22.3822 38.2616 23.694C37.7555 24.3678 37.2267 24.9299 36.8257 25.3229C36.6247 25.5199 36.4545 25.6757 36.3334 25.7832C36.2728 25.837 36.2245 25.8788 36.1906 25.9076C36.1736 25.922 36.1603 25.9333 36.1509 25.9411C36.1462 25.9451 36.1424 25.9482 36.1397 25.9504C36.1383 25.9516 36.1372 25.9525 36.1364 25.9532C36.1359 25.9535 36.1356 25.9538 36.1353 25.9541C36.1351 25.9542 36.1349 25.9544 36.1349 25.9544C36.1347 25.9545 36.1346 25.9547 35.7507 25.4868ZM38.64 18.8236C38.4235 17.8877 37.6971 16.8086 36.9598 15.9171C36.6003 15.4824 36.2551 15.1121 35.9998 14.8506C35.8723 14.7201 35.7678 14.6172 35.6959 14.5476C35.6599 14.5128 35.6321 14.4864 35.6137 14.469C35.6045 14.4603 35.5976 14.4538 35.5933 14.4498C35.5911 14.4477 35.5895 14.4463 35.5886 14.4454C35.5881 14.445 35.5878 14.4447 35.5877 14.4446C35.5876 14.4445 35.5876 14.4445 35.5876 14.4445C35.5876 14.4445 35.5877 14.4446 35.5877 14.4446C35.5877 14.4446 35.5878 14.4447 35.9984 14C36.409 13.5554 36.4091 13.5554 36.4091 13.5555C36.4092 13.5556 36.4093 13.5557 36.4094 13.5557C36.4096 13.5559 36.4098 13.5561 36.4101 13.5564C36.4106 13.5568 36.4113 13.5575 36.4121 13.5583C36.4138 13.5599 36.4162 13.5621 36.4192 13.5649C36.4252 13.5705 36.4337 13.5785 36.4446 13.5888C36.4665 13.6093 36.4978 13.6392 36.5375 13.6776C36.6168 13.7543 36.7295 13.8653 36.8659 14.005C37.1382 14.2838 37.5068 14.6792 37.8926 15.1456C38.6456 16.0561 39.5348 17.3206 39.8193 18.5508L38.64 18.8236Z" fill="white"/>
</svg>
