<svg width="50" height="50" viewBox="0 0 50 50" fill="none" xmlns="http://www.w3.org/2000/svg">
<rect width="50" height="50" fill="#333C1F"/>
<path fill-rule="evenodd" clip-rule="evenodd" d="M21.2776 17.2714C21.2776 20.1826 18.8828 22.5427 15.9286 22.5427C12.9744 22.5427 10.5796 20.1826 10.5796 17.2714C10.5796 14.3601 12.9744 12 15.9286 12C18.8828 12 21.2776 14.3601 21.2776 17.2714ZM18.6337 24.9484C17.7027 26.8415 17.1349 28.9455 17.0212 31.1694C13.9226 31.2528 10.8168 30.9811 7.76516 30.3544C7.16368 30.2309 6.80611 29.6007 7.11099 29.0677C7.75966 27.9337 8.77368 26.9372 10.0676 26.1762C11.7491 25.1872 13.8094 24.6512 15.9289 24.6512C16.8505 24.6512 17.7609 24.7525 18.6337 24.9484Z" fill="white"/>
<circle cx="32.7498" cy="31.9999" r="4.9999" fill="white"/>
<path d="M43.9996 32C43.9996 32 42.7496 22.0002 32.7498 22.0002C22.75 22.0002 21.5001 32 21.5001 32" stroke="white" stroke-width="2.49995"/>
</svg>
