<svg width="50" height="50" viewBox="0 0 50 50" fill="none" xmlns="http://www.w3.org/2000/svg">
<rect width="50" height="50" fill="#998A00"/>
<path fill-rule="evenodd" clip-rule="evenodd" d="M32.5155 10.863L21.696 9.52008C16.7104 8.90124 14.2176 8.59182 12.6088 10.0133C11 11.4347 11 13.9467 11 18.9705V23.4139H22.6095L17.6231 18.4906L19.8534 16.2318L27.5911 23.8717L28.735 25.0011L27.5911 26.1305L19.8534 33.7704L17.6231 31.5116L22.6095 26.5883H11V31.0298C11 36.0537 11 38.5657 12.6088 39.9871C14.2176 41.4085 16.7104 41.0991 21.696 40.4803L32.5155 39.1373C35.1659 38.8084 36.4911 38.6439 37.2866 37.7435C38.0821 36.8431 38.0821 35.5078 38.0821 32.837V17.1633C38.0821 14.4926 38.0821 13.1572 37.2866 12.2569C36.4911 11.3565 35.1659 11.192 32.5155 10.863Z" fill="white"/>
</svg>
