<svg width="50" height="50" viewBox="0 0 50 50" fill="none" xmlns="http://www.w3.org/2000/svg">
<rect width="50" height="50" fill="#849900"/>
<path fill-rule="evenodd" clip-rule="evenodd" d="M32.3471 17.6767C31.4017 14.5997 29.4823 12 24.3654 12C17.1509 12 16.2774 17.2287 15.5463 21.6047C15.2753 23.2271 15.0238 24.7323 14.476 25.8103C14.3972 25.9655 14.3238 26.1119 14.2538 26.2517C13.8135 27.1308 13.5048 27.747 12.7807 28.6316C12.0815 29.4857 10.9087 30.3972 9.8971 31.1033C9.3792 31.4648 9.63248 32.3438 10.264 32.3438H31.6476L28.6877 30.4495L22.4001 26.4257L18.1887 23.7306L23.579 15.3077L27.7904 18.0029L30.4991 19.7363L32.3471 17.6767ZM35.8978 28.693L35.1043 29.5773L32.622 32.3438H38.4691C39.1343 32.3438 39.3729 31.3521 38.8019 31.0108C37.8577 30.4462 36.8619 29.7614 36.2325 29.077C36.1111 28.9449 36.0001 28.8174 35.8978 28.693Z" fill="white"/>
<path d="M25.0952 22.2144L31.2857 25.9286L40.881 15.7144" stroke="white" stroke-width="3.09524" stroke-linecap="square"/>
<path d="M29.0249 34.2856C29.0249 36.2663 26.9463 37.9999 24.3821 37.9999C21.8179 37.9999 19.7392 36.2663 19.7392 34.2856H24.2163H29.0249Z" fill="white"/>
</svg>
