<svg width="50" height="50" viewBox="0 0 50 50" fill="none" xmlns="http://www.w3.org/2000/svg">
<rect width="50" height="50" fill="#002299"/>
<rect width="50" height="50" fill="black" fill-opacity="0.3"/>
<path fill-rule="evenodd" clip-rule="evenodd" d="M23.3816 24.1617C22.4896 24.5321 21.5093 24.7368 20.4806 24.7368C16.3512 24.7368 13.0036 21.4379 13.0036 17.3684C13.0036 13.299 16.3512 10 20.4806 10C24.61 10 27.9576 13.299 27.9576 17.3684C27.9576 18.0116 27.874 18.6355 27.7169 19.2301C25.8835 20.4724 24.3841 22.1705 23.3816 24.1617ZM22.1909 27.7677C21.6263 27.7122 21.0552 27.6841 20.4811 27.6841C17.5184 27.6841 14.6385 28.4334 12.288 29.8158C10.4793 30.8796 9.06187 32.2725 8.15515 33.8576C7.72897 34.6026 8.22879 35.4835 9.06956 35.6562C13.9456 36.6576 18.9205 37.0105 23.8662 36.7148C22.6817 34.755 22 32.4571 22 30C22 29.2388 22.0654 28.4929 22.1909 27.7677Z" fill="white"/>
<path d="M38.2633 24.9474V24.1579C38.2633 22.4138 36.8495 21 35.1054 21V21C33.3613 21 31.9475 22.4138 31.9475 24.1579V24.9474" stroke="white" stroke-width="1.57895" stroke-linecap="round"/>
<path fill-rule="evenodd" clip-rule="evenodd" d="M28.6938 24.8519C28.0001 25.5456 28.0001 26.6621 28.0001 28.895V29.6845C28.0001 32.6618 28.0001 34.1505 28.925 35.0754C29.8499 36.0003 31.3386 36.0003 34.3158 36.0003H35.8948C38.8721 36.0003 40.3607 36.0003 41.2857 35.0754C42.2106 34.1505 42.2106 32.6618 42.2106 29.6845V28.895C42.2106 26.6621 42.2106 25.5456 41.5169 24.8519C40.8232 24.1582 39.7067 24.1582 37.4737 24.1582H32.7369C30.5039 24.1582 29.3874 24.1582 28.6938 24.8519ZM34.9341 29.8421C35.4646 29.8421 35.8946 29.4121 35.8946 28.8816C35.8946 28.3512 35.4646 27.9211 34.9341 27.9211C34.4036 27.9211 33.9736 28.3512 33.9736 28.8816C33.9736 29.4121 34.4036 29.8421 34.9341 29.8421ZM37.8156 28.8816C37.8156 30.1363 37.0137 31.2036 35.8945 31.5991V33.6839H33.9736V31.5991C32.8544 31.2035 32.0526 30.1362 32.0526 28.8816C32.0526 27.2902 33.3427 26.0001 34.9341 26.0001C36.5255 26.0001 37.8156 27.2902 37.8156 28.8816Z" fill="white"/>
</svg>
