<svg width="50" height="50" viewBox="0 0 50 50" fill="none" xmlns="http://www.w3.org/2000/svg">
<rect width="50" height="50" fill="#849900"/>
<path fill-rule="evenodd" clip-rule="evenodd" d="M20.0474 24.5748C19.5421 24.681 19.018 24.7368 18.4806 24.7368C14.3512 24.7368 11.0036 21.4379 11.0036 17.3684C11.0036 13.299 14.3512 10 18.4806 10C22.61 10 25.9576 13.299 25.9576 17.3684C25.9576 17.4892 25.9546 17.6092 25.9488 17.7285C23.3124 19.3041 21.2263 21.7052 20.0474 24.5748ZM19.1658 27.6974C18.9382 27.6886 18.7099 27.6841 18.4811 27.6841C15.5184 27.6841 12.6385 28.4334 10.288 29.8158C8.47929 30.8796 7.06187 32.2725 6.15515 33.8576C5.72897 34.6026 6.22879 35.4835 7.06956 35.6562C11.5578 36.578 16.1298 36.9503 20.6857 36.7731C19.5984 34.7575 18.9812 32.4508 18.9812 30C18.9812 29.2161 19.0443 28.447 19.1658 27.6974Z" fill="white"/>
<circle cx="34" cy="30" r="14.5" stroke="white"/>
<path d="M29.7559 26.7662V33H28.6175L25.9054 29.0765H25.8598V33H24.5418V26.7662H25.6985L28.3892 30.6867H28.444V26.7662H29.7559ZM30.8448 33V26.7662H35.0453V27.8529H32.1628V29.3383H34.8292V30.4249H32.1628V31.9134H35.0575V33H30.8448ZM37.4963 33L35.7127 26.7662H37.1524L38.1843 31.0976H38.236L39.3744 26.7662H40.6071L41.7425 31.1067H41.7973L42.8291 26.7662H44.2689L42.4852 33H41.2007L40.0136 28.9243H39.9649L38.7808 33H37.4963Z" fill="white"/>
</svg>
