<svg width="50" height="50" viewBox="0 0 50 50" fill="none" xmlns="http://www.w3.org/2000/svg">
<rect width="50" height="50" fill="#990000"/>
<path fill-rule="evenodd" clip-rule="evenodd" d="M29.5803 13.4197C28.366 12.5402 26.6979 12 24.3653 12C17.1508 12 16.2773 17.2287 15.5463 21.6047C15.2752 23.2271 15.0238 24.7323 14.476 25.8103C14.3971 25.9655 14.3238 26.1119 14.2538 26.2517C13.8135 27.1308 13.5048 27.747 12.7807 28.6316C12.0815 29.4857 10.9087 30.3972 9.89706 31.1033C9.37917 31.4648 9.63245 32.3438 10.264 32.3438H38.4691C38.5009 32.3438 38.5317 32.3415 38.5616 32.3371L35.1858 28.9614L32.0736 32.0736L24.8019 24.8019L27.9141 21.6897L24.6122 18.3878L29.5803 13.4197ZM39.048 31.952L38.7007 32.2993C38.8584 32.2349 38.9771 32.1063 39.048 31.952Z" fill="white"/>
<path d="M35.3037 19.3444L37.7655 16.8825L39.852 18.969L37.3901 21.4309L40.213 24.2537L37.9388 26.5279L35.116 23.705L32.6469 26.1741L30.5604 24.0877L33.0295 21.6186L30.2861 18.8751L32.5602 16.601L35.3037 19.3444Z" fill="white"/>
<path d="M29.0249 34.2856C29.0249 36.2663 26.9462 37.9999 24.3821 37.9999C21.8179 37.9999 19.7392 36.2663 19.7392 34.2856H24.2162H29.0249Z" fill="white"/>
</svg>
