<svg width="50" height="50" viewBox="0 0 50 50" fill="none" xmlns="http://www.w3.org/2000/svg">
<rect width="50" height="50" fill="#990000"/>
<path fill-rule="evenodd" clip-rule="evenodd" d="M19.2776 14.2714C19.2776 17.1826 16.8828 19.5427 13.9286 19.5427C10.9744 19.5427 8.57956 17.1826 8.57956 14.2714C8.57956 11.3601 10.9744 9 13.9286 9C16.8828 9 19.2776 11.3601 19.2776 14.2714ZM16.6337 21.9484C15.7027 23.8415 15.1349 25.9455 15.0212 28.1694C11.9226 28.2528 8.81682 27.9811 5.76516 27.3544C5.16368 27.2309 4.80611 26.6007 5.11099 26.0677C5.75966 24.9337 6.77368 23.9372 8.06763 23.1762C9.74915 22.1872 11.8094 21.6512 13.9289 21.6512C14.8505 21.6512 15.7609 21.7525 16.6337 21.9484Z" fill="white"/>
<mask id="path-2-inside-1_750_106" fill="white">
<path fill-rule="evenodd" clip-rule="evenodd" d="M30.9995 42.999C38.7312 42.999 44.999 36.7312 44.999 28.9995C44.999 21.2678 38.7312 15 30.9995 15C23.2678 15 17 21.2678 17 28.9995C17 36.7312 23.2678 42.999 30.9995 42.999ZM18.4943 29.7955V31.6364H22.7386V33H25.0057V31.6364H26.0114V29.7955H25.0057V24.2727H23.6761H22.7898H22.0057L18.4943 29.7955ZM22.7898 26.7273H22.7216L20.8295 29.7273V29.7955H22.7898V26.7273ZM28.7525 32.6889C29.3292 33.0526 30.0138 33.2358 30.8065 33.2386C31.5991 33.2386 32.2823 33.0582 32.8562 32.6974C33.4329 32.3338 33.8775 31.8097 34.19 31.125C34.5025 30.4403 34.6587 29.6165 34.6587 28.6534C34.6616 27.696 34.5067 26.8821 34.1942 26.2116C33.8817 25.5412 33.4371 25.0312 32.8604 24.6818C32.2837 24.3295 31.5991 24.1534 30.8065 24.1534C30.0138 24.1534 29.3292 24.3281 28.7525 24.6776C28.1786 25.027 27.7354 25.5369 27.4229 26.2074C27.1133 26.8778 26.957 27.6932 26.9542 28.6534C26.9513 29.6108 27.1062 30.4318 27.4187 31.1165C27.7312 31.8011 28.1758 32.3253 28.7525 32.6889ZM31.8121 30.6733C31.5508 31.0994 31.2156 31.3125 30.8065 31.3125C30.5337 31.3125 30.2908 31.2188 30.0778 31.0312C29.8675 30.8438 29.7028 30.554 29.5835 30.1619C29.4641 29.767 29.4059 29.2642 29.4087 28.6534C29.4144 27.7557 29.5465 27.0994 29.805 26.6847C30.0636 26.2699 30.3974 26.0625 30.8065 26.0625C31.0792 26.0625 31.3207 26.1548 31.5309 26.3395C31.7411 26.5213 31.9059 26.8026 32.0252 27.1832C32.1445 27.5639 32.2042 28.054 32.2042 28.6534C32.207 29.571 32.0763 30.2443 31.8121 30.6733ZM35.6857 29.7955V31.6364H39.93V33H42.1971V31.6364H43.2028V29.7955H42.1971V24.2727H40.8675H39.9812H39.1971L35.6857 29.7955ZM39.9812 26.7273H39.913L38.021 29.7273V29.7955H39.9812V26.7273Z"/>
</mask>
<path fill-rule="evenodd" clip-rule="evenodd" d="M30.9995 42.999C38.7312 42.999 44.999 36.7312 44.999 28.9995C44.999 21.2678 38.7312 15 30.9995 15C23.2678 15 17 21.2678 17 28.9995C17 36.7312 23.2678 42.999 30.9995 42.999ZM18.4943 29.7955V31.6364H22.7386V33H25.0057V31.6364H26.0114V29.7955H25.0057V24.2727H23.6761H22.7898H22.0057L18.4943 29.7955ZM22.7898 26.7273H22.7216L20.8295 29.7273V29.7955H22.7898V26.7273ZM28.7525 32.6889C29.3292 33.0526 30.0138 33.2358 30.8065 33.2386C31.5991 33.2386 32.2823 33.0582 32.8562 32.6974C33.4329 32.3338 33.8775 31.8097 34.19 31.125C34.5025 30.4403 34.6587 29.6165 34.6587 28.6534C34.6616 27.696 34.5067 26.8821 34.1942 26.2116C33.8817 25.5412 33.4371 25.0312 32.8604 24.6818C32.2837 24.3295 31.5991 24.1534 30.8065 24.1534C30.0138 24.1534 29.3292 24.3281 28.7525 24.6776C28.1786 25.027 27.7354 25.5369 27.4229 26.2074C27.1133 26.8778 26.957 27.6932 26.9542 28.6534C26.9513 29.6108 27.1062 30.4318 27.4187 31.1165C27.7312 31.8011 28.1758 32.3253 28.7525 32.6889ZM31.8121 30.6733C31.5508 31.0994 31.2156 31.3125 30.8065 31.3125C30.5337 31.3125 30.2908 31.2188 30.0778 31.0312C29.8675 30.8438 29.7028 30.554 29.5835 30.1619C29.4641 29.767 29.4059 29.2642 29.4087 28.6534C29.4144 27.7557 29.5465 27.0994 29.805 26.6847C30.0636 26.2699 30.3974 26.0625 30.8065 26.0625C31.0792 26.0625 31.3207 26.1548 31.5309 26.3395C31.7411 26.5213 31.9059 26.8026 32.0252 27.1832C32.1445 27.5639 32.2042 28.054 32.2042 28.6534C32.207 29.571 32.0763 30.2443 31.8121 30.6733ZM35.6857 29.7955V31.6364H39.93V33H42.1971V31.6364H43.2028V29.7955H42.1971V24.2727H40.8675H39.9812H39.1971L35.6857 29.7955ZM39.9812 26.7273H39.913L38.021 29.7273V29.7955H39.9812V26.7273Z" fill="white"/>
<path d="M18.4943 31.6364H17.0944V33.0363H18.4943V31.6364ZM18.4943 29.7955L17.3129 29.0443L17.0944 29.3881V29.7955H18.4943ZM22.7386 31.6364H24.1386V30.2364H22.7386V31.6364ZM22.7386 33H21.3387V34.4H22.7386V33ZM25.0057 33V34.4H26.4056V33H25.0057ZM25.0057 31.6364V30.2364H23.6057V31.6364H25.0057ZM26.0114 31.6364V33.0363H27.4113V31.6364H26.0114ZM26.0114 29.7955H27.4113V28.3955H26.0114V29.7955ZM25.0057 29.7955H23.6057V31.1954H25.0057V29.7955ZM25.0057 24.2727H26.4056V22.8728H25.0057V24.2727ZM22.0057 24.2727V22.8728H21.2368L20.8243 23.5216L22.0057 24.2727ZM22.7898 26.7273H24.1897V25.3273H22.7898V26.7273ZM22.7216 26.7273V25.3273H21.9494L21.5375 25.9805L22.7216 26.7273ZM20.8295 29.7273L19.6454 28.9805L19.4296 29.3227V29.7273H20.8295ZM20.8295 29.7955H19.4296V31.1954H20.8295V29.7955ZM22.7898 29.7955V31.1954H24.1897V29.7955H22.7898ZM30.8065 33.2386L30.8014 34.6386H30.8065V33.2386ZM28.7525 32.6889L29.4992 31.5047L29.4992 31.5047L28.7525 32.6889ZM32.8562 32.6974L33.6013 33.8826L33.6029 33.8816L32.8562 32.6974ZM34.19 31.125L32.9164 30.5437L32.9164 30.5437L34.19 31.125ZM34.6587 28.6534L33.2588 28.6493V28.6534H34.6587ZM34.1942 26.2116L35.4631 25.6202L35.4631 25.6202L34.1942 26.2116ZM32.8604 24.6818L32.1307 25.8765L32.135 25.8791L32.8604 24.6818ZM28.7525 24.6776L28.027 23.4802L28.0244 23.4818L28.7525 24.6776ZM27.4229 26.2074L26.154 25.616L26.152 25.6204L27.4229 26.2074ZM26.9542 28.6534L28.3541 28.6576L28.3541 28.6576L26.9542 28.6534ZM27.4187 31.1165L26.1451 31.6978L26.1451 31.6978L27.4187 31.1165ZM31.8121 30.6733L30.6201 29.9391L30.6188 29.9414L31.8121 30.6733ZM30.0778 31.0312L29.1459 32.076L29.1529 32.0822L30.0778 31.0312ZM29.5835 30.1619L28.2433 30.5669L28.2442 30.5695L29.5835 30.1619ZM29.4087 28.6534L28.0088 28.6445L28.0088 28.6469L29.4087 28.6534ZM29.805 26.6847L28.617 25.9441L28.617 25.9442L29.805 26.6847ZM31.5309 26.3395L30.607 27.3913L30.6151 27.3984L31.5309 26.3395ZM32.0252 27.1832L30.6893 27.6019L30.6893 27.6019L32.0252 27.1832ZM32.2042 28.6534L30.8042 28.6534L30.8042 28.6577L32.2042 28.6534ZM35.6857 31.6364H34.2858V33.0363H35.6857V31.6364ZM35.6857 29.7955L34.5043 29.0443L34.2858 29.3881V29.7955H35.6857ZM39.93 31.6364H41.33V30.2364H39.93V31.6364ZM39.93 33H38.5301V34.4H39.93V33ZM42.1971 33V34.4H43.597V33H42.1971ZM42.1971 31.6364V30.2364H40.7971V31.6364H42.1971ZM43.2028 31.6364V33.0363H44.6027V31.6364H43.2028ZM43.2028 29.7955H44.6027V28.3955H43.2028V29.7955ZM42.1971 29.7955H40.7971V31.1954H42.1971V29.7955ZM42.1971 24.2727H43.597V22.8728H42.1971V24.2727ZM39.1971 24.2727V22.8728H38.4282L38.0157 23.5216L39.1971 24.2727ZM39.9812 26.7273H41.3811V25.3273H39.9812V26.7273ZM39.913 26.7273V25.3273H39.1408L38.7289 25.9805L39.913 26.7273ZM38.021 29.7273L36.8368 28.9805L36.621 29.3227V29.7273H38.021ZM38.021 29.7955H36.621V31.1954H38.021V29.7955ZM39.9812 29.7955V31.1954H41.3811V29.7955H39.9812ZM43.5991 28.9995C43.5991 35.9581 37.9581 41.5991 30.9995 41.5991V44.399C39.5044 44.399 46.399 37.5044 46.399 28.9995H43.5991ZM30.9995 16.4C37.9581 16.4 43.5991 22.041 43.5991 28.9995H46.399C46.399 20.4946 39.5044 13.6 30.9995 13.6V16.4ZM18.4 28.9995C18.4 22.041 24.041 16.4 30.9995 16.4V13.6C22.4946 13.6 15.6 20.4946 15.6 28.9995H18.4ZM30.9995 41.5991C24.041 41.5991 18.4 35.9581 18.4 28.9995H15.6C15.6 37.5044 22.4946 44.399 30.9995 44.399V41.5991ZM19.8943 31.6364V29.7955H17.0944V31.6364H19.8943ZM22.7386 30.2364H18.4943V33.0363H22.7386V30.2364ZM24.1386 33V31.6364H21.3387V33H24.1386ZM25.0057 31.6H22.7386V34.4H25.0057V31.6ZM23.6057 31.6364V33H26.4056V31.6364H23.6057ZM26.0114 30.2364H25.0057V33.0363H26.0114V30.2364ZM24.6114 29.7955V31.6364H27.4113V29.7955H24.6114ZM25.0057 31.1954H26.0114V28.3955H25.0057V31.1954ZM23.6057 24.2727V29.7955H26.4056V24.2727H23.6057ZM23.6761 25.6727H25.0057V22.8728H23.6761V25.6727ZM22.7898 25.6727H23.6761V22.8728H22.7898V25.6727ZM22.0057 25.6727H22.7898V22.8728H22.0057V25.6727ZM19.6757 30.5466L23.1871 25.0239L20.8243 23.5216L17.3129 29.0443L19.6757 30.5466ZM22.7898 25.3273H22.7216V28.1272H22.7898V25.3273ZM21.5375 25.9805L19.6454 28.9805L22.0137 30.4741L23.9057 27.4741L21.5375 25.9805ZM19.4296 29.7273V29.7955H22.2295V29.7273H19.4296ZM20.8295 31.1954H22.7898V28.3955H20.8295V31.1954ZM24.1897 29.7955V26.7273H21.3898V29.7955H24.1897ZM30.8115 31.8387C30.238 31.8366 29.8197 31.7068 29.4992 31.5047L28.0058 33.8731C28.8387 34.3983 29.7897 34.635 30.8014 34.6386L30.8115 31.8387ZM32.111 31.5123C31.7959 31.7104 31.3808 31.8387 30.8065 31.8387V34.6386C31.8173 34.6386 32.7687 34.4061 33.6013 33.8826L32.111 31.5123ZM32.9164 30.5437C32.7049 31.0071 32.4319 31.3099 32.1095 31.5132L33.6029 33.8816C34.4338 33.3577 35.0501 32.6122 35.4635 31.7063L32.9164 30.5437ZM33.2588 28.6534C33.2588 29.4699 33.1258 30.085 32.9164 30.5437L35.4635 31.7063C35.8792 30.7957 36.0587 29.763 36.0587 28.6534H33.2588ZM32.9254 26.8031C33.1293 27.2406 33.2612 27.8394 33.2588 28.6493L36.0587 28.6576C36.062 27.5527 35.8842 26.5236 35.4631 25.6202L32.9254 26.8031ZM32.135 25.8791C32.4516 26.071 32.7182 26.3585 32.9254 26.8031L35.4631 25.6202C35.0453 24.7239 34.4227 23.9915 33.5859 23.4845L32.135 25.8791ZM30.8065 25.5534C31.3867 25.5534 31.8093 25.6802 32.1307 25.8765L33.5902 23.4871C32.7582 22.9789 31.8115 22.7535 30.8065 22.7535V25.5534ZM29.478 25.8749C29.8001 25.6797 30.2242 25.5534 30.8065 25.5534V22.7535C29.8035 22.7535 28.8583 22.9765 28.027 23.4802L29.478 25.8749ZM28.6918 26.7988C28.8999 26.3524 29.1663 26.0647 29.4806 25.8733L28.0244 23.4818C27.191 23.9893 26.571 24.7214 26.1541 25.616L28.6918 26.7988ZM28.3541 28.6576C28.3566 27.8407 28.4899 27.2359 28.6939 26.7944L26.152 25.6204C25.7366 26.5198 25.5575 27.5457 25.5542 28.6493L28.3541 28.6576ZM28.6922 30.5352C28.4832 30.0771 28.3517 29.4661 28.3541 28.6576L25.5542 28.6493C25.551 29.7555 25.7292 30.7865 26.1451 31.6978L28.6922 30.5352ZM29.4992 31.5047C29.1767 31.3014 28.9038 30.9986 28.6922 30.5352L26.1451 31.6978C26.5586 32.6036 27.1748 33.3492 28.0058 33.8731L29.4992 31.5047ZM30.8065 32.7125C31.8159 32.7125 32.5552 32.1395 33.0055 31.4052L30.6188 29.9414C30.5714 30.0186 30.5613 30.0046 30.6138 29.9712C30.6403 29.9543 30.6747 29.938 30.7142 29.9267C30.7533 29.9154 30.7858 29.9125 30.8065 29.9125V32.7125ZM29.1529 32.0822C29.6102 32.4846 30.1784 32.7125 30.8065 32.7125V29.9125C30.8342 29.9125 30.8769 29.918 30.9238 29.9361C30.9699 29.9539 30.9962 29.9747 31.0026 29.9803L29.1529 32.0822ZM28.2442 30.5695C28.4063 31.1022 28.6759 31.6568 29.1459 32.076L31.0096 29.9865C31.0367 30.0107 31.0341 30.0175 31.0135 29.9813C30.9923 29.9441 30.9588 29.8729 30.9227 29.7543L28.2442 30.5695ZM28.0088 28.6469C28.0056 29.3368 28.0694 29.9911 28.2433 30.5669L30.9236 29.757C30.8589 29.543 30.8062 29.1916 30.8087 28.6599L28.0088 28.6469ZM28.617 25.9442C28.1489 26.6952 28.015 27.673 28.0088 28.6445L30.8087 28.6623C30.8139 27.8384 30.9442 27.5037 30.9931 27.4252L28.617 25.9442ZM30.8065 24.6625C29.8137 24.6625 29.0731 25.2123 28.617 25.9441L30.9931 27.4252C31.036 27.3564 31.0422 27.3735 30.9881 27.4072C30.9611 27.424 30.9275 27.4394 30.8902 27.4498C30.8533 27.4601 30.8237 27.4625 30.8065 27.4625V24.6625ZM32.4548 25.2877C31.9964 24.885 31.4288 24.6625 30.8065 24.6625V27.4625C30.7814 27.4625 30.7397 27.4575 30.6921 27.4394C30.6452 27.4214 30.6166 27.3997 30.607 27.3913L32.4548 25.2877ZM33.3611 26.7645C33.196 26.238 32.9215 25.6913 32.4467 25.2806L30.6151 27.3984C30.5862 27.3734 30.5863 27.3638 30.6042 27.3945C30.6229 27.4263 30.6545 27.4909 30.6893 27.6019L33.3611 26.7645ZM33.6041 28.6534C33.6041 27.9758 33.5385 27.3305 33.3611 26.7645L30.6893 27.6019C30.7506 27.7973 30.8042 28.1322 30.8042 28.6534H33.6041ZM33.0042 31.4074C33.477 30.6397 33.6072 29.6437 33.6041 28.6491L30.8042 28.6577C30.8068 29.4984 30.6757 29.8489 30.6201 29.9391L33.0042 31.4074ZM37.0857 31.6364V29.7955H34.2858V31.6364H37.0857ZM39.93 30.2364H35.6857V33.0363H39.93V30.2364ZM41.33 33V31.6364H38.5301V33H41.33ZM42.1971 31.6H39.93V34.4H42.1971V31.6ZM40.7971 31.6364V33H43.597V31.6364H40.7971ZM43.2028 30.2364H42.1971V33.0363H43.2028V30.2364ZM41.8028 29.7955V31.6364H44.6027V29.7955H41.8028ZM42.1971 31.1954H43.2028V28.3955H42.1971V31.1954ZM40.7971 24.2727V29.7955H43.597V24.2727H40.7971ZM40.8675 25.6727H42.1971V22.8728H40.8675V25.6727ZM39.9812 25.6727H40.8675V22.8728H39.9812V25.6727ZM39.1971 25.6727H39.9812V22.8728H39.1971V25.6727ZM36.8671 30.5466L40.3785 25.0239L38.0157 23.5216L34.5043 29.0443L36.8671 30.5466ZM39.9812 25.3273H39.913V28.1272H39.9812V25.3273ZM38.7289 25.9805L36.8368 28.9805L39.2051 30.4741L41.0971 27.4741L38.7289 25.9805ZM36.621 29.7273V29.7955H39.4209V29.7273H36.621ZM38.021 31.1954H39.9812V28.3955H38.021V31.1954ZM41.3811 29.7955V26.7273H38.5812V29.7955H41.3811Z" fill="white" mask="url(#path-2-inside-1_750_106)"/>
</svg>
