<svg width="50" height="50" viewBox="0 0 50 50" fill="none" xmlns="http://www.w3.org/2000/svg">
<rect width="50" height="50" fill="#002299"/>
<path fill-rule="evenodd" clip-rule="evenodd" d="M24.1823 23.098C22.8979 24.1229 21.262 24.7368 19.4806 24.7368C15.3512 24.7368 12.0036 21.4379 12.0036 17.3684C12.0036 13.299 15.3512 10 19.4806 10C23.61 10 26.9576 13.299 26.9576 17.3684C26.9576 18.748 26.5729 20.039 25.9034 21.143C25.2618 21.7298 24.6843 22.3854 24.1823 23.098ZM22.1841 27.8943C21.2997 27.7553 20.3943 27.6841 19.4811 27.6841C16.5184 27.6841 13.6385 28.4334 11.288 29.8158C9.47929 30.8796 8.06187 32.2725 7.15515 33.8576C6.72897 34.6026 7.22879 35.4835 8.06956 35.6562C13.3184 36.7342 18.6818 37.0607 24 36.6356C22.7363 34.735 22 32.4535 22 30C22 29.2816 22.0631 28.5779 22.1841 27.8943Z" fill="white"/>
<path fill-rule="evenodd" clip-rule="evenodd" d="M35.9225 22.2252V22.2252L35.9225 22.2253C35.9842 22.8422 36.015 23.1507 36.1211 23.3332C36.3418 23.7132 36.7893 23.8986 37.214 23.786C37.4181 23.7319 37.6581 23.5356 38.1379 23.1429L38.138 23.1429C38.3917 22.9353 38.5186 22.8315 38.6505 22.7765C38.9217 22.6635 39.2295 22.6789 39.4882 22.8183C39.6139 22.8861 39.7298 23.002 39.9617 23.2339L40.7658 24.038C40.9977 24.2699 41.1137 24.3859 41.1815 24.5116C41.3209 24.7703 41.3362 25.078 41.2232 25.3492C41.1683 25.4811 41.0644 25.608 40.8568 25.8619C40.464 26.3419 40.2677 26.5819 40.2135 26.786C40.101 27.2107 40.2864 27.6582 40.6662 27.8788C40.8488 27.985 41.1574 28.0158 41.7746 28.0775C42.101 28.1102 42.2642 28.1265 42.3963 28.1809C42.668 28.2928 42.8747 28.5212 42.959 28.8026C43 28.9395 43 29.1035 43 29.4316V30.5688C43 30.8966 43 31.0605 42.959 31.1973C42.8747 31.4789 42.668 31.7074 42.3962 31.8193C42.2641 31.8737 42.101 31.89 41.7748 31.9226C41.158 31.9843 40.8495 32.0151 40.667 32.1211C40.2869 32.3418 40.1015 32.7895 40.2142 33.2142C40.2683 33.4183 40.4646 33.6582 40.8571 34.1379C41.0647 34.3917 41.1685 34.5185 41.2234 34.6503C41.3365 34.9216 41.3211 35.2295 41.1817 35.4881C41.1139 35.6138 40.998 35.7297 40.7662 35.9615L39.962 36.7657L39.962 36.7657C39.7301 36.9976 39.6141 37.1136 39.4884 37.1814C39.2297 37.3208 38.922 37.3361 38.6508 37.2232C38.5189 37.1682 38.392 37.0644 38.1381 36.8567C37.6581 36.464 37.4182 36.2676 37.214 36.2135C36.7893 36.1009 36.3419 36.2863 36.1212 36.6662C36.0151 36.8488 35.9842 37.1574 35.9225 37.7745L35.9225 37.7745C35.8898 38.101 35.8735 38.2642 35.8191 38.3963C35.7072 38.668 35.4788 38.8747 35.1974 38.959C35.0605 39 34.8965 39 34.5684 39H33.4314C33.1034 39 32.9394 39 32.8025 38.959C32.5211 38.8747 32.2927 38.668 32.1808 38.3963C32.1264 38.2642 32.11 38.101 32.0774 37.7746C32.0157 37.1575 31.9848 36.8489 31.8787 36.6663C31.658 36.2865 31.2106 36.1011 30.7859 36.2137C30.5818 36.2678 30.3417 36.4641 29.8617 36.8569L29.8617 36.8569C29.6079 37.0646 29.481 37.1684 29.3491 37.2234C29.0778 37.3363 28.7701 37.321 28.5115 37.1816C28.3857 37.1138 28.2698 36.9978 28.0379 36.7659L28.0379 36.7659L27.2338 35.9618C27.0019 35.73 26.886 35.614 26.8182 35.4883C26.6787 35.2296 26.6634 34.9219 26.7764 34.6506C26.8313 34.5187 26.9352 34.3919 27.1428 34.1381L27.1428 34.1381C27.5354 33.6582 27.7317 33.4183 27.7858 33.2142C27.8985 32.7895 27.7131 32.3418 27.3331 32.1212C27.1505 32.0151 26.8421 31.9843 26.2252 31.9226H26.2252H26.2252C25.899 31.89 25.7359 31.8737 25.6038 31.8193C25.332 31.7074 25.1253 31.4789 25.041 31.1973C25 31.0605 25 30.8966 25 30.5688V29.4316C25 29.1035 25 28.9395 25.041 28.8026C25.1253 28.5212 25.332 28.2928 25.6037 28.1809C25.7358 28.1265 25.899 28.1102 26.2254 28.0775C26.8426 28.0158 27.1512 27.9849 27.3339 27.8788C27.7137 27.6581 27.899 27.2107 27.7865 26.7861C27.7324 26.5819 27.536 26.3418 27.1432 25.8617L27.1432 25.8617C26.9354 25.6078 26.8316 25.4809 26.7766 25.3489C26.6637 25.0778 26.679 24.7701 26.8184 24.5115C26.8862 24.3857 27.0022 24.2697 27.2341 24.0377L27.2341 24.0377L28.0382 23.2337C28.27 23.0018 28.386 22.8859 28.5117 22.8181C28.7704 22.6787 29.0781 22.6633 29.3494 22.7763C29.4813 22.8313 29.6082 22.9351 29.862 23.1428C30.3418 23.5354 30.5817 23.7317 30.7858 23.7858C31.2105 23.8984 31.6582 23.713 31.8789 23.333C31.9849 23.1504 32.0157 22.842 32.0774 22.2252C32.11 21.899 32.1264 21.7359 32.1807 21.6038C32.2926 21.332 32.5211 21.1252 32.8027 21.041C32.9395 21 33.1034 21 33.4312 21H34.5686C34.8965 21 35.0604 21 35.1973 21.041C35.4788 21.1253 35.7073 21.332 35.8191 21.6038C35.8735 21.7359 35.8898 21.899 35.9225 22.2252ZM33.9998 33.5999C35.988 33.5999 37.5998 31.9881 37.5998 29.9999C37.5998 28.0116 35.988 26.3999 33.9998 26.3999C32.0116 26.3999 30.3998 28.0116 30.3998 29.9999C30.3998 31.9881 32.0116 33.5999 33.9998 33.5999Z" fill="white"/>
</svg>
