<svg width="50" height="50" viewBox="0 0 50 50" fill="none" xmlns="http://www.w3.org/2000/svg">
<rect width="50" height="50" fill="#006B99"/>
<path fill-rule="evenodd" clip-rule="evenodd" d="M36.532 26.9217C38.3623 26.9217 39.8461 25.4594 39.8461 23.6557C39.8461 21.8519 38.3623 20.3896 36.532 20.3896C34.7016 20.3896 33.2178 21.8519 33.2178 23.6557C33.2178 25.4594 34.7016 26.9217 36.532 26.9217ZM41.9956 30.9647C42.1845 31.295 41.9629 31.6854 41.5903 31.7619C38.253 32.4473 34.8113 32.4473 31.4741 31.7619C31.1014 31.6854 30.8799 31.295 31.0688 30.9647C31.4707 30.2621 32.0989 29.6447 32.9006 29.1732C33.9425 28.5605 35.219 28.2283 36.5322 28.2283C37.8454 28.2283 39.1219 28.5605 40.1637 29.1732C40.9654 29.6447 41.5937 30.2621 41.9956 30.9647Z" fill="white"/>
<path d="M9.07286 9.18393L9.83333 18.3096H19.8333L20.5938 9.18393C20.6114 8.97287 20.3308 8.88421 20.2239 9.06706L17.2252 14.1976C17.1395 14.3442 16.9213 14.3229 16.8656 14.1625L15.0212 8.85063C14.9593 8.67245 14.7073 8.67245 14.6455 8.85063L12.8011 14.1625C12.7454 14.3229 12.5272 14.3442 12.4415 14.1976L9.44274 9.06706C9.33587 8.88421 9.05528 8.97287 9.07286 9.18393Z" fill="white"/>
<path fill-rule="evenodd" clip-rule="evenodd" d="M23 27.8896H8V30.3896C8.92047 30.3896 9.66667 31.1358 9.66667 32.0563V35.3896C9.66667 37.7467 9.66667 38.9252 10.3989 39.6574C11.1311 40.3896 12.3096 40.3896 14.6667 40.3896H16.3333C18.6904 40.3896 19.8689 40.3896 20.6011 39.6574C21.3333 38.9252 21.3333 37.7467 21.3333 35.3896V32.0563C21.3333 31.1358 22.0795 30.3896 23 30.3896V27.8896ZM12.8717 32.8896C12.8717 32.4294 12.4986 32.0563 12.0384 32.0563C11.5782 32.0563 11.2051 32.4294 11.2051 32.8896V36.9281C11.2051 37.3883 11.5782 37.7614 12.0384 37.7614C12.4986 37.7614 12.8717 37.3883 12.8717 36.9281V32.8896ZM16.3335 32.8896C16.3335 32.4294 15.9604 32.0563 15.5001 32.0563C15.0399 32.0563 14.6668 32.4294 14.6668 32.8896V36.9281C14.6668 37.3883 15.0399 37.7614 15.5001 37.7614C15.9604 37.7614 16.3335 37.3883 16.3335 36.9281V32.8896ZM19.7948 32.8896C19.7948 32.4294 19.4217 32.0563 18.9615 32.0563C18.5012 32.0563 18.1281 32.4294 18.1281 32.8896V36.9281C18.1281 37.3883 18.5012 37.7614 18.9615 37.7614C19.4217 37.7614 19.7948 37.3883 19.7948 36.9281V32.8896Z" fill="white"/>
<path d="M13.8901 25.6985C13.9851 25.6099 14.1943 25.5316 14.4854 25.4758C14.7765 25.4199 15.1331 25.3896 15.5 25.3896C15.8669 25.3896 16.2235 25.4199 16.5146 25.4758C16.8057 25.5316 17.0149 25.6099 17.1099 25.6985" stroke="white" stroke-width="1.66667" stroke-linecap="round"/>
<path d="M33.3527 15.3117L33.8505 15.3582L33.799 15.9102L33.2552 15.8021L33.3527 15.3117ZM28.6752 11.0767L28.6574 11.5764L28.6574 11.5764L28.6752 11.0767ZM24.509 13.0712C24.2754 13.2185 23.9666 13.1484 23.8194 12.9148C23.6722 12.6812 23.7422 12.3725 23.9758 12.2252L24.509 13.0712ZM34.2566 11.007L33.8505 15.3582L32.8549 15.2652L33.261 10.9141L34.2566 11.007ZM33.2552 15.8021L29.1854 14.9931L29.3804 14.0123L33.4502 14.8213L33.2552 15.8021ZM33.3527 15.3117C32.897 15.5175 32.8971 15.5176 32.8971 15.5177C32.8971 15.5177 32.8971 15.5178 32.8972 15.5178C32.8972 15.5179 32.8972 15.5178 32.8971 15.5178C32.897 15.5176 32.8969 15.5172 32.8966 15.5165C32.896 15.5152 32.8949 15.5129 32.8934 15.5097C32.8904 15.5033 32.8857 15.4931 32.8792 15.4794C32.8662 15.452 32.8463 15.4106 32.8196 15.3572C32.7663 15.2504 32.6862 15.0958 32.5812 14.9092C32.3707 14.535 32.0631 14.0376 31.6738 13.5398C30.8725 12.515 29.8266 11.6181 28.6574 11.5764L28.693 10.577C30.3338 10.6355 31.6266 11.856 32.4616 12.9238C32.8904 13.4722 33.2253 14.0147 33.4528 14.4189C33.5668 14.6215 33.6545 14.7908 33.7143 14.9105C33.7442 14.9703 33.7671 15.0179 33.7829 15.0511C33.7907 15.0677 33.7968 15.0808 33.8011 15.09C33.8032 15.0946 33.8049 15.0982 33.8061 15.1009C33.8067 15.1022 33.8072 15.1033 33.8076 15.1042C33.8078 15.1046 33.8079 15.1049 33.8081 15.1052C33.8081 15.1054 33.8082 15.1055 33.8082 15.1056C33.8083 15.1058 33.8084 15.1059 33.3527 15.3117ZM28.6574 11.5764C27.8644 11.5481 26.8476 11.896 25.9781 12.2928C25.5542 12.4863 25.1847 12.6822 24.9212 12.8297C24.7897 12.9034 24.6853 12.9646 24.6143 13.0071C24.5788 13.0283 24.5518 13.0448 24.5339 13.0558C24.525 13.0613 24.5184 13.0654 24.5142 13.068C24.5121 13.0693 24.5106 13.0702 24.5098 13.0708C24.5093 13.071 24.509 13.0712 24.5089 13.0713C24.5089 13.0713 24.5088 13.0713 24.5088 13.0713C24.5088 13.0713 24.5089 13.0713 24.5089 13.0713C24.5089 13.0713 24.509 13.0712 24.2424 12.6482C23.9758 12.2252 23.9759 12.2252 23.976 12.2251C23.976 12.2251 23.9761 12.225 23.9762 12.225C23.9764 12.2249 23.9766 12.2247 23.9769 12.2246C23.9774 12.2243 23.978 12.2238 23.9788 12.2233C23.9805 12.2223 23.9827 12.2209 23.9856 12.2191C23.9914 12.2155 23.9996 12.2104 24.0101 12.2039C24.0312 12.191 24.0618 12.1724 24.1009 12.1489C24.1791 12.1021 24.2919 12.036 24.4326 11.9572C24.7135 11.7999 25.108 11.5907 25.5629 11.3831C26.4509 10.9778 27.6506 10.5399 28.693 10.577L28.6574 11.5764Z" fill="white"/>
<path d="M24.8878 38.0986L24.4201 38.2754L24.224 37.7568L24.7601 37.6152L24.8878 38.0986ZM29.9513 39.5612L30.1547 40.018L30.1547 40.018L29.9513 39.5612ZM32.2763 36.493C32.4216 36.2582 32.7297 36.1855 32.9646 36.3308C33.1994 36.476 33.2721 36.7841 33.1268 37.019L32.2763 36.493ZM25.7112 41.6897L24.4201 38.2754L25.3555 37.9217L26.6466 41.336L25.7112 41.6897ZM24.7601 37.6152L28.111 36.7296L28.3665 37.6964L25.0156 38.582L24.7601 37.6152ZM24.8878 38.0986C25.2068 37.7136 25.2068 37.7135 25.2067 37.7135C25.2067 37.7134 25.2066 37.7134 25.2066 37.7134C25.2065 37.7133 25.2065 37.7133 25.2065 37.7133C25.2066 37.7134 25.2069 37.7136 25.2073 37.714C25.2081 37.7146 25.2096 37.7159 25.2118 37.7177C25.2162 37.7213 25.2233 37.727 25.233 37.7347C25.2524 37.7502 25.2821 37.7736 25.3212 37.8035C25.3995 37.8634 25.5152 37.9492 25.6611 38.0499C25.954 38.2519 26.3637 38.51 26.8336 38.7385C27.8068 39.2117 28.8907 39.4862 29.7479 39.1044L30.1547 40.018C28.8665 40.5917 27.4186 40.1349 26.3964 39.6379C25.8687 39.3813 25.4147 39.0946 25.0934 38.8731C24.9323 38.762 24.8032 38.6663 24.7136 38.5977C24.6687 38.5634 24.6336 38.5358 24.6092 38.5163C24.597 38.5065 24.5874 38.4988 24.5807 38.4933C24.5773 38.4906 24.5746 38.4884 24.5726 38.4867C24.5716 38.4859 24.5708 38.4852 24.5702 38.4847C24.5698 38.4845 24.5696 38.4842 24.5693 38.484C24.5692 38.4839 24.5691 38.4838 24.569 38.4838C24.5689 38.4837 24.5688 38.4836 24.8878 38.0986ZM29.7479 39.1044C30.3347 38.8431 30.9598 38.2225 31.4658 37.607C31.7111 37.3085 31.9152 37.0279 32.0579 36.8219C32.129 36.7191 32.1845 36.6355 32.2218 36.5782C32.2405 36.5495 32.2546 36.5275 32.2638 36.513C32.2684 36.5057 32.2717 36.5004 32.2738 36.497C32.2749 36.4953 32.2756 36.4941 32.276 36.4935C32.2762 36.4931 32.2764 36.4929 32.2764 36.4929C32.2764 36.4928 32.2764 36.4928 32.2764 36.4928C32.2764 36.4929 32.2764 36.4929 32.2764 36.4929C32.2764 36.493 32.2763 36.493 32.7016 36.756C33.1268 37.019 33.1268 37.0191 33.1267 37.0192C33.1267 37.0192 33.1266 37.0193 33.1266 37.0194C33.1265 37.0195 33.1264 37.0197 33.1262 37.0199C33.126 37.0204 33.1256 37.021 33.1251 37.0217C33.1243 37.0231 33.123 37.0251 33.1215 37.0275C33.1184 37.0325 33.114 37.0394 33.1084 37.0483C33.0972 37.0661 33.0809 37.0915 33.0599 37.1237C33.018 37.1881 32.9572 37.2798 32.88 37.3912C32.7259 37.6137 32.5052 37.9173 32.2382 38.2421C31.7194 38.8732 30.9695 39.6551 30.1547 40.018L29.7479 39.1044Z" fill="white"/>
</svg>
