<svg width="50" height="44" viewBox="0 0 50 44" fill="none" xmlns="http://www.w3.org/2000/svg">
<path d="M24.7434 0.484741C41.0378 0.484741 37.6533 16.4845 41.0378 23.2396C42.1228 25.4051 42.5606 26.7341 44.2967 28.6221C45.3336 29.7498 46.9744 30.8781 48.5302 31.8083C49.471 32.3708 49.0779 34.0046 47.9818 34.0046H1.50903C0.468412 34.0046 0.0510938 32.5564 0.904418 31.9608C2.57127 30.7974 4.50358 29.2954 5.65569 27.8881C7.03854 26.199 7.50178 25.1037 8.44901 23.2396C11.786 16.6727 8.44901 0.484741 24.7434 0.484741Z" fill="#120B01"/>
<path d="M32.4219 37.2041C32.4219 40.4675 28.9969 43.324 24.772 43.324C20.5471 43.324 17.1221 40.4675 17.1221 37.2041H24.4988H32.4219Z" fill="#120B01"/>
</svg>
