<svg width="69" height="69" viewBox="0 0 69 69" fill="none" xmlns="http://www.w3.org/2000/svg">
<path fill-rule="evenodd" clip-rule="evenodd" d="M57.2311 27.842L64.1121 20.9288L64.1122 20.9287C65.7141 19.3193 66.5151 18.5145 67.0324 17.7006C68.8738 14.8027 68.8738 11.1014 67.0324 8.20347C66.5151 7.38954 65.7141 6.58479 64.1122 4.97531L64.1121 4.97523L64.112 4.97519L64.112 4.97513C62.4965 3.35211 61.6888 2.54059 60.8717 2.01752C57.9618 0.154643 54.2341 0.154643 51.3243 2.01752C50.5072 2.54059 49.6994 3.35211 48.084 4.97513L48.0839 4.97519L48.0839 4.97523L41.188 11.9033C45.0139 18.5204 50.5449 24.0354 57.2311 27.842ZM34.7582 18.3632L8.02067 45.2257L8.02065 45.2258C6.14813 47.107 5.21187 48.0477 4.59667 49.2017C3.98147 50.3556 3.72236 51.6573 3.20412 54.2605L0.907968 65.795C0.614796 67.2677 0.46821 68.0041 0.88741 68.4225C1.30661 68.841 2.0427 68.6931 3.51489 68.3973L14.932 66.1032C17.5476 65.5776 18.8554 65.3148 20.0132 64.6928C21.1709 64.0708 22.1119 63.1254 23.994 61.2344L50.7984 34.3048C44.3339 30.2198 38.8619 24.7678 34.7582 18.3632Z" fill="#443900" fill-opacity="0.92"/>
</svg>
