<svg width="160" height="77" viewBox="0 0 160 77" fill="none" xmlns="http://www.w3.org/2000/svg">
<path fill-rule="evenodd" clip-rule="evenodd" d="M63.3712 38.7552C64.1881 29.4792 64.5966 24.8411 62.6638 21.3134C61.8271 19.7861 60.6978 18.4387 59.3403 17.3479C56.2046 14.8283 51.5666 14.4199 42.2905 13.603L35.6858 13.0213C26.4098 12.2045 21.7717 11.796 18.2439 13.7288C16.7167 14.5655 15.3693 15.6948 14.2785 17.0523C11.7589 20.188 11.3505 24.826 10.5336 34.1021C9.71668 43.3781 9.30824 48.0162 11.241 51.5439C12.0777 53.0712 13.2071 54.4186 14.5645 55.5094C17.3038 57.7104 21.1896 58.3004 28.3123 58.959L28.312 58.9635L31.3199 66.587C32.3225 69.1282 35.796 69.4341 37.2273 67.1072L41.5214 60.1268L41.5218 60.1223C48.65 60.7187 52.5791 60.817 55.6609 59.1285C57.1881 58.2918 58.5355 57.1625 59.6263 55.805C62.1459 52.6693 62.5544 48.0313 63.3712 38.7552ZM41.8501 23.9868C42.0107 22.163 40.6624 20.5543 38.8385 20.3936C37.0147 20.233 35.406 21.5813 35.2454 23.4052L33.9703 37.8845C33.8096 39.7083 35.1579 41.317 36.9818 41.4777C38.8056 41.6383 40.4143 40.29 40.575 38.4661L41.8501 23.9868ZM39.6881 48.5368C39.8487 46.713 38.5004 45.1043 36.6765 44.9437C34.8527 44.7831 33.244 46.1314 33.0834 47.9552L32.9684 49.2611C32.8078 51.0849 34.1561 52.6936 35.9799 52.8542C37.8037 53.0149 39.4125 51.6666 39.5731 49.8427L39.6881 48.5368Z" fill="#042B7B"/>
<g clip-path="url(#clip0_734_107)">
<path fill-rule="evenodd" clip-rule="evenodd" d="M113.959 43.2108C114.621 35.6981 114.952 31.9417 113.386 29.0845C112.709 27.8476 111.794 26.7563 110.695 25.8729C108.155 23.8322 104.399 23.5014 96.8859 22.8398L91.5367 22.3687C84.0239 21.7071 80.2675 21.3763 77.4104 22.9417C76.1735 23.6194 75.0822 24.534 74.1987 25.6335C72.1581 28.1731 71.8273 31.9294 71.1657 39.4422C70.5041 46.955 70.1733 50.7114 71.7386 53.5685C72.4163 54.8054 73.331 55.8968 74.4304 56.7802C76.6489 58.5629 79.7961 59.0407 85.5649 59.5741L85.5645 59.5777L88.0007 65.7521C88.8128 67.8102 91.6259 68.0579 92.7852 66.1734L96.263 60.5199L96.2633 60.5162C102.037 60.9993 105.219 61.0788 107.715 59.7114C108.952 59.0337 110.043 58.119 110.926 57.0196C112.967 54.48 113.298 50.7236 113.959 43.2108ZM96.5295 31.2497C96.6596 29.7726 95.5676 28.4697 94.0905 28.3396C92.6133 28.2095 91.3104 29.3015 91.1803 30.7787L90.1476 42.5056C90.0175 43.9827 91.1095 45.2856 92.5866 45.4157C94.0638 45.5458 95.3667 44.4538 95.4968 42.9767L96.5295 31.2497ZM94.7785 51.133C94.9086 49.6559 93.8166 48.353 92.3394 48.2229C90.8623 48.0928 89.5594 49.1848 89.4293 50.6619L89.3361 51.7196C89.2061 53.1967 90.2981 54.4996 91.7752 54.6297C93.2524 54.7598 94.5553 53.6678 94.6854 52.1907L94.7785 51.133Z" fill="#042B7B"/>
</g>
<g clip-path="url(#clip1_734_107)">
<path fill-rule="evenodd" clip-rule="evenodd" d="M153.767 46.6808C154.264 41.0426 154.512 38.2235 153.337 36.0792C152.829 35.151 152.142 34.3319 151.317 33.669C149.411 32.1375 146.592 31.8892 140.954 31.3927L136.939 31.0391C131.301 30.5426 128.482 30.2943 126.338 31.4691C125.41 31.9777 124.591 32.6642 123.928 33.4893C122.396 35.3952 122.148 38.2143 121.651 43.8525C121.155 49.4908 120.906 52.3099 122.081 54.4542C122.59 55.3824 123.276 56.2014 124.101 56.8644C125.766 58.2023 128.128 58.5609 132.458 58.9612L132.457 58.9639L134.286 63.5977C134.895 65.1423 137.006 65.3282 137.876 63.9139L140.486 59.671L140.487 59.6683C144.819 60.0308 147.208 60.0905 149.081 59.0643C150.009 58.5557 150.828 57.8692 151.491 57.0441C153.023 55.1382 153.271 52.3191 153.767 46.6808ZM140.686 37.7042C140.784 36.5956 139.964 35.6178 138.856 35.5202C137.747 35.4226 136.769 36.2421 136.672 37.3507L135.897 46.1516C135.799 47.2602 136.619 48.238 137.727 48.3356C138.836 48.4332 139.814 47.6137 139.911 46.5051L140.686 37.7042ZM139.372 52.6264C139.47 51.5178 138.65 50.54 137.542 50.4423C136.433 50.3447 135.455 51.1642 135.358 52.2728L135.288 53.0666C135.19 54.1751 136.01 55.153 137.118 55.2506C138.227 55.3482 139.205 54.5287 139.302 53.4201L139.372 52.6264Z" fill="#042B7B"/>
</g>
<defs>
<clipPath id="clip0_734_107">
<rect width="50.4527" height="50.4527" fill="white" transform="translate(69.7588 17.0745) rotate(5.03277)"/>
</clipPath>
<clipPath id="clip1_734_107">
<rect width="37.8641" height="37.8641" fill="white" transform="translate(120.595 27.0657) rotate(5.03277)"/>
</clipPath>
</defs>
</svg>
