<svg width="50" height="50" viewBox="0 0 50 50" fill="none" xmlns="http://www.w3.org/2000/svg">
<g clip-path="url(#clip0)">
<rect width="49.99" height="49.99" fill="url(#paint0_radial)"/>
<mask id="mask0" style="mask-type:alpha" maskUnits="userSpaceOnUse" x="-2" y="11" width="29" height="33">
<rect x="-1.49969" y="11.4968" width="28.4943" height="31.9936" fill="#C4C4C4"/>
</mask>
<g mask="url(#mask0)">
<path d="M-1.12492 16.8482L0.126137 39.4655L11.0991 38.0213L10.7238 31.2361L14.8665 30.7454C18.0292 30.3709 20.6162 29.3165 22.6722 27.5769C24.7281 25.8374 25.6918 23.8045 25.5649 21.5104C25.438 19.2164 24.2635 17.4367 22.0431 16.2037C19.8227 14.9706 17.1534 14.5388 13.9907 14.9133L-1.12492 16.8482ZM10.42 25.7433L10.1537 20.9291L14.2964 20.4384C16.0782 20.2274 17.5127 21.0331 17.5913 22.4548C17.67 23.8765 16.3445 25.0416 14.5627 25.2527L10.42 25.7433Z" fill="white"/>
<path d="M54.0365 10.1705L32.343 12.7398L32.8881 22.5944C33.0615 25.7286 32.481 28.2039 31.1467 30.0206L27.8503 30.411L28.399 40.3303L36.3726 39.3859L36.1331 35.0563L50.6994 33.3312L50.9389 37.6608L58.8679 36.7217L58.3192 26.8024L54.9783 27.1981L54.0365 10.1705ZM39.4321 29.0393C40.5401 27.1844 40.9869 24.7248 40.8207 21.72L40.5687 17.1642L46.4041 16.4731L47.0493 28.1371L39.4321 29.0393Z" fill="white"/>
<mask id="mask1" style="mask-type:alpha" maskUnits="userSpaceOnUse" x="-1" y="6" width="62" height="41">
<path d="M1.92249 16.4058L3.17249 39.0232L11.1461 38.0792L10.7711 31.294L14.9138 30.8036C18.0765 30.4291 20.6637 29.3748 22.7197 27.6354C24.7757 25.896 25.7395 23.8631 25.6127 21.5691C25.4859 19.275 24.3114 17.4953 22.0911 16.2621C19.8708 15.029 17.2016 14.597 14.0388 14.9714L1.92249 16.4058ZM10.4675 25.8012L10.2015 20.9869L14.3442 20.4965C16.126 20.2855 17.5605 21.0914 17.6391 22.513C17.7176 23.9347 16.3921 25.0998 14.6103 25.3108L10.4675 25.8012Z" fill="white"/>
<path d="M54.0848 10.2304L32.3912 12.7987L32.9358 22.6534C33.109 25.7875 32.5284 28.2629 31.1941 30.0795L27.8977 30.4697L28.4459 40.389L36.4195 39.4451L36.1803 35.1155L50.7466 33.391L50.9859 37.7206L58.9149 36.7819L58.3667 26.8625L55.0258 27.2581L54.0848 10.2304ZM39.4795 29.0986C40.5876 27.2437 41.0345 24.7842 40.8685 21.7793L40.6167 17.2235L46.4521 16.5327L47.0968 28.1968L39.4795 29.0986Z" fill="white"/>
</mask>
<g mask="url(#mask1)">
<rect x="-44" y="-20" width="100" height="100" fill="white"/>
<g style="mix-blend-mode:hard-light" filter="url(#filter0_f)">
<circle cx="33.3333" cy="15.5563" r="11.9976" transform="rotate(-10.5827 33.3333 15.5563)" fill="url(#paint1_radial)"/>
</g>
<g style="mix-blend-mode:hard-light" filter="url(#filter1_f)">
<ellipse cx="19.1829" cy="29.6424" rx="11.9976" ry="11.7477" transform="rotate(-10.5827 19.1829 29.6424)" fill="url(#paint2_radial)"/>
</g>
<g style="mix-blend-mode:hard-light" filter="url(#filter2_f)">
<ellipse cx="19.1772" cy="14.6413" rx="11.7477" ry="11.9976" transform="rotate(-10.5827 19.1772 14.6413)" fill="url(#paint3_radial)"/>
</g>
<g style="mix-blend-mode:hard-light" filter="url(#filter3_f)">
<ellipse cx="33.6765" cy="31.003" rx="11.9976" ry="11.7477" transform="rotate(-10.5827 33.6765 31.003)" fill="url(#paint4_radial)"/>
</g>
</g>
</g>
<mask id="mask2" style="mask-type:alpha" maskUnits="userSpaceOnUse" x="21" y="9" width="30" height="30">
<rect x="21.9956" y="9.99709" width="28.9942" height="28.9942" fill="#C4C4C4"/>
</mask>
<g mask="url(#mask2)">
<path d="M-3.62441 16.659L-2.37334 37.1559L5.60023 36.3001L5.22491 30.151L9.36761 29.7063C12.5303 29.3669 15.1174 28.4113 17.1733 26.8349C19.2293 25.2585 20.1929 23.4161 20.066 21.3371C19.9391 19.2582 18.7646 17.6453 16.5442 16.5279C14.3238 15.4104 11.6546 15.019 8.49187 15.3585L-3.62441 16.659ZM4.92108 25.1732L4.65479 20.8103L8.79748 20.3656C10.5793 20.1744 12.0138 20.9046 12.0924 22.193C12.1711 23.4813 10.8456 24.5373 9.06378 24.7285L4.92108 25.1732Z" fill="white"/>
<path d="M51.0371 10.6072L26.8441 13.3887L27.3892 22.3195C27.5626 25.1598 26.9821 27.4031 25.6478 29.0495L22.3515 29.4033L22.9001 38.3926L30.8737 37.5368L30.6342 33.6131L45.2005 32.0497L45.44 35.9734L55.8685 34.6693L55.3198 25.6799L51.9789 26.0385L51.0371 10.6072ZM33.9332 28.1602C35.0412 26.4792 35.488 24.2502 35.3218 21.527L35.0698 17.3984L40.9052 16.772L41.5504 27.3426L33.9332 28.1602Z" fill="white"/>
<mask id="mask3" style="mask-type:alpha" maskUnits="userSpaceOnUse" x="-4" y="11" width="58" height="28">
<path d="M-3.57651 16.7111L-2.32643 37.2081L5.6472 36.3526L5.27218 30.2035L9.4149 29.7591C12.5776 29.4198 15.1647 28.4643 17.2208 26.888C19.2768 25.3117 20.2405 23.4694 20.1137 21.3904C19.9869 19.3114 18.8125 17.6985 16.5921 16.581C14.3718 15.4634 11.7026 15.0719 8.53984 15.4112L-3.57651 16.7111ZM4.96858 25.2257L4.70249 20.8628L8.84522 20.4183C10.627 20.2272 12.0615 20.9575 12.1401 22.2458C12.2187 23.5342 10.8931 24.5901 9.11131 24.7812L4.96858 25.2257Z" fill="white"/>
<path d="M48.5858 11.1149L26.8922 13.4423L27.4369 22.3731C27.6101 25.2134 27.0295 27.4567 25.6952 29.1029L22.3988 29.4566L22.947 38.446L30.9207 37.5905L30.6814 33.6668L45.2477 32.1041L45.487 36.0278L53.4161 35.1771L52.8678 26.1877L49.5269 26.5461L48.5858 11.1149ZM33.9806 28.214C35.0887 26.5331 35.5356 24.3041 35.3695 21.581L35.1177 17.4523L40.9532 16.8262L41.5979 27.3968L33.9806 28.214Z" fill="white"/>
</mask>
<g mask="url(#mask3)">
<rect x="-44" y="-20" width="100" height="100" fill="white"/>
<g style="mix-blend-mode:hard-light" filter="url(#filter4_f)">
<ellipse rx="11.9614" ry="10.9127" transform="matrix(0.985967 -0.166941 0.201914 0.979403 27.8344 15.9412)" fill="url(#paint5_radial)"/>
</g>
<g style="mix-blend-mode:hard-light" filter="url(#filter5_f)">
<ellipse rx="11.9614" ry="10.6853" transform="matrix(0.985967 -0.166941 0.201914 0.979403 13.684 28.7068)" fill="url(#paint6_radial)"/>
</g>
<g style="mix-blend-mode:hard-light" filter="url(#filter6_f)">
<ellipse rx="11.7122" ry="10.9127" transform="matrix(0.985967 -0.166941 0.201914 0.979403 13.6783 15.112)" fill="url(#paint7_radial)"/>
</g>
<g style="mix-blend-mode:hard-light" filter="url(#filter7_f)">
<ellipse rx="11.9614" ry="10.6853" transform="matrix(0.985967 -0.166941 0.201914 0.979403 28.1776 29.9398)" fill="url(#paint8_radial)"/>
</g>
</g>
</g>
</g>
<defs>
<filter id="filter0_f" x="14.3374" y="-3.43964" width="37.9919" height="37.9919" filterUnits="userSpaceOnUse" color-interpolation-filters="sRGB">
<feFlood flood-opacity="0" result="BackgroundImageFix"/>
<feBlend mode="normal" in="SourceGraphic" in2="BackgroundImageFix" result="shape"/>
<feGaussianBlur stdDeviation="2.4995" result="effect1_foregroundBlur"/>
</filter>
<filter id="filter1_f" x="0.232857" y="10.8922" width="37.9001" height="37.5005" filterUnits="userSpaceOnUse" color-interpolation-filters="sRGB">
<feFlood flood-opacity="0" result="BackgroundImageFix"/>
<feBlend mode="normal" in="SourceGraphic" in2="BackgroundImageFix" result="shape"/>
<feGaussianBlur stdDeviation="2.4995" result="effect1_foregroundBlur"/>
</filter>
<filter id="filter2_f" x="0.426979" y="-4.30877" width="37.5005" height="37.9001" filterUnits="userSpaceOnUse" color-interpolation-filters="sRGB">
<feFlood flood-opacity="0" result="BackgroundImageFix"/>
<feBlend mode="normal" in="SourceGraphic" in2="BackgroundImageFix" result="shape"/>
<feGaussianBlur stdDeviation="2.4995" result="effect1_foregroundBlur"/>
</filter>
<filter id="filter3_f" x="14.7265" y="12.2527" width="37.9001" height="37.5005" filterUnits="userSpaceOnUse" color-interpolation-filters="sRGB">
<feFlood flood-opacity="0" result="BackgroundImageFix"/>
<feBlend mode="normal" in="SourceGraphic" in2="BackgroundImageFix" result="shape"/>
<feGaussianBlur stdDeviation="2.4995" result="effect1_foregroundBlur"/>
</filter>
<filter id="filter4_f" x="10.8357" y="0.0674515" width="33.9975" height="31.7475" filterUnits="userSpaceOnUse" color-interpolation-filters="sRGB">
<feFlood flood-opacity="0" result="BackgroundImageFix"/>
<feBlend mode="normal" in="SourceGraphic" in2="BackgroundImageFix" result="shape"/>
<feGaussianBlur stdDeviation="2.4995" result="effect1_foregroundBlur"/>
</filter>
<filter id="filter5_f" x="-3.30633" y="13.0518" width="33.9807" height="31.31" filterUnits="userSpaceOnUse" color-interpolation-filters="sRGB">
<feFlood flood-opacity="0" result="BackgroundImageFix"/>
<feBlend mode="normal" in="SourceGraphic" in2="BackgroundImageFix" result="shape"/>
<feGaussianBlur stdDeviation="2.4995" result="effect1_foregroundBlur"/>
</filter>
<filter id="filter6_f" x="-3.07899" y="-0.754173" width="33.5146" height="31.7323" filterUnits="userSpaceOnUse" color-interpolation-filters="sRGB">
<feFlood flood-opacity="0" result="BackgroundImageFix"/>
<feBlend mode="normal" in="SourceGraphic" in2="BackgroundImageFix" result="shape"/>
<feGaussianBlur stdDeviation="2.4995" result="effect1_foregroundBlur"/>
</filter>
<filter id="filter7_f" x="11.1873" y="14.2848" width="33.9807" height="31.31" filterUnits="userSpaceOnUse" color-interpolation-filters="sRGB">
<feFlood flood-opacity="0" result="BackgroundImageFix"/>
<feBlend mode="normal" in="SourceGraphic" in2="BackgroundImageFix" result="shape"/>
<feGaussianBlur stdDeviation="2.4995" result="effect1_foregroundBlur"/>
</filter>
<radialGradient id="paint0_radial" cx="0" cy="0" r="1" gradientUnits="userSpaceOnUse" gradientTransform="translate(24.995) rotate(90) scale(36.7427)">
<stop stop-color="#413F3F"/>
<stop offset="1" stop-color="#141313"/>
</radialGradient>
<radialGradient id="paint1_radial" cx="0" cy="0" r="1" gradientUnits="userSpaceOnUse" gradientTransform="translate(33.3333 15.5563) rotate(90) scale(11.9976)">
<stop stop-color="#1EABD7" stop-opacity="0.71"/>
<stop offset="1" stop-color="#1EABD7"/>
</radialGradient>
<radialGradient id="paint2_radial" cx="0" cy="0" r="1" gradientUnits="userSpaceOnUse" gradientTransform="translate(19.1829 29.6424) rotate(90) scale(11.7477 11.9976)">
<stop stop-color="#D7AE1E" stop-opacity="0.71"/>
<stop offset="1" stop-color="#7C500C"/>
</radialGradient>
<radialGradient id="paint3_radial" cx="0" cy="0" r="1" gradientUnits="userSpaceOnUse" gradientTransform="translate(19.1772 14.6413) rotate(90) scale(11.9976 11.7477)">
<stop stop-color="#D61E1E" stop-opacity="0.71"/>
<stop offset="0.96875" stop-color="#D61E6B"/>
</radialGradient>
<radialGradient id="paint4_radial" cx="0" cy="0" r="1" gradientUnits="userSpaceOnUse" gradientTransform="translate(33.6765 31.003) rotate(90) scale(11.7477 11.9976)">
<stop stop-color="#479622" stop-opacity="0.71"/>
<stop offset="1" stop-color="#4C690D"/>
</radialGradient>
<radialGradient id="paint5_radial" cx="0" cy="0" r="1" gradientUnits="userSpaceOnUse" gradientTransform="translate(11.9614 10.9127) rotate(90) scale(10.9127 11.9614)">
<stop stop-color="#1EABD7" stop-opacity="0.71"/>
<stop offset="1" stop-color="#1EABD7"/>
</radialGradient>
<radialGradient id="paint6_radial" cx="0" cy="0" r="1" gradientUnits="userSpaceOnUse" gradientTransform="translate(11.9614 10.6853) rotate(90) scale(10.6853 11.9614)">
<stop stop-color="#D7AE1E" stop-opacity="0.71"/>
<stop offset="1" stop-color="#7C500C"/>
</radialGradient>
<radialGradient id="paint7_radial" cx="0" cy="0" r="1" gradientUnits="userSpaceOnUse" gradientTransform="translate(11.7122 10.9127) rotate(90) scale(10.9127 11.7122)">
<stop stop-color="#D61E1E" stop-opacity="0.71"/>
<stop offset="0.96875" stop-color="#D61E6B"/>
</radialGradient>
<radialGradient id="paint8_radial" cx="0" cy="0" r="1" gradientUnits="userSpaceOnUse" gradientTransform="translate(11.9614 10.6853) rotate(90) scale(10.6853 11.9614)">
<stop stop-color="#479622" stop-opacity="0.71"/>
<stop offset="1" stop-color="#4C690D"/>
</radialGradient>
<clipPath id="clip0">
<rect width="49.99" height="49.99" fill="white"/>
</clipPath>
</defs>
</svg>
