<svg width="30" height="31" viewBox="0 0 30 31" fill="none" xmlns="http://www.w3.org/2000/svg">
<path d="M0 6.47185C0 3.15814 2.68629 0.471848 6 0.471848H18.75H24C27.3137 0.471848 30 3.15814 30 6.47185V10.2218V24.4718C30 27.7856 27.3137 30.4718 24 30.4718H6C2.68629 30.4718 0 27.7856 0 24.4718V6.47185Z" fill="#706C6C"/>
<path d="M15.857 20.0719L12.5023 20.3348L12.7181 23.0886L10.8055 23.2385L10.5897 20.4847L8.51678 20.6471L8.39279 19.0649L10.4657 18.9025L10.3582 17.5306L8.28529 17.693L8.16209 16.1208L10.235 15.9584L9.66292 8.65822L15.0404 8.23683C16.6026 8.11442 17.8721 8.4146 18.849 9.13736C19.8258 9.86013 20.3673 10.8991 20.4735 12.2543C20.585 13.6763 20.2304 14.8091 19.4099 15.6525C18.5955 16.4888 17.3808 16.9736 15.7657 17.1068L12.2708 17.3807L12.3783 18.7526L15.733 18.4897L15.857 20.0719ZM12.1476 15.8085L15.6125 15.537C16.6472 15.4559 17.4159 15.1505 17.9185 14.6208C18.421 14.0911 18.6357 13.3589 18.5625 12.4243C18.496 11.5764 18.162 10.9141 17.5604 10.4373C16.9583 9.95386 16.1797 9.74619 15.2245 9.81433L11.6996 10.0905L12.1476 15.8085Z" fill="white"/>
</svg>
