<svg width="30" height="30" viewBox="0 0 30 30" fill="none" xmlns="http://www.w3.org/2000/svg">
<path d="M0 6C0 2.68629 2.68629 0 6 0H18.75H24C27.3137 0 30 2.68629 30 6V9.75V24C30 27.3137 27.3137 30 24 30H6C2.68629 30 0 27.3137 0 24V6Z" fill="#383636"/>
<path d="M15.857 19.6001L12.5023 19.863L12.7181 22.6168L10.8055 22.7667L10.5897 20.0128L8.51678 20.1753L8.39279 18.5931L10.4657 18.4306L10.3582 17.0587L8.28529 17.2212L8.16209 15.649L10.235 15.4865L9.66292 8.18638L15.0404 7.76499C16.6026 7.64257 17.8721 7.94275 18.849 8.66552C19.8258 9.38829 20.3673 10.4273 20.4735 11.7825C20.585 13.2045 20.2304 14.3372 19.4099 15.1807C18.5955 16.0169 17.3808 16.5017 15.7657 16.635L12.2708 16.9089L12.3783 18.2808L15.733 18.0179L15.857 19.6001ZM12.1476 15.3367L15.6125 15.0652C16.6472 14.9841 17.4159 14.6787 17.9185 14.1489C18.421 13.6192 18.6357 12.887 18.5625 11.9524C18.496 11.1046 18.162 10.4422 17.5604 9.96547C16.9583 9.48201 16.1797 9.27435 15.2245 9.34248L11.6996 9.6187L12.1476 15.3367Z" fill="white"/>
</svg>
