<svg width="385" height="385" viewBox="0 0 385 385" fill="none" xmlns="http://www.w3.org/2000/svg">
<path d="M380.6 323.1L249.4 191.4L380.9 61.4C386.3 56 386.3 47.2 380.9 41.8L343.5 4.2C340.9 1.6 337.4 0.199997 333.7 0.199997C330 0.199997 326.5 1.7 323.9 4.2L193 133.8L61.9 4.3C59.3 1.7 55.8 0.300003 52.1 0.300003C48.4 0.300003 44.9 1.8 42.3 4.3L5 41.9C-0.400003 47.3 -0.400003 56.1 5 61.5L136.5 191.5L5.4 323.1C2.8 325.7 1.3 329.2 1.3 332.9C1.3 336.6 2.7 340.1 5.4 342.7L42.8 380.3C45.5 383 49 384.4 52.6 384.4C56.1 384.4 59.7 383.1 62.4 380.3L193 249.1L323.7 380.2C326.4 382.9 329.9 384.3 333.5 384.3C337 384.3 340.6 383 343.3 380.2L380.7 342.6C383.3 340 384.8 336.5 384.8 332.8C384.7 329.2 383.2 325.7 380.6 323.1Z" fill="white"/>
</svg>
