<svg width="21" height="21" viewBox="0 0 21 21" fill="none" xmlns="http://www.w3.org/2000/svg">
<path d="M16.1699 10.7402H19.167V13.2803H16.1699V16.7168H13.4014V13.2803H10.3955V10.7402H13.4014V7.40039H16.1699V10.7402Z" fill="white"/>
<path fill-rule="evenodd" clip-rule="evenodd" d="M14.3291 2.99942C15.7873 2.99942 16.9295 3.40289 17.7563 4.21017C17.9984 4.44663 18.2052 4.70991 18.3764 5H11.1122V8.30189H8V15.5736H11.1122V17.4022L10.6776 17.8207C10.5605 17.9378 10.4172 17.9964 10.248 17.9964C10.0788 17.9964 9.93559 17.9378 9.8184 17.8205L3.72594 11.9427C3.66086 11.8907 3.57133 11.806 3.45745 11.689C3.34367 11.5717 3.1629 11.3587 2.91555 11.0495C2.6682 10.7403 2.44683 10.4229 2.25163 10.0975C2.0564 9.77214 1.88216 9.37828 1.72926 8.91612C1.57636 8.45414 1.49976 8.00492 1.49976 7.56879C1.49976 6.13678 1.91311 5.01728 2.73974 4.21017C3.56637 3.40299 4.70865 2.99942 6.16674 2.99942C6.57028 2.99942 6.98206 3.06942 7.40183 3.20926C7.82165 3.34927 8.21222 3.53797 8.57349 3.77565C8.93482 4.01329 9.24555 4.23619 9.506 4.44442C9.76628 4.65272 10.0136 4.87409 10.248 5.10834C10.4823 4.87409 10.7297 4.65272 10.99 4.44442C11.2505 4.23619 11.5611 4.01315 11.9225 3.77565C12.2834 3.53807 12.6741 3.34923 13.094 3.20926C13.5138 3.06939 13.9256 2.99942 14.3291 2.99942ZM18.9321 8.30189C18.9749 8.05677 18.9963 7.81241 18.9963 7.56879C18.9963 7.16938 18.9641 6.79429 18.8998 6.4435V8.30189H18.9321Z" fill="white"/>
</svg>
