<svg width="21" height="21" viewBox="0 0 21 21" fill="none" xmlns="http://www.w3.org/2000/svg">
<g clip-path="url(#clip0_614_124)">
<path d="M13.0787 3.89959C12.4644 3.29978 11.6157 3 10.5323 3C10.2325 3 9.92647 3.05199 9.61459 3.15591C9.30259 3.25991 9.01235 3.40022 8.74418 3.57674C8.47565 3.75321 8.24488 3.91893 8.05129 4.07365C7.85793 4.22841 7.67409 4.39289 7.50001 4.56694C7.32586 4.39289 7.14207 4.22841 6.94868 4.07365C6.75517 3.91893 6.5243 3.75331 6.25582 3.57674C5.9874 3.40015 5.6972 3.25994 5.38528 3.15591C5.07338 3.05201 4.76743 3 4.4676 3C3.38422 3 2.53551 3.29986 1.92131 3.89959C1.30712 4.49928 1 5.33108 1 6.39507C1 6.71911 1.05692 7.05289 1.17052 7.39615C1.28413 7.73953 1.41359 8.03217 1.55865 8.27394C1.70368 8.51568 1.86816 8.75153 2.05194 8.98126C2.23573 9.21101 2.37004 9.36926 2.45458 9.45639C2.53919 9.54334 2.60571 9.60627 2.65406 9.6449L7.1808 14.0122C7.26787 14.0993 7.37426 14.1429 7.49999 14.1429C7.62571 14.1429 7.73218 14.0993 7.8192 14.0123L12.3387 9.65953C13.4463 8.55212 14 7.46391 14 6.39507C14 5.33108 13.6929 4.49928 13.0787 3.89959Z" fill="white"/>
<path d="M17.6736 11.6887H20.8889V14.1509H17.6736V18H15.2242V14.1509H12V11.6887H15.2242V8H17.6736V11.6887Z" fill="white"/>
</g>
<defs>
<clipPath id="clip0_614_124">
<rect width="20.9958" height="20.9958" fill="white"/>
</clipPath>
</defs>
</svg>
