<svg width="30" height="30" viewBox="0 0 30 30" fill="none" xmlns="http://www.w3.org/2000/svg">
<path fill-rule="evenodd" clip-rule="evenodd" d="M28 7.33333H2V11.6667C3.59549 11.6667 4.88889 12.9601 4.88889 14.5555V20.3333C4.88889 24.4188 4.88889 26.4616 6.15809 27.7308C7.4273 29 9.47005 29 13.5556 29H16.4444C20.53 29 22.5727 29 23.8419 27.7308C25.1111 26.4616 25.1111 24.4188 25.1111 20.3333V14.5555C25.1111 12.9601 26.4045 11.6667 28 11.6667V7.33333ZM10.4444 16C10.4444 15.2023 9.79774 14.5556 9 14.5556C8.20226 14.5556 7.55556 15.2023 7.55556 16V23C7.55556 23.7977 8.20226 24.4444 9 24.4444C9.79774 24.4444 10.4444 23.7977 10.4444 23V16ZM16.4448 16C16.4448 15.2023 15.7981 14.5556 15.0004 14.5556C14.2026 14.5556 13.5559 15.2023 13.5559 16V23C13.5559 23.7977 14.2026 24.4444 15.0004 24.4444C15.7981 24.4444 16.4448 23.7977 16.4448 23V16ZM22.4444 16C22.4444 15.2023 21.7977 14.5556 21 14.5556C20.2023 14.5556 19.5556 15.2023 19.5556 16V23C19.5556 23.7977 20.2023 24.4444 21 24.4444C21.7977 24.4444 22.4444 23.7977 22.4444 23V16Z" fill="black"/>
<path d="M12.2093 3.5353C12.3739 3.38173 12.7366 3.24603 13.2411 3.14924C13.7457 3.05246 14.3638 3 14.9998 3C15.6357 3 16.2539 3.05246 16.7584 3.14924C17.263 3.24603 17.6256 3.38173 17.7902 3.5353" stroke="black" stroke-width="2.88889" stroke-linecap="round"/>
</svg>
