<svg width="55" height="42" viewBox="0 0 55 42" fill="none" xmlns="http://www.w3.org/2000/svg">
<path fill-rule="evenodd" clip-rule="evenodd" d="M37.2027 10.9873C35.8572 5.26809 33.0788 0 23.821 0C12.1668 0 10.7557 8.44644 9.5748 15.5152C9.13697 18.1361 8.73077 20.5675 7.84589 22.3089C7.71848 22.5596 7.6 22.7962 7.48689 23.022C6.77563 24.4421 6.27705 25.4375 5.10731 26.8664C3.97777 28.2461 2.08333 29.7186 0.449149 30.8592C-0.387453 31.4431 0.0216938 32.863 1.04192 32.863H46.6039C47.6785 32.863 48.0639 31.2611 47.1416 30.7097C45.6162 29.7977 44.0077 28.6915 42.991 27.586C42.3501 26.8889 41.8896 26.2696 41.5078 25.6549L39.9948 27.341L36.3057 31.4523L31.6532 28.4749L21.4963 21.9749L16.0214 18.4712L23.0288 7.52144L28.5037 11.0251L34.008 14.5477L37.2027 10.9873Z" fill="black"/>
<path d="M25 16.5L35 22.5L50.5 6" stroke="black" stroke-width="5" stroke-linecap="square"/>
<path d="M31.3479 36C31.3479 39.1994 27.99 42 23.8479 42C19.7058 42 16.3479 39.1994 16.3479 36H23.58H31.3479Z" fill="black"/>
</svg>
