<svg width="53" height="42" viewBox="0 0 53 42" fill="none" xmlns="http://www.w3.org/2000/svg">
<path fill-rule="evenodd" clip-rule="evenodd" d="M37.1628 10.8196C35.8022 5.16551 32.9882 0 23.821 0C12.1668 0 10.7557 8.44644 9.5748 15.5152C9.13697 18.1361 8.73077 20.5675 7.84589 22.3089C7.71848 22.5596 7.6 22.7962 7.48689 23.022C6.77563 24.4421 6.27705 25.4375 5.10731 26.8664C3.97777 28.2461 2.08333 29.7186 0.449149 30.8592C-0.387453 31.4431 0.0216938 32.863 1.04192 32.863H46.6039C47.6785 32.863 48.0639 31.2611 47.1416 30.7097C45.6162 29.7977 44.0077 28.6915 42.991 27.586C41.6555 26.1336 41.1036 25.0186 40.414 23.5801L38.476 25.7056L35.4014 29.0778L31.5197 26.6783L22.108 20.8601L17.4297 17.9681L23.2138 8.61153L27.892 11.5035L33.4221 14.9222L37.1628 10.8196Z" fill="black"/>
<path d="M25 16.1818L34.4118 22L49 6" stroke="black" stroke-width="5" stroke-linecap="square"/>
<path d="M31.3479 36C31.3479 39.1994 27.99 42 23.8479 42C19.7058 42 16.3479 39.1994 16.3479 36H23.58H31.3479Z" fill="black"/>
</svg>
