<svg width="30" height="30" viewBox="0 0 30 30" fill="none" xmlns="http://www.w3.org/2000/svg">
<g clip-path="url(#clip0_642_176)">
<path fill-rule="evenodd" clip-rule="evenodd" d="M26.172 14.1819L27.6584 11.9054L27.6584 11.9054L27.6584 11.9053C28.0045 11.3753 28.1775 11.1102 28.2726 10.8588C28.611 9.96347 28.4013 8.95321 27.7345 8.26656C27.5472 8.0737 27.283 7.89944 26.7546 7.55091L26.7546 7.55087L26.7545 7.55086L26.7545 7.55085C26.2216 7.19936 25.9552 7.02362 25.7025 6.92714C24.8027 6.58353 23.7853 6.79471 23.0966 7.46804C22.9032 7.6571 22.7287 7.92437 22.3797 8.45892L20.8901 10.7404C22.3092 12.3297 24.1314 13.5217 26.172 14.1819ZM19.5011 12.8679L13.7248 21.7149L13.7248 21.7149L13.7248 21.715C13.3203 22.3345 13.1181 22.6443 13.0155 22.9941C12.913 23.344 12.916 23.7139 12.922 24.4538L12.9488 27.7322C12.9522 28.1508 12.9539 28.3601 13.092 28.4506C13.2301 28.541 13.4227 28.459 13.8077 28.2948L16.794 27.0218L16.7941 27.0218C17.4782 26.7302 17.8203 26.5844 18.101 26.349C18.3818 26.1136 18.5851 25.8023 18.9917 25.1795L18.9917 25.1795L24.7823 16.3104C22.7864 15.5616 20.984 14.3835 19.5011 12.8679Z" fill="black"/>
<path fill-rule="evenodd" clip-rule="evenodd" d="M20.9871 4.72028L10.5984 20.3909C9.95402 21.363 9.63181 21.849 9.46807 22.3996C9.30433 22.9502 9.30857 23.5333 9.31706 24.6995L9.3338 27H5C3.34315 27 2 25.6569 2 24V5C2 3.34315 3.34315 2 5 2H18C19.5625 2 20.8461 3.19458 20.9871 4.72028Z" fill="black"/>
</g>
<defs>
<clipPath id="clip0_642_176">
<rect width="30" height="30" fill="white"/>
</clipPath>
</defs>
</svg>
