<svg width="30" height="30" viewBox="0 0 30 30" fill="none" xmlns="http://www.w3.org/2000/svg">
<path fill-rule="evenodd" clip-rule="evenodd" d="M21.4781 3.5157L12.6889 2.42475C8.63883 1.92203 6.61379 1.67068 5.3069 2.82538C4 3.98009 4 6.02067 4 10.1018V13.7112H13.431L9.38029 9.71176L11.192 7.8768L17.4778 14.0831L18.407 15.0005L17.4778 15.918L11.192 22.1243L9.38029 20.2893L13.431 16.2899H4V19.8982C4 23.9793 4 26.0199 5.3069 27.1746C6.61379 28.3293 8.63883 28.078 12.6889 27.5753L21.4781 26.4843C23.6311 26.2171 24.7077 26.0834 25.3539 25.352C26.0001 24.6206 26.0001 23.5358 26.0001 21.3663V8.63375C26.0001 6.46417 26.0001 5.37937 25.3539 4.64797C24.7077 3.91657 23.6311 3.78294 21.4781 3.5157Z" fill="black"/>
</svg>
