<svg width="16" height="16" viewBox="0 0 16 16" fill="none" xmlns="http://www.w3.org/2000/svg">
<g clip-path="url(#clip0_306_28)">
<rect width="16" height="16" rx="4" fill="url(#paint0_radial_306_28)" fill-opacity="0.1"/>
<mask id="mask0_306_28" style="mask-type:alpha" maskUnits="userSpaceOnUse" x="-2" y="3" width="19" height="11">
<mask id="mask1_306_28" style="mask-type:alpha" maskUnits="userSpaceOnUse" x="-2" y="3" width="10" height="12">
<rect x="-2" y="3.50682" width="9.62964" height="10.8122" fill="#C4C4C4"/>
</mask>
<g mask="url(#mask1_306_28)">
<path d="M-1.87331 5.31533L-1.45052 12.9588L2.2578 12.4708L2.13096 10.1777L3.53098 10.0119C4.59982 9.8853 5.47411 9.52896 6.16892 8.94109C6.86373 8.35322 7.18939 7.66619 7.1465 6.89092C7.10362 6.11565 6.70669 5.5142 5.95631 5.0975C5.20594 4.68079 4.30386 4.53484 3.23502 4.66143L-1.87331 5.31533ZM2.02828 8.32142L1.93828 6.69444L3.33831 6.52863C3.94047 6.45731 4.42526 6.72962 4.45184 7.21007C4.47841 7.69052 4.03046 8.08429 3.4283 8.15561L2.02828 8.32142Z" fill="white"/>
<path d="M16.7685 3.05858L9.43716 3.92687L9.62138 7.25726C9.67997 8.31643 9.48379 9.15299 9.03287 9.76692L7.91887 9.89886L8.1043 13.2511L10.799 12.9319L10.718 11.4688L15.6407 10.8857L15.7216 12.3489L18.4012 12.0316L18.2158 8.67933L17.0868 8.81305L16.7685 3.05858ZM11.8329 9.4353C12.2074 8.80843 12.3584 7.97723 12.3022 6.96173L12.217 5.42211L14.1891 5.18855L14.4072 9.13041L11.8329 9.4353Z" fill="white"/>
<mask id="mask2_306_28" style="mask-type:alpha" maskUnits="userSpaceOnUse" x="-1" y="3" width="20" height="11">
<path d="M-0.843519 5.16586L-0.421083 12.8094L2.2736 12.4904L2.14687 10.1973L3.5469 10.0316C4.61574 9.90502 5.49005 9.54872 6.18489 8.96089C6.87972 8.37305 7.20542 7.68604 7.16257 6.91077C7.11972 6.13549 6.72282 5.53403 5.97246 5.11728C5.2221 4.70054 4.32003 4.55455 3.25119 4.68109L-0.843519 5.16586ZM2.04428 8.34102L1.95436 6.71404L3.35439 6.54829C3.95655 6.477 4.44133 6.74934 4.46789 7.22979C4.49444 7.71024 4.04647 8.10398 3.44431 8.17527L2.04428 8.34102Z" fill="white"/>
<path d="M16.7847 3.07887L9.45336 3.94682L9.63742 7.27722C9.69596 8.33639 9.49975 9.17294 9.0488 9.78686L7.9348 9.91874L8.12006 13.271L10.8147 12.952L10.7339 11.4888L15.6566 10.906L15.7374 12.3692L18.4171 12.0519L18.2318 8.69969L17.1027 8.83336L16.7847 3.07887ZM11.8489 9.45536C12.2233 8.82852 12.3744 7.99732 12.3183 6.98182L12.2332 5.44219L14.2053 5.20872L14.4231 9.1506L11.8489 9.45536Z" fill="white"/>
</mask>
<g mask="url(#mask2_306_28)">
<rect x="-16.3629" y="-7.13751" width="33.795" height="33.795" fill="white"/>
<g style="mix-blend-mode:hard-light">
<circle cx="9.77189" cy="4.87873" r="4.05459" transform="rotate(-10.5827 9.77189 4.87873)" fill="url(#paint1_radial_306_28)"/>
</g>
<g style="mix-blend-mode:hard-light">
<ellipse rx="4.77884" ry="4.42356" transform="matrix(0.984879 -0.173244 0.194645 0.980874 4.13681 9.94264)" fill="url(#paint2_radial_306_28)"/>
</g>
<g style="mix-blend-mode:hard-light">
<ellipse rx="4.67928" ry="4.51767" transform="matrix(0.984879 -0.173244 0.194645 0.980874 4.13459 4.30614)" fill="url(#paint3_radial_306_28)"/>
</g>
<g style="mix-blend-mode:hard-light">
<ellipse cx="9.88785" cy="10.0989" rx="4.05459" ry="3.97012" transform="rotate(-10.5827 9.88785 10.0989)" fill="url(#paint4_radial_306_28)"/>
</g>
</g>
</g>
<mask id="mask3_306_28" style="mask-type:alpha" maskUnits="userSpaceOnUse" x="6" y="3" width="11" height="10">
<rect x="6.44391" y="3" width="9.79858" height="9.79858" fill="#C4C4C4"/>
</mask>
<g mask="url(#mask3_306_28)">
<path d="M-2.21438 5.25138L-1.79158 12.1783L0.903086 11.8891L0.776247 9.81101L2.17627 9.66074C3.2451 9.54602 4.1194 9.22309 4.81421 8.69033C5.50902 8.15757 5.83468 7.53495 5.79179 6.83236C5.74891 6.12978 5.35198 5.58471 4.6016 5.20707C3.85123 4.82943 2.94915 4.69717 1.88031 4.81189L-2.21438 5.25138ZM0.673568 8.12875L0.583573 6.65431L1.9836 6.50404C2.58576 6.43941 3.07055 6.68618 3.09713 7.12159C3.1237 7.557 2.67575 7.91385 2.07359 7.97848L0.673568 8.12875Z" fill="white"/>
<path d="M16.2585 3.2062L8.08245 4.14619L8.26666 7.16436C8.32525 8.12423 8.12908 8.88236 7.67816 9.43874L6.56416 9.55831L6.74959 12.5963L9.44425 12.307L9.36332 10.981L14.286 10.4527L14.3669 11.7787L17.8912 11.338L17.7058 8.30001L16.5768 8.42119L16.2585 3.2062ZM10.4782 9.1382C10.8527 8.57011 11.0037 7.81683 10.9475 6.89654L10.8623 5.50125L12.8344 5.28959L13.0524 8.8619L10.4782 9.1382Z" fill="white"/>
<mask id="mask4_306_28" style="mask-type:alpha" maskUnits="userSpaceOnUse" x="-3" y="3" width="21" height="10">
<path d="M-2.19825 5.26899L-1.77579 12.1959L0.918897 11.9068L0.792157 9.82875L2.19219 9.67854C3.26103 9.56387 4.13534 9.24098 4.83018 8.70826C5.52501 8.17554 5.8507 7.55293 5.80785 6.85034C5.765 6.14775 5.36809 5.60267 4.61773 5.225C3.86738 4.84732 2.9653 4.71501 1.89646 4.82969L-2.19825 5.26899ZM0.689557 8.14649L0.599632 6.67204L1.99966 6.52184C2.60183 6.45723 3.08661 6.70404 3.11317 7.13944C3.13972 7.57485 2.69175 7.93168 2.08959 7.99629L0.689557 8.14649Z" fill="white"/>
<path d="M15.43 3.37773L8.09863 4.16428L8.28271 7.18245C8.34125 8.14233 8.14505 8.90044 7.6941 9.4568L6.58009 9.57632L6.76537 12.6143L9.46006 12.3252L9.37919 10.9992L14.3019 10.471L14.3827 11.797L17.0624 11.5096L16.8771 8.4716L15.748 8.59273L15.43 3.37773ZM10.4942 9.1564C10.8686 8.58832 11.0197 7.83505 10.9635 6.91475L10.8785 5.51947L12.8505 5.30789L13.0684 8.88022L10.4942 9.1564Z" fill="white"/>
</mask>
<g mask="url(#mask4_306_28)">
<rect x="-15.8593" y="-7.13751" width="33.795" height="33.795" fill="white"/>
<g style="mix-blend-mode:hard-light">
<ellipse rx="4.73685" ry="4.40437" transform="matrix(0.985278 -0.170255 0.197978 0.980062 9.22598 4.42279)" fill="url(#paint5_radial_306_28)"/>
</g>
<g style="mix-blend-mode:hard-light">
<ellipse rx="4.04235" ry="3.6111" transform="matrix(0.985967 -0.166941 0.201914 0.979403 3.63498 9.32293)" fill="url(#paint6_radial_306_28)"/>
</g>
<g style="mix-blend-mode:hard-light">
<ellipse rx="3.95813" ry="3.68793" transform="matrix(0.985967 -0.166941 0.201914 0.979403 3.63307 4.72857)" fill="url(#paint7_radial_306_28)"/>
</g>
<g style="mix-blend-mode:hard-light">
<ellipse rx="4.73685" ry="4.31262" transform="matrix(0.985278 -0.170255 0.197978 0.980062 9.3618 10.0764)" fill="url(#paint8_radial_306_28)"/>
</g>
</g>
</g>
</mask>
<g mask="url(#mask0_306_28)">
<rect width="16" height="16" fill="url(#paint9_radial_306_28)"/>
</g>
</g>
<defs>
<radialGradient id="paint0_radial_306_28" cx="0" cy="0" r="1" gradientUnits="userSpaceOnUse" gradientTransform="translate(8) rotate(90) scale(11.76)">
<stop stop-color="#413F3F"/>
<stop offset="1" stop-color="#141313"/>
</radialGradient>
<radialGradient id="paint1_radial_306_28" cx="0" cy="0" r="1" gradientUnits="userSpaceOnUse" gradientTransform="translate(9.77189 4.87873) rotate(90) scale(4.05459)">
<stop stop-color="#1EABD7" stop-opacity="0.71"/>
<stop offset="1" stop-color="#1EABD7"/>
</radialGradient>
<radialGradient id="paint2_radial_306_28" cx="0" cy="0" r="1" gradientUnits="userSpaceOnUse" gradientTransform="translate(4.77884 4.42356) rotate(90) scale(4.42356 4.77884)">
<stop stop-color="#D7AE1E" stop-opacity="0.71"/>
<stop offset="1" stop-color="#7C500C"/>
</radialGradient>
<radialGradient id="paint3_radial_306_28" cx="0" cy="0" r="1" gradientUnits="userSpaceOnUse" gradientTransform="translate(4.67928 4.51767) rotate(90) scale(4.51767 4.67928)">
<stop stop-color="#D61E1E" stop-opacity="0.71"/>
<stop offset="0.96875" stop-color="#D61E6B"/>
</radialGradient>
<radialGradient id="paint4_radial_306_28" cx="0" cy="0" r="1" gradientUnits="userSpaceOnUse" gradientTransform="translate(9.88785 10.0989) rotate(90) scale(3.97012 4.05459)">
<stop stop-color="#479622" stop-opacity="0.71"/>
<stop offset="1" stop-color="#4C690D"/>
</radialGradient>
<radialGradient id="paint5_radial_306_28" cx="0" cy="0" r="1" gradientUnits="userSpaceOnUse" gradientTransform="translate(4.73685 4.40437) rotate(90) scale(4.40437 4.73685)">
<stop stop-color="#1EABD7" stop-opacity="0.71"/>
<stop offset="1" stop-color="#1EABD7"/>
</radialGradient>
<radialGradient id="paint6_radial_306_28" cx="0" cy="0" r="1" gradientUnits="userSpaceOnUse" gradientTransform="translate(4.04235 3.6111) rotate(90) scale(3.6111 4.04235)">
<stop stop-color="#D7AE1E" stop-opacity="0.71"/>
<stop offset="1" stop-color="#7C500C"/>
</radialGradient>
<radialGradient id="paint7_radial_306_28" cx="0" cy="0" r="1" gradientUnits="userSpaceOnUse" gradientTransform="translate(3.95813 3.68793) rotate(90) scale(3.68793 3.95813)">
<stop stop-color="#D61E1E" stop-opacity="0.71"/>
<stop offset="0.96875" stop-color="#D61E6B"/>
</radialGradient>
<radialGradient id="paint8_radial_306_28" cx="0" cy="0" r="1" gradientUnits="userSpaceOnUse" gradientTransform="translate(4.73685 4.31262) rotate(90) scale(4.31262 4.73685)">
<stop stop-color="#479622" stop-opacity="0.71"/>
<stop offset="1" stop-color="#4C690D"/>
</radialGradient>
<radialGradient id="paint9_radial_306_28" cx="0" cy="0" r="1" gradientUnits="userSpaceOnUse" gradientTransform="translate(8) rotate(90) scale(11.76)">
<stop stop-color="#413F3F"/>
<stop offset="1" stop-color="#141313"/>
</radialGradient>
<clipPath id="clip0_306_28">
<rect width="16" height="16" rx="4" fill="white"/>
</clipPath>
</defs>
</svg>
