<svg width="30" height="30" viewBox="0 0 30 30" fill="none" xmlns="http://www.w3.org/2000/svg">
<path d="M6 4.78571V19.7143H22.9603C23.7676 19.7143 24.1712 19.7143 24.2717 19.4718C24.3721 19.2293 24.0867 18.9438 23.5158 18.373L17.4445 12.3016L17.4445 12.3016C17.2349 12.0921 17.1302 11.9873 17.1302 11.8571C17.1302 11.727 17.2349 11.6222 17.4445 11.4127L23.5158 5.3413C24.0867 4.77046 24.3721 4.48503 24.2717 4.24252C24.1712 4 23.7676 4 22.9603 4H6.78571C6.41533 4 6.23013 4 6.11507 4.11507C6 4.23013 6 4.41532 6 4.78571Z" fill="black"/>
<path d="M6 19.7143V4.78571C6 4.41532 6 4.23013 6.11507 4.11507C6.23013 4 6.41533 4 6.78571 4H22.9603C23.7676 4 24.1712 4 24.2717 4.24252C24.3721 4.48503 24.0867 4.77046 23.5158 5.3413L17.4445 11.4127C17.2349 11.6222 17.1302 11.727 17.1302 11.8571C17.1302 11.9873 17.2349 12.0921 17.4445 12.3016L23.5158 18.373C24.0867 18.9438 24.3721 19.2293 24.2717 19.4718C24.1712 19.7143 23.7676 19.7143 22.9603 19.7143H6ZM6 19.7143V26" stroke="black" stroke-width="3.14286" stroke-linecap="round"/>
</svg>
