<svg width="22" height="22" viewBox="0 0 22 22" fill="none" xmlns="http://www.w3.org/2000/svg">
<path d="M18.6803 4.71203C17.8536 3.90475 16.7114 3.50128 15.2532 3.50128C14.8497 3.50128 14.4378 3.57125 14.0181 3.71112C13.5982 3.85109 13.2075 4.03993 12.8466 4.27751C12.4852 4.51501 12.1746 4.73805 11.9141 4.94629C11.6538 5.15459 11.4064 5.37595 11.1721 5.61021C10.9377 5.37595 10.6903 5.15459 10.4301 4.94629C10.1696 4.73805 9.8589 4.51515 9.49756 4.27751C9.13629 4.03983 8.74572 3.85113 8.32591 3.71112C7.90613 3.57129 7.49435 3.50128 7.09082 3.50128C5.63272 3.50128 4.49044 3.90485 3.66381 4.71203C2.83718 5.51914 2.42383 6.63864 2.42383 8.07065C2.42383 8.50678 2.50043 8.95601 2.65333 9.41799C2.80623 9.88014 2.98047 10.274 3.1757 10.5994C3.3709 10.9248 3.59227 11.2422 3.83962 11.5514C4.08697 11.8606 4.26774 12.0736 4.38152 12.1908C4.4954 12.3079 4.58493 12.3926 4.65001 12.4445L10.7425 18.3224C10.8597 18.4396 11.0029 18.4983 11.1721 18.4983C11.3413 18.4983 11.4846 18.4396 11.6017 18.3226L17.6845 12.4642C19.1751 10.9738 19.9203 9.50919 19.9203 8.07065C19.9204 6.63864 19.5069 5.51914 18.6803 4.71203Z" fill="white"/>
</svg>
