<svg width="1024" height="1024" viewBox="0 0 1024 1024" fill="none" xmlns="http://www.w3.org/2000/svg">
<rect width="1024" height="1024" rx="285" fill="url(#paint0_radial_629_186)"/>
<rect width="1024" height="1024" rx="285" fill="url(#paint1_radial_629_186)"/>
<g clip-path="url(#clip0_629_186)">
<path fill-rule="evenodd" clip-rule="evenodd" d="M512.285 33.1141C578.574 33.1141 644.868 32.8073 711.155 33.2021C773.521 33.5744 832.093 47.7966 882.842 85.7096C949.116 135.222 983.031 202.853 989.343 284.462C991.566 313.183 990.875 342.154 990.912 371.011C991.063 482.92 990.979 594.831 990.967 706.742C990.963 752.449 984.606 797.075 965.265 838.871C926.03 923.653 857.592 970.002 767.296 986.064C748.468 989.412 729.045 990.663 709.892 990.72C577.668 991.11 445.441 991.021 313.217 990.883C244.459 990.813 181.573 972.656 127.984 928.046C73.5382 882.729 44.8075 823.458 35.8702 753.968C34.3285 741.983 33.3845 729.826 33.3733 717.749C33.2442 578.753 32.405 439.749 33.7671 300.767C34.5118 224.832 59.7959 157.506 116.324 104.456C163.212 60.4555 220.207 37.4644 283.542 35.2144C359.699 32.5088 436.028 34.5736 512.283 34.5736C512.283 34.0862 512.283 33.5997 512.285 33.1141ZM511.537 902.468C575.322 902.468 639.106 902.725 702.888 902.292C719.569 902.179 736.492 901.35 752.859 898.39C815.379 887.088 862.911 855.729 887.821 794.853C900.477 763.929 904.611 730.746 905.149 698.608C907.242 573.927 906.063 449.189 905.916 324.472C905.899 310.961 905.753 297.299 903.842 283.968C895.269 224.104 869.317 175.038 814.224 145.199C783.473 128.546 750.091 122.258 715.393 122.246C581.767 122.207 448.142 122.168 314.518 122.328C302.442 122.343 290.259 123.011 278.311 124.69C210.253 134.246 160.124 167.787 135.036 233.775C124.912 260.403 121.677 288.306 121.671 316.635C121.651 447.053 121.526 577.469 121.842 707.888C121.881 723.844 123.071 740.029 125.927 755.708C138.597 825.271 177.386 873.083 246.466 892.308C269.486 898.712 294.093 901.54 318.055 902.023C382.528 903.318 447.04 902.464 511.537 902.468Z" fill="white"/>
<path fill-rule="evenodd" clip-rule="evenodd" d="M758.894 510.474C758.834 646.855 647.559 757.783 511.141 757.45C374.672 757.12 264.77 646.966 264.69 510.439C264.61 374.063 375.72 263.126 512.239 263.275C647.58 263.421 758.954 375.041 758.894 510.474ZM511.886 668.412C598.898 668.479 670.563 596.866 670.412 510.001C670.262 423.738 598.779 352.121 512.475 351.77C425.588 351.417 353.958 422.811 353.774 509.946C353.59 597.207 424.566 668.343 511.886 668.412Z" fill="white"/>
<path fill-rule="evenodd" clip-rule="evenodd" d="M768.053 313.045C737.162 312.769 712.812 288.05 712.911 257.069C713.008 225.737 737.97 201.17 769.484 201.385C800.024 201.597 824.912 226.802 824.819 257.428C824.726 288.488 799.376 313.324 768.053 313.045Z" fill="white"/>
</g>
<defs>
<radialGradient id="paint0_radial_629_186" cx="0" cy="0" r="1" gradientUnits="userSpaceOnUse" gradientTransform="translate(225 -19) rotate(61.6092) scale(603.598 1171.73)">
<stop stop-color="#5846BE"/>
<stop offset="1" stop-color="#CF2F6C"/>
</radialGradient>
<radialGradient id="paint1_radial_629_186" cx="0" cy="0" r="1" gradientUnits="userSpaceOnUse" gradientTransform="translate(180.5 991.5) rotate(-60.0685) scale(761.577 1290.96)">
<stop offset="0.20766" stop-color="#FBD45D"/>
<stop offset="0.656774" stop-color="#E4463B"/>
<stop offset="1" stop-color="#E4463B" stop-opacity="0"/>
</radialGradient>
<clipPath id="clip0_629_186">
<rect width="958" height="958" fill="white" transform="translate(33 33)"/>
</clipPath>
</defs>
</svg>
