<svg width="1024" height="1024" viewBox="0 0 1024 1024" fill="none" xmlns="http://www.w3.org/2000/svg">
<path fill-rule="evenodd" clip-rule="evenodd" d="M285 0C127.599 0 0 127.599 0 285V739C0 896.401 127.599 1024 285 1024H739C896.401 1024 1024 896.401 1024 739V285C1024 127.599 896.401 0 739 0H285ZM572.795 33.0573C552.625 33.0857 532.455 33.1141 512.285 33.1141C512.284 33.4309 512.284 33.7482 512.283 34.0659C512.283 34.235 512.283 34.4042 512.283 34.5735C489.248 34.5735 466.207 34.3851 443.165 34.1967L443.164 34.1967C389.929 33.7614 336.694 33.3261 283.542 35.2144C220.207 37.4644 163.212 60.4554 116.324 104.456C59.796 157.506 34.5119 224.832 33.7672 300.767C32.7373 405.852 32.9658 510.949 33.1944 616.047V616.048C33.2681 649.948 33.3418 683.849 33.3733 717.749C33.3845 729.826 34.3285 741.983 35.8703 753.968C44.8076 823.458 73.5382 882.729 127.984 928.046C181.573 972.656 244.459 990.813 313.217 990.883C445.441 991.021 577.668 991.11 709.892 990.72C729.045 990.663 748.468 989.412 767.296 986.064C857.592 970.002 926.03 923.653 965.265 838.871C984.607 797.075 990.963 752.449 990.967 706.742C990.97 680.674 990.977 654.607 990.984 628.54C991.006 542.697 991.028 456.854 990.912 371.011C990.905 365.242 990.926 359.469 990.948 353.693V353.69V353.686C991.035 330.576 991.121 307.439 989.343 284.462C983.031 202.853 949.117 135.222 882.842 85.7096C832.093 47.7965 773.521 33.5744 711.155 33.202C665.038 32.9273 618.917 32.9923 572.796 33.0573H572.795ZM563.452 902.506C546.147 902.487 528.842 902.468 511.537 902.468C493.12 902.467 474.702 902.536 456.284 902.604C410.201 902.776 364.118 902.948 318.056 902.023C294.093 901.54 269.486 898.712 246.466 892.308C177.386 873.083 138.597 825.271 125.927 755.708C123.071 740.029 121.881 723.844 121.842 707.888C121.587 602.659 121.62 497.433 121.652 392.205V392.205V392.205C121.66 367.015 121.667 341.825 121.671 316.635C121.677 288.306 124.912 260.403 135.036 233.775C160.124 167.787 210.253 134.246 278.311 124.69C290.26 123.011 302.442 122.343 314.518 122.328C448.142 122.168 581.768 122.207 715.393 122.246C750.091 122.258 783.473 128.545 814.224 145.199C869.317 175.037 895.269 224.104 903.842 283.968C905.753 297.299 905.899 310.961 905.916 324.472C905.951 354.389 906.046 384.308 906.14 414.226V414.227V414.227V414.236C906.44 509.037 906.74 603.838 905.15 698.608C904.611 730.746 900.477 763.929 887.821 794.853C862.911 855.729 815.379 887.088 752.859 898.39C736.492 901.35 719.569 902.179 702.888 902.292C656.418 902.607 609.948 902.557 563.476 902.506H563.452ZM758.894 510.474C758.834 646.855 647.559 757.783 511.141 757.45C374.672 757.12 264.77 646.966 264.69 510.438C264.611 374.063 375.72 263.126 512.239 263.274C647.58 263.42 758.954 375.04 758.894 510.474ZM511.886 668.412C598.898 668.479 670.563 596.866 670.412 510.001C670.262 423.738 598.779 352.121 512.475 351.77C425.588 351.417 353.958 422.81 353.774 509.946C353.59 597.207 424.566 668.343 511.886 668.412ZM712.911 257.069C712.812 288.05 737.162 312.769 768.053 313.045C799.376 313.324 824.726 288.488 824.819 257.428C824.912 226.802 800.024 201.597 769.484 201.385C737.969 201.17 713.008 225.737 712.911 257.069Z" fill="black"/>
</svg>
