<svg width="231" height="45" viewBox="0 0 231 45" fill="none" xmlns="http://www.w3.org/2000/svg">
<g clip-path="url(#clip0)">
<rect x="1" y="1" width="43" height="43" fill="url(#paint0_radial)"/>
<mask id="mask0" style="mask-type:alpha" maskUnits="userSpaceOnUse" x="-1" y="10" width="26" height="29">
<rect x="-0.290039" y="10.89" width="24.51" height="27.52" fill="#C4C4C4"/>
</mask>
<g mask="url(#mask0)">
<path d="M0.0321655 15.4932L1.10829 34.9479L10.5469 33.7056L10.2241 27.8692L13.7875 27.4472C16.508 27.125 18.7333 26.218 20.5018 24.7217C22.2703 23.2254 23.0991 21.4767 22.99 19.5035C22.8808 17.5302 21.8706 15.9994 19.9606 14.9387C18.0507 13.8781 15.7547 13.5066 13.0342 13.8288L0.0321655 15.4932ZM9.96275 23.1445L9.73369 19.0034L13.2971 18.5813C14.8298 18.3998 16.0637 19.0929 16.1314 20.3158C16.199 21.5387 15.0588 22.5409 13.5262 22.7224L9.96275 23.1445Z" fill="white"/>
<path d="M47.4804 9.74914L28.8203 11.9592L29.2892 20.4359C29.4383 23.1318 28.939 25.261 27.7913 26.8237L24.9559 27.1595L25.4278 35.6918L32.2865 34.8795L32.0805 31.1553L44.61 29.6713L44.816 33.3955L51.6363 32.5877L51.1643 24.0554L48.2906 24.3958L47.4804 9.74914ZM34.9182 25.9796C35.8712 24.384 36.2556 22.2684 36.1126 19.6837L35.8959 15.765L40.9153 15.1705L41.4703 25.2036L34.9182 25.9796Z" fill="white"/>
<mask id="mask1" style="mask-type:alpha" maskUnits="userSpaceOnUse" x="2" y="9" width="50" height="27">
<path d="M2.65352 15.1127L3.72874 34.5675L10.5874 33.7555L10.2649 27.919L13.8283 27.4972C16.5488 27.1751 18.7741 26.2682 20.5427 24.772C22.3112 23.2758 23.1402 21.5272 23.0311 19.5539C22.9221 17.5806 21.9119 16.0497 20.002 14.989C18.0922 13.9283 15.7961 13.5567 13.0757 13.8788L2.65352 15.1127ZM10.0037 23.1943L9.77487 19.0532L13.3383 18.6313C14.871 18.4499 16.1049 19.143 16.1725 20.3659C16.2401 21.5888 15.0998 22.591 13.5672 22.7724L10.0037 23.1943Z" fill="white"/>
<path d="M47.522 9.80073L28.8618 12.0099L29.3303 20.4866C29.4793 23.1825 28.9799 25.3117 27.8321 26.8743L24.9967 27.21L25.4682 35.7423L32.3269 34.9304L32.1211 31.2061L44.6506 29.7228L44.8565 33.447L51.6768 32.6395L51.2053 24.1072L48.3315 24.4474L47.522 9.80073ZM34.959 26.0306C35.9121 24.4351 36.2966 22.3195 36.1537 19.7348L35.9372 15.816L40.9567 15.2218L41.5112 25.2549L34.959 26.0306Z" fill="white"/>
</mask>
<g mask="url(#mask1)">
<g style="mix-blend-mode:hard-light" filter="url(#filter0_f)">
<circle cx="29.6723" cy="14.3819" r="10.32" transform="rotate(-10.5827 29.6723 14.3819)" fill="url(#paint1_radial)"/>
</g>
<g style="mix-blend-mode:hard-light" filter="url(#filter1_f)">
<ellipse cx="17.5005" cy="26.4984" rx="10.32" ry="10.105" transform="rotate(-10.5827 17.5005 26.4984)" fill="url(#paint2_radial)"/>
</g>
<g style="mix-blend-mode:hard-light" filter="url(#filter2_f)">
<ellipse cx="17.4957" cy="13.5948" rx="10.105" ry="10.32" transform="rotate(-10.5827 17.4957 13.5948)" fill="url(#paint3_radial)"/>
</g>
<g style="mix-blend-mode:hard-light" filter="url(#filter3_f)">
<ellipse cx="29.9676" cy="27.6687" rx="10.32" ry="10.105" transform="rotate(-10.5827 29.9676 27.6687)" fill="url(#paint4_radial)"/>
</g>
</g>
</g>
<mask id="mask2" style="mask-type:alpha" maskUnits="userSpaceOnUse" x="19" y="9" width="26" height="26">
<rect x="19.9199" y="9.60001" width="24.94" height="24.94" fill="#C4C4C4"/>
</mask>
<g mask="url(#mask2)">
<path d="M-2.11774 15.3304L-1.04161 32.9612L5.81704 32.2251L5.4942 26.9358L9.05763 26.5533C11.7781 26.2613 14.0034 25.4394 15.7719 24.0834C17.5404 22.7274 18.3692 21.1426 18.2601 19.3544C18.1509 17.5661 17.1406 16.1788 15.2307 15.2176C13.3208 14.2564 11.0248 13.9197 8.30434 14.2117L-2.11774 15.3304ZM5.23285 22.654L5.00379 18.9012L8.56722 18.5187C10.0999 18.3542 11.3338 18.9823 11.4015 20.0905C11.4691 21.1988 10.3289 22.107 8.79628 22.2716L5.23285 22.654Z" fill="white"/>
<path d="M44.9005 10.1248L24.0904 12.5174L24.5593 20.1994C24.7084 22.6425 24.2091 24.5722 23.0614 25.9883L20.226 26.2926L20.6979 34.025L27.5566 33.2889L27.3506 29.9138L39.8801 28.569L40.0861 31.944L49.0564 30.8223L48.5844 23.0899L45.7107 23.3984L44.9005 10.1248ZM30.1883 25.2233C31.1413 23.7774 31.5257 21.8601 31.3827 19.5177L31.1659 15.9663L36.1854 15.4276L36.7404 24.5201L30.1883 25.2233Z" fill="white"/>
<mask id="mask3" style="mask-type:alpha" maskUnits="userSpaceOnUse" x="-3" y="10" width="50" height="25">
<path d="M-2.07645 15.3752L-1.00116 33.0061L5.85753 32.2703L5.53494 26.981L9.09839 26.5987C11.8189 26.3069 14.0442 25.485 15.8128 24.1291C17.5813 22.7732 18.4103 21.1885 18.3012 19.4002C18.1922 17.6119 17.1819 16.2245 15.2721 15.2633C13.3622 14.302 11.0662 13.9652 8.34569 14.2571L-2.07645 15.3752ZM5.2738 22.6992L5.04491 18.9464L8.60837 18.5641C10.141 18.3996 11.3749 19.0278 11.4425 20.136C11.5101 21.2443 10.3699 22.1525 8.83725 22.3169L5.2738 22.6992Z" fill="white"/>
<path d="M42.7921 10.5615L24.1319 12.5635L24.6004 20.2455C24.7494 22.6886 24.25 24.6183 23.1022 26.0343L20.2668 26.3385L20.7384 34.0709L27.5971 33.3351L27.3912 29.96L39.9208 28.6158L40.1266 31.9909L46.947 31.2591L46.4754 23.5267L43.6016 23.835L42.7921 10.5615ZM30.2291 25.2697C31.1823 23.8238 31.5667 21.9065 31.4238 19.5641L31.2072 16.0128L36.2267 15.4743L36.7813 24.5668L30.2291 25.2697Z" fill="white"/>
</mask>
<g mask="url(#mask3)">
<g style="mix-blend-mode:hard-light" filter="url(#filter4_f)">
<ellipse rx="10.2888" ry="9.38676" transform="matrix(0.985967 -0.166941 0.201914 0.979403 24.9426 14.713)" fill="url(#paint5_radial)"/>
</g>
<g style="mix-blend-mode:hard-light" filter="url(#filter5_f)">
<ellipse rx="10.2888" ry="9.1912" transform="matrix(0.985967 -0.166941 0.201914 0.979403 12.7706 25.6936)" fill="url(#paint6_radial)"/>
</g>
<g style="mix-blend-mode:hard-light" filter="url(#filter6_f)">
<ellipse rx="10.0745" ry="9.38676" transform="matrix(0.985967 -0.166941 0.201914 0.979403 12.7659 13.9997)" fill="url(#paint7_radial)"/>
</g>
<g style="mix-blend-mode:hard-light" filter="url(#filter7_f)">
<ellipse rx="10.2888" ry="9.1912" transform="matrix(0.985967 -0.166941 0.201914 0.979403 25.2376 26.7541)" fill="url(#paint8_radial)"/>
</g>
</g>
</g>
</g>
<rect x="0.635473" y="0.635473" width="43.7291" height="43.7291" stroke="white" stroke-opacity="0.5" stroke-width="0.729053"/>
<path d="M59.8047 15.6205C60.3426 15.4931 60.923 15.4082 61.5458 15.3657C62.1686 15.3232 62.7844 15.302 63.3931 15.302C64.0442 15.302 64.7024 15.3657 65.3677 15.4931C66.0472 15.6205 66.6629 15.854 67.215 16.1938C67.7671 16.5335 68.213 17.0006 68.5527 17.5952C68.9066 18.1897 69.0835 18.947 69.0835 19.8671C69.0835 20.773 68.9207 21.5374 68.5952 22.1602C68.2696 22.7831 67.8378 23.2927 67.2999 23.689C66.762 24.0712 66.1463 24.3472 65.4527 24.5171C64.7591 24.687 64.0442 24.7719 63.3081 24.7719C63.2374 24.7719 63.117 24.7719 62.9472 24.7719C62.7915 24.7719 62.6216 24.7719 62.4376 24.7719C62.2677 24.7578 62.0979 24.7436 61.928 24.7294C61.7581 24.7153 61.6378 24.7011 61.567 24.687V30.335H59.8047V15.6205ZM63.4355 16.8308C63.0675 16.8308 62.7136 16.8378 62.3739 16.852C62.0342 16.8662 61.7652 16.9015 61.567 16.9582V23.1157C61.6378 23.144 61.751 23.1653 61.9068 23.1794C62.0625 23.1794 62.2253 23.1865 62.3951 23.2007C62.565 23.2007 62.7278 23.2007 62.8835 23.2007C63.0392 23.2007 63.1524 23.2007 63.2232 23.2007C63.7045 23.2007 64.1787 23.1582 64.6458 23.0733C65.1271 22.9742 65.5588 22.8043 65.941 22.5637C66.3232 22.323 66.6276 21.9833 66.854 21.5445C67.0947 21.1057 67.215 20.5465 67.215 19.8671C67.215 19.2867 67.1018 18.8054 66.8753 18.4232C66.663 18.0269 66.3728 17.7155 66.0047 17.489C65.6508 17.2483 65.2474 17.0785 64.7944 16.9794C64.3415 16.8803 63.8885 16.8308 63.4355 16.8308Z" fill="white"/>
<path d="M79.8584 29.4856C79.4338 29.8254 78.8959 30.0943 78.2447 30.2925C77.6077 30.4907 76.9283 30.5898 76.2064 30.5898C75.3995 30.5898 74.6988 30.4624 74.1043 30.2076C73.5098 29.9386 73.0214 29.5635 72.6392 29.0822C72.257 28.5868 71.9739 27.9993 71.7899 27.3199C71.6059 26.6404 71.5139 25.876 71.5139 25.0267C71.5139 23.2148 71.9173 21.8347 72.7241 20.8863C73.531 19.9379 74.6847 19.4637 76.1851 19.4637C76.6664 19.4637 77.1477 19.5203 77.629 19.6335C78.1103 19.7326 78.542 19.9308 78.9242 20.228C79.3064 20.5253 79.6178 20.95 79.8584 21.502C80.0991 22.0399 80.2194 22.7548 80.2194 23.6466C80.2194 24.1137 80.1769 24.6304 80.092 25.1966H73.2762C73.2762 25.8194 73.3399 26.3715 73.4673 26.8527C73.5947 27.334 73.7929 27.7445 74.0618 28.0843C74.3308 28.4098 74.6776 28.6646 75.1022 28.8486C75.5411 29.0185 76.0719 29.1034 76.6947 29.1034C77.176 29.1034 77.6573 29.0185 78.1386 28.8486C78.6198 28.6788 78.9808 28.4806 79.2214 28.2541L79.8584 29.4856ZM76.2064 20.95C75.3712 20.95 74.6988 21.1694 74.1892 21.6082C73.6938 22.047 73.3965 22.7972 73.2974 23.8589H78.5632C78.5632 22.7831 78.358 22.0329 77.9475 21.6082C77.537 21.1694 76.9566 20.95 76.2064 20.95Z" fill="white"/>
<path d="M93.0402 24.0288L93.1676 22.0116H93.0614L92.297 23.6466L89.7278 27.8082H89.1333L86.4579 23.6466L85.7572 22.0116H85.6723L85.8422 24.0075V30.335H84.2709V19.7185H85.9483L88.9209 24.4746L89.5367 25.7062H89.5792L90.2162 24.4322L92.9977 19.7185H94.6963V30.335H93.0402V24.0288Z" fill="white"/>
<path d="M98.7419 25.0267C98.7419 23.229 99.1382 21.8559 99.9309 20.9075C100.738 19.9449 101.891 19.4637 103.392 19.4637C104.185 19.4637 104.871 19.5981 105.452 19.8671C106.046 20.1219 106.534 20.497 106.917 20.9924C107.299 21.4737 107.582 22.0612 107.766 22.7548C107.95 23.4342 108.042 24.1915 108.042 25.0267C108.042 26.8244 107.639 28.2046 106.832 29.1671C106.039 30.1155 104.892 30.5898 103.392 30.5898C102.599 30.5898 101.906 30.4624 101.311 30.2076C100.731 29.9386 100.249 29.5635 99.8672 29.0822C99.485 28.5868 99.2019 27.9993 99.0179 27.3199C98.8339 26.6263 98.7419 25.8619 98.7419 25.0267ZM100.504 25.0267C100.504 25.5646 100.554 26.0813 100.653 26.5767C100.766 27.0722 100.936 27.5039 101.162 27.8719C101.389 28.24 101.686 28.5372 102.054 28.7637C102.422 28.9902 102.868 29.1034 103.392 29.1034C105.317 29.1176 106.28 27.7587 106.28 25.0267C106.28 24.4746 106.223 23.9509 106.11 23.4555C106.011 22.96 105.848 22.5283 105.621 22.1602C105.395 21.7922 105.098 21.502 104.73 21.2897C104.362 21.0632 103.916 20.95 103.392 20.95C101.467 20.9358 100.504 22.2947 100.504 25.0267Z" fill="white"/>
<path d="M118.598 25.6425H113.799V30.335H112.1V19.7185H113.799V24.1562H118.598V19.7185H120.296V30.335H118.598V25.6425Z" fill="white"/>
<path d="M131.72 21.2048H128.387V30.335H126.688V21.2048H123.355V19.7185H131.72V21.2048Z" fill="white"/>
<path d="M147.789 24.05L147.853 22.7335H147.789L146.919 24.0925L142.141 30.335H141.165V19.7185H142.863V26.1945L142.8 27.4473H142.884L143.713 26.1308L148.49 19.7185H149.488V30.335H147.789V24.05Z" fill="white"/>
<path d="M170.562 33.0315H169.415L169.097 30.335H161.113L160.795 33.0315H159.648V28.8486H160.901C161.014 28.6929 161.163 28.4169 161.347 28.0206C161.531 27.6101 161.708 27.0438 161.877 26.3219C162.061 25.5858 162.217 24.6799 162.345 23.6041C162.486 22.5141 162.571 21.2189 162.599 19.7185H169.012V28.8486H170.562V33.0315ZM167.313 28.8486V21.2048H164.128C164.1 21.7993 164.05 22.4504 163.979 23.1582C163.909 23.8518 163.81 24.5525 163.682 25.2603C163.569 25.9539 163.42 26.6121 163.236 27.2349C163.052 27.8578 162.84 28.3957 162.599 28.8486H167.313Z" fill="white"/>
<path d="M180.669 24.05L180.733 22.7335H180.669L179.798 24.0925L175.021 30.335H174.044V19.7185H175.743V26.1945L175.679 27.4473H175.764L176.592 26.1308L181.37 19.7185H182.368V30.335H180.669V24.05Z" fill="white"/>
<path d="M188.035 25.6V24.2199H189.521C189.776 24.2199 190.023 24.1774 190.264 24.0925C190.519 24.0075 190.745 23.8943 190.944 23.7527C191.142 23.597 191.297 23.4201 191.411 23.2219C191.538 23.0096 191.602 22.7902 191.602 22.5637C191.602 22.0116 191.411 21.6223 191.029 21.3959C190.646 21.1694 190.073 21.0561 189.309 21.0561C188.757 21.0561 188.247 21.1411 187.78 21.3109C187.327 21.4808 186.973 21.6436 186.718 21.7993L186.23 20.4828C186.655 20.2422 187.15 20.0299 187.716 19.8459C188.297 19.6618 188.983 19.5698 189.776 19.5698C192.126 19.5698 193.3 20.4404 193.3 22.1815C193.3 22.6769 193.138 23.1653 192.812 23.6466C192.501 24.1137 192.048 24.4463 191.453 24.6445V24.7294C192.288 24.8852 192.869 25.1824 193.194 25.6212C193.534 26.06 193.704 26.6404 193.704 27.3623C193.704 27.8153 193.612 28.2329 193.428 28.6151C193.244 28.9973 192.968 29.3299 192.6 29.613C192.232 29.8961 191.765 30.1226 191.198 30.2925C190.646 30.4482 190.002 30.5261 189.266 30.5261C188.544 30.5261 187.943 30.4624 187.461 30.335C186.994 30.2076 186.57 30.0519 186.187 29.8678L186.676 28.4665C187.001 28.6505 187.391 28.792 187.844 28.8911C188.311 28.9902 188.813 29.0397 189.351 29.0397C190.215 29.0397 190.873 28.8911 191.326 28.5939C191.779 28.2966 192.005 27.8436 192.005 27.2349C192.005 26.7253 191.793 26.329 191.368 26.0459C190.944 25.7486 190.243 25.6 189.266 25.6H188.035Z" fill="white"/>
<path d="M197.598 20.5041C198.136 20.1785 198.759 19.9379 199.467 19.7822C200.189 19.6264 200.939 19.5486 201.717 19.5486C202.453 19.5486 203.041 19.6477 203.48 19.8459C203.933 20.044 204.272 20.3059 204.499 20.6315C204.739 20.9429 204.895 21.2897 204.966 21.6719C205.051 22.0541 205.093 22.4363 205.093 22.8185C205.093 23.6678 205.072 24.4959 205.03 25.3027C204.987 26.1096 204.966 26.874 204.966 27.5959C204.966 28.1196 204.987 28.6151 205.03 29.0822C205.072 29.5493 205.15 29.9811 205.263 30.3774H204.01L203.565 28.8911H203.458C203.331 29.0893 203.168 29.2875 202.97 29.4856C202.786 29.6697 202.56 29.8395 202.291 29.9952C202.022 30.1368 201.71 30.2571 201.356 30.3562C201.002 30.4553 200.599 30.5048 200.146 30.5048C199.693 30.5048 199.268 30.434 198.872 30.2925C198.49 30.1509 198.157 29.9528 197.874 29.698C197.591 29.429 197.365 29.1105 197.195 28.7425C197.039 28.3744 196.961 27.9569 196.961 27.4897C196.961 26.8669 197.089 26.3502 197.343 25.9397C197.598 25.5151 197.952 25.1824 198.405 24.9418C198.872 24.687 199.424 24.51 200.061 24.4109C200.712 24.2977 201.427 24.2411 202.206 24.2411C202.404 24.2411 202.595 24.2411 202.779 24.2411C202.977 24.2411 203.175 24.2552 203.374 24.2835C203.416 23.8589 203.437 23.4767 203.437 23.137C203.437 22.3584 203.281 21.8134 202.97 21.502C202.659 21.1906 202.092 21.0349 201.271 21.0349C201.031 21.0349 200.769 21.0561 200.486 21.0986C200.217 21.1269 199.934 21.1765 199.636 21.2472C199.353 21.3039 199.077 21.3817 198.808 21.4808C198.554 21.5657 198.327 21.6648 198.129 21.7781L197.598 20.5041ZM200.613 29.0185C201.01 29.0185 201.363 28.969 201.675 28.8699C201.986 28.7566 202.255 28.6222 202.482 28.4665C202.708 28.2966 202.892 28.1126 203.034 27.9144C203.189 27.7162 203.303 27.5251 203.374 27.3411V25.5788C203.175 25.5646 202.97 25.5575 202.758 25.5575C202.56 25.5434 202.361 25.5363 202.163 25.5363C201.724 25.5363 201.293 25.5646 200.868 25.6212C200.458 25.6637 200.089 25.7557 199.764 25.8973C199.452 26.0247 199.198 26.2087 198.999 26.4493C198.815 26.6758 198.723 26.966 198.723 27.3199C198.723 27.8153 198.9 28.2258 199.254 28.5514C199.608 28.8628 200.061 29.0185 200.613 29.0185Z" fill="white"/>
<path d="M216.306 24.05L216.37 22.7335H216.306L215.436 24.0925L210.658 30.335H209.682V19.7185H211.38V26.1945L211.317 27.4473H211.402L212.23 26.1308L217.007 19.7185H218.005V30.335H216.306V24.05ZM212.123 15.4294C212.265 16.0805 212.506 16.5335 212.845 16.7883C213.199 17.0431 213.603 17.1705 214.056 17.1705C214.509 17.1705 214.912 17.036 215.266 16.7671C215.62 16.4981 215.861 16.0593 215.988 15.4506L217.262 15.854C217.134 16.6751 216.766 17.305 216.158 17.7438C215.563 18.1826 214.848 18.402 214.013 18.402C213.631 18.402 213.249 18.3525 212.867 18.2534C212.499 18.1543 212.166 18.0057 211.869 17.8075C211.571 17.6093 211.317 17.3545 211.104 17.0431C210.892 16.7317 210.75 16.3636 210.68 15.939L212.123 15.4294Z" fill="white"/>
<path d="M229.15 25.6425H224.352V30.335H222.653V19.7185H224.352V24.1562H229.15V19.7185H230.849V30.335H229.15V25.6425Z" fill="white"/>
<rect x="1" y="1" width="43" height="43" fill="white" style="mix-blend-mode:overlay"/>
<defs>
<filter id="filter0_f" x="15.0506" y="-0.239957" width="29.2436" height="29.2437" filterUnits="userSpaceOnUse" color-interpolation-filters="sRGB">
<feFlood flood-opacity="0" result="BackgroundImageFix"/>
<feBlend mode="normal" in="SourceGraphic" in2="BackgroundImageFix" result="shape"/>
<feGaussianBlur stdDeviation="2.15" result="effect1_foregroundBlur"/>
</filter>
<filter id="filter1_f" x="2.88603" y="12.0842" width="29.2292" height="28.8284" filterUnits="userSpaceOnUse" color-interpolation-filters="sRGB">
<feFlood flood-opacity="0" result="BackgroundImageFix"/>
<feBlend mode="normal" in="SourceGraphic" in2="BackgroundImageFix" result="shape"/>
<feGaussianBlur stdDeviation="2.15" result="effect1_foregroundBlur"/>
</filter>
<filter id="filter2_f" x="3.08159" y="-1.01982" width="28.8283" height="29.2292" filterUnits="userSpaceOnUse" color-interpolation-filters="sRGB">
<feFlood flood-opacity="0" result="BackgroundImageFix"/>
<feBlend mode="normal" in="SourceGraphic" in2="BackgroundImageFix" result="shape"/>
<feGaussianBlur stdDeviation="2.15" result="effect1_foregroundBlur"/>
</filter>
<filter id="filter3_f" x="15.3531" y="13.2545" width="29.2292" height="28.8284" filterUnits="userSpaceOnUse" color-interpolation-filters="sRGB">
<feFlood flood-opacity="0" result="BackgroundImageFix"/>
<feBlend mode="normal" in="SourceGraphic" in2="BackgroundImageFix" result="shape"/>
<feGaussianBlur stdDeviation="2.15" result="effect1_foregroundBlur"/>
</filter>
<filter id="filter4_f" x="10.3208" y="1.0588" width="29.2436" height="27.3083" filterUnits="userSpaceOnUse" color-interpolation-filters="sRGB">
<feFlood flood-opacity="0" result="BackgroundImageFix"/>
<feBlend mode="normal" in="SourceGraphic" in2="BackgroundImageFix" result="shape"/>
<feGaussianBlur stdDeviation="2.15" result="effect1_foregroundBlur"/>
</filter>
<filter id="filter5_f" x="-1.84395" y="12.2276" width="29.2292" height="26.932" filterUnits="userSpaceOnUse" color-interpolation-filters="sRGB">
<feFlood flood-opacity="0" result="BackgroundImageFix"/>
<feBlend mode="normal" in="SourceGraphic" in2="BackgroundImageFix" result="shape"/>
<feGaussianBlur stdDeviation="2.15" result="effect1_foregroundBlur"/>
</filter>
<filter id="filter6_f" x="-1.64814" y="0.352046" width="28.8283" height="27.2953" filterUnits="userSpaceOnUse" color-interpolation-filters="sRGB">
<feFlood flood-opacity="0" result="BackgroundImageFix"/>
<feBlend mode="normal" in="SourceGraphic" in2="BackgroundImageFix" result="shape"/>
<feGaussianBlur stdDeviation="2.15" result="effect1_foregroundBlur"/>
</filter>
<filter id="filter7_f" x="10.6231" y="13.2882" width="29.2292" height="26.932" filterUnits="userSpaceOnUse" color-interpolation-filters="sRGB">
<feFlood flood-opacity="0" result="BackgroundImageFix"/>
<feBlend mode="normal" in="SourceGraphic" in2="BackgroundImageFix" result="shape"/>
<feGaussianBlur stdDeviation="2.15" result="effect1_foregroundBlur"/>
</filter>
<radialGradient id="paint0_radial" cx="0" cy="0" r="1" gradientUnits="userSpaceOnUse" gradientTransform="translate(22.5 1) rotate(90) scale(31.605)">
<stop stop-color="#413F3F"/>
<stop offset="1" stop-color="#141313"/>
</radialGradient>
<radialGradient id="paint1_radial" cx="0" cy="0" r="1" gradientUnits="userSpaceOnUse" gradientTransform="translate(29.6723 14.3819) rotate(90) scale(10.32)">
<stop stop-color="#1EABD7" stop-opacity="0.71"/>
<stop offset="1" stop-color="#1EABD7"/>
</radialGradient>
<radialGradient id="paint2_radial" cx="0" cy="0" r="1" gradientUnits="userSpaceOnUse" gradientTransform="translate(17.5005 26.4984) rotate(90) scale(10.105 10.32)">
<stop stop-color="#D7AE1E" stop-opacity="0.71"/>
<stop offset="1" stop-color="#7C500C"/>
</radialGradient>
<radialGradient id="paint3_radial" cx="0" cy="0" r="1" gradientUnits="userSpaceOnUse" gradientTransform="translate(17.4957 13.5948) rotate(90) scale(10.32 10.105)">
<stop stop-color="#D61E1E" stop-opacity="0.71"/>
<stop offset="0.96875" stop-color="#D61E6B"/>
</radialGradient>
<radialGradient id="paint4_radial" cx="0" cy="0" r="1" gradientUnits="userSpaceOnUse" gradientTransform="translate(29.9676 27.6687) rotate(90) scale(10.105 10.32)">
<stop stop-color="#479622" stop-opacity="0.71"/>
<stop offset="1" stop-color="#4C690D"/>
</radialGradient>
<radialGradient id="paint5_radial" cx="0" cy="0" r="1" gradientUnits="userSpaceOnUse" gradientTransform="translate(10.2888 9.38676) rotate(90) scale(9.38676 10.2888)">
<stop stop-color="#1EABD7" stop-opacity="0.71"/>
<stop offset="1" stop-color="#1EABD7"/>
</radialGradient>
<radialGradient id="paint6_radial" cx="0" cy="0" r="1" gradientUnits="userSpaceOnUse" gradientTransform="translate(10.2888 9.1912) rotate(90) scale(9.1912 10.2888)">
<stop stop-color="#D7AE1E" stop-opacity="0.71"/>
<stop offset="1" stop-color="#7C500C"/>
</radialGradient>
<radialGradient id="paint7_radial" cx="0" cy="0" r="1" gradientUnits="userSpaceOnUse" gradientTransform="translate(10.0745 9.38676) rotate(90) scale(9.38676 10.0745)">
<stop stop-color="#D61E1E" stop-opacity="0.71"/>
<stop offset="0.96875" stop-color="#D61E6B"/>
</radialGradient>
<radialGradient id="paint8_radial" cx="0" cy="0" r="1" gradientUnits="userSpaceOnUse" gradientTransform="translate(10.2888 9.1912) rotate(90) scale(9.1912 10.2888)">
<stop stop-color="#479622" stop-opacity="0.71"/>
<stop offset="1" stop-color="#4C690D"/>
</radialGradient>
<clipPath id="clip0">
<rect x="1" y="1" width="43" height="43" fill="white"/>
</clipPath>
</defs>
</svg>
