<svg width="256" height="256" viewBox="0 0 256 256" fill="none" xmlns="http://www.w3.org/2000/svg">
<path fill-rule="evenodd" clip-rule="evenodd" d="M38 0C17.0132 0 0 17.0132 0 38V218C0 238.987 17.0132 256 38 256H218C238.987 256 256 238.987 256 218V38C256 17.0132 238.987 0 218 0H38ZM75.0275 185.656L84.7068 214.694C84.7068 214.694 99.5734 231.695 113.745 234.053C123.676 235.706 125.843 231.543 127.611 228.148C128.829 225.809 129.857 223.833 133.103 224.374C138.713 225.307 138.908 227.382 139.095 229.373C139.32 231.775 139.533 234.053 149.236 234.053C168.594 234.053 187.953 153.392 187.953 153.392C187.953 153.392 226.669 101.769 216.99 88.863C211.803 81.9474 203.067 98.4403 194.502 114.611C187.083 128.619 179.792 142.384 175.046 140.486C170.722 138.757 174.201 125.296 178.391 109.083C184.11 86.9583 191.153 59.7078 181.5 50.1456C172.271 41.0026 167.377 64.8766 162.651 87.931C158.813 106.657 155.086 124.842 149.236 124.354C143.639 123.887 144.708 105.545 145.938 84.4395C147.576 56.3216 149.5 23.2993 136.33 21.1076C123.695 19.0051 123.801 48.0953 123.899 74.9205C123.98 97.0459 124.055 117.63 116.971 117.901C109.561 118.184 110.6 97.6951 111.709 75.8184C112.946 51.4235 114.271 25.3029 104.065 24.3341C84.7077 22.4964 97.6126 121.127 97.6126 121.127C97.6126 121.127 97.3384 163.943 81.4794 159.845C73.6246 157.815 73.2937 150.41 72.9307 142.287C72.6509 136.025 72.352 129.337 68.5736 124.354C68.2023 123.864 67.8396 123.384 67.4843 122.914C58.7114 111.31 54.5057 105.747 39.5356 108.222C15.0488 112.271 62.1217 163.071 62.1217 163.071L75.0275 185.656Z" fill="black"/>
</svg>
