<svg width="256" height="256" viewBox="0 0 256 256" fill="none" xmlns="http://www.w3.org/2000/svg">
<path fill-rule="evenodd" clip-rule="evenodd" d="M38 0C17.0132 0 0 17.0132 0 38V218C0 238.987 17.0132 256 38 256H218C238.987 256 256 238.987 256 218V38C256 17.0132 238.987 0 218 0H38ZM153.812 157.889C170.396 143.924 178.852 120.651 173.787 96.9411C171.328 85.428 166.001 75.3112 158.785 67.2656L160.059 44.0582L194.185 36.7689L190.397 148.916C190.155 156.065 196.693 161.539 203.688 160.045L228.314 154.785L224.7 179.63L183.248 196.81C168.281 203.013 151.97 191.458 152.858 175.281L153.812 157.889ZM127.154 160.478C111.506 163.82 95.9053 158.548 84.7737 147.732L92.5351 66.5298C96.6164 64.1257 101.122 62.3374 105.97 61.3019C131.671 55.8123 157.248 73.5634 163.098 100.95C168.947 128.337 152.855 154.989 127.154 160.478ZM121.378 133.43C131.659 131.234 137.837 119.362 135.178 106.914C132.519 94.465 122.03 86.1536 111.749 88.3494C101.469 90.5453 95.2904 102.417 97.9493 114.865C100.608 127.314 111.098 135.625 121.378 133.43ZM83.4139 61.3818L48.6482 67.4796L33.9117 186.527C32.0535 201.538 45.5481 213.904 60.3405 210.744L112.918 199.514L123.603 171.933L84.9376 174.352C78.166 174.776 72.6291 169.028 73.3054 162.277L83.4139 61.3818Z" fill="black"/>
</svg>
