<svg width="30" height="30" viewBox="0 0 30 30" fill="none" xmlns="http://www.w3.org/2000/svg">
<path fill-rule="evenodd" clip-rule="evenodd" d="M3.39832 6.25526C2.14307 7.51051 2.14307 9.53082 2.14307 13.5714V16.4286C2.14307 20.4692 2.14307 22.4895 3.39832 23.7447C4.65358 25 6.67388 25 10.7145 25H19.2859C23.3265 25 25.3468 25 26.6021 23.7447C27.8574 22.4895 27.8574 20.4692 27.8574 16.4286V13.5714C27.8574 9.53082 27.8574 7.51051 26.6021 6.25526C25.3468 5 23.3265 5 19.2859 5H10.7145C6.67388 5 4.65358 5 3.39832 6.25526ZM7.221 9.52564C6.56453 9.088 5.67757 9.26539 5.23993 9.92186C4.80228 10.5783 4.97967 11.4653 5.63614 11.9029L13.4151 17.0889C14.3749 17.7287 15.6251 17.7287 16.5849 17.0889L24.3639 11.9029C25.0203 11.4653 25.1977 10.5783 24.7601 9.92186C24.3224 9.26539 23.4355 9.088 22.779 9.52564L15 14.7116L7.221 9.52564Z" fill="black"/>
</svg>
