<svg width="48" height="42" viewBox="0 0 48 42" fill="none" xmlns="http://www.w3.org/2000/svg">
<path fill-rule="evenodd" clip-rule="evenodd" d="M43.2579 27.863C43.5328 28.1363 43.8405 28.4087 44.1708 28.6771C44.9075 29.2758 45.7563 29.855 46.6039 30.382C46.7836 30.4937 46.9632 30.603 47.1416 30.7097C48.0639 31.2611 47.6785 32.863 46.6039 32.863H45.8542H42.8556H41.4031H6.08495H4.83255H1.84771H1.04192C0.0216938 32.863 -0.387452 31.4431 0.449149 30.8592C0.643628 30.7235 0.841794 30.583 1.04192 30.4386C1.82291 29.875 2.63373 29.2506 3.37167 28.6082C3.65482 28.3617 3.92725 28.1125 4.18315 27.863C4.5254 27.5293 4.83808 27.1952 5.10731 26.8664C6.27705 25.4375 6.77563 24.4421 7.48689 23.022C7.6 22.7962 7.71848 22.5596 7.84589 22.3089C8.73077 20.5675 9.13697 18.1361 9.5748 15.5152C10.7557 8.44644 12.1668 0 23.821 0C26.7846 0 29.0842 0.539861 30.8854 1.46156V7.70943H30.6165C30.2733 7.20547 29.8977 6.80047 29.4854 6.4739C28.581 5.75749 26.9714 5 23.821 5C20.684 5 19.0747 5.76201 18.1638 6.4888C17.1993 7.25834 16.4342 8.45446 15.8139 10.3187C15.2139 12.1218 14.8812 14.1059 14.4928 16.4219L14.4928 16.4219L14.4063 16.9372L14.4006 16.9707C14.0278 19.1854 13.5254 22.1692 12.3034 24.574C12.1926 24.792 12.0842 25.0094 11.9755 25.2272L11.9754 25.2274C11.554 26.0724 11.1284 26.9256 10.5417 27.863H37.0042C36.8309 27.5683 36.6722 27.2805 36.5246 27H42.4786C42.636 27.19 42.806 27.3847 42.991 27.586C43.076 27.6783 43.1651 27.7707 43.2579 27.863Z" fill="black"/>
<path d="M40.5472 10.873H46.8929V15.4609H40.5472V22.6328H35.7133V15.4609H29.35V10.873H35.7133V4H40.5472V10.873Z" fill="black"/>
<path d="M31.348 36C31.348 39.1994 27.9902 42 23.848 42C19.7059 42 16.348 39.1994 16.348 36H23.5802H31.348Z" fill="black"/>
</svg>
