<svg width="50" height="42" viewBox="0 0 50 42" fill="none" xmlns="http://www.w3.org/2000/svg">
<path fill-rule="evenodd" clip-rule="evenodd" d="M44.0505 28C44.2883 28.2273 44.5477 28.4535 44.8228 28.6771C45.5594 29.2758 46.4083 29.855 47.2559 30.382C47.4356 30.4937 47.6151 30.603 47.7936 30.7097C48.7159 31.2611 48.3305 32.863 47.2559 32.863H46.5062H43.5076H42.0551H6.73692H5.48453H2.49969H1.69389C0.673671 32.863 0.264525 31.4431 1.10113 30.8592C1.29561 30.7235 1.49377 30.583 1.69389 30.4386C2.47489 29.875 3.2857 29.2506 4.02364 28.6082C4.3068 28.3617 4.57923 28.1125 4.83512 27.863C5.17738 27.5293 5.49006 27.1952 5.75928 26.8664C6.92903 25.4375 7.4276 24.4421 8.13887 23.022C8.25197 22.7962 8.37045 22.5596 8.49787 22.3089C9.38274 20.5675 9.78894 18.1361 10.2268 15.5152C11.4077 8.44644 12.8188 0 24.4729 0C29.8003 0 32.9821 1.74448 34.98 4.31554V10.8528H32.6519C32.5919 10.6499 32.5291 10.4494 32.4631 10.2512C31.8476 8.40347 31.0907 7.22901 30.1374 6.4739C29.2329 5.75749 27.6234 5 24.4729 5C21.3359 5 19.7267 5.76201 18.8158 6.4888C17.8513 7.25834 17.0861 8.45446 16.4659 10.3187C15.8659 12.1218 15.5332 14.1059 15.1448 16.4219L15.1448 16.4219L15.0583 16.9372L15.0526 16.9707C14.6797 19.1854 14.1774 22.1692 12.9554 24.574C12.8446 24.792 12.7362 25.0094 12.6275 25.2272L12.6274 25.2274C12.206 26.0724 11.7804 26.9256 11.1937 27.863H34.98V28H44.0505ZM34.98 21.9988V21.7623H34.9091C34.9323 21.8412 34.9559 21.92 34.98 21.9988Z" fill="black"/>
<path d="M43.1992 13.873H49.5449V18.4609H43.1992V25.6328H38.3652V18.4609H32.002V13.873H38.3652V7H43.1992V13.873Z" fill="black"/>
<path d="M32 36C32 39.1994 28.6421 42 24.5 42C20.3579 42 17 39.1994 17 36H24.2321H32Z" fill="black"/>
</svg>
