<svg width="42" height="42" viewBox="0 0 42 42" fill="none" xmlns="http://www.w3.org/2000/svg">
<circle cx="20.996" cy="20.996" r="19.996" fill="url(#paint0_radial)" stroke="white" stroke-width="0.4999"/>
<path d="M18.2754 27.793C18.2988 26.3984 18.457 25.2969 18.75 24.4883C19.043 23.6797 19.6406 22.7832 20.543 21.7988L22.8457 19.4258C23.8301 18.3125 24.3223 17.1172 24.3223 15.8398C24.3223 14.6094 24 13.6484 23.3555 12.957C22.7109 12.2539 21.7734 11.9023 20.543 11.9023C19.3477 11.9023 18.3867 12.2188 17.6602 12.8516C16.9336 13.4844 16.5703 14.334 16.5703 15.4004H13.3184C13.3418 13.502 14.0156 11.9727 15.3398 10.8125C16.6758 9.64062 18.4102 9.05469 20.543 9.05469C22.7578 9.05469 24.4805 9.65234 25.7109 10.8477C26.9531 12.0312 27.5742 13.6602 27.5742 15.7344C27.5742 17.7852 26.625 19.8066 24.7266 21.7988L22.8105 23.6973C21.9551 24.6465 21.5273 26.0117 21.5273 27.793H18.2754ZM18.1348 33.3652C18.1348 32.8379 18.293 32.3984 18.6094 32.0469C18.9375 31.6836 19.418 31.502 20.0508 31.502C20.6836 31.502 21.1641 31.6836 21.4922 32.0469C21.8203 32.3984 21.9844 32.8379 21.9844 33.3652C21.9844 33.8926 21.8203 34.332 21.4922 34.6836C21.1641 35.0234 20.6836 35.1934 20.0508 35.1934C19.418 35.1934 18.9375 35.0234 18.6094 34.6836C18.293 34.332 18.1348 33.8926 18.1348 33.3652Z" fill="white" fill-opacity="0.5"/>
<defs>
<radialGradient id="paint0_radial" cx="0" cy="0" r="1" gradientUnits="userSpaceOnUse" gradientTransform="translate(30.5 3.5) rotate(122.471) scale(39.1152)">
<stop/>
<stop offset="1" stop-color="#322939"/>
</radialGradient>
</defs>
</svg>
