<svg width="54" height="42" viewBox="0 0 54 42" fill="none" xmlns="http://www.w3.org/2000/svg">
<path d="M44.5389 28.6013C45.4574 29.6001 46.7421 30.552 48.0009 31.363H4.97172C6.38196 30.3209 7.90003 29.0624 8.91997 27.8166C10.2005 26.2524 10.7699 25.1141 11.4855 23.6836C11.5974 23.4599 11.7128 23.2291 11.8352 22.9884C12.7761 21.1367 13.2128 18.6968 13.6069 16.3561C13.6392 16.1644 13.6712 15.9725 13.7033 15.7807C14.0791 13.5342 14.4548 11.2876 15.1449 9.2137C15.8868 6.98407 16.95 5.09571 18.633 3.75292C20.2999 2.42294 22.7362 1.5 26.473 1.5C30.2137 1.5 32.6482 2.41352 34.3106 3.73029C35.9877 5.05867 37.0453 6.92842 37.7837 9.14502C38.4689 11.202 38.8429 13.4349 39.2192 15.6815C39.2525 15.8805 39.2859 16.0796 39.3195 16.2787C39.7166 18.6328 40.1587 21.0881 41.1069 22.9808C41.2924 23.3509 41.4621 23.7062 41.6275 24.0524C42.357 25.5792 43.0026 26.9306 44.5389 28.6013Z" fill="white" stroke="white" stroke-width="3" stroke-linejoin="round"/>
<path d="M34 36C34 39.1994 30.6421 42 26.5 42C22.3579 42 19 39.1994 19 36H26.2321H34Z" fill="white"/>
</svg>
