<svg width="384" height="384" viewBox="0 0 384 384" fill="none" xmlns="http://www.w3.org/2000/svg">
<path d="M64 0C28.656 0 0 28.656 0 64V320C0 355.344 28.656 384 64 384H320C355.344 384 384 355.344 384 320V64C384 28.656 355.344 0 320 0H64ZM192 64C227.288 64 256 92.712 256 128C256 163.288 227.288 192 192 192C156.712 192 128 163.288 128 128C128 92.712 156.712 64 192 64ZM192 96C183.513 96 175.374 99.3714 169.373 105.373C163.371 111.374 160 119.513 160 128C160 136.487 163.371 144.626 169.373 150.627C175.374 156.629 183.513 160 192 160C200.487 160 208.626 156.629 214.627 150.627C220.629 144.626 224 136.487 224 128C224 119.513 220.629 111.374 214.627 105.373C208.626 99.3714 200.487 96 192 96V96ZM135.891 200C138.964 199.974 142.077 200.832 144.828 202.656C145.364 203 165.784 216 192 216C218.44 216 238.987 202.777 239.188 202.641C246.548 197.825 256.457 199.843 261.312 207.203C266.161 214.555 264.203 224.424 256.875 229.312C255.963 229.921 238.327 241.47 212.719 246.094L259.312 292.688C265.561 298.935 265.561 309.064 259.312 315.312C256.185 318.441 252.096 320 248 320C243.904 320 239.816 318.441 236.688 315.312L192 270.625L147.312 315.312C141.065 321.561 130.936 321.561 124.688 315.312C118.439 309.065 118.439 298.936 124.688 292.688L171.281 246.094C145.665 241.47 128.037 229.928 127.125 229.312C119.773 224.417 117.791 214.477 122.688 207.125C125.747 202.54 130.768 200.043 135.891 200Z" fill="black"/>
</svg>
