<svg width="408" height="408" viewBox="0 0 408 408" fill="none" xmlns="http://www.w3.org/2000/svg">
<path d="M51 153C22.95 153 0 175.95 0 204C0 232.05 22.95 255 51 255C79.05 255 102 232.05 102 204C102 175.95 79.05 153 51 153ZM357 153C328.95 153 306 175.95 306 204C306 232.05 328.95 255 357 255C385.05 255 408 232.05 408 204C408 175.95 385.05 153 357 153ZM204 153C175.95 153 153 175.95 153 204C153 232.05 175.95 255 204 255C232.05 255 255 232.05 255 204C255 175.95 232.05 153 204 153Z" fill="white"/>
</svg>
