<svg width="30" height="30" viewBox="0 0 30 30" fill="none" xmlns="http://www.w3.org/2000/svg">
<path d="M19.8419 10.0526V8.8421C19.8419 6.16788 17.674 4 14.9998 4V4C12.3256 4 10.1577 6.16788 10.1577 8.8421V10.0526" stroke="black" stroke-width="2.42105" stroke-linecap="round"/>
<path fill-rule="evenodd" clip-rule="evenodd" d="M5.16865 9.90577C4.10498 10.9694 4.10498 12.6814 4.10498 16.1053V17.3158C4.10498 21.881 4.10498 24.1636 5.5232 25.5818C6.94142 27 9.22401 27 13.7892 27H16.2102C20.7754 27 23.058 27 24.4762 25.5818C25.8945 24.1636 25.8945 21.881 25.8945 17.3158V16.1053C25.8945 12.6814 25.8945 10.9694 24.8308 9.90577C23.7671 8.8421 22.0552 8.8421 18.6313 8.8421H11.3681C7.94425 8.8421 6.23231 8.8421 5.16865 9.90577ZM15.0001 18.5263C15.6686 18.5263 16.2106 17.9843 16.2106 17.3158C16.2106 16.6472 15.6686 16.1053 15.0001 16.1053C14.3315 16.1053 13.7896 16.6472 13.7896 17.3158C13.7896 17.9843 14.3315 18.5263 15.0001 18.5263ZM18.6317 17.3158C18.6317 18.8971 17.621 20.2423 16.2104 20.7408V23.3684H13.7893V20.7406C12.3789 20.242 11.3685 18.8969 11.3685 17.3158C11.3685 15.3101 12.9944 13.6842 15.0001 13.6842C17.0057 13.6842 18.6317 15.3101 18.6317 17.3158Z" fill="black"/>
</svg>
