<svg width="21" height="21" viewBox="0 0 21 21" fill="none" xmlns="http://www.w3.org/2000/svg">
<g clip-path="url(#clip0_614_118)">
<line x1="13.2871" y1="16.8845" x2="19.7658" y2="10.2987" stroke="white" stroke-width="2"/>
<line x1="13.7071" y1="10.8787" x2="19.7071" y2="16.8787" stroke="white" stroke-width="2"/>
<path d="M13.0787 4.89959C12.4644 4.29978 11.6157 4 10.5323 4C10.2325 4 9.92647 4.05199 9.61459 4.15591C9.30259 4.25991 9.01235 4.40022 8.74418 4.57674C8.47565 4.75321 8.24488 4.91893 8.05129 5.07365C7.85793 5.22841 7.67409 5.39289 7.50001 5.56694C7.32586 5.39289 7.14207 5.22841 6.94868 5.07365C6.75517 4.91893 6.5243 4.75331 6.25582 4.57674C5.9874 4.40015 5.6972 4.25994 5.38528 4.15591C5.07338 4.05201 4.76743 4 4.4676 4C3.38422 4 2.53551 4.29986 1.92131 4.89959C1.30712 5.49928 1 6.33108 1 7.39507C1 7.71911 1.05692 8.05289 1.17052 8.39615C1.28413 8.73953 1.41359 9.03217 1.55865 9.27394C1.70368 9.51568 1.86816 9.75153 2.05194 9.98126C2.23573 10.211 2.37004 10.3693 2.45458 10.4564C2.53919 10.5433 2.60571 10.6063 2.65406 10.6449L7.1808 15.0122C7.26787 15.0993 7.37426 15.1429 7.49999 15.1429C7.62571 15.1429 7.73218 15.0993 7.8192 15.0123L12.3387 10.6595C13.4463 9.55212 14 8.46391 14 7.39507C14 6.33108 13.6929 5.49928 13.0787 4.89959Z" fill="white"/>
</g>
<defs>
<clipPath id="clip0_614_118">
<rect width="20.9958" height="20.9958" fill="white"/>
</clipPath>
</defs>
</svg>
