<svg width="21" height="21" viewBox="0 0 21 21" fill="none" xmlns="http://www.w3.org/2000/svg">
<g clip-path="url(#clip0_253_7)">
<line x1="4.91695" y1="18.5882" x2="19.5882" y2="2.08305" stroke="white" stroke-width="2" stroke-linecap="round"/>
<path fill-rule="evenodd" clip-rule="evenodd" d="M14.9401 3.02458C14.743 3.00781 14.5393 2.99942 14.3291 2.99942C13.9256 2.99942 13.5138 3.06939 13.094 3.20926C12.6741 3.34923 12.2834 3.53807 11.9225 3.77565C11.5611 4.01315 11.2505 4.23619 10.99 4.44442C10.7297 4.65272 10.4823 4.87409 10.248 5.10834C10.0136 4.87409 9.76628 4.65272 9.506 4.44442C9.24555 4.23619 8.93482 4.01329 8.57349 3.77565C8.21222 3.53797 7.82165 3.34927 7.40183 3.20926C6.98206 3.06942 6.57028 2.99942 6.16674 2.99942C4.70865 2.99942 3.56637 3.40299 2.73974 4.21017C1.91311 5.01728 1.49976 6.13678 1.49976 7.56879C1.49976 8.00492 1.57636 8.45414 1.72926 8.91612C1.88216 9.37828 2.0564 9.77214 2.25163 10.0975C2.44683 10.4229 2.6682 10.7403 2.91555 11.0495C3.1629 11.3587 3.34367 11.5717 3.45745 11.689C3.57133 11.806 3.66086 11.8907 3.72594 11.9427L5.24693 13.4101L14.9401 3.02458ZM7.40623 15.4933L9.8184 17.8205C9.93559 17.9378 10.0788 17.9964 10.248 17.9964C10.4172 17.9964 10.5605 17.9378 10.6776 17.8207L16.7604 11.9624C18.251 10.4719 18.9963 9.00733 18.9963 7.56879C18.9963 6.1916 18.6139 5.10344 17.8494 4.30423L7.40623 15.4933Z" fill="white"/>
</g>
<defs>
<clipPath id="clip0_253_7">
<rect width="20.9958" height="20.9958" fill="white"/>
</clipPath>
</defs>
</svg>
