<svg width="30" height="30" viewBox="0 0 30 30" fill="none" xmlns="http://www.w3.org/2000/svg">
<path fill-rule="evenodd" clip-rule="evenodd" d="M27.5443 13.1756C27.5443 8.69113 27.5443 6.44888 26.4681 4.83816C26.0021 4.14087 25.4034 3.54217 24.7061 3.07625C23.0954 2 20.8532 2 16.3687 2H13.1756C8.69113 2 6.44888 2 4.83816 3.07625C4.14087 3.54217 3.54217 4.14087 3.07625 4.83816C2 6.44888 2 8.69113 2 13.1756C2 17.6601 2 19.9024 3.07625 21.5131C3.54217 22.2104 4.14087 22.8091 4.83816 23.275C6.24526 24.2152 8.1343 24.3341 11.5791 24.3491V24.3513L13.3442 27.8814C13.9325 29.0581 15.6118 29.0581 16.2001 27.8814L17.9652 24.3513V24.3491C21.41 24.3341 23.299 24.2152 24.7061 23.275C25.4034 22.8091 26.0021 22.2104 26.4681 21.5131C27.5443 19.9024 27.5443 17.6601 27.5443 13.1756ZM16.5965 7C16.5965 6.11827 15.8817 5.40348 15 5.40348C14.1183 5.40348 13.4035 6.11827 13.4035 7V14C13.4035 14.8817 14.1183 15.5965 15 15.5965C15.8817 15.5965 16.5965 14.8817 16.5965 14V7ZM16.5965 18.8687C16.5965 17.9869 15.8817 17.2722 15 17.2722C14.1183 17.2722 13.4035 17.9869 13.4035 18.8687V19.5C13.4035 20.3817 14.1183 21.0965 15 21.0965C15.8817 21.0965 16.5965 20.3817 16.5965 19.5V18.8687Z" fill="black"/>
</svg>
