<svg width="19" height="20" viewBox="0 0 19 20" fill="none" xmlns="http://www.w3.org/2000/svg">
<path fill-rule="evenodd" clip-rule="evenodd" d="M14.6338 8.29667C14.6338 11.6478 11.9172 14.3645 8.56602 14.3645C5.21487 14.3645 2.49824 11.6478 2.49824 8.29667C2.49824 4.94553 5.21487 2.22889 8.56602 2.22889C11.9172 2.22889 14.6338 4.94553 14.6338 8.29667ZM14.2418 17.0698C12.9943 15.8222 11.0716 15.6548 9.31581 15.8275C9.06916 15.8517 8.81904 15.8642 8.56602 15.8642C4.38661 15.8642 0.998535 12.4761 0.998535 8.29667C0.998535 4.11727 4.38661 0.729187 8.56602 0.729187C12.7454 0.729187 16.1335 4.11727 16.1335 8.29667C16.1335 9.21961 15.9683 10.104 15.6658 10.9218C15.0089 12.6978 14.8842 14.8843 16.2232 16.2233L17.8985 17.8986C18.2889 18.289 18.2889 18.922 17.8985 19.3125V19.3125C17.5081 19.7029 16.875 19.7029 16.4846 19.3125L14.2418 17.0698Z" fill="#8D8787"/>
</svg>
