<svg width="39" height="38" viewBox="0 0 39 38" fill="none" xmlns="http://www.w3.org/2000/svg">
<path fill-rule="evenodd" clip-rule="evenodd" d="M29.4846 15.9196C29.4846 22.6448 23.842 28.2504 16.689 28.2504C9.53595 28.2504 3.89334 22.6448 3.89334 15.9196C3.89334 9.19448 9.53595 3.5889 16.689 3.5889C23.842 3.5889 29.4846 9.19448 29.4846 15.9196ZM30.8585 33.0562C28.05 30.3301 23.6932 30.2359 19.8528 30.9913C18.8305 31.1925 17.7724 31.298 16.689 31.298C7.93898 31.298 0.845703 24.4129 0.845703 15.9196C0.845703 7.4264 7.93898 0.54126 16.689 0.54126C25.439 0.54126 32.5322 7.4264 32.5322 15.9196C32.5322 17.1234 32.3898 18.2948 32.1203 19.419C31.2026 23.2469 31.1876 27.7152 34.0123 30.4569L38.0719 34.3975C38.8938 35.1952 38.8938 36.5143 38.0719 37.312C37.284 38.0768 36.0309 38.0768 35.2429 37.312L30.8585 33.0562Z" fill="white"/>
</svg>
