<svg width="30" height="30" viewBox="0 0 30 30" fill="none" xmlns="http://www.w3.org/2000/svg">
<path fill-rule="evenodd" clip-rule="evenodd" d="M17.6276 2.87209C17.7062 3.06288 17.7297 3.29854 17.7769 3.76986C17.866 4.66105 17.9106 5.10665 18.0638 5.37039C18.3825 5.9192 19.029 6.18698 19.6425 6.02432C19.9373 5.94616 20.2839 5.66259 20.9771 5.09545C21.3436 4.79553 21.5269 4.64557 21.7174 4.56621C22.1092 4.40296 22.5537 4.42513 22.9274 4.62656C23.109 4.72448 23.2764 4.89193 23.6113 5.22684L24.7729 6.38838L24.7729 6.3884C25.1078 6.72333 25.2753 6.89079 25.3732 7.07242C25.5746 7.44603 25.5968 7.89055 25.4335 8.28235C25.3542 8.47283 25.2042 8.65613 24.9043 9.02273L24.9043 9.02274C24.3371 9.71596 24.0535 10.0626 23.9753 10.3574C23.8127 10.9709 24.0805 11.6173 24.6292 11.9361C24.893 12.0893 25.3387 12.1339 26.23 12.223L26.23 12.223C26.7014 12.2701 26.9372 12.2937 27.128 12.3723C27.5204 12.5339 27.819 12.8639 27.9408 13.2704C28 13.4681 28 13.705 28 14.1788V15.8215C28 16.295 28 16.5318 27.9408 16.7294C27.8191 17.1361 27.5204 17.4661 27.1278 17.6278C26.9371 17.7063 26.7015 17.7298 26.2303 17.777C25.3393 17.8661 24.8939 17.9106 24.6302 18.0637C24.0812 18.3825 23.8134 19.0291 23.9761 19.6427C24.0543 19.9374 24.3378 20.2839 24.9048 20.9769L24.9048 20.9769C25.2046 21.3433 25.3545 21.5266 25.4339 21.717C25.5972 22.1088 25.575 22.5535 25.3735 22.9272C25.2756 23.1087 25.1082 23.2761 24.7734 23.6109L23.6118 24.7725C23.2768 25.1075 23.1093 25.275 22.9276 25.3729C22.5541 25.5743 22.1096 25.5965 21.7178 25.4333C21.5273 25.3539 21.344 25.2039 20.9773 24.9039C20.284 24.3366 19.9373 24.053 19.6424 23.9748C19.029 23.8123 18.3827 24.08 18.0639 24.6287C17.9106 24.8925 17.8661 25.3383 17.7769 26.2298C17.7298 26.7014 17.7062 26.9372 17.6275 27.1281C17.4659 27.5204 17.136 27.819 16.7296 27.9407C16.5318 28 16.2949 28 15.821 28H14.1786C13.7049 28 13.4681 28 13.2704 27.9408C12.8638 27.819 12.5338 27.5204 12.3722 27.128C12.2936 26.9371 12.27 26.7015 12.2229 26.2301C12.1338 25.3387 12.0892 24.8931 11.936 24.6293C11.6172 24.0806 10.9708 23.8128 10.3574 23.9754C10.0625 24.0536 9.71585 24.3372 9.02253 24.9045L9.02251 24.9045C8.65586 25.2045 8.47252 25.3545 8.28202 25.4339C7.89025 25.5971 7.44578 25.5749 7.0722 25.3735C6.89053 25.2756 6.72304 25.1081 6.38805 24.7731L5.22662 23.6117C4.89166 23.2767 4.72418 23.1092 4.62626 22.9276C4.42486 22.554 4.40269 22.1095 4.56591 21.7177C4.64527 21.5272 4.79526 21.3439 5.09525 20.9772L5.09526 20.9772C5.66244 20.284 5.94603 19.9374 6.0242 19.6426C6.18686 19.0291 5.91908 18.3826 5.37026 18.0638C5.10652 17.9106 4.66095 17.8661 3.7698 17.777C3.29853 17.7298 3.0629 17.7063 2.87212 17.6277C2.47961 17.4661 2.18094 17.1361 2.05918 16.7294C2 16.5318 2 16.295 2 15.8214V14.1789C2 13.705 2 13.4681 2.05924 13.2704C2.18102 12.8639 2.47958 12.534 2.87193 12.3723C3.0628 12.2937 3.29855 12.2701 3.77005 12.223C4.66163 12.1338 5.10743 12.0893 5.37126 11.9359C5.91983 11.6171 6.18751 10.9709 6.02503 10.3576C5.94688 10.0626 5.66317 9.71587 5.09574 9.02236L5.09574 9.02235C4.79564 8.65557 4.6456 8.47218 4.56623 8.2816C4.40309 7.8899 4.42526 7.44553 4.62656 7.07201C4.7245 6.89028 4.89204 6.72273 5.22713 6.38764L6.38851 5.22626C6.72342 4.89135 6.89087 4.7239 7.07249 4.62599C7.44612 4.42455 7.89067 4.40238 8.28249 4.56564C8.47294 4.64499 8.65625 4.79498 9.02288 5.09494C9.71593 5.66199 10.0625 5.94551 10.3572 6.02369C10.9708 6.18647 11.6174 5.91862 11.9362 5.36964C12.0893 5.10597 12.1338 4.66054 12.2229 3.76967L12.2229 3.76965V3.76964C12.27 3.29852 12.2936 3.06296 12.3721 2.87223C12.5337 2.47963 12.8638 2.1809 13.2706 2.05915C13.4682 2 13.7049 2 14.1784 2H15.8212C16.2949 2 16.5317 2 16.7294 2.05919C17.136 2.18095 17.466 2.47961 17.6276 2.87209ZM14.9997 20.2C17.8716 20.2 20.1997 17.8719 20.1997 15C20.1997 12.1281 17.8716 9.79998 14.9997 9.79998C12.1278 9.79998 9.79968 12.1281 9.79968 15C9.79968 17.8719 12.1278 20.2 14.9997 20.2Z" fill="white"/>
</svg>
