<svg width="30" height="30" viewBox="0 0 30 30" fill="none" xmlns="http://www.w3.org/2000/svg">
<path d="M25.4614 12.5385L26.3861 13.4631L27.3108 12.5385L26.3861 11.6138L25.4614 12.5385ZM3.23066 23C3.23066 23.7222 3.81613 24.3077 4.53835 24.3077C5.26057 24.3077 5.84604 23.7222 5.84604 23L3.23066 23ZM19.8476 20.0016L26.3861 13.4631L24.5367 11.6138L17.9983 18.1522L19.8476 20.0016ZM26.3861 11.6138L19.8476 5.07532L17.9983 6.92468L24.5367 13.4631L26.3861 11.6138ZM25.4614 11.2308L12.3845 11.2308L12.3845 13.8462L25.4614 13.8462L25.4614 11.2308ZM3.23066 20.3846L3.23066 23L5.84604 23L5.84604 20.3846L3.23066 20.3846ZM12.3845 11.2308C7.32897 11.2308 3.23066 15.3291 3.23066 20.3846L5.84604 20.3846C5.84604 16.7735 8.77341 13.8462 12.3845 13.8462L12.3845 11.2308Z" fill="white"/>
</svg>
