<svg width="256" height="256" viewBox="0 0 256 256" fill="none" xmlns="http://www.w3.org/2000/svg">
<path d="M128 1.96399C58.5036 1.96399 1.96387 58.5037 1.96387 128C1.96387 197.496 58.5036 254.036 128 254.036C197.496 254.036 254.036 197.496 254.036 128C254.036 58.5037 197.496 1.96399 128 1.96399ZM136.402 90.3544C150.084 89.685 163.391 87.3884 175.86 83.6241C178.333 94.8133 179.913 106.938 180.403 119.598H136.402V90.3544ZM136.402 73.5272V20.2532C150.796 25.2947 163.433 42.9705 171.46 67.4187C160.43 70.7853 148.608 72.869 136.402 73.5272ZM119.597 20.2532V73.5272C107.392 72.869 95.5694 70.7881 84.5399 67.4215C92.5669 42.9705 105.204 25.2947 119.597 20.2532ZM119.597 90.3544V119.598H75.5969C76.087 106.938 77.6667 94.8133 80.1398 83.6269C92.609 87.3884 105.916 89.685 119.597 90.3544ZM58.7753 119.598H19.1244C20.7068 98.8997 28.0729 79.8038 39.6206 63.9205C47.0483 69.3092 55.2799 73.9754 64.15 77.8097C61.1476 90.7045 59.2906 104.765 58.7753 119.598ZM58.7753 136.402C59.2906 151.235 61.1476 165.298 64.15 178.193C55.2799 182.027 47.0483 186.694 39.6206 192.082C28.0729 176.196 20.7068 157.1 19.1244 136.402H58.7753ZM75.5969 136.402H119.597V165.646C105.916 166.315 92.609 168.612 80.1426 172.376C77.6667 161.189 76.087 149.062 75.5969 136.402ZM119.597 182.476V235.747C105.204 230.705 92.5697 213.029 84.5399 188.581C95.5694 185.215 107.392 183.134 119.597 182.476ZM136.402 235.747V182.476C148.608 183.134 160.43 185.215 171.46 188.581C163.433 213.029 150.796 230.705 136.402 235.747ZM136.402 165.646V136.402H180.403C179.913 149.062 178.333 161.189 175.857 172.376C163.391 168.612 150.087 166.315 136.402 165.646ZM197.224 136.402H236.875C235.293 157.1 227.927 176.196 216.379 192.079C208.951 186.691 200.72 182.027 191.85 178.19C194.855 165.298 196.712 151.235 197.224 136.402ZM197.224 119.598C196.709 104.765 194.852 90.7045 191.85 77.8069C200.72 73.9726 208.951 69.3064 216.379 63.9177C227.93 79.8038 235.293 98.8997 236.875 119.598H197.224ZM205.47 51.0788C199.888 55.0251 193.774 58.5009 187.237 61.4754C182.767 48.1744 176.972 36.5791 170.158 27.2412C183.467 32.8288 195.443 40.9819 205.47 51.0788ZM85.845 27.2384C79.0307 36.5763 73.2358 48.1744 68.7657 61.4754C62.2259 58.5009 56.1117 55.0279 50.5297 51.0788C60.5566 40.9819 72.5328 32.8288 85.845 27.2384ZM50.5297 204.921C56.1117 200.975 62.2259 197.499 68.7657 194.525C73.2358 207.826 79.0335 219.421 85.845 228.762C72.5328 223.171 60.5566 215.018 50.5297 204.921ZM170.155 228.762C176.969 219.424 182.764 207.828 187.234 194.527C193.771 197.502 199.885 200.975 205.467 204.924C195.443 215.018 183.467 223.171 170.155 228.762Z" fill="white"/>
<path d="M128 1.96399C58.5036 1.96399 1.96387 58.5037 1.96387 128C1.96387 197.496 58.5036 254.036 128 254.036C197.496 254.036 254.036 197.496 254.036 128C254.036 58.5037 197.496 1.96399 128 1.96399ZM136.402 90.3544C150.084 89.685 163.391 87.3884 175.86 83.6241C178.333 94.8133 179.913 106.938 180.403 119.598H136.402V90.3544ZM136.402 73.5272V20.2532C150.796 25.2947 163.433 42.9705 171.46 67.4187C160.43 70.7853 148.608 72.869 136.402 73.5272ZM119.597 20.2532V73.5272C107.392 72.869 95.5694 70.7881 84.5399 67.4215C92.5669 42.9705 105.204 25.2947 119.597 20.2532ZM119.597 90.3544V119.598H75.5969C76.087 106.938 77.6667 94.8133 80.1398 83.6269C92.609 87.3884 105.916 89.685 119.597 90.3544ZM58.7753 119.598H19.1244C20.7068 98.8997 28.0729 79.8038 39.6206 63.9205C47.0483 69.3092 55.2799 73.9754 64.15 77.8097C61.1476 90.7045 59.2906 104.765 58.7753 119.598ZM58.7753 136.402C59.2906 151.235 61.1476 165.298 64.15 178.193C55.2799 182.027 47.0483 186.694 39.6206 192.082C28.0729 176.196 20.7068 157.1 19.1244 136.402H58.7753ZM75.5969 136.402H119.597V165.646C105.916 166.315 92.609 168.612 80.1426 172.376C77.6667 161.189 76.087 149.062 75.5969 136.402ZM119.597 182.476V235.747C105.204 230.705 92.5697 213.029 84.5399 188.581C95.5694 185.215 107.392 183.134 119.597 182.476ZM136.402 235.747V182.476C148.608 183.134 160.43 185.215 171.46 188.581C163.433 213.029 150.796 230.705 136.402 235.747ZM136.402 165.646V136.402H180.403C179.913 149.062 178.333 161.189 175.857 172.376C163.391 168.612 150.087 166.315 136.402 165.646ZM197.224 136.402H236.875C235.293 157.1 227.927 176.196 216.379 192.079C208.951 186.691 200.72 182.027 191.85 178.19C194.855 165.298 196.712 151.235 197.224 136.402ZM197.224 119.598C196.709 104.765 194.852 90.7045 191.85 77.8069C200.72 73.9726 208.951 69.3064 216.379 63.9177C227.93 79.8038 235.293 98.8997 236.875 119.598H197.224ZM205.47 51.0788C199.888 55.0251 193.774 58.5009 187.237 61.4754C182.767 48.1744 176.972 36.5791 170.158 27.2412C183.467 32.8288 195.443 40.9819 205.47 51.0788ZM85.845 27.2384C79.0307 36.5763 73.2358 48.1744 68.7657 61.4754C62.2259 58.5009 56.1117 55.0279 50.5297 51.0788C60.5566 40.9819 72.5328 32.8288 85.845 27.2384ZM50.5297 204.921C56.1117 200.975 62.2259 197.499 68.7657 194.525C73.2358 207.826 79.0335 219.421 85.845 228.762C72.5328 223.171 60.5566 215.018 50.5297 204.921ZM170.155 228.762C176.969 219.424 182.764 207.828 187.234 194.527C193.771 197.502 199.885 200.975 205.467 204.924C195.443 215.018 183.467 223.171 170.155 228.762Z" fill="white"/>
</svg>
