<svg width="30" height="30" viewBox="0 0 30 30" fill="none" xmlns="http://www.w3.org/2000/svg">
<path fill-rule="evenodd" clip-rule="evenodd" d="M3.17157 3.17157C2 4.34315 2 6.22876 2 10V20C2 23.7712 2 25.6569 3.17157 26.8284C4.34315 28 6.22876 28 9.99999 28H20.6667C24.4379 28 26.3235 28 27.4951 26.8284C28.6667 25.6569 28.6667 23.7712 28.6667 20V10C28.6667 6.22876 28.6667 4.34315 27.4951 3.17157C26.3235 2 24.4379 2 20.6667 2H10C6.22876 2 4.34315 2 3.17157 3.17157ZM22.6667 8.33333C22.6667 7.59695 22.0697 6.99999 21.3333 6.99999C20.597 6.99999 20 7.59695 20 8.33333V22.297H22.6667V8.33333ZM16.6667 16.9334V22.297H14V16.9334C14 16.197 14.597 15.6 15.3333 15.6C16.0697 15.6 16.6667 16.197 16.6667 16.9334ZM10.6667 12.6333V22.297H8V12.6333C8 11.897 8.59695 11.3 9.33333 11.3C10.0697 11.3 10.6667 11.897 10.6667 12.6333Z" fill="white"/>
</svg>
