<svg width="30" height="30" viewBox="0 0 30 30" fill="none" xmlns="http://www.w3.org/2000/svg">
<path d="M0 6C0 2.68629 2.68629 0 6 0H18.75H24C27.3137 0 30 2.68629 30 6V9.75V24C30 27.3137 27.3137 30 24 30H6C2.68629 30 0 27.3137 0 24V6Z" fill="#383636"/>
<path d="M8.08744 10.0492L9 21H21L21.9126 10.0492C21.9337 9.79596 21.597 9.68957 21.4687 9.90898L17.8702 16.0656C17.7674 16.2416 17.5056 16.216 17.4387 16.0235L15.2254 9.64928C15.1512 9.43545 14.8488 9.43545 14.7746 9.64928L12.5613 16.0235C12.4944 16.216 12.2326 16.2416 12.1298 16.0656L8.53129 9.90898C8.40305 9.68957 8.06633 9.79596 8.08744 10.0492Z" fill="white" stroke="white" stroke-width="0.795489" stroke-linecap="round"/>
</svg>
