<svg width="30" height="30" viewBox="0 0 30 30" fill="none" xmlns="http://www.w3.org/2000/svg">
<path d="M0 6C0 2.68629 2.68629 0 6 0H18.75H24C27.3137 0 30 2.68629 30 6V9.75V24C30 27.3137 27.3137 30 24 30H6C2.68629 30 0 27.3137 0 24V6Z" fill="#706C6C"/>
<path d="M9 10.1088V21H21V10.1088C21 9.85176 20.6496 9.77633 20.5438 10.0106L17.8552 15.967C17.7664 16.1637 17.483 16.151 17.4122 15.9471L15.2254 9.64928C15.1512 9.43545 14.8488 9.43545 14.7746 9.64928L12.5878 15.9471C12.517 16.151 12.2336 16.1637 12.1448 15.967L9.45616 10.0106C9.35043 9.77633 9 9.85176 9 10.1088Z" fill="white" stroke="white" stroke-width="0.795489" stroke-linecap="round"/>
</svg>
