<svg width="30" height="30" viewBox="0 0 30 30" fill="none" xmlns="http://www.w3.org/2000/svg">
<path fill-rule="evenodd" clip-rule="evenodd" d="M27.5443 13.1756C27.5443 8.69113 27.5443 6.44888 26.4681 4.83816C26.0021 4.14087 25.4034 3.54217 24.7061 3.07625C23.0954 2 20.8532 2 16.3687 2H13.1756C8.69113 2 6.44888 2 4.83816 3.07625C4.14087 3.54217 3.54217 4.14087 3.07625 4.83816C2 6.44888 2 8.69113 2 13.1756C2 17.6601 2 19.9024 3.07625 21.5131C3.54217 22.2104 4.14087 22.8091 4.83816 23.275C6.24526 24.2152 8.1343 24.3341 11.5791 24.3491V24.3513L13.3442 27.8814C13.9325 29.0581 15.6118 29.0581 16.2001 27.8814L17.9652 24.3513V24.3491C21.41 24.3341 23.299 24.2152 24.7061 23.275C25.4034 22.8091 26.0021 22.2104 26.4681 21.5131C27.5443 19.9024 27.5443 17.6601 27.5443 13.1756ZM9.98288 8.38609C9.10114 8.38609 8.38636 9.10088 8.38636 9.98261C8.38636 10.8643 9.10114 11.5791 9.98288 11.5791H19.562C20.4437 11.5791 21.1585 10.8643 21.1585 9.98261C21.1585 9.10088 20.4437 8.38609 19.562 8.38609H9.98288ZM9.98288 14.7722C9.10114 14.7722 8.38636 15.487 8.38636 16.3687C8.38636 17.2504 9.10114 17.9652 9.98288 17.9652H14.7724C15.6542 17.9652 16.369 17.2504 16.369 16.3687C16.369 15.487 15.6542 14.7722 14.7724 14.7722H9.98288Z" fill="white"/>
</svg>
