<svg width="250" height="250" viewBox="0 0 250 250" fill="none" xmlns="http://www.w3.org/2000/svg">
<circle cx="125" cy="125" r="106" fill="url(#paint0_radial_629_200)"/>
<path d="M50.9637 127.466C92.879 109.026 147.121 86.5444 154.608 83.4327C174.248 75.2884 180.275 76.8493 177.27 94.8854C175.112 107.849 168.886 150.768 163.923 177.482C160.978 193.324 154.371 195.201 143.983 188.348C138.987 185.049 113.77 168.374 108.297 164.459C103.301 160.89 96.4109 156.598 105.052 148.143C108.127 145.132 128.284 125.885 143.989 110.904C146.047 108.936 143.462 105.704 141.088 107.282C119.92 121.319 90.5711 140.803 86.8358 143.341C81.1929 147.173 75.7734 148.93 66.0449 146.136C58.6944 144.025 51.514 141.507 48.7192 140.546C37.9568 136.851 40.5115 132.065 50.9637 127.466Z" fill="white"/>
<defs>
<radialGradient id="paint0_radial_629_200" cx="0" cy="0" r="1" gradientUnits="userSpaceOnUse" gradientTransform="translate(177.5 42.5) rotate(105.563) scale(195.674)">
<stop stop-color="#35ADE1"/>
<stop offset="1" stop-color="#2197D5"/>
</radialGradient>
</defs>
</svg>
