<svg xmlns="http://www.w3.org/2000/svg" xmlns:xlink="http://www.w3.org/1999/xlink" version="1.1" width="256" height="256" viewBox="0 0 256 256" xml:space="preserve">
<desc>Created with Fabric.js 1.7.22</desc>
<defs>
</defs>
<g transform="translate(128 128) scale(0.72 0.72)" style="">
	<g style="stroke: none; stroke-width: 0; stroke-dasharray: none; stroke-linecap: butt; stroke-linejoin: miter; stroke-miterlimit: 10; fill: none; fill-rule: nonzero; opacity: 1;" transform="translate(-175.05 -175.05000000000004) scale(3.89 3.89)" >
	<path d="M 87.049 81.713 c 0.232 -0.277 0.444 -0.564 0.649 -0.855 c 0.032 -0.045 0.067 -0.088 0.098 -0.134 c 0.184 -0.27 0.35 -0.547 0.511 -0.827 c 0.042 -0.073 0.088 -0.144 0.128 -0.218 c 0.146 -0.266 0.276 -0.537 0.401 -0.811 c 0.043 -0.094 0.089 -0.186 0.13 -0.28 c 0.113 -0.262 0.211 -0.528 0.305 -0.796 c 0.039 -0.112 0.081 -0.223 0.117 -0.336 c 0.082 -0.257 0.153 -0.516 0.219 -0.777 c 0.033 -0.129 0.065 -0.257 0.094 -0.386 c 0.055 -0.25 0.1 -0.501 0.14 -0.754 c 0.023 -0.144 0.044 -0.287 0.062 -0.432 c 0.03 -0.242 0.052 -0.484 0.068 -0.727 c 0.01 -0.158 0.018 -0.315 0.022 -0.473 c 0.007 -0.233 0.008 -0.465 0.003 -0.698 c -0.004 -0.169 -0.013 -0.338 -0.024 -0.507 c -0.014 -0.222 -0.031 -0.444 -0.057 -0.665 c -0.021 -0.18 -0.049 -0.359 -0.077 -0.539 c -0.033 -0.21 -0.067 -0.419 -0.111 -0.627 c -0.04 -0.189 -0.089 -0.376 -0.137 -0.564 c -0.051 -0.197 -0.1 -0.393 -0.16 -0.587 c -0.061 -0.196 -0.133 -0.389 -0.203 -0.583 c -0.066 -0.182 -0.129 -0.365 -0.204 -0.545 c -0.084 -0.202 -0.181 -0.398 -0.276 -0.596 c -0.08 -0.167 -0.154 -0.335 -0.242 -0.498 c -0.111 -0.209 -0.238 -0.41 -0.361 -0.614 c -0.089 -0.146 -0.171 -0.296 -0.267 -0.439 c -0.15 -0.225 -0.317 -0.441 -0.483 -0.658 c -0.087 -0.114 -0.165 -0.232 -0.256 -0.343 c -0.265 -0.324 -0.548 -0.639 -0.85 -0.941 l -8.159 -8.159 c -0.302 -0.302 -0.617 -0.584 -0.941 -0.85 c -0.111 -0.091 -0.228 -0.168 -0.342 -0.255 c -0.218 -0.166 -0.434 -0.334 -0.66 -0.484 c -0.143 -0.095 -0.291 -0.176 -0.437 -0.265 c -0.204 -0.124 -0.406 -0.251 -0.615 -0.362 c -0.163 -0.087 -0.331 -0.162 -0.497 -0.241 c -0.198 -0.095 -0.396 -0.192 -0.598 -0.276 c -0.18 -0.075 -0.364 -0.138 -0.547 -0.205 c -0.193 -0.07 -0.384 -0.141 -0.58 -0.202 c -0.196 -0.061 -0.394 -0.111 -0.592 -0.162 c -0.186 -0.048 -0.372 -0.096 -0.559 -0.136 c -0.21 -0.044 -0.42 -0.079 -0.631 -0.112 c -0.178 -0.028 -0.356 -0.056 -0.535 -0.077 c -0.222 -0.026 -0.444 -0.043 -0.667 -0.057 c -0.169 -0.011 -0.337 -0.02 -0.506 -0.024 c -0.234 -0.006 -0.467 -0.004 -0.7 0.003 c -0.157 0.005 -0.313 0.012 -0.469 0.022 c -0.244 0.016 -0.488 0.039 -0.731 0.069 c -0.143 0.018 -0.285 0.039 -0.428 0.061 c -0.254 0.04 -0.506 0.086 -0.758 0.141 c -0.128 0.028 -0.255 0.061 -0.382 0.093 c -0.262 0.066 -0.522 0.137 -0.781 0.22 c -0.111 0.036 -0.221 0.077 -0.331 0.115 c -0.269 0.095 -0.536 0.194 -0.8 0.307 c -0.093 0.04 -0.184 0.085 -0.276 0.128 c -0.275 0.126 -0.548 0.257 -0.815 0.403 c -0.072 0.04 -0.142 0.084 -0.213 0.126 c -0.282 0.162 -0.56 0.329 -0.831 0.514 c -0.044 0.03 -0.086 0.065 -0.13 0.095 c -0.293 0.205 -0.581 0.418 -0.859 0.651 l 0 0 l 0 0 c -0.288 0.241 -0.572 0.49 -0.842 0.76 l -5.52 5.52 c -0.707 0.707 -1.854 0.707 -2.561 0 l -23.861 -23.86 c -0.707 -0.707 -0.707 -1.854 0 -2.561 l 5.52 -5.52 c 0.27 -0.27 0.52 -0.554 0.761 -0.842 l 0 0 c 0 0 0 0 0 0 c 0.232 -0.277 0.444 -0.564 0.649 -0.855 c 0.032 -0.045 0.067 -0.088 0.098 -0.134 c 0.184 -0.27 0.35 -0.547 0.511 -0.827 c 0.042 -0.073 0.088 -0.144 0.128 -0.218 c 0.146 -0.266 0.276 -0.537 0.401 -0.811 c 0.043 -0.094 0.089 -0.186 0.13 -0.28 c 0.113 -0.262 0.211 -0.528 0.305 -0.796 c 0.039 -0.112 0.081 -0.223 0.117 -0.336 c 0.082 -0.257 0.153 -0.516 0.219 -0.777 c 0.033 -0.129 0.065 -0.257 0.094 -0.386 c 0.055 -0.25 0.1 -0.501 0.14 -0.754 c 0.023 -0.144 0.044 -0.287 0.062 -0.432 c 0.03 -0.242 0.052 -0.484 0.068 -0.727 c 0.01 -0.158 0.018 -0.315 0.022 -0.473 c 0.007 -0.233 0.008 -0.465 0.003 -0.698 c -0.004 -0.169 -0.013 -0.338 -0.024 -0.507 c -0.014 -0.222 -0.031 -0.444 -0.057 -0.665 c -0.021 -0.18 -0.049 -0.359 -0.077 -0.539 c -0.033 -0.21 -0.067 -0.419 -0.111 -0.627 c -0.04 -0.189 -0.089 -0.376 -0.137 -0.564 c -0.051 -0.197 -0.1 -0.393 -0.16 -0.587 c -0.061 -0.196 -0.133 -0.389 -0.203 -0.583 c -0.066 -0.182 -0.129 -0.365 -0.204 -0.545 c -0.084 -0.202 -0.181 -0.398 -0.276 -0.596 c -0.08 -0.167 -0.154 -0.335 -0.242 -0.498 c -0.111 -0.209 -0.238 -0.41 -0.361 -0.614 c -0.089 -0.146 -0.171 -0.296 -0.267 -0.439 c -0.15 -0.225 -0.317 -0.441 -0.483 -0.658 c -0.087 -0.114 -0.165 -0.232 -0.256 -0.343 c -0.265 -0.324 -0.548 -0.639 -0.85 -0.941 l -8.159 -8.159 c -0.302 -0.302 -0.617 -0.584 -0.941 -0.85 c -0.111 -0.091 -0.228 -0.168 -0.342 -0.255 c -0.218 -0.166 -0.434 -0.334 -0.66 -0.484 c -0.143 -0.095 -0.291 -0.176 -0.437 -0.265 c -0.204 -0.124 -0.406 -0.251 -0.615 -0.362 c -0.163 -0.087 -0.331 -0.162 -0.497 -0.241 c -0.198 -0.095 -0.396 -0.192 -0.598 -0.276 c -0.18 -0.075 -0.364 -0.138 -0.547 -0.205 c -0.193 -0.07 -0.384 -0.141 -0.58 -0.202 c -0.196 -0.061 -0.394 -0.111 -0.592 -0.162 c -0.186 -0.048 -0.372 -0.096 -0.559 -0.136 c -0.21 -0.044 -0.42 -0.079 -0.631 -0.112 c -0.178 -0.028 -0.356 -0.056 -0.535 -0.077 c -0.222 -0.026 -0.444 -0.043 -0.667 -0.057 c -0.169 -0.011 -0.337 -0.02 -0.506 -0.024 c -0.234 -0.006 -0.467 -0.004 -0.7 0.003 c -0.157 0.005 -0.313 0.012 -0.469 0.022 c -0.244 0.016 -0.488 0.039 -0.731 0.069 c -0.143 0.018 -0.285 0.039 -0.428 0.061 c -0.254 0.04 -0.506 0.086 -0.758 0.141 c -0.128 0.028 -0.255 0.061 -0.382 0.093 C 13.06 0.459 12.8 0.53 12.541 0.613 c -0.111 0.036 -0.221 0.077 -0.331 0.115 c -0.269 0.095 -0.536 0.194 -0.8 0.307 c -0.093 0.04 -0.184 0.085 -0.276 0.128 c -0.275 0.126 -0.548 0.257 -0.815 0.403 c -0.072 0.04 -0.142 0.084 -0.213 0.126 C 9.825 1.853 9.546 2.02 9.275 2.205 C 9.231 2.235 9.189 2.269 9.145 2.3 C 8.852 2.505 8.564 2.719 8.286 2.951 l 0 0 l 0 0 c -0.288 0.241 -0.572 0.49 -0.842 0.76 C -3.869 14.476 -4.88 39.408 22.96 67.04 c 27.632 27.84 52.564 26.829 63.328 15.516 C 86.559 82.285 86.808 82.002 87.049 81.713 L 87.049 81.713 C 87.049 81.714 87.049 81.714 87.049 81.713 z" style="stroke: none; stroke-width: 1; stroke-dasharray: none; stroke-linecap: butt; stroke-linejoin: miter; stroke-miterlimit: 10; fill: rgb(0,0,0); fill-rule: nonzero; opacity: 1;" transform=" matrix(1 0 0 1 0 0) " stroke-linecap="round" />
	<path d="M 16.503 0.25 c 0.094 0 0.188 0.001 0.282 0.003 c 0.166 0.004 0.331 0.013 0.496 0.024 c 0.219 0.014 0.436 0.031 0.654 0.056 c 0.175 0.02 0.35 0.048 0.524 0.075 c 0.207 0.033 0.414 0.067 0.619 0.11 c 0.17 0.036 0.337 0.079 0.548 0.133 l 0.055 0.014 c 0.176 0.045 0.352 0.09 0.526 0.144 c 0.166 0.051 0.33 0.111 0.494 0.171 l 0.074 0.027 L 20.89 1.05 c 0.141 0.051 0.282 0.101 0.421 0.159 c 0.168 0.07 0.331 0.149 0.496 0.228 l 0.09 0.043 l 0.144 0.068 c 0.115 0.054 0.23 0.108 0.343 0.168 c 0.172 0.092 0.34 0.195 0.507 0.297 l 0.096 0.058 l 0.155 0.092 c 0.092 0.054 0.184 0.108 0.273 0.168 c 0.203 0.135 0.398 0.285 0.594 0.434 l 0.053 0.041 l 0.143 0.105 c 0.065 0.047 0.13 0.093 0.192 0.144 c 0.327 0.268 0.637 0.548 0.922 0.833 l 8.159 8.159 c 0.285 0.285 0.565 0.595 0.833 0.922 c 0.052 0.063 0.099 0.129 0.146 0.194 l 0.105 0.142 l 0.045 0.059 c 0.147 0.193 0.295 0.386 0.428 0.586 c 0.06 0.091 0.115 0.184 0.17 0.277 l 0.091 0.153 l 0.06 0.098 c 0.102 0.166 0.203 0.332 0.295 0.504 c 0.061 0.114 0.115 0.229 0.169 0.345 l 0.068 0.143 l 0.044 0.091 c 0.078 0.163 0.157 0.326 0.226 0.493 c 0.057 0.137 0.107 0.276 0.157 0.415 l 0.043 0.12 l 0.027 0.075 c 0.06 0.165 0.12 0.329 0.172 0.496 c 0.053 0.17 0.097 0.342 0.141 0.513 l 0.025 0.097 c 0.045 0.172 0.089 0.345 0.126 0.519 c 0.043 0.204 0.076 0.409 0.109 0.615 c 0.028 0.176 0.055 0.352 0.076 0.529 c 0.025 0.217 0.042 0.434 0.056 0.652 c 0.011 0.166 0.02 0.331 0.024 0.497 c 0.006 0.229 0.004 0.456 -0.003 0.685 c -0.005 0.155 -0.012 0.309 -0.022 0.464 c -0.016 0.238 -0.038 0.476 -0.067 0.713 c -0.018 0.142 -0.039 0.283 -0.061 0.424 c -0.039 0.248 -0.084 0.494 -0.137 0.739 c -0.026 0.118 -0.056 0.235 -0.092 0.379 c -0.064 0.256 -0.134 0.51 -0.215 0.761 c -0.026 0.079 -0.054 0.158 -0.082 0.237 l -0.033 0.092 c -0.092 0.262 -0.189 0.523 -0.299 0.78 c -0.024 0.057 -0.051 0.113 -0.078 0.169 l -0.05 0.106 c -0.123 0.268 -0.25 0.534 -0.393 0.795 c -0.022 0.039 -0.045 0.078 -0.069 0.117 l -0.057 0.097 c -0.192 0.334 -0.346 0.584 -0.501 0.811 l -0.045 0.062 l -0.051 0.069 c -0.232 0.331 -0.434 0.597 -0.636 0.839 c -0.279 0.334 -0.516 0.597 -0.745 0.826 l -5.52 5.52 c -0.803 0.803 -0.803 2.111 0 2.914 l 23.861 23.86 c 0.389 0.389 0.907 0.604 1.457 0.604 s 1.068 -0.214 1.457 -0.604 l 5.52 -5.52 c 0.232 -0.232 0.486 -0.462 0.826 -0.746 c 0.242 -0.203 0.51 -0.405 0.842 -0.638 l 0.067 -0.049 l 0.06 -0.044 c 0.229 -0.156 0.48 -0.311 0.815 -0.504 l 0.093 -0.055 c 0.038 -0.023 0.077 -0.046 0.116 -0.068 c 0.262 -0.144 0.529 -0.272 0.799 -0.395 l 0.104 -0.049 c 0.055 -0.026 0.111 -0.052 0.167 -0.077 c 0.258 -0.111 0.52 -0.208 0.784 -0.301 l 0.094 -0.033 c 0.077 -0.027 0.153 -0.055 0.231 -0.08 c 0.253 -0.081 0.508 -0.151 0.794 -0.223 c 0.115 -0.029 0.23 -0.058 0.346 -0.084 c 0.247 -0.054 0.494 -0.099 0.743 -0.138 c 0.14 -0.022 0.279 -0.043 0.419 -0.06 c 0.239 -0.029 0.477 -0.052 0.717 -0.067 c 0.153 -0.01 0.306 -0.017 0.46 -0.022 c 0.135 -0.004 0.27 -0.006 0.406 -0.006 c 0.094 0 0.187 0.001 0.281 0.003 c 0.166 0.004 0.331 0.013 0.496 0.024 c 0.219 0.014 0.436 0.031 0.654 0.056 c 0.175 0.02 0.35 0.048 0.524 0.075 c 0.207 0.033 0.414 0.067 0.619 0.11 c 0.17 0.036 0.337 0.079 0.548 0.133 l 0.055 0.014 c 0.176 0.045 0.352 0.09 0.526 0.144 c 0.166 0.052 0.33 0.111 0.495 0.171 l 0.074 0.027 l 0.115 0.042 c 0.141 0.051 0.282 0.101 0.421 0.159 c 0.168 0.07 0.332 0.149 0.496 0.228 l 0.09 0.043 l 0.144 0.068 c 0.115 0.054 0.23 0.108 0.343 0.168 c 0.172 0.092 0.34 0.195 0.507 0.297 l 0.096 0.058 l 0.155 0.092 c 0.092 0.054 0.184 0.108 0.273 0.168 c 0.203 0.135 0.398 0.285 0.594 0.434 l 0.053 0.041 l 0.143 0.105 c 0.065 0.047 0.13 0.093 0.192 0.145 c 0.327 0.268 0.637 0.548 0.922 0.833 l 8.159 8.159 c 0.285 0.285 0.565 0.595 0.833 0.922 c 0.052 0.063 0.099 0.129 0.146 0.194 l 0.105 0.142 l 0.045 0.059 c 0.147 0.193 0.295 0.386 0.428 0.586 c 0.06 0.091 0.115 0.184 0.17 0.277 l 0.091 0.153 l 0.06 0.098 c 0.102 0.166 0.203 0.333 0.295 0.504 c 0.061 0.114 0.115 0.229 0.169 0.345 l 0.068 0.143 l 0.044 0.092 c 0.078 0.163 0.157 0.326 0.226 0.492 c 0.057 0.137 0.107 0.276 0.157 0.415 l 0.043 0.119 l 0.027 0.074 c 0.06 0.165 0.12 0.33 0.172 0.497 c 0.053 0.17 0.097 0.342 0.141 0.513 l 0.025 0.097 c 0.045 0.172 0.089 0.345 0.126 0.519 c 0.043 0.204 0.076 0.409 0.109 0.615 c 0.028 0.176 0.055 0.352 0.076 0.529 c 0.025 0.217 0.042 0.434 0.056 0.652 c 0.011 0.166 0.02 0.331 0.024 0.497 c 0.006 0.229 0.004 0.456 -0.003 0.685 c -0.005 0.155 -0.012 0.309 -0.022 0.464 c -0.016 0.238 -0.038 0.476 -0.067 0.713 c -0.018 0.142 -0.039 0.283 -0.061 0.424 c -0.039 0.248 -0.084 0.494 -0.137 0.739 c -0.026 0.119 -0.056 0.236 -0.092 0.379 c -0.064 0.256 -0.134 0.51 -0.215 0.761 c -0.025 0.079 -0.054 0.158 -0.082 0.236 l -0.033 0.093 c -0.092 0.262 -0.189 0.523 -0.299 0.78 c -0.025 0.057 -0.051 0.113 -0.078 0.169 l -0.049 0.106 c -0.123 0.268 -0.25 0.534 -0.393 0.795 c -0.022 0.04 -0.045 0.078 -0.069 0.117 l -0.057 0.096 c -0.192 0.334 -0.346 0.584 -0.501 0.811 l -0.045 0.062 l -0.051 0.069 c -0.232 0.331 -0.434 0.598 -0.636 0.839 c -0.28 0.334 -0.516 0.597 -0.75 0.83 c -4.52 4.75 -11.261 7.367 -18.981 7.367 c -13.719 0 -29.341 -8.128 -43.991 -22.887 C 8.233 52.071 0.106 36.32 0.252 22.511 c 0.08 -7.563 2.695 -14.175 7.369 -18.622 c 0.232 -0.232 0.486 -0.461 0.826 -0.746 c 0.242 -0.203 0.51 -0.405 0.842 -0.638 l 0.067 -0.049 l 0.06 -0.044 c 0.229 -0.156 0.48 -0.311 0.815 -0.504 l 0.093 -0.055 c 0.038 -0.023 0.077 -0.046 0.116 -0.068 c 0.262 -0.143 0.529 -0.272 0.799 -0.395 l 0.104 -0.049 c 0.055 -0.026 0.111 -0.052 0.167 -0.077 c 0.258 -0.111 0.52 -0.208 0.784 -0.301 l 0.094 -0.033 c 0.077 -0.027 0.153 -0.055 0.231 -0.08 c 0.253 -0.081 0.508 -0.151 0.793 -0.223 c 0.116 -0.029 0.231 -0.059 0.347 -0.084 c 0.247 -0.054 0.494 -0.099 0.743 -0.138 c 0.14 -0.022 0.279 -0.043 0.419 -0.06 c 0.239 -0.029 0.477 -0.052 0.717 -0.067 c 0.153 -0.01 0.306 -0.017 0.46 -0.022 C 16.233 0.252 16.368 0.25 16.503 0.25 M 16.503 0 c -0.138 0 -0.275 0.002 -0.413 0.006 c -0.157 0.005 -0.313 0.012 -0.469 0.022 c -0.244 0.016 -0.488 0.039 -0.731 0.069 c -0.143 0.018 -0.285 0.039 -0.428 0.061 c -0.254 0.04 -0.506 0.086 -0.758 0.141 c -0.128 0.028 -0.255 0.061 -0.382 0.093 C 13.06 0.459 12.8 0.53 12.541 0.613 c -0.111 0.036 -0.221 0.077 -0.331 0.115 c -0.269 0.095 -0.536 0.194 -0.8 0.307 c -0.093 0.04 -0.184 0.085 -0.276 0.128 c -0.275 0.126 -0.548 0.257 -0.815 0.403 c -0.072 0.04 -0.142 0.084 -0.213 0.126 C 9.825 1.853 9.546 2.02 9.275 2.205 C 9.231 2.235 9.189 2.269 9.145 2.3 C 8.852 2.505 8.564 2.719 8.286 2.951 l 0 0 c -0.288 0.241 -0.572 0.49 -0.842 0.76 C -3.869 14.476 -4.88 39.408 22.96 67.04 C 39.457 83.662 54.994 90 67.127 90 c 8.188 0 14.824 -2.886 19.162 -7.444 c 0.27 -0.27 0.52 -0.554 0.761 -0.842 c 0 0 0 0 0 0 c 0.232 -0.277 0.444 -0.564 0.649 -0.855 c 0.032 -0.045 0.067 -0.088 0.098 -0.134 c 0.184 -0.27 0.35 -0.547 0.511 -0.827 c 0.042 -0.073 0.088 -0.144 0.128 -0.218 c 0.146 -0.266 0.276 -0.537 0.401 -0.811 c 0.043 -0.094 0.089 -0.186 0.13 -0.28 c 0.113 -0.262 0.211 -0.528 0.305 -0.796 c 0.039 -0.112 0.081 -0.223 0.117 -0.336 c 0.082 -0.257 0.153 -0.516 0.219 -0.777 c 0.033 -0.129 0.065 -0.257 0.094 -0.386 c 0.055 -0.25 0.1 -0.501 0.14 -0.754 c 0.023 -0.144 0.044 -0.287 0.062 -0.432 c 0.03 -0.242 0.052 -0.484 0.068 -0.727 c 0.01 -0.158 0.018 -0.315 0.022 -0.473 c 0.007 -0.233 0.008 -0.465 0.003 -0.698 c -0.004 -0.169 -0.013 -0.338 -0.024 -0.507 c -0.014 -0.222 -0.031 -0.444 -0.057 -0.665 c -0.021 -0.18 -0.049 -0.359 -0.077 -0.539 c -0.033 -0.21 -0.067 -0.419 -0.111 -0.627 c -0.04 -0.189 -0.089 -0.376 -0.137 -0.564 c -0.051 -0.197 -0.1 -0.393 -0.16 -0.587 c -0.061 -0.196 -0.133 -0.389 -0.203 -0.583 c -0.066 -0.182 -0.129 -0.365 -0.204 -0.545 c -0.084 -0.202 -0.181 -0.398 -0.276 -0.596 c -0.08 -0.167 -0.154 -0.335 -0.242 -0.498 c -0.111 -0.209 -0.238 -0.41 -0.361 -0.614 c -0.089 -0.146 -0.171 -0.296 -0.267 -0.439 c -0.15 -0.225 -0.317 -0.441 -0.483 -0.658 c -0.087 -0.114 -0.165 -0.232 -0.256 -0.343 c -0.265 -0.324 -0.548 -0.639 -0.85 -0.941 l -8.159 -8.159 c -0.302 -0.302 -0.617 -0.584 -0.941 -0.85 c -0.111 -0.091 -0.228 -0.168 -0.341 -0.255 c -0.218 -0.166 -0.434 -0.334 -0.66 -0.484 c -0.143 -0.095 -0.291 -0.176 -0.437 -0.265 c -0.204 -0.124 -0.406 -0.251 -0.615 -0.362 c -0.163 -0.087 -0.331 -0.162 -0.497 -0.241 c -0.198 -0.095 -0.396 -0.192 -0.598 -0.276 c -0.18 -0.075 -0.364 -0.138 -0.547 -0.205 c -0.193 -0.07 -0.384 -0.141 -0.58 -0.202 c -0.196 -0.061 -0.394 -0.111 -0.592 -0.162 c -0.186 -0.048 -0.372 -0.096 -0.559 -0.136 c -0.21 -0.044 -0.42 -0.079 -0.631 -0.112 c -0.178 -0.028 -0.356 -0.056 -0.535 -0.077 c -0.222 -0.026 -0.444 -0.043 -0.667 -0.057 c -0.169 -0.011 -0.337 -0.02 -0.506 -0.024 c -0.096 -0.002 -0.192 -0.003 -0.287 -0.003 c -0.138 0 -0.275 0.002 -0.413 0.006 c -0.157 0.005 -0.313 0.012 -0.469 0.022 c -0.244 0.016 -0.488 0.039 -0.731 0.069 c -0.143 0.018 -0.285 0.039 -0.428 0.061 c -0.254 0.04 -0.506 0.086 -0.758 0.141 c -0.128 0.028 -0.255 0.061 -0.382 0.093 c -0.262 0.066 -0.522 0.137 -0.781 0.22 c -0.111 0.036 -0.221 0.077 -0.331 0.115 c -0.269 0.095 -0.536 0.194 -0.8 0.307 c -0.093 0.04 -0.184 0.085 -0.276 0.128 c -0.275 0.126 -0.548 0.257 -0.815 0.403 c -0.072 0.04 -0.142 0.084 -0.213 0.126 c -0.282 0.162 -0.56 0.329 -0.831 0.514 c -0.044 0.03 -0.086 0.065 -0.13 0.095 c -0.293 0.205 -0.581 0.418 -0.859 0.651 l 0 0 c -0.288 0.241 -0.572 0.49 -0.842 0.76 l -5.52 5.52 c -0.354 0.354 -0.817 0.53 -1.28 0.53 c -0.463 0 -0.927 -0.177 -1.28 -0.53 l -23.861 -23.86 c -0.707 -0.707 -0.707 -1.854 0 -2.561 l 5.52 -5.52 c 0.27 -0.27 0.52 -0.554 0.76 -0.842 c 0 0 0 0 0 0 c 0.232 -0.277 0.444 -0.564 0.649 -0.855 c 0.032 -0.045 0.067 -0.088 0.098 -0.134 c 0.184 -0.27 0.35 -0.547 0.511 -0.827 c 0.042 -0.073 0.088 -0.144 0.128 -0.218 c 0.146 -0.266 0.276 -0.537 0.401 -0.811 c 0.043 -0.094 0.089 -0.186 0.13 -0.28 c 0.113 -0.262 0.211 -0.528 0.305 -0.796 c 0.039 -0.112 0.081 -0.223 0.117 -0.336 c 0.082 -0.257 0.153 -0.516 0.219 -0.777 c 0.033 -0.129 0.065 -0.257 0.094 -0.386 c 0.055 -0.25 0.1 -0.501 0.14 -0.754 c 0.023 -0.144 0.044 -0.287 0.062 -0.432 c 0.03 -0.242 0.052 -0.484 0.068 -0.727 c 0.01 -0.158 0.018 -0.315 0.022 -0.473 c 0.007 -0.233 0.008 -0.465 0.003 -0.698 c -0.004 -0.169 -0.013 -0.338 -0.024 -0.507 c -0.014 -0.222 -0.031 -0.444 -0.057 -0.665 c -0.021 -0.18 -0.049 -0.359 -0.077 -0.539 c -0.033 -0.21 -0.067 -0.419 -0.111 -0.627 c -0.04 -0.189 -0.089 -0.376 -0.137 -0.564 c -0.051 -0.197 -0.1 -0.393 -0.16 -0.587 c -0.061 -0.196 -0.133 -0.389 -0.203 -0.583 c -0.066 -0.182 -0.129 -0.365 -0.204 -0.545 c -0.084 -0.202 -0.181 -0.398 -0.276 -0.596 c -0.08 -0.167 -0.154 -0.335 -0.242 -0.498 c -0.111 -0.209 -0.238 -0.41 -0.361 -0.614 c -0.089 -0.146 -0.171 -0.296 -0.267 -0.439 c -0.15 -0.225 -0.317 -0.441 -0.483 -0.658 c -0.087 -0.114 -0.165 -0.232 -0.256 -0.343 c -0.265 -0.324 -0.548 -0.639 -0.85 -0.941 l -8.159 -8.159 c -0.302 -0.302 -0.617 -0.584 -0.941 -0.85 c -0.111 -0.091 -0.228 -0.168 -0.342 -0.255 c -0.218 -0.166 -0.434 -0.334 -0.66 -0.484 c -0.143 -0.095 -0.291 -0.176 -0.437 -0.265 c -0.204 -0.124 -0.406 -0.251 -0.615 -0.362 c -0.163 -0.087 -0.331 -0.162 -0.497 -0.241 c -0.198 -0.095 -0.396 -0.192 -0.598 -0.276 c -0.18 -0.075 -0.364 -0.138 -0.547 -0.205 c -0.193 -0.07 -0.384 -0.141 -0.58 -0.202 c -0.196 -0.061 -0.394 -0.111 -0.592 -0.162 c -0.186 -0.048 -0.372 -0.096 -0.559 -0.136 c -0.21 -0.044 -0.42 -0.079 -0.631 -0.112 c -0.178 -0.028 -0.356 -0.056 -0.535 -0.077 c -0.222 -0.026 -0.444 -0.043 -0.667 -0.057 c -0.169 -0.011 -0.337 -0.02 -0.506 -0.024 C 16.695 0.001 16.599 0 16.503 0 L 16.503 0 z" style="stroke: none; stroke-width: 1; stroke-dasharray: none; stroke-linecap: butt; stroke-linejoin: miter; stroke-miterlimit: 10; fill: rgb(0,0,0); fill-rule: nonzero; opacity: 1;" transform=" matrix(1 0 0 1 0 0) " stroke-linecap="round" />
</g>
</g>
</svg>