<svg width="256" height="256" viewBox="0 0 256 256" fill="none" xmlns="http://www.w3.org/2000/svg">
<path d="M245.771 230.826C246.42 230.05 247.014 229.246 247.588 228.431C247.678 228.305 247.776 228.185 247.863 228.056C248.378 227.3 248.843 226.524 249.294 225.739C249.412 225.535 249.54 225.336 249.652 225.129C250.061 224.384 250.425 223.625 250.776 222.857C250.896 222.594 251.025 222.336 251.14 222.073C251.456 221.339 251.731 220.594 251.994 219.844C252.103 219.53 252.221 219.219 252.322 218.903C252.551 218.183 252.75 217.458 252.935 216.727C253.027 216.365 253.117 216.007 253.198 215.645C253.352 214.945 253.478 214.242 253.59 213.534C253.655 213.13 253.714 212.73 253.764 212.324C253.848 211.646 253.91 210.968 253.955 210.287C253.983 209.845 254.005 209.405 254.016 208.963C254.036 208.31 254.039 207.66 254.025 207.008C254.013 206.534 253.988 206.061 253.957 205.588C253.918 204.966 253.87 204.344 253.798 203.725C253.739 203.221 253.66 202.72 253.582 202.216C253.49 201.627 253.394 201.042 253.271 200.459C253.159 199.93 253.022 199.406 252.887 198.88C252.745 198.328 252.607 197.779 252.439 197.236C252.268 196.687 252.067 196.146 251.871 195.603C251.686 195.093 251.509 194.581 251.299 194.076C251.064 193.511 250.792 192.962 250.526 192.407C250.302 191.939 250.095 191.469 249.849 191.012C249.538 190.427 249.182 189.864 248.837 189.293C248.588 188.884 248.359 188.464 248.09 188.063C247.67 187.433 247.202 186.828 246.737 186.22C246.493 185.901 246.275 185.57 246.02 185.26C245.278 184.352 244.485 183.47 243.639 182.624L220.787 159.772C219.942 158.926 219.059 158.137 218.152 157.392C217.841 157.137 217.513 156.921 217.194 156.677C216.583 156.212 215.978 155.742 215.345 155.322C214.945 155.056 214.53 154.829 214.122 154.58C213.55 154.232 212.984 153.877 212.399 153.566C211.943 153.322 211.472 153.112 211.007 152.891C210.452 152.625 209.898 152.353 209.332 152.118C208.828 151.908 208.313 151.731 207.8 151.543C207.26 151.347 206.725 151.149 206.176 150.978C205.627 150.807 205.072 150.667 204.518 150.524C203.997 150.39 203.476 150.255 202.952 150.143C202.364 150.02 201.776 149.922 201.185 149.829C200.686 149.751 200.188 149.673 199.686 149.614C199.064 149.541 198.443 149.493 197.818 149.454C197.345 149.423 196.874 149.398 196.401 149.387C195.745 149.37 195.093 149.376 194.44 149.395C194.001 149.409 193.564 149.429 193.127 149.457C192.443 149.502 191.76 149.566 191.079 149.65C190.679 149.701 190.281 149.759 189.881 149.821C189.169 149.933 188.463 150.062 187.758 150.216C187.399 150.294 187.043 150.387 186.688 150.476C185.954 150.661 185.226 150.86 184.5 151.093C184.189 151.193 183.881 151.308 183.573 151.415C182.82 151.681 182.072 151.958 181.333 152.274C181.072 152.387 180.817 152.513 180.56 152.633C179.789 152.986 179.025 153.353 178.277 153.762C178.075 153.874 177.879 153.997 177.68 154.115C176.891 154.568 176.112 155.036 175.353 155.554C175.23 155.638 175.112 155.736 174.989 155.82C174.168 156.394 173.361 156.991 172.583 157.644C171.776 158.319 170.981 159.016 170.225 159.772L154.764 175.233C152.784 177.213 149.572 177.213 147.591 175.233L80.7615 108.406C78.7813 106.425 78.7813 103.213 80.7615 101.233L96.2219 85.7723C96.9781 85.0161 97.6783 84.2207 98.3533 83.414C99.0031 82.6382 99.5968 81.8344 100.171 81.0193C100.261 80.8933 100.359 80.7729 100.445 80.644C100.961 79.8878 101.426 79.112 101.877 78.3278C101.994 78.1233 102.123 77.9245 102.235 77.7172C102.644 76.9722 103.008 76.2132 103.358 75.4457C103.479 75.1825 103.608 74.9248 103.722 74.6615C104.039 73.9277 104.313 73.1827 104.577 72.4321C104.686 72.1184 104.804 71.8075 104.904 71.491C105.134 70.7712 105.333 70.0458 105.518 69.3148C105.61 68.9535 105.7 68.595 105.781 68.2337C105.935 67.5335 106.061 66.8305 106.173 66.1219C106.238 65.7186 106.296 65.3181 106.347 64.9119C106.431 64.2341 106.492 63.5563 106.537 62.8758C106.565 62.4332 106.588 61.9935 106.599 61.551C106.618 60.8984 106.621 60.2486 106.607 59.596C106.596 59.1227 106.571 58.6493 106.54 58.176C106.501 57.5542 106.453 56.9325 106.38 56.3135C106.322 55.8093 106.243 55.308 106.165 54.8038C106.072 54.2157 105.977 53.6303 105.854 53.0477C105.742 52.5184 105.605 51.9946 105.47 51.4681C105.327 50.9163 105.19 50.3674 105.022 49.824C104.851 49.2751 104.649 48.7345 104.453 48.1912C104.269 47.6814 104.092 47.1689 103.882 46.6647C103.647 46.099 103.375 45.55 103.109 44.9955C102.885 44.5277 102.678 44.0572 102.431 43.6007C102.12 43.0153 101.765 42.4523 101.42 41.881C101.171 41.472 100.941 41.0519 100.672 40.6514C100.252 40.0212 99.7845 39.4163 99.3195 38.8085C99.0759 38.4892 98.8574 38.1587 98.6026 37.8478C97.8603 36.9403 97.0677 36.0581 96.2219 35.2123L73.3701 12.3605C72.5243 11.5147 71.6421 10.7249 70.7346 9.97985C70.4237 9.72497 70.096 9.50931 69.7767 9.26564C69.1661 8.80071 68.5612 8.33018 67.9282 7.91006C67.5277 7.64398 67.1132 7.41712 66.7042 7.16784C66.1329 6.82054 65.5671 6.46484 64.9817 6.15395C64.5252 5.91028 64.0547 5.70022 63.5897 5.47896C63.0352 5.21289 62.4806 4.94121 61.9149 4.70594C61.4107 4.49588 60.8954 4.31943 60.3828 4.13178C59.8423 3.93572 59.3073 3.73686 58.7584 3.56601C58.2094 3.39517 57.6549 3.25513 57.1003 3.11229C56.5793 2.97785 56.0584 2.84341 55.5347 2.73138C54.9465 2.60814 54.3583 2.51011 53.7673 2.41769C53.2688 2.33926 52.7703 2.26084 52.2689 2.20203C51.6471 2.1292 51.0254 2.08159 50.4008 2.04238C49.9274 2.01157 49.4569 1.98636 48.9836 1.97516C48.3282 1.95836 47.6756 1.96396 47.023 1.98356C46.5833 1.99757 46.1464 2.01717 45.7094 2.04518C45.026 2.08999 44.3427 2.15441 43.6621 2.23844C43.2615 2.28885 42.8638 2.34767 42.4633 2.40928C41.7519 2.52132 41.0461 2.65015 40.3403 2.8042C39.9818 2.88262 39.6261 2.97505 39.2704 3.06467C38.5422 3.24952 37.814 3.44838 37.0886 3.68085C36.7777 3.78168 36.4696 3.89651 36.1615 4.00294C35.4081 4.26902 34.6603 4.54629 33.9209 4.86279C33.6604 4.97482 33.4055 5.10085 33.1479 5.22129C32.3776 5.57419 31.613 5.94109 30.8652 6.35001C30.6635 6.46204 30.4675 6.58528 30.2686 6.70291C29.4816 7.15384 28.7002 7.62157 27.9412 8.13972C27.8179 8.22375 27.7003 8.31897 27.5771 8.4058C26.7564 8.97996 25.9498 9.57933 25.1712 10.2291C24.3645 10.9041 23.5691 11.6015 22.8129 12.3577C-8.87254 42.5083 -11.7042 112.338 66.2701 189.73C143.662 267.704 213.491 264.872 243.639 233.187C244.398 232.428 245.096 231.635 245.771 230.826C245.771 230.829 245.771 230.829 245.771 230.826Z" fill="white"/>
<path d="M48.1854 2.66419C48.4486 2.66419 48.7119 2.66699 48.9752 2.67259C49.4401 2.68379 49.9022 2.709 50.3644 2.73981C50.9777 2.77902 51.5855 2.82664 52.1961 2.89666C52.6862 2.95267 53.1764 3.03109 53.6637 3.10672C54.2435 3.19914 54.8232 3.29437 55.3974 3.4148C55.8735 3.51563 56.3413 3.63607 56.9322 3.78731L57.0863 3.82652C57.5792 3.95256 58.0722 4.07859 58.5595 4.22984C59.0244 4.37268 59.4838 4.54073 59.9431 4.70877L60.1504 4.78439L60.4725 4.90483C60.8674 5.04767 61.2623 5.18771 61.6516 5.35016C62.1221 5.54621 62.5787 5.76748 63.0408 5.98874L63.2929 6.10917L63.6962 6.29963C64.0183 6.45087 64.3404 6.60211 64.6569 6.77016C65.1386 7.02784 65.6091 7.31632 66.0769 7.602L66.3457 7.76445L66.7799 8.02212C67.0375 8.17336 67.2952 8.32461 67.5445 8.49265C68.113 8.87076 68.6592 9.29088 69.2082 9.7082L69.3566 9.82303L69.7571 10.1171C69.9392 10.2488 70.1212 10.3776 70.2949 10.5204C71.2107 11.271 72.079 12.0553 72.8772 12.8535L95.7289 35.7052C96.5272 36.5035 97.3114 37.3717 98.062 38.2876C98.2076 38.464 98.3393 38.6489 98.4709 38.8309L98.765 39.2286L98.891 39.3939C99.3027 39.9344 99.7173 40.475 100.09 41.0351C100.258 41.29 100.412 41.5505 100.566 41.811L100.821 42.2395L100.989 42.514C101.275 42.9789 101.557 43.4438 101.815 43.9256C101.986 44.2449 102.137 44.567 102.288 44.8919L102.479 45.2924L102.602 45.5472C102.821 46.0038 103.042 46.4603 103.235 46.928C103.395 47.3117 103.535 47.7011 103.675 48.0904L103.795 48.4265L103.871 48.6365C104.039 49.0987 104.207 49.558 104.353 50.0257C104.501 50.5019 104.624 50.9836 104.748 51.4625L104.818 51.7342C104.944 52.2159 105.067 52.7005 105.17 53.1878C105.291 53.7592 105.383 54.3333 105.476 54.9103C105.554 55.4033 105.63 55.8962 105.689 56.3919C105.759 56.9997 105.806 57.6075 105.845 58.2181C105.876 58.683 105.901 59.1451 105.913 59.6101C105.929 60.2514 105.924 60.8872 105.904 61.5286C105.89 61.9627 105.871 62.3941 105.843 62.8282C105.798 63.4948 105.736 64.1614 105.655 64.8251C105.605 65.2229 105.546 65.6178 105.484 66.0127C105.375 66.7073 105.249 67.3963 105.1 68.0825C105.028 68.413 104.944 68.7407 104.843 69.144C104.663 69.861 104.467 70.5724 104.241 71.2754C104.168 71.4967 104.089 71.7179 104.011 71.9392L103.918 72.1969C103.661 72.9307 103.389 73.6617 103.081 74.3815C103.014 74.5411 102.938 74.698 102.863 74.8548L102.723 75.1517C102.378 75.9023 102.022 76.6473 101.622 77.3783C101.56 77.4876 101.496 77.5968 101.429 77.706L101.269 77.9777C100.731 78.9132 100.3 79.6134 99.8657 80.2492L99.7397 80.4228L99.5968 80.6161C98.947 81.5431 98.3813 82.2881 97.8155 82.9659C97.0341 83.9014 96.3703 84.638 95.7289 85.2794L80.2685 100.74C78.0195 102.989 78.0195 106.652 80.2685 108.901L147.098 175.728C148.188 176.818 149.639 177.42 151.179 177.42C152.72 177.42 154.17 176.821 155.26 175.728L170.72 160.268C171.37 159.618 172.082 158.974 173.034 158.179C173.712 157.61 174.462 157.044 175.392 156.392L175.58 156.254L175.748 156.131C176.389 155.694 177.092 155.26 178.03 154.72L178.291 154.566C178.397 154.501 178.507 154.437 178.616 154.375C179.35 153.972 180.097 153.613 180.854 153.269L181.145 153.132C181.299 153.059 181.456 152.986 181.613 152.916C182.335 152.605 183.069 152.333 183.808 152.073L184.072 151.98C184.287 151.905 184.5 151.826 184.719 151.756C185.427 151.53 186.142 151.333 186.943 151.132C187.265 151.051 187.587 150.969 187.912 150.897C188.603 150.745 189.295 150.619 189.993 150.51C190.385 150.448 190.774 150.39 191.166 150.342C191.836 150.261 192.502 150.196 193.174 150.154C193.603 150.126 194.031 150.107 194.463 150.093C194.841 150.082 195.219 150.076 195.6 150.076C195.863 150.076 196.124 150.079 196.387 150.084C196.852 150.096 197.314 150.121 197.776 150.152C198.389 150.191 198.997 150.238 199.608 150.308C200.098 150.364 200.588 150.443 201.075 150.518C201.655 150.611 202.235 150.706 202.809 150.827C203.285 150.927 203.753 151.048 204.344 151.199L204.498 151.238C204.991 151.364 205.484 151.49 205.971 151.642C206.436 151.787 206.895 151.952 207.358 152.12L207.565 152.196L207.887 152.314C208.282 152.457 208.677 152.597 209.066 152.759C209.537 152.955 209.996 153.176 210.455 153.398L210.707 153.518L211.111 153.709C211.433 153.86 211.755 154.011 212.071 154.179C212.553 154.437 213.024 154.725 213.491 155.011L213.76 155.173L214.194 155.431C214.452 155.582 214.71 155.734 214.959 155.902C215.528 156.28 216.074 156.7 216.623 157.117L216.771 157.232L217.172 157.526C217.354 157.658 217.536 157.787 217.709 157.932C218.625 158.683 219.493 159.467 220.292 160.265L243.143 183.117C243.942 183.915 244.726 184.783 245.476 185.699C245.622 185.876 245.754 186.061 245.885 186.243L246.179 186.64L246.306 186.806C246.717 187.346 247.132 187.887 247.504 188.447C247.672 188.702 247.826 188.962 247.98 189.223L248.235 189.651L248.403 189.926C248.689 190.391 248.972 190.858 249.23 191.337C249.4 191.657 249.552 191.979 249.703 192.304L249.893 192.704L250.017 192.962C250.235 193.418 250.456 193.875 250.65 194.34C250.809 194.723 250.949 195.113 251.089 195.502L251.21 195.835L251.285 196.043C251.453 196.505 251.621 196.967 251.767 197.435C251.916 197.911 252.039 198.393 252.162 198.871L252.232 199.143C252.358 199.625 252.481 200.109 252.585 200.597C252.705 201.168 252.798 201.742 252.89 202.319C252.969 202.812 253.044 203.305 253.103 203.801C253.173 204.409 253.221 205.016 253.26 205.627C253.291 206.092 253.316 206.554 253.327 207.019C253.344 207.66 253.338 208.296 253.319 208.938C253.305 209.372 253.285 209.803 253.257 210.237C253.212 210.904 253.151 211.57 253.069 212.234C253.019 212.632 252.96 213.027 252.899 213.422C252.789 214.116 252.663 214.805 252.515 215.491C252.442 215.825 252.358 216.152 252.257 216.553C252.078 217.27 251.882 217.981 251.655 218.684C251.585 218.906 251.504 219.127 251.425 219.345L251.333 219.606C251.075 220.34 250.804 221.071 250.496 221.79C250.425 221.95 250.353 222.107 250.277 222.264L250.14 222.561C249.795 223.311 249.44 224.056 249.039 224.787C248.977 224.899 248.913 225.006 248.846 225.115L248.686 225.384C248.148 226.319 247.717 227.019 247.283 227.655L247.157 227.829L247.014 228.022C246.364 228.949 245.799 229.697 245.233 230.372C244.449 231.308 243.788 232.044 243.132 232.697C230.473 246 211.592 253.33 189.97 253.33C151.546 253.33 107.792 230.565 66.7603 189.228C25.0227 147.804 2.26063 103.689 2.66955 65.0128C2.89361 43.8303 10.2177 25.3115 23.3086 12.8563C23.9584 12.2065 24.6698 11.5651 25.6221 10.7669C26.2999 10.1983 27.0505 9.63258 27.9804 8.97999L28.168 8.84275L28.3361 8.71952C28.9775 8.28259 29.6805 7.84847 30.6187 7.30792L30.8792 7.15387C30.9856 7.08945 31.0949 7.02503 31.2041 6.96342C31.9379 6.5629 32.6857 6.2016 33.4419 5.8571L33.7332 5.71986C33.8873 5.64704 34.0441 5.57422 34.201 5.5042C34.9236 5.19331 35.6574 4.92163 36.3968 4.66116L36.6601 4.56873C36.8757 4.49311 37.0886 4.41469 37.307 4.34467C38.0156 4.1178 38.7298 3.92175 39.5281 3.72009C39.853 3.63887 40.1751 3.55484 40.5 3.48482C41.1918 3.33358 41.8835 3.20754 42.5809 3.09831C42.9731 3.0367 43.3624 2.97788 43.7545 2.93027C44.4239 2.84904 45.0905 2.78462 45.7627 2.74261C46.1912 2.7146 46.6197 2.695 47.051 2.68099C47.4291 2.66979 47.8072 2.66419 48.1854 2.66419ZM48.1854 1.96399C47.7988 1.96399 47.4151 1.96959 47.0286 1.98079C46.5889 1.9948 46.152 2.0144 45.715 2.04241C45.0316 2.08722 44.3483 2.15164 43.6677 2.23567C43.2671 2.28608 42.8694 2.3449 42.4689 2.40652C41.7575 2.51855 41.0517 2.64738 40.3459 2.80143C39.9874 2.87985 39.6317 2.97228 39.276 3.0619C38.5422 3.24956 37.814 3.44841 37.0886 3.68088C36.7777 3.78171 36.4696 3.89654 36.1615 4.00297C35.4081 4.26905 34.6603 4.54633 33.9209 4.86282C33.6604 4.97485 33.4055 5.10089 33.1479 5.22132C32.3776 5.57422 31.613 5.94113 30.8652 6.35004C30.6635 6.46207 30.4675 6.58531 30.2686 6.70294C29.4816 7.15387 28.7002 7.62161 27.9412 8.13975C27.8179 8.22378 27.7003 8.319 27.5771 8.40583C26.7564 8.97999 25.9498 9.57936 25.1712 10.2292C24.3645 10.9041 23.5691 11.6015 22.8129 12.3578C-8.87254 42.5084 -11.7042 112.338 66.2701 189.73C112.475 236.285 155.991 254.036 189.973 254.036C212.906 254.036 231.492 245.953 243.642 233.187C244.398 232.431 245.098 231.635 245.773 230.829C246.423 230.053 247.017 229.249 247.591 228.434C247.681 228.308 247.779 228.187 247.866 228.059C248.381 227.302 248.846 226.527 249.297 225.742C249.414 225.538 249.543 225.339 249.655 225.132C250.064 224.387 250.428 223.628 250.778 222.86C250.899 222.597 251.028 222.339 251.143 222.076C251.459 221.342 251.733 220.597 251.997 219.847C252.106 219.533 252.224 219.222 252.324 218.906C252.554 218.186 252.753 217.46 252.938 216.729C253.03 216.368 253.12 216.01 253.201 215.648C253.355 214.948 253.481 214.245 253.593 213.536C253.658 213.133 253.716 212.733 253.767 212.326C253.851 211.649 253.912 210.971 253.957 210.29C253.985 209.848 254.008 209.408 254.019 208.966C254.039 208.313 254.041 207.663 254.027 207.011C254.016 206.537 253.991 206.064 253.96 205.591C253.921 204.969 253.873 204.347 253.8 203.728C253.742 203.224 253.663 202.723 253.585 202.218C253.492 201.63 253.397 201.045 253.274 200.462C253.162 199.933 253.025 199.409 252.89 198.883C252.747 198.331 252.61 197.782 252.442 197.239C252.271 196.69 252.07 196.149 251.873 195.606C251.689 195.096 251.512 194.583 251.302 194.079C251.067 193.514 250.795 192.965 250.529 192.41C250.305 191.942 250.098 191.472 249.851 191.015C249.54 190.43 249.185 189.867 248.84 189.296C248.591 188.887 248.361 188.466 248.092 188.066C247.672 187.436 247.205 186.831 246.74 186.223C246.496 185.904 246.278 185.573 246.023 185.262C245.28 184.355 244.488 183.473 243.642 182.627L220.79 159.775C219.944 158.929 219.062 158.139 218.155 157.394C217.844 157.14 217.516 156.924 217.2 156.68C216.589 156.215 215.984 155.745 215.351 155.325C214.951 155.059 214.536 154.832 214.127 154.582C213.556 154.235 212.99 153.879 212.405 153.569C211.948 153.325 211.478 153.115 211.013 152.894C210.458 152.627 209.904 152.356 209.338 152.12C208.834 151.91 208.318 151.734 207.806 151.546C207.265 151.35 206.73 151.151 206.181 150.981C205.632 150.81 205.078 150.67 204.523 150.527C204.002 150.392 203.481 150.258 202.958 150.146C202.369 150.023 201.781 149.925 201.19 149.832C200.692 149.754 200.193 149.675 199.692 149.617C199.07 149.544 198.448 149.496 197.824 149.457C197.35 149.426 196.88 149.401 196.406 149.39C196.138 149.384 195.869 149.381 195.603 149.381C195.216 149.381 194.832 149.387 194.446 149.398C194.006 149.412 193.569 149.432 193.132 149.46C192.449 149.505 191.766 149.569 191.085 149.653C190.684 149.703 190.287 149.762 189.886 149.824C189.175 149.936 188.469 150.065 187.763 150.219C187.405 150.297 187.049 150.39 186.693 150.479C185.959 150.664 185.231 150.863 184.506 151.095C184.195 151.196 183.887 151.311 183.579 151.417C182.825 151.684 182.078 151.961 181.338 152.277C181.078 152.389 180.823 152.515 180.565 152.636C179.795 152.989 179.03 153.356 178.282 153.765C178.081 153.877 177.885 154 177.686 154.117C176.896 154.571 176.117 155.039 175.358 155.557C175.235 155.641 175.118 155.739 174.994 155.823C174.174 156.397 173.367 156.994 172.588 157.646C171.782 158.321 170.986 159.019 170.23 159.775L154.77 175.235C153.778 176.227 152.482 176.72 151.185 176.72C149.888 176.72 148.588 176.224 147.6 175.235L80.7699 108.408C78.7897 106.428 78.7897 103.216 80.7699 101.236L96.2303 85.7751C96.9865 85.0189 97.6867 84.2235 98.3589 83.4169C99.0087 82.641 99.6024 81.8372 100.177 81.0222C100.266 80.8961 100.364 80.7757 100.451 80.6469C100.966 79.8907 101.431 79.1148 101.882 78.3306C102 78.1261 102.129 77.9273 102.241 77.72C102.65 76.975 103.014 76.216 103.364 75.4486C103.484 75.1853 103.613 74.9276 103.728 74.6644C104.045 73.9305 104.319 73.1855 104.582 72.4349C104.691 72.1212 104.809 71.8103 104.91 71.4939C105.14 70.774 105.338 70.0486 105.523 69.3176C105.616 68.9563 105.705 68.5978 105.787 68.2365C105.941 67.5363 106.067 66.8333 106.179 66.1247C106.243 65.7214 106.302 65.3209 106.352 64.9148C106.436 64.237 106.498 63.5592 106.543 62.8786C106.571 62.4361 106.593 61.9963 106.604 61.5538C106.624 60.9012 106.627 60.2514 106.613 59.5989C106.602 59.1255 106.576 58.6522 106.546 58.1788C106.506 57.5571 106.459 56.9353 106.386 56.3163C106.327 55.8122 106.249 55.3108 106.17 54.8067C106.078 54.2185 105.983 53.6331 105.859 53.0506C105.747 52.5212 105.61 51.9975 105.476 51.4709C105.333 50.9192 105.196 50.3702 105.028 49.8269C104.857 49.2779 104.655 48.7374 104.459 48.194C104.274 47.6843 104.098 47.1717 103.888 46.6676C103.652 46.1018 103.381 45.5528 103.115 44.9983C102.891 44.5305 102.683 44.06 102.437 43.6035C102.126 43.0181 101.77 42.4552 101.426 41.8838C101.176 41.4749 100.947 41.0548 100.678 40.6542C100.258 40.0241 99.7901 39.4191 99.3252 38.8113C99.0815 38.492 98.863 38.1615 98.6082 37.8506C97.8659 36.9432 97.0733 36.0609 96.2275 35.2151L73.3757 12.3634C72.5299 11.5175 71.6476 10.7277 70.7402 9.98268C70.4293 9.72781 70.1016 9.51215 69.7823 9.26848C69.1717 8.80354 68.5668 8.33301 67.9338 7.91289C67.5333 7.64681 67.1188 7.41995 66.7098 7.17068C66.1385 6.82338 65.5727 6.46768 64.9874 6.15679C64.5308 5.91312 64.0603 5.70306 63.5953 5.48179C63.0408 5.21572 62.4862 4.94404 61.9205 4.70877C61.4163 4.49871 60.901 4.32226 60.3884 4.13461C59.8479 3.93855 59.3129 3.7397 58.764 3.56885C58.215 3.398 57.6605 3.25796 57.1059 3.11512C56.5849 2.98068 56.064 2.84624 55.5402 2.73421C54.9521 2.61097 54.3639 2.51295 53.7729 2.42052C53.2744 2.3421 52.7759 2.26367 52.2745 2.20486C51.6527 2.13204 51.031 2.08442 50.4064 2.04521C49.933 2.0144 49.4625 1.9892 48.9892 1.97799C48.7231 1.96679 48.4542 1.96399 48.1854 1.96399Z" fill="white"/>
</svg>
