<svg width="251" height="263" viewBox="0 0 251 263" fill="none" xmlns="http://www.w3.org/2000/svg">
<mask id="mask0_506_430" style="mask-type:alpha" maskUnits="userSpaceOnUse" x="0" y="0" width="251" height="263">
<rect width="251" height="263" fill="#C4C4C4"/>
</mask>
<g mask="url(#mask0_506_430)">
<path fill-rule="evenodd" clip-rule="evenodd" d="M130.135 0.240916C130.135 0.240916 126.115 -0.0404242 119.499 0.0049532H119.481C99.6781 0.150161 57.1322 3.03616 33.4543 24.4452C15.866 41.8883 9.95784 67.6445 9.24995 99.1274C9.22863 100.215 9.20399 101.337 9.17866 102.49C8.47068 134.721 7.225 191.432 62.995 206.853L62.7136 255.489C62.6229 258.139 63.0948 260.072 64.6558 260.453C65.7448 260.689 67.451 260.217 68.9122 258.611C78.1329 249.445 107.628 213.851 107.628 213.851C147.234 216.401 178.671 208.65 182.074 207.561C182.865 207.309 184.001 207.045 185.412 206.717C198.265 203.73 233.985 195.427 240.502 142.191C248.117 81.2578 237.716 39.8009 217.532 22.5031C211.343 16.9307 185.106 0.386124 130.135 0.240916ZM120.216 35.0726C120.216 33.0851 121.868 31.4334 123.855 31.4787V31.4697C145.264 31.4697 163.47 38.7028 177.836 52.7426C192.729 68.1528 200.67 88.9538 199.772 110.363C199.772 112.35 198.12 113.957 196.132 113.957V114.102C194.099 114.102 192.493 112.45 192.493 110.463C192.248 87.9645 185.823 70.7574 172.636 57.9519C159.594 45.2825 142.051 38.3852 123.855 38.7119C121.868 38.7119 120.216 37.1055 120.216 35.0726ZM68.5945 41.2621C70.818 39.9461 73.4681 39.4198 76.0183 39.8009L76.0001 39.7828C78.4142 40.2547 80.5832 41.5344 82.0988 43.4221C89.1414 51.4629 95.3763 60.1573 100.722 69.4233C104.216 75.6219 101.947 81.9021 98.6888 84.5522L91.8822 90.0338C88.3882 92.6838 88.8601 97.884 88.8601 97.884C88.8601 97.884 98.9339 136.119 136.697 145.766L136.842 145.676C136.842 145.676 141.906 146.147 144.692 142.744L150.129 135.892C152.679 132.489 158.968 130.456 165.158 133.814C174.378 139.196 183.127 145.44 191.159 152.482C195.179 155.84 196.123 160.804 193.337 166.05V166.141C190.542 171.105 186.812 175.779 182.083 180.035C178.399 183.393 173.716 185.372 168.752 185.753C167.191 185.753 165.639 185.517 163.932 185V184.909C158.115 183.203 148.422 179.091 132.45 170.397C118.455 162.647 105.55 153.199 93.9696 142.181L93.5884 141.855L93.2617 141.474L92.7444 141.092L92.4177 140.62C81.4454 129.086 71.9978 116.18 64.3381 102.24C58.3846 92.3117 53.5111 81.766 49.7811 70.8028L49.5451 70.6576C48.8826 68.5339 48.692 66.3104 48.9733 64.0869C49.4453 60.3569 51.2422 56.4817 54.5548 52.6518C58.9019 47.7874 63.485 44.1481 68.4039 41.2621H68.5945ZM130.181 57.8612C125.316 57.8612 125.316 50.5826 130.135 50.5826H130.653C146.399 51.6626 158.732 57.0988 167.572 66.7914C176.366 76.4841 180.849 88.5817 180.522 103.003C180.522 104.99 178.871 106.642 176.883 106.642L176.738 106.451C174.75 106.451 173.144 104.845 173.099 102.857C173.852 91.4677 169.886 80.2141 162.226 71.7557C153.813 63.0614 142.278 58.0517 130.181 57.8612ZM135.862 77.5731C130.943 77.4279 131.134 70.0042 136.098 70.1494V70.1584H136.243C151.935 71.0025 160.774 80.1324 161.627 96.3412C161.772 98.3741 160.166 100.126 158.133 100.216H157.988C156.046 100.216 154.44 98.6555 154.394 96.6679C153.632 84.2345 147.823 78.1902 135.862 77.5731Z" fill="black"/>
</g>
</svg>
