<svg width="263" height="263" viewBox="0 0 263 263" fill="none" xmlns="http://www.w3.org/2000/svg">
<path d="M124.909 0.0413212C103.803 0.296103 58.4277 3.76442 33.0482 27.0481C14.1698 45.754 7.57832 73.4101 6.80576 107.608C6.1647 141.683 5.39214 205.675 67.0739 223.098V249.637C67.0739 249.637 66.6876 260.255 73.7064 262.433C82.3525 265.17 87.2756 257.001 95.4943 248.223L110.822 230.89C153.026 234.399 185.35 226.312 189.073 225.112C197.637 222.375 245.873 216.211 253.755 152.212C261.842 86.1163 249.818 44.4719 228.112 25.6345H227.981C221.43 19.602 195.106 0.419384 136.292 0.205696C136.292 0.205696 131.928 -0.0901788 124.909 0.0331025V0.0413212ZM125.632 18.6239C131.624 18.5828 135.265 18.8376 135.265 18.8376C185.046 18.9691 208.806 33.9519 214.411 38.9982C232.69 54.6631 242.109 92.2064 235.213 147.387C228.663 200.891 189.541 204.277 182.301 206.587C179.219 207.573 150.749 214.592 114.882 212.282C114.882 212.282 88.1714 244.516 79.8211 252.817C78.4979 254.272 76.9528 254.699 75.9666 254.486C74.5529 254.14 74.1256 252.39 74.2077 249.99L74.4625 205.946C22.1502 191.481 25.2322 136.9 25.7911 108.389C26.4321 79.8783 31.7825 56.5535 47.7105 40.757C69.1532 21.369 107.683 18.7554 125.616 18.6239H125.632ZM129.577 47.1266C127.778 47.0855 126.282 48.5813 126.282 50.3812C126.282 52.2222 127.778 53.6769 129.577 53.6769C146.056 53.381 161.943 59.6273 173.753 71.1007C185.695 82.6973 191.514 98.2801 191.736 118.654C191.736 120.454 193.191 121.95 195.032 121.95V121.819C196.831 121.819 198.327 120.364 198.327 118.564C199.141 99.1759 191.95 80.3385 178.463 66.3831C165.452 53.6687 148.965 47.1183 129.577 47.1183V47.1266ZM86.2564 54.6631C83.947 54.318 81.5471 54.7946 79.5335 55.9864H79.3609C74.9063 58.5999 70.7559 61.8957 66.8191 66.3009C63.8192 69.7692 62.1919 73.2786 61.7645 76.6565C61.5098 78.6701 61.6824 80.6837 62.2823 82.6069L62.496 82.7384C65.8739 92.6667 70.2874 102.217 75.6789 111.208C82.6155 123.832 91.1712 135.519 101.108 145.965L101.404 146.393L101.872 146.738L102.168 147.083L102.513 147.379C113 157.356 124.687 165.912 137.361 172.931C151.826 180.805 160.603 184.528 165.871 186.073V186.155C167.417 186.623 168.822 186.837 170.236 186.837C174.731 186.492 178.972 184.7 182.309 181.659C186.591 177.805 189.969 173.572 192.5 169.076V168.994C195.023 164.244 194.169 159.748 190.528 156.707C183.254 150.329 175.331 144.675 166.981 139.801C161.376 136.76 155.68 138.601 153.371 141.683L148.448 147.888C145.925 150.97 141.338 150.543 141.338 150.543L141.207 150.625C107.009 141.889 97.886 107.263 97.886 107.263C97.886 107.263 97.4586 102.554 100.623 100.154L106.787 95.1898C109.737 92.7899 111.792 87.1026 108.628 81.4892C103.787 73.0978 98.1407 65.2242 91.763 57.9424C90.3905 56.2329 88.4262 55.0741 86.24 54.6467L86.2564 54.6631ZM135.265 64.427C130.901 64.427 130.901 71.0185 135.306 71.0185C146.262 71.1911 156.708 75.7278 164.326 83.6014C171.263 91.2613 174.855 101.453 174.172 111.767C174.213 113.567 175.668 115.022 177.468 115.022L177.6 115.194C179.4 115.194 180.895 113.698 180.895 111.899C181.191 98.8389 177.131 87.8833 169.167 79.1057C161.162 70.3281 149.993 65.4051 135.733 64.427C135.561 64.427 135.437 64.427 135.265 64.427V64.427ZM140.665 82.1467C136.169 82.0152 135.996 88.7381 140.451 88.8696C151.283 89.4285 156.543 94.9022 157.234 106.162C157.275 107.962 158.729 109.375 160.488 109.375H160.62C162.461 109.293 163.915 107.707 163.784 105.866C163.011 91.1873 155.006 82.9192 140.796 82.1549C140.755 82.1549 140.714 82.1549 140.665 82.1549V82.1467Z" fill="white"/>
<mask id="mask0_629_161" style="mask-type:alpha" maskUnits="userSpaceOnUse" x="17" y="18" width="228" height="239">
<rect x="17.4141" y="18.6194" width="227.305" height="238.173" fill="#AD1E1E"/>
</mask>
<g mask="url(#mask0_629_161)">
<path fill-rule="evenodd" clip-rule="evenodd" d="M135.265 18.8376C135.265 18.8376 131.624 18.5828 125.632 18.6239H125.616C107.682 18.7554 69.1529 21.3689 47.7102 40.757C31.7823 56.5534 26.4319 79.8782 25.7908 108.389C25.7715 109.374 25.7492 110.39 25.7262 111.434C25.0851 140.623 23.957 191.98 74.4623 205.946L74.2075 249.99C74.1253 252.39 74.5527 254.14 75.9663 254.486C76.9525 254.699 78.4977 254.272 79.8209 252.817C88.1711 244.516 114.882 212.282 114.882 212.282C150.749 214.592 179.218 207.573 182.3 206.587C183.017 206.358 184.045 206.119 185.323 205.822C196.963 203.117 229.31 195.598 235.213 147.387C242.108 92.2064 232.69 54.6631 214.411 38.9982C208.806 33.9518 185.046 18.9691 135.265 18.8376ZM126.281 50.3811C126.281 48.5812 127.777 47.0854 129.577 47.1265V47.1183C148.965 47.1183 165.452 53.6686 178.462 66.383C191.949 80.3385 199.141 99.1759 198.327 118.564C198.327 120.364 196.831 121.819 195.031 121.819V121.95C193.19 121.95 191.736 120.454 191.736 118.654C191.514 98.28 185.695 82.6973 173.753 71.1006C161.943 59.6272 146.056 53.381 129.577 53.6768C127.777 53.6768 126.281 52.2221 126.281 50.3811ZM79.5332 55.9863C81.5468 54.7946 83.9467 54.3179 86.2562 54.6631L86.2397 54.6467C88.4259 55.074 90.3902 56.2329 91.7627 57.9424C98.1405 65.2242 103.787 73.0978 108.628 81.4891C111.792 87.1025 109.737 92.7899 106.787 95.1898L100.623 100.154C97.4583 102.554 97.8857 107.263 97.8857 107.263C97.8857 107.263 107.008 141.889 141.207 150.625L141.338 150.543C141.338 150.543 145.924 150.97 148.447 147.888L153.37 141.683C155.68 138.601 161.376 136.76 166.981 139.801C175.331 144.675 183.254 150.329 190.527 156.707C194.168 159.748 195.023 164.244 192.5 168.994V169.076C189.969 173.572 186.591 177.805 182.309 181.659C178.972 184.7 174.731 186.492 170.235 186.837C168.822 186.837 167.416 186.623 165.871 186.155V186.073C160.603 184.528 151.825 180.805 137.36 172.931C124.687 165.912 113 157.356 102.513 147.379L102.168 147.083L101.872 146.738L101.403 146.393L101.107 145.965C91.171 135.519 82.6153 123.832 75.6786 111.208C70.2871 102.217 65.8737 92.6666 62.4957 82.7384L62.2821 82.6069C61.6821 80.6837 61.5095 78.6701 61.7643 76.6565C62.1917 73.2786 63.819 69.7692 66.8188 66.3009C70.7556 61.8956 74.9061 58.5999 79.3606 55.9863H79.5332ZM135.306 71.0184C130.9 71.0184 130.9 64.427 135.265 64.427H135.733C149.993 65.405 161.162 70.328 169.167 79.1057C177.131 87.8833 181.191 98.8389 180.895 111.898C180.895 113.698 179.399 115.194 177.599 115.194L177.468 115.022C175.668 115.022 174.213 113.567 174.172 111.767C174.854 101.452 171.263 91.2612 164.326 83.6013C156.707 75.7278 146.261 71.191 135.306 71.0184ZM140.451 88.8695C135.996 88.738 136.169 82.0151 140.664 82.1466V82.1548H140.796C155.006 82.9192 163.011 91.1872 163.784 105.866C163.915 107.707 162.46 109.293 160.619 109.375H160.488C158.729 109.375 157.274 107.962 157.233 106.162C156.543 94.9021 151.283 89.4284 140.451 88.8695Z" fill="url(#paint0_radial_629_161)"/>
</g>
<defs>
<radialGradient id="paint0_radial_629_161" cx="0" cy="0" r="1" gradientUnits="userSpaceOnUse" gradientTransform="translate(217.082 4.30639) rotate(118.47) scale(303.182 287.145)">
<stop stop-color="#8F4BC8"/>
<stop offset="1" stop-color="#65358B"/>
</radialGradient>
</defs>
</svg>
