<svg width="256" height="256" viewBox="0 0 256 256" fill="none" xmlns="http://www.w3.org/2000/svg">
<rect x="43" y="61" width="160" height="133" fill="white"/>
<path fill-rule="evenodd" clip-rule="evenodd" d="M216.884 38.5958C193.301 14.985 161.938 1.97812 128.524 1.96411C59.6747 1.96411 3.64191 57.9941 3.61391 126.863C3.6055 148.877 9.35554 170.365 20.2871 189.31L2.56641 254.036L68.7829 236.666C87.0273 246.617 107.568 251.863 128.474 251.868H128.524C128.521 251.868 128.527 251.868 128.524 251.868C197.365 251.868 253.403 195.833 253.431 126.961C253.445 93.5867 240.466 62.2065 216.884 38.5958ZM77.7987 131.409C76.2387 129.325 65.0551 114.486 65.0551 99.1239C65.0551 83.7615 73.1186 76.2105 75.9782 73.0876C78.8378 69.9647 82.2212 69.1833 84.3022 69.1833C86.3831 69.1833 88.4669 69.2029 90.2847 69.2925C92.2004 69.3906 94.7743 68.5643 97.3063 74.6505C99.9082 80.8991 106.148 96.2643 106.93 97.8243C107.711 99.3871 108.229 101.208 107.19 103.291C106.151 105.372 105.63 106.675 104.07 108.498C102.51 110.321 100.793 112.568 99.3873 113.965C97.8244 115.523 96.1971 117.211 98.0177 120.334C99.8382 123.46 106.101 133.68 115.38 141.957C127.3 152.591 137.358 155.885 140.478 157.448C143.598 159.011 145.418 158.75 147.239 156.666C149.059 154.583 155.042 147.553 157.123 144.43C159.204 141.307 161.285 141.828 164.145 142.867C167.007 143.909 182.35 151.46 185.47 153.02C188.59 154.582 190.671 155.364 191.452 156.666C192.234 157.969 192.234 164.217 189.632 171.508C187.03 178.798 174.561 185.453 168.564 186.346C163.187 187.15 156.384 187.486 148.905 185.108C144.374 183.672 138.559 181.75 131.112 178.535C99.8074 165.015 79.3615 133.492 77.7987 131.409Z" fill="url(#paint0_radial_629_146)"/>
<path fill-rule="evenodd" clip-rule="evenodd" d="M128.524 1.96411C161.938 1.97812 193.301 14.985 216.884 38.5958C240.466 62.2065 253.445 93.5867 253.431 126.961C253.403 195.833 197.365 251.868 128.524 251.868H128.474C107.568 251.863 87.0273 246.617 68.7829 236.666L2.56641 254.036L20.2871 189.31C9.35554 170.365 3.6055 148.877 3.61391 126.863C3.64191 57.9941 59.6747 1.96411 128.524 1.96411ZM128.44 22.0002C156.542 22.012 182.92 32.9512 202.753 52.8085C222.587 72.6658 233.503 99.0574 233.491 127.126C233.467 185.049 186.337 232.177 128.44 232.177H128.398C110.816 232.172 93.5404 227.76 78.1963 219.391L22.5063 234L37.4099 179.563C28.2162 163.63 23.3803 145.558 23.3873 127.044C23.4109 69.1231 70.5361 22.0002 128.44 22.0002Z" fill="white"/>
<defs>
<radialGradient id="paint0_radial_629_146" cx="0" cy="0" r="1" gradientUnits="userSpaceOnUse" gradientTransform="translate(161 56.5) rotate(99.4845) scale(200.274 199.315)">
<stop stop-color="#5ED169"/>
<stop offset="1" stop-color="#2EB843"/>
</radialGradient>
</defs>
</svg>
